<svg width="840" height="848" viewBox="0 0 840 848" fill="none" xmlns="http://www.w3.org/2000/svg">
<path d="M718.105 694.527V800.558H824.136V694.527H718.105ZM726.173 792.544V702.541H816.149V792.544H726.173Z" fill="#BB0163"/>
<path d="M766.752 509.225H456.539V819.437H766.752V509.225Z" fill="white"/>
<path d="M516.321 819.435H688.906C689.632 812.847 663.198 672.611 632.166 627.515C628.644 622.406 598.445 618.668 587.366 631.388C528.69 698.803 514.922 817.822 516.321 819.435Z" fill="#0D0D2B"/>
<path d="M636.247 639.161C641.141 651.853 659.615 696.331 669.672 728.277C676.395 749.79 678.976 767.672 680.428 772.405C680.428 772.405 629.336 756.055 617.988 756.028C600.321 756.028 571.978 792.869 578.915 797.494C589.86 804.781 641.948 829.494 683.575 837.266C706.19 841.487 748.785 812.741 745.424 789.884C740.718 757.803 682.741 673.258 660.691 649.272C649.262 636.821 630.25 623.699 636.247 639.161Z" fill="#EB9481"/>
<path d="M748.574 796.661C747.498 819.76 718.591 839.229 701.838 840.251C672.93 841.999 586.207 816.748 586.207 816.748L619.901 751.78C619.901 751.78 679.061 771.813 680.432 772.378C679.922 770.657 665.374 715.907 658.92 697.917C658.57 696.923 658.167 695.901 657.79 694.825C655.908 689.796 653.354 683.181 650.503 676.001C648.943 672.022 647.276 667.934 645.636 663.793C638.51 646.099 631.572 629.238 631.572 629.238C641.495 630.879 651.31 636.096 667.417 653.01C683.525 669.924 750.322 758.556 748.574 796.661Z" fill="#0D0D2B"/>
<path d="M608.738 802.687C611.158 798.088 613.605 793.517 615.998 788.919C618.391 784.32 620.785 779.937 623.205 775.473C625.815 770.899 628.193 766.196 630.331 761.382C627.373 765.464 624.678 769.731 622.264 774.156C619.682 778.637 617.155 783.173 614.681 787.762C612.207 792.352 609.831 796.834 607.554 801.208C605.053 805.855 602.879 810.671 601.047 815.621C601.047 815.836 601.235 816.025 601.37 815.836C604.065 811.592 606.524 807.202 608.738 802.687Z" fill="#37474F"/>
<path d="M698.474 781.979L680.457 772.406C679.946 770.685 665.398 715.935 658.944 697.945C658.595 696.95 658.191 695.929 657.815 694.853C655.932 689.824 653.378 683.209 650.527 676.029L698.474 781.979Z" fill="#37474F"/>
<path d="M713.371 789.914C708.321 786.193 703.04 782.798 697.559 779.749C694.87 778.216 692.181 776.791 689.223 775.527C686.265 774.263 682.984 773.188 679.972 771.816C679.73 771.816 679.569 772.085 679.811 772.166C682.5 773.457 685.189 775.232 688.013 776.711C690.836 778.19 693.66 779.749 696.51 781.228C702.131 784.106 707.643 787.171 713.236 790.129C713.371 790.21 713.613 789.995 713.371 789.914Z" fill="#37474F"/>
<path d="M700.171 775.901C695.626 775.901 668.332 768.668 664.352 772.432C640.15 795.263 632.46 790.664 627.297 793.649C587.364 816.614 534.012 843.612 514.973 843.774C486.12 844.016 474.637 819.787 479.424 796.903C488.916 751.646 549.932 663.417 577.549 639.968C592.204 627.545 590.994 646.288 584.97 666.617C581.421 678.557 575.209 696.197 568.836 713.703C563.216 729.219 548.345 768.856 548.076 769.797C548.076 769.797 548.076 769.797 548.372 769.797C549.663 769.555 583.814 753.474 618.154 744.627C630.254 741.508 655.451 737.071 664.486 741.105C669.865 743.498 669.865 746.725 669.865 746.725C673.133 746.702 676.294 747.89 678.739 750.059C680.593 751.643 681.955 753.723 682.665 756.056C685.344 756.437 687.847 757.618 689.844 759.444C691.566 761.297 692.674 763.635 693.018 766.14C699.606 768.049 700.171 775.901 700.171 775.901Z" fill="#F7A9A0"/>
<path d="M659.832 746.08C656.22 746.187 652.622 746.592 649.076 747.29C648.834 747.29 648.834 747.693 649.076 747.666C652.572 747.29 656.148 747.209 659.671 747.102C663.194 746.994 666.743 746.913 670.266 746.967C666.823 746.351 663.33 746.054 659.832 746.08Z" fill="#263238"/>
<path d="M682.772 756.028C676.621 754.062 670.109 753.483 663.707 754.334C663.666 754.35 663.63 754.377 663.605 754.413C663.58 754.449 663.566 754.492 663.566 754.536C663.566 754.58 663.58 754.623 663.605 754.659C663.63 754.695 663.666 754.722 663.707 754.738C670.097 754.393 676.505 754.872 682.772 756.163C682.772 756.163 682.853 756.055 682.772 756.028Z" fill="#263238"/>
<path d="M693.182 766.139C687.475 763.715 681.309 762.559 675.111 762.751C674.869 762.751 674.789 763.101 675.111 763.127C681.201 763.695 687.229 764.792 693.128 766.408C693.236 766.435 693.316 766.193 693.182 766.139Z" fill="#263238"/>
<path d="M616.621 745.218C613.609 745.706 610.628 746.371 607.693 747.208C604.547 747.988 601.428 748.822 598.389 749.897C592.273 751.934 586.275 754.314 580.426 757.023C580.397 757.012 580.367 757.008 580.336 757.011C580.305 757.014 580.276 757.025 580.251 757.042C580.225 757.06 580.204 757.083 580.19 757.11C580.176 757.137 580.168 757.168 580.168 757.198C580.168 757.229 580.176 757.259 580.19 757.287C580.204 757.314 580.225 757.337 580.251 757.354C580.276 757.371 580.305 757.382 580.336 757.385C580.367 757.389 580.397 757.385 580.426 757.373C586.396 755.276 592.446 753.313 598.497 751.43L607.371 748.526C610.409 747.531 613.582 746.778 616.567 745.649C616.809 745.514 616.809 745.191 616.621 745.218Z" fill="#263238"/>
<path d="M592.607 751.7C595.553 750.545 598.65 749.821 601.803 749.549L637.729 810.215C637.729 810.215 538.744 845.845 518.442 847.862C512.938 848.314 507.4 847.637 502.167 845.871C496.935 844.106 492.118 841.289 488.014 837.595C483.909 833.901 480.603 829.407 478.298 824.388C475.993 819.37 474.738 813.934 474.61 808.413C474.045 772.567 532.532 686.463 561.951 653.145C575.396 637.898 591.128 626.819 595.134 629.32C599.867 632.278 591.289 651.451 586.744 665.757C578.381 692.191 548.398 769.905 548.398 769.905C548.398 769.905 585.185 754.147 592.607 751.7Z" fill="#0D0D2B"/>
<path d="M601.589 749.494C595.996 749.817 572.009 758.207 560.07 763.289C548.274 768.295 536.974 774.399 526.321 781.521C520.325 785.582 514.597 789.992 508.977 794.563C508.956 794.577 508.938 794.595 508.923 794.617C508.909 794.638 508.899 794.661 508.894 794.686C508.889 794.711 508.889 794.737 508.894 794.762C508.899 794.787 508.909 794.811 508.923 794.832C508.937 794.853 508.955 794.871 508.977 794.886C508.998 794.9 509.022 794.91 509.047 794.915C509.072 794.92 509.097 794.92 509.122 794.915C509.147 794.91 509.171 794.9 509.192 794.886C530.231 780.337 552.769 768.086 576.419 758.341C583.169 755.652 594.786 751.78 601.374 750.059C603.149 749.575 601.75 749.467 601.589 749.494Z" fill="#37474F"/>
<path d="M577.843 696.438C576.337 698.858 574.804 701.279 573.513 703.833L573.352 704.21C575.261 698.374 577.09 692.539 578.73 686.65C578.73 686.3 578.246 686.112 578.112 686.462C569.614 707.974 561.708 729.783 554.044 751.645C551.92 757.776 550.038 763.934 548.102 770.119C548.102 770.334 548.37 770.442 548.451 770.119C550.791 764.741 553.157 759.578 555.281 754.173C557.406 748.768 559.423 743.416 561.413 738.038C564.998 728.555 568.368 719.008 571.523 709.4C572.518 707.732 573.54 706.038 574.508 704.344C575.88 701.843 577.036 699.235 578.192 696.626C578.408 696.357 578.004 696.169 577.843 696.438Z" fill="#37474F"/>
<path d="M613.746 796.983C611.057 792.519 608.529 788.028 605.894 783.537C603.258 779.047 600.811 774.744 598.284 770.334C595.782 765.715 593.044 761.227 590.082 756.889C590.082 756.889 589.894 756.889 589.921 756.889C591.83 761.51 594.04 766.001 596.536 770.334C598.983 774.906 601.511 779.45 604.065 783.968C606.62 788.485 609.148 792.788 611.756 797.144C614.395 801.731 617.342 806.133 620.576 810.321C620.711 810.482 621.006 810.321 620.926 810.133C618.778 805.62 616.381 801.23 613.746 796.983Z" fill="#37474F"/>
<path d="M639.261 810.348C636.276 804.459 631.651 798.704 628.209 793.111C628.209 792.895 627.779 793.111 627.886 793.326C631.006 798.569 633.856 804.217 636.841 809.46C623.261 815.08 608.821 820.082 594.945 825.003C581.069 829.924 566.414 834.818 551.92 839.013C543.852 841.353 535.785 843.881 527.53 846.032C527.019 846.032 527.153 846.57 527.664 846.462C542.361 843.546 556.864 839.729 571.093 835.033C585.587 830.435 599.92 825.299 614.118 819.975C622.024 816.963 639.503 810.805 639.261 810.348Z" fill="#37474F"/>
<path d="M615.709 745.243C598.815 749.814 582.18 755.299 565.88 761.673L565.154 761.942C556.657 765.276 551.413 767.75 550.149 767.966L549.88 767.804C549.058 767.195 548.152 766.706 547.191 766.352C544.798 765.492 521.806 762.614 522.398 755.596C522.99 748.577 532.321 749.008 533.692 749.088C532.213 748.765 519.736 745.834 523.796 739.623C526.673 735.186 539.016 735.831 540.28 735.885C539.016 735.481 527.534 731.744 531.487 725.37C534.311 720.826 548.105 721.418 549.692 721.686C548.401 721.202 538.183 719.481 542.969 713.996C546.277 710.177 572.253 713.996 583.817 719.831C601.027 728.275 615.709 745.243 615.709 745.243Z" fill="#F7A9A0"/>
<path d="M565.876 761.674L565.15 761.943C555.798 755.696 545.279 751.406 534.226 749.331C533.473 749.331 533.419 748.82 534.226 748.847C545.834 749.808 556.874 754.282 565.876 761.674Z" fill="#263238"/>
<path d="M540.893 736.235C557.242 739.462 564.637 743.092 578.728 752.02C578.916 752.154 579.131 751.859 578.943 751.724C565.82 741.909 557.672 737.042 541.027 735.805C540.274 735.751 540.14 736.074 540.893 736.235Z" fill="#263238"/>
<path d="M550.254 721.877C565.958 726.072 574.241 729.675 586.879 739.921C587.175 740.163 587.552 739.921 587.256 739.517C577.542 729.268 564.466 722.854 550.415 721.447C549.393 721.339 549.259 721.635 550.254 721.877Z" fill="#263238"/>
<path d="M628.88 658.925C619.576 662.259 601.506 649.54 593.68 638.434C593.169 637.654 593.438 628.968 593.277 618.4C593.277 611.973 592.847 604.955 592.094 598.34L633.99 603.718C632.594 612.113 632.224 620.646 632.887 629.13C633.005 630.042 633.203 630.942 633.479 631.819C633.479 631.819 633.479 632.088 633.479 632.249C634.985 637.063 637.862 655.698 628.88 658.925Z" fill="#F7A9A0"/>
<path d="M633.586 632.088C633.68 632.387 633.752 632.693 633.801 633.002C608.739 631.927 599.193 620.901 593.008 610.333C592.82 606.3 592.551 602.266 592.094 598.34L633.99 603.718C632.58 612.111 632.209 620.646 632.887 629.13C632.992 630.044 633.19 630.945 633.479 631.819C633.479 631.819 633.532 631.926 633.586 632.088Z" fill="#263238"/>
<path d="M574.943 554.402C572.657 569.434 586.398 609.878 597.988 617.649C614.822 628.917 639.293 626.604 648.086 607.081C656.61 588.258 637.787 535.767 625.121 529.098C606.459 519.095 578.304 532.164 574.943 554.402Z" fill="#F7A9A0"/>
<path d="M613.664 572.58C613.664 572.58 613.502 572.795 613.664 572.903C614.659 575.592 615.331 578.872 613.18 580.593C613.18 580.593 613.18 580.782 613.18 580.728C616.003 579.357 615.062 575 613.664 572.58Z" fill="#0D0D2B"/>
<path d="M610.279 570.564C605.788 571.693 608.369 580.594 612.564 579.545C616.759 578.496 614.124 569.596 610.279 570.564Z" fill="#0D0D2B"/>
<path d="M630.469 567.525C630.469 567.525 630.738 567.525 630.765 567.714C631.491 570.403 632.781 573.576 635.524 573.764C635.524 573.764 635.524 573.899 635.524 573.925C632.378 574.383 630.711 570.295 630.469 567.525Z" fill="#0D0D2B"/>
<path d="M632.109 563.919C636.466 562.306 639.397 571.099 635.363 572.605C631.329 574.111 628.479 565.291 632.109 563.919Z" fill="#0D0D2B"/>
<path d="M605.566 567.497C606.65 566.817 607.692 566.072 608.685 565.265C609.842 564.404 610.89 563.84 611.374 562.414C611.476 561.992 611.437 561.547 611.262 561.149C611.087 560.751 610.787 560.421 610.406 560.209C609.593 559.919 608.717 559.849 607.867 560.004C607.018 560.16 606.224 560.537 605.566 561.097C604.055 562.043 602.952 563.52 602.474 565.238C602.376 565.636 602.399 566.055 602.539 566.44C602.68 566.826 602.932 567.161 603.263 567.403C603.595 567.645 603.99 567.783 604.4 567.8C604.81 567.817 605.216 567.711 605.566 567.497Z" fill="#0D0D2B"/>
<path d="M634.261 558.435C632.989 558.502 631.715 558.502 630.443 558.435C629.102 558.655 627.725 558.438 626.517 557.817C626.185 557.539 625.952 557.16 625.855 556.737C625.758 556.315 625.802 555.873 625.979 555.477C626.441 554.746 627.092 554.152 627.864 553.759C628.635 553.367 629.498 553.189 630.362 553.246C632.137 553.075 633.911 553.574 635.337 554.644C635.686 554.896 635.948 555.249 636.09 555.656C636.231 556.062 636.243 556.502 636.126 556.916C636.008 557.33 635.767 557.698 635.433 557.97C635.099 558.241 634.69 558.404 634.261 558.435Z" fill="#0D0D2B"/>
<path d="M620.568 589.09C621.587 589.973 622.776 590.638 624.062 591.045C625.347 591.452 626.702 591.592 628.044 591.456C629.225 591.341 630.383 591.061 631.486 590.623L632.104 590.354L632.696 590.085C632.831 590.009 632.94 589.894 633.008 589.754C633.075 589.615 633.098 589.458 633.072 589.305C633.083 589.216 633.083 589.125 633.072 589.036V588.794C632.508 586.67 631.378 583.416 631.378 583.416C632.266 583.604 636.757 584.223 636.353 583.12C633.319 573.603 629.318 564.421 624.414 555.718C624.414 555.423 623.822 555.718 623.93 555.934C626.619 564.754 630.975 573.009 633.906 581.829C632.301 581.602 630.671 581.602 629.066 581.829C628.797 581.991 631.378 587.907 631.567 588.902C629.88 589.59 628.071 589.928 626.25 589.895C624.428 589.863 622.633 589.461 620.972 588.713C620.487 588.66 620.326 588.929 620.568 589.09Z" fill="#0D0D2B"/>
<path opacity="0.2" d="M579.349 582.905C581.715 580.942 584.727 570.992 586.126 566.771C587.524 562.549 583.275 545.258 581.877 540.041C578.24 544.074 575.841 549.068 574.966 554.428C573.944 560.801 575.907 571.907 579.349 582.905Z" fill="#263238"/>
<path d="M618.957 545.123C617.999 547.272 616.508 549.141 614.626 550.553C612.744 551.964 610.532 552.872 608.201 553.19C605.811 553.501 603.381 553.198 601.142 552.308C598.902 551.419 596.926 549.973 595.4 548.108C595.4 547.973 595.158 548.108 595.239 548.242C596.66 550.346 598.628 552.024 600.93 553.094C603.233 554.165 605.783 554.589 608.308 554.32C610.78 553.925 613.105 552.887 615.049 551.311C616.994 549.735 618.49 547.675 619.387 545.338C619.333 545.069 619.038 544.935 618.957 545.123Z" fill="#0D0D2B"/>
<path d="M595.722 516.242C592.213 517.255 589.016 519.136 586.426 521.712C583.836 524.288 581.937 527.475 580.905 530.978C580.18 534.421 580.654 538.008 582.25 541.143C582.25 541.143 582.572 541.143 582.519 541.143C581.519 538.251 581.313 535.143 581.923 532.144C582.533 529.146 583.937 526.366 585.988 524.094C588.202 521.517 590.984 519.488 594.115 518.168C597.246 516.847 600.64 516.271 604.031 516.484C607.321 516.636 610.453 517.94 612.878 520.168C613.12 520.41 613.631 520.168 613.416 519.819C609.947 515.489 602.66 514.064 595.722 516.242Z" fill="#0D0D2B"/>
<path d="M645.338 520.195C642.989 516.745 639.492 514.239 635.469 513.123C629.903 511.564 624.713 513.527 619.496 515.597C619.496 515.597 619.496 515.866 619.496 515.812C623.745 513.723 628.509 512.911 633.21 513.473C637.146 514.243 640.702 516.33 643.294 519.389C645.325 521.885 646.592 524.915 646.944 528.113C647.296 531.312 646.718 534.545 645.279 537.423C643.84 540.301 641.601 542.704 638.831 544.341C636.06 545.979 632.877 546.783 629.661 546.656C629.5 546.656 629.446 546.952 629.661 546.952C632.89 547.175 636.117 546.488 638.975 544.97C641.834 543.453 644.21 541.164 645.834 538.364C647.458 535.564 648.265 532.365 648.163 529.13C648.061 525.895 647.054 522.753 645.258 520.061L645.338 520.195Z" fill="#0D0D2B"/>
<path d="M574.832 563.005C574.832 563.005 563.592 551.254 567.464 541.493C569.669 535.98 581.367 533.425 581.367 533.425C582.243 530.726 583.644 528.227 585.49 526.072C587.336 523.916 589.59 522.148 592.123 520.867C601.131 515.919 614.2 518.178 614.2 518.178C614.2 518.178 621.891 510.353 631.867 512.8C645.77 516.269 649.427 534.931 639.02 544.182C631.733 550.689 618.126 546.441 618.126 546.441C617.051 546.925 607.666 556.928 596.264 549.13C596.264 549.13 591.074 557.197 583.599 554.723C583.174 556.841 582.103 558.776 580.533 560.259C578.963 561.743 576.971 562.702 574.832 563.005Z" fill="#0D0D2B"/>
<path d="M588.813 586.966C588.813 586.966 577.196 575.134 571.684 579.491C566.171 583.847 576.47 602.106 584.054 603.558C585.011 603.818 586.012 603.879 586.994 603.74C587.977 603.601 588.92 603.263 589.768 602.747C590.616 602.232 591.35 601.549 591.925 600.74C592.501 599.932 592.906 599.015 593.116 598.045L588.813 586.966Z" fill="#F7A9A0"/>
<path d="M574.75 584.732V584.92C580.128 586.13 583.516 590.298 586.179 594.816C585.795 594.372 585.32 594.016 584.786 593.772C584.253 593.528 583.673 593.401 583.086 593.401C582.499 593.401 581.919 593.528 581.386 593.772C580.852 594.016 580.377 594.372 579.994 594.816C579.994 594.816 579.994 595.112 580.155 595.058C580.99 594.632 581.936 594.474 582.864 594.603C583.793 594.733 584.659 595.145 585.345 595.784C586.484 596.865 587.495 598.074 588.357 599.387C588.679 599.791 589.432 599.387 589.19 598.93C588.169 592.234 581.849 584.14 574.75 584.732Z" fill="#263238"/>
<path d="M633.454 631.203L624.554 655.862L593.36 626.416L585.293 636.554C585.293 636.554 616.513 684.016 616.594 681.811L625.764 660.594L640.688 674.551L637.999 638.221L633.454 631.203Z" fill="#EBEBEB"/>
<path d="M640.391 656.505C639.772 650.536 639.315 644.485 638.401 638.542C638.401 638.327 638.051 638.247 637.997 638.542C637.029 644.378 639.53 667.262 639.718 672.748C639.1 672.156 625.924 660.512 625.789 660.7C623.772 664.089 617.023 679.524 616.592 680.949C611.644 673.393 592.767 645.991 587.012 638.946C586.978 638.916 586.935 638.898 586.889 638.894C586.843 638.89 586.798 638.901 586.759 638.925C586.72 638.949 586.689 638.985 586.672 639.027C586.655 639.07 586.652 639.116 586.663 639.161C591.073 647.228 616.054 684.042 616.404 683.907C619.989 676.615 623.185 669.138 625.977 661.507C628.236 664.062 641.601 677.238 641.628 676.351C641.555 669.719 641.142 663.095 640.391 656.505Z" fill="#263238"/>
<path d="M435.129 354.361H117.871V681.919H435.129V354.361Z" fill="#BB0163"/>
<path d="M40.5078 452.168V620.612H208.952V452.168H40.5078ZM53.2272 607.893V464.887H196.233V607.893H53.2272Z" fill="#0D0D2B"/>
<path d="M327.131 446.49C335.467 444.527 357.087 450.174 364.482 461.226C371.877 472.278 371.527 490.376 367.843 492.205C364.159 494.033 348.186 492.904 337.161 487.042C326.136 481.179 323.016 447.593 327.131 446.49Z" fill="#0D0D2B"/>
<path d="M327.109 446.543C326.84 446.543 326.786 446.033 327.109 446.006C334.45 445.71 342.329 448.076 349.348 449.986C355.165 451.205 360.662 453.633 365.482 457.112C367.705 458.887 369.515 461.125 370.787 463.669C372.059 466.214 372.763 469.004 372.85 471.848C373.413 478.729 372.19 485.638 369.301 491.908C369.301 492.07 368.897 491.908 368.951 491.908C372.151 479.646 374.867 464.695 362.605 456.574C352.144 449.555 338.941 448.937 327.109 446.543Z" fill="#0D0D2B"/>
<path d="M366.716 489.032C374.058 489.866 393.311 503.526 396.7 517.402C400.088 531.278 389.117 552.037 385.567 553.57C382.017 555.103 365.614 542.007 360.182 532.299C356.552 525.792 359.214 518.128 360.72 510.491C362.763 499.251 365.453 488.925 366.716 489.032Z" fill="#0D0D2B"/>
<path d="M355.639 530.606C353.245 516.462 361.017 502.29 365.696 489.409C365.696 489.275 365.965 489.409 365.938 489.409C363.464 501.752 356.23 512.912 356.203 525.766C356.035 529.536 356.778 533.291 358.37 536.713C359.961 540.135 362.354 543.123 365.346 545.423C370.859 549.403 377.743 551.151 384.17 553.302C384.6 553.436 384.331 554.055 383.901 553.921C371.155 550.048 358.086 545.235 355.639 530.606Z" fill="#0D0D2B"/>
<path d="M368.199 490.32C368.132 490.281 368.081 490.219 368.056 490.145C368.031 490.072 368.034 489.991 368.063 489.919C368.093 489.847 368.147 489.788 368.217 489.753C368.286 489.718 368.366 489.71 368.442 489.729C378.929 494.515 391.568 501.507 397.295 511.967C403.507 523.315 397.645 535.362 392.428 545.769C392.428 545.769 392.159 545.769 392.213 545.769C397.349 535.228 402.754 522.159 395.736 511.134C389.685 501.534 378.095 494.999 368.199 490.32Z" fill="#0D0D2B"/>
<path d="M384.577 553.219C381.267 555.911 378.542 559.251 376.567 563.033C374.593 566.815 373.411 570.961 373.095 575.215C372.019 592.21 365.377 589.548 347.575 595.841C332.516 601.219 330.984 618.779 340.073 626.469C340.073 626.469 334.237 616.305 344.106 610.039C355.885 602.537 385.653 612.728 398.049 593.716C414.076 569.138 384.577 553.219 384.577 553.219Z" fill="#263238"/>
<path d="M387.612 554.967C387.612 554.967 387.397 554.967 387.612 555.128C394.335 560.506 401.38 565.884 404.043 574.543C406.893 583.821 402.967 593.797 396.11 600.278C388.419 607.512 379.169 605.36 369.676 604.5C362.866 603.425 355.892 604.196 349.481 606.732C349.293 606.732 349.481 607.162 349.642 607.081C360.049 603.532 370.106 605.71 380.728 606.355C384.684 606.679 388.651 605.881 392.175 604.055C395.699 602.229 398.637 599.448 400.654 596.029C411.169 580.164 402.026 564.217 387.612 554.967Z" fill="#263238"/>
<path d="M333.433 438.721C333.933 438.182 334.617 437.851 335.35 437.792C336.083 437.734 336.811 437.954 337.39 438.407C337.969 438.861 338.356 439.515 338.475 440.241C338.593 440.966 338.435 441.71 338.031 442.325C335.745 445.336 331.147 441.733 333.433 438.721Z" fill="#BB0163"/>
<path d="M331.252 443.694C331.752 443.155 332.437 442.823 333.17 442.765C333.902 442.707 334.631 442.926 335.209 443.38C335.788 443.833 336.175 444.488 336.294 445.213C336.413 445.939 336.255 446.683 335.851 447.297C333.565 450.282 329.074 446.706 331.252 443.694Z" fill="#BB0163"/>
<path d="M328.216 448.264C328.716 447.725 329.401 447.394 330.134 447.335C330.867 447.277 331.595 447.497 332.173 447.95C332.752 448.404 333.139 449.058 333.258 449.784C333.377 450.509 333.219 451.253 332.815 451.868C332.315 452.407 331.63 452.738 330.897 452.796C330.164 452.855 329.436 452.635 328.858 452.182C328.279 451.728 327.892 451.074 327.773 450.348C327.654 449.622 327.812 448.879 328.216 448.264Z" fill="#BB0163"/>
<path d="M324.687 452.272C325.187 451.733 325.871 451.401 326.604 451.343C327.337 451.285 328.065 451.504 328.644 451.958C329.223 452.411 329.61 453.066 329.729 453.792C329.847 454.517 329.689 455.261 329.285 455.875C326.999 458.887 322.401 455.284 324.687 452.272Z" fill="#BB0163"/>
<path d="M320.443 455.662C322.729 452.65 327.327 456.254 325.041 459.266C324.541 459.805 323.857 460.136 323.124 460.194C322.391 460.253 321.663 460.033 321.084 459.58C320.505 459.126 320.118 458.472 319.999 457.746C319.881 457.02 320.039 456.277 320.443 455.662Z" fill="#BB0163"/>
<path d="M315.813 458.35C316.313 457.811 316.998 457.479 317.731 457.421C318.464 457.363 319.192 457.583 319.771 458.036C320.349 458.49 320.736 459.144 320.855 459.87C320.974 460.595 320.816 461.339 320.412 461.954C318.126 464.804 313.555 461.201 315.813 458.35Z" fill="#BB0163"/>
<path d="M311.431 512.401C298.819 527.944 231.296 576.939 174.288 575.971C154.926 575.675 101.145 493.04 91.1952 461.631C84.0691 439.07 131.962 427.668 145.515 430.922C162.402 435.009 195.316 505.866 201.824 506.216C221.185 507.561 254.423 495.917 295.216 491.776C316.218 489.759 321.166 500.461 311.431 512.401Z" fill="#F7A9A0"/>
<path d="M93.1061 466.819C89.5027 458.967 72.5884 415.324 71.2169 404.11C69.8455 392.897 68.259 360.251 76.7565 358.396C85.254 356.54 86.4641 366.006 86.4641 366.006C86.4641 366.006 87.9699 352.103 96.7095 350.947C105.449 349.791 106.874 364.661 106.874 364.661C106.874 364.661 109.563 350.517 118.249 349.979C126.935 349.441 125.967 364.634 125.967 364.634C125.967 364.634 127.715 351.592 135.136 354.201C144.091 357.347 138.121 381.091 140.515 393.3C141.079 395.989 155.789 449.071 155.789 449.071L93.1061 466.819Z" fill="#F7A9A0"/>
<path d="M126.018 363.261C121.689 380.66 122.791 389.049 128.331 405.829C128.331 406.152 127.981 406.394 127.847 406.044C120.909 390.125 118.005 379.826 125.158 363.019C125.534 362.186 126.233 362.428 126.018 363.261Z" fill="#263238"/>
<path d="M107.226 363.208C104.322 381.682 105.451 390.771 109.915 408.788C109.915 409.03 109.565 409.164 109.485 408.922C103.569 391.631 100.906 381.278 106.258 363.208C106.527 362.374 107.36 362.347 107.226 363.208Z" fill="#263238"/>
<path d="M86.7335 366.918C85.2008 385.043 86.0075 395.046 92.6226 411.96C92.6425 412.039 92.6347 412.121 92.6004 412.195C92.5661 412.268 92.5075 412.327 92.4346 412.362C92.3617 412.397 92.279 412.405 92.2005 412.386C92.122 412.367 92.0526 412.321 92.0041 412.256C83.5873 395.664 82.4848 383.16 86.1689 366.945C86.4378 365.735 86.8411 365.681 86.7335 366.918Z" fill="#263238"/>
<path d="M167.729 457.191C167.729 457.191 170.229 434.845 169.154 424.788C168.078 414.731 150.33 378.697 142.263 382.085C131.937 386.468 138.095 409.299 142.586 420.082C142.586 420.082 118.68 430.22 119.567 447.564C120.454 464.909 167.729 457.191 167.729 457.191Z" fill="#F7A9A0"/>
<path d="M139.899 384.238C133.365 394.995 140.168 408.79 143.744 419.573C143.805 419.731 143.827 419.901 143.807 420.069C143.788 420.237 143.728 420.399 143.633 420.539C143.538 420.679 143.41 420.794 143.261 420.874C143.112 420.954 142.946 420.996 142.776 420.998C133.042 425.919 120.726 435.68 119.112 447.082C119.095 447.136 119.061 447.183 119.015 447.216C118.969 447.249 118.914 447.267 118.857 447.267C118.8 447.267 118.745 447.249 118.699 447.216C118.653 447.183 118.619 447.136 118.602 447.082C118.602 434.605 129.976 424.037 140.975 419.331C137.156 408.332 130.944 394.215 139.818 384.184C139.845 384.104 139.953 384.158 139.899 384.238Z" fill="#263238"/>
<path d="M230.734 500.837L254.237 555.156C254.237 555.156 289.787 538.242 311.407 516.38C333.027 494.518 308.987 487.176 288.066 490.35C267.145 493.523 230.734 500.837 230.734 500.837Z" fill="white"/>
<path d="M311.405 516.488C289.892 538.35 254.235 555.264 254.235 555.264L247.082 538.726L318.692 497.207C321.328 501.563 319.875 507.91 311.405 516.488Z" fill="#C7C7C7"/>
<path d="M263.111 547.629C255.398 532.487 248.618 516.889 242.809 500.919C242.809 500.731 243.051 500.597 243.131 500.919C244.718 505.114 255.904 528.241 263.461 547.602C263.568 547.736 263.219 547.844 263.111 547.629Z" fill="#263238"/>
<path d="M257.544 608.295L247.891 681.922H402.002C402.002 681.922 381.619 543.838 348.704 501.377C332.247 480.16 310.197 480.725 294.6 496.94C291.185 500.463 256.765 549.646 250.687 569.949C245.39 587.939 257.544 608.295 257.544 608.295Z" fill="white"/>
<path d="M302.401 504.357L292.666 530.468C289.457 539.181 286.374 547.921 283.416 556.687C280.727 565.507 277.365 574.327 278.683 583.309C279.84 592.361 282.812 601.087 287.422 608.963L287.637 609.339V609.716C286.293 621.413 284.706 633.111 283.281 644.674C281.856 656.237 280.216 668.042 278.548 679.632C279.552 667.872 280.619 656.138 281.748 644.432C282.932 632.707 284.007 620.983 285.298 609.285L285.459 610.012C280.557 601.876 277.364 592.827 276.074 583.417C275.515 578.645 275.853 573.812 277.069 569.164C278.253 564.593 279.758 560.156 281.184 555.719C284.169 546.872 287.691 538.267 291.214 529.662C294.737 521.057 298.474 512.801 302.401 504.357Z" fill="#263238"/>
<path d="M280.884 538.375C280.769 538.955 280.881 539.557 281.196 540.057C281.511 540.557 282.005 540.918 282.578 541.065C282.861 541.106 283.15 541.09 283.427 541.017C283.704 540.944 283.963 540.815 284.189 540.639C284.415 540.464 284.604 540.244 284.743 539.993C284.882 539.743 284.969 539.467 284.998 539.182C285.12 538.602 285.011 537.997 284.695 537.495C284.379 536.993 283.88 536.634 283.304 536.493C283.02 536.448 282.73 536.461 282.451 536.533C282.173 536.604 281.912 536.732 281.685 536.909C281.458 537.085 281.27 537.306 281.132 537.559C280.994 537.811 280.91 538.089 280.884 538.375Z" fill="#263238"/>
<path d="M271.556 563.788C271.435 564.369 271.544 564.974 271.86 565.475C272.176 565.977 272.674 566.336 273.251 566.477C273.53 566.519 273.816 566.503 274.089 566.432C274.363 566.36 274.619 566.234 274.843 566.06C275.067 565.887 275.253 565.67 275.39 565.423C275.528 565.176 275.614 564.903 275.644 564.622C275.765 564.041 275.657 563.436 275.341 562.935C275.025 562.433 274.526 562.074 273.95 561.933C273.67 561.891 273.385 561.907 273.111 561.979C272.837 562.05 272.581 562.177 272.357 562.35C272.134 562.523 271.948 562.74 271.81 562.987C271.672 563.234 271.586 563.507 271.556 563.788Z" fill="#263238"/>
<path d="M270.369 589.712C270.247 590.293 270.356 590.898 270.672 591.399C270.988 591.901 271.487 592.26 272.063 592.401C272.344 592.443 272.631 592.427 272.907 592.356C273.182 592.285 273.44 592.159 273.666 591.986C273.891 591.813 274.08 591.596 274.22 591.349C274.361 591.101 274.45 590.828 274.483 590.546C274.598 589.966 274.486 589.364 274.171 588.864C273.856 588.364 273.362 588.004 272.789 587.857C272.508 587.815 272.221 587.831 271.946 587.902C271.67 587.973 271.412 588.099 271.186 588.272C270.961 588.445 270.772 588.662 270.632 588.909C270.491 589.157 270.402 589.43 270.369 589.712Z" fill="#263238"/>
<path d="M277.576 611.195C277.454 611.775 277.563 612.38 277.879 612.882C278.195 613.384 278.694 613.743 279.27 613.884C279.551 613.925 279.838 613.91 280.114 613.838C280.389 613.767 280.647 613.641 280.873 613.468C281.098 613.295 281.287 613.078 281.427 612.831C281.568 612.584 281.657 612.311 281.69 612.028C281.805 611.448 281.693 610.847 281.378 610.347C281.063 609.846 280.569 609.486 279.996 609.339C279.715 609.298 279.428 609.313 279.153 609.384C278.877 609.456 278.619 609.582 278.393 609.755C278.168 609.928 277.979 610.144 277.839 610.392C277.698 610.639 277.609 610.912 277.576 611.195Z" fill="#263238"/>
<path d="M274.778 634.617C274.664 635.197 274.775 635.799 275.09 636.299C275.405 636.799 275.9 637.16 276.473 637.307C276.754 637.348 277.042 637.331 277.317 637.258C277.592 637.185 277.85 637.056 278.074 636.88C278.298 636.704 278.484 636.484 278.62 636.234C278.756 635.983 278.84 635.708 278.866 635.424C278.981 634.844 278.869 634.243 278.554 633.743C278.239 633.242 277.744 632.882 277.172 632.735C276.89 632.694 276.602 632.71 276.327 632.784C276.052 632.857 275.794 632.986 275.57 633.162C275.346 633.338 275.161 633.558 275.024 633.808C274.888 634.058 274.805 634.334 274.778 634.617Z" fill="#263238"/>
<path d="M272.224 657.745C272.109 658.324 272.221 658.926 272.536 659.426C272.851 659.926 273.345 660.287 273.918 660.434C274.201 660.475 274.49 660.459 274.767 660.386C275.044 660.313 275.303 660.184 275.529 660.008C275.755 659.833 275.944 659.613 276.083 659.363C276.221 659.112 276.308 658.836 276.338 658.551C276.459 657.967 276.346 657.359 276.025 656.856C275.703 656.354 275.198 655.997 274.617 655.862C274.335 655.817 274.046 655.83 273.769 655.902C273.492 655.974 273.233 656.102 273.008 656.279C272.783 656.456 272.597 656.677 272.462 656.93C272.327 657.182 272.246 657.459 272.224 657.745Z" fill="#263238"/>
<path d="M303.099 762.567C310.871 767.945 323.939 744.604 328.376 739.629C332.813 734.655 334.75 734.816 334.481 738.607L344.592 698.486C339.348 702.547 328.242 711.286 322.326 717.041C314.393 724.732 295.328 757.297 303.099 762.567Z" fill="#F7A9A0"/>
<path d="M361.339 507.344C394.254 533.885 435.746 580.568 444.217 610.739C450.724 634.027 417.971 714.941 408.21 733.819C403.961 742.047 347.598 717.012 345.124 707.412C342.65 697.812 381.938 628.138 382.314 620.743C382.691 613.348 357.01 564.514 339.504 531.492C318.126 491.479 333.212 484.783 361.339 507.344Z" fill="#F7A9A0"/>
<path d="M308.637 785.614C313.827 791.261 324.341 784.404 324.341 784.404C324.341 784.404 314.983 795.967 322.297 800.538C329.612 805.11 339.588 795.16 339.588 795.16C339.588 795.16 331.521 806.239 339.185 810.165C346.849 814.091 356.637 805.513 356.637 805.513C356.637 805.513 356.099 809.762 362.741 810.138C372.26 810.676 385.84 795.241 391.03 785.506C396.22 775.772 407.998 736.269 409.719 730.192L347.467 696.363C347.467 696.363 346.365 697.17 344.59 698.568L334.452 738.609C334.291 741.11 327.164 756.518 324.583 760.955C318.775 770.932 302.801 779.268 308.637 785.614Z" fill="#F7A9A0"/>
<path d="M324.658 783.727C338.615 773.158 342.89 766.14 348.86 750.005C348.86 749.683 349.479 749.79 349.371 750.14C344.88 766.463 340.793 776.063 325.035 784.453C324.363 784.963 323.986 784.345 324.658 783.727Z" fill="#263238"/>
<path d="M338.893 795.398C352.338 783.135 357.125 775.552 364.735 759.122C364.735 758.88 365.246 759.122 365.138 759.283C359.061 776.036 354.758 785.502 339.619 795.962C338.947 796.446 338.274 795.935 338.893 795.398Z" fill="#263238"/>
<path d="M356.687 805.24C368.923 792.44 374.435 784.319 379.76 767.432C379.781 767.346 379.836 767.272 379.911 767.227C379.987 767.182 380.078 767.168 380.163 767.19C380.249 767.211 380.322 767.266 380.368 767.341C380.413 767.417 380.427 767.507 380.405 767.593C376.64 785.341 369.837 795.506 357.118 805.563C356.23 806.208 355.961 805.993 356.687 805.24Z" fill="#263238"/>
<path d="M355.019 579.976L402.535 544.4C402.535 544.4 377.849 513.744 351.577 497.771C325.305 481.798 323.691 506.968 331.758 526.598C339.826 546.228 355.019 579.976 355.019 579.976Z" fill="white"/>
<path d="M393.048 537.65C380.097 548.654 366.493 558.864 352.308 568.225C352.147 568.225 351.959 568.063 352.12 567.929C355.858 565.401 375.757 549.105 392.86 537.327C393.048 537.193 393.236 537.488 393.048 537.65Z" fill="#263238"/>
<path d="M346.662 559.862C343.784 553.381 339.831 543.942 336.551 537.623C336.551 537.623 336.362 537.623 336.389 537.623C337.68 541.307 339.078 544.991 340.665 548.621C340.558 548.427 340.442 548.239 340.315 548.057C339.132 546.362 337.895 544.695 336.578 543.082C337.573 544.91 338.648 546.712 339.804 548.46C340.531 549.563 341.31 550.611 342.09 551.66C342.924 553.569 344.779 558.302 345.667 560.211C347.065 563.411 353.895 581.428 354.191 581.213C355.858 580.119 357.456 578.925 358.978 577.637C359.22 577.448 358.978 577.018 358.628 577.206C357.768 577.932 355.616 579.358 355.267 579.627C353.734 576.373 352.578 572.931 351.045 569.596C349.512 566.262 348.141 563.223 346.662 559.862Z" fill="#263238"/>
<path d="M326.677 491.235C325.871 493.924 311.699 511.241 299.088 510.058C294.973 509.628 296.264 487.093 296.264 487.093L295.968 485.426L291.988 461.816L320.331 445.681L324.419 443.584C324.419 443.584 325.064 450.118 325.817 458.239C325.817 458.616 325.817 458.992 325.817 459.396C325.817 459.799 325.817 460.283 325.951 460.713C326.086 461.95 326.193 463.187 326.301 464.424C326.409 465.661 326.462 466.28 326.516 467.275C326.57 468.27 326.516 469.238 326.704 470.233C327.168 477.226 327.159 484.243 326.677 491.235Z" fill="#F7A9A0"/>
<path d="M325.817 458.161C323.096 464.565 319.018 470.302 313.865 474.977C308.712 479.652 302.606 483.154 295.968 485.241L291.988 461.63L320.331 445.496L324.419 443.398C324.419 443.398 325.064 450.04 325.817 458.161Z" fill="#0D0D2B"/>
<path d="M262.436 420.189C253.885 461.305 277.576 471.066 286.423 472.895C294.49 474.535 322.107 479.187 334.826 439.147C347.546 399.106 331.142 382.165 312.91 377.298C294.678 372.431 270.961 379.046 262.436 420.189Z" fill="#F7A9A0"/>
<path d="M276.314 410.484C277.281 410.538 278.251 410.538 279.218 410.484C280.242 410.577 281.268 410.342 282.149 409.812C282.389 409.586 282.548 409.287 282.601 408.961C282.655 408.636 282.6 408.302 282.445 408.01C282.05 407.479 281.52 407.061 280.911 406.801C280.301 406.542 279.633 406.448 278.976 406.531C277.623 406.5 276.307 406.98 275.292 407.876C275.105 408.095 274.98 408.36 274.932 408.644C274.884 408.928 274.914 409.219 275.019 409.487C275.124 409.755 275.3 409.99 275.528 410.165C275.756 410.341 276.028 410.451 276.314 410.484Z" fill="#0D0D2B"/>
<path d="M304.574 416.801C303.633 416.506 302.799 416.102 301.885 415.726C300.884 415.473 299.989 414.908 299.33 414.112C299.174 413.819 299.121 413.482 299.179 413.156C299.238 412.829 299.405 412.531 299.653 412.311C300.199 411.943 300.832 411.726 301.489 411.684C302.146 411.641 302.802 411.774 303.391 412.069C304.679 412.482 305.764 413.365 306.429 414.543C306.562 414.82 306.612 415.128 306.575 415.433C306.538 415.738 306.415 416.025 306.22 416.262C306.026 416.5 305.767 416.676 305.476 416.772C305.184 416.867 304.871 416.877 304.574 416.801Z" fill="#0D0D2B"/>
<path d="M297.311 425.699C297.311 425.699 297.499 425.861 297.473 425.968C296.827 428.657 296.585 432.072 298.952 433.498C298.952 433.498 298.952 433.686 298.952 433.659C295.886 432.61 296.263 428.227 297.311 425.699Z" fill="#0D0D2B"/>
<path d="M300.381 423.391C304.952 423.901 303.554 433.044 299.332 432.533C295.11 432.022 296.536 422.799 300.381 423.391Z" fill="#0D0D2B"/>
<path d="M302.181 424.008C302.88 424.627 303.526 425.675 304.494 425.917C305.462 426.159 306.564 425.353 307.425 424.546C307.425 424.546 307.586 424.546 307.559 424.68C307.317 426.428 306.376 428.122 304.467 428.095C302.558 428.069 301.778 426.348 301.563 424.519C301.455 424.169 301.805 423.739 302.181 424.008Z" fill="#0D0D2B"/>
<path d="M280.024 421.751C280.024 421.617 279.782 421.751 279.782 421.966C279.46 424.655 278.599 428.017 275.91 428.581V428.743C279.11 428.77 280.186 424.494 280.024 421.751Z" fill="#0D0D2B"/>
<path d="M277.983 418.416C273.492 417.421 271.798 426.483 275.966 427.424C280.134 428.366 281.694 419.25 277.983 418.416Z" fill="#0D0D2B"/>
<path d="M275.939 418.658C275.132 419.007 274.244 419.76 273.384 419.653C272.523 419.545 271.824 418.416 271.367 417.367C271.367 417.367 271.233 417.367 271.206 417.367C270.829 419.115 271.071 421.024 272.685 421.67C274.298 422.315 275.535 420.971 276.261 419.303C276.396 419.061 276.261 418.523 275.939 418.658Z" fill="#0D0D2B"/>
<path d="M280.668 435.09C280.668 435.09 279.377 439.204 279.054 441.194C279.054 441.382 279.484 441.544 280.157 441.705C281.812 442.301 283.599 442.428 285.321 442.072C287.044 441.716 288.635 440.891 289.918 439.688C290.079 439.527 289.918 439.285 289.676 439.365C286.857 440.683 283.687 441.051 280.641 440.414C280.641 439.849 283.061 433.449 282.738 433.369C281.173 433.251 279.6 433.341 278.059 433.638C280.479 424.979 284.244 416.777 286.53 408.118C286.555 408.051 286.552 407.976 286.521 407.91C286.491 407.845 286.436 407.794 286.368 407.769C286.301 407.744 286.226 407.747 286.16 407.777C286.095 407.807 286.044 407.862 286.019 407.93C281.699 416.591 278.257 425.662 275.747 435.009C275.585 436.112 279.915 435.278 280.668 435.09Z" fill="#0D0D2B"/>
<path d="M293.737 382.6C292.504 386.056 292.326 389.8 293.226 393.356C296.776 403.064 308.204 401.693 311.673 405.726C315.142 409.76 312.991 416.482 315.895 420.274C319.956 425.464 326.248 424.2 326.652 427.481C327.055 430.761 328.238 441.195 332.218 442.889C336.198 444.583 361.421 378.351 307.747 375.447C307.747 375.447 300.702 371.763 288.762 376.388C275.613 381.524 268.164 401.666 268.164 401.666C268.164 401.666 268.46 401.397 270.45 399.972C273.139 397.928 274.43 395.938 276.473 394.593C279.673 392.577 281.206 393.598 284.541 391.635C288.133 389.211 291.25 386.149 293.737 382.6Z" fill="#0D0D2B"/>
<path d="M294.841 379.721C293.732 382.303 292.946 385.013 292.501 387.788C291.88 390.46 292.011 393.252 292.878 395.855C294.049 398.281 296.067 400.194 298.552 401.233C300.999 402.417 303.93 402.954 306.431 404.299C307.785 404.998 308.927 406.047 309.738 407.338C310.42 408.667 310.822 410.122 310.922 411.613C310.963 414.326 311.744 416.976 313.18 419.277C313.991 420.357 315.026 421.248 316.215 421.889C317.403 422.529 318.717 422.904 320.064 422.988C322.871 422.794 325.687 423.207 328.32 424.198C325.63 423.429 322.807 423.236 320.038 423.633C318.568 423.602 317.123 423.255 315.801 422.614C314.478 421.974 313.309 421.056 312.374 419.922C310.724 417.546 309.79 414.746 309.685 411.855C309.568 410.535 309.203 409.249 308.609 408.064C307.89 406.989 306.896 406.125 305.732 405.563C303.392 404.299 300.569 403.68 297.987 402.417C296.665 401.781 295.442 400.957 294.357 399.969C293.235 398.985 292.376 397.738 291.856 396.339C291.064 393.544 291.064 390.583 291.856 387.788C292.52 384.988 293.522 382.279 294.841 379.721Z" fill="#0D0D2B"/>
<path d="M293.579 382.059C292.803 384.567 291.7 386.963 290.299 389.185C288.89 391.523 286.823 393.394 284.356 394.563C283.121 395.044 281.842 395.404 280.537 395.638C279.374 395.901 278.304 396.478 277.445 397.306C276.647 398.369 275.746 399.351 274.756 400.237C273.702 401.061 272.466 401.624 271.152 401.877C272.338 401.396 273.41 400.673 274.299 399.753C275.151 398.792 275.916 397.757 276.584 396.66C277.49 395.564 278.726 394.791 280.107 394.455C281.347 394.195 282.562 393.826 283.737 393.353C285.983 392.265 287.909 390.616 289.331 388.566C290.896 386.498 292.316 384.324 293.579 382.059Z" fill="#0D0D2B"/>
<path d="M323.827 437.051C323.827 437.051 334.88 425.461 340.258 429.575C345.636 433.689 335.982 451.464 328.695 452.997C327.771 453.254 326.805 453.323 325.854 453.198C324.903 453.073 323.987 452.758 323.161 452.271C322.335 451.784 321.616 451.135 321.046 450.363C320.477 449.592 320.069 448.713 319.848 447.78L323.827 437.051Z" fill="#AD6359"/>
<path d="M337.358 434.605C337.358 434.605 337.358 434.766 337.358 434.793C332.195 436.03 328.969 440.171 326.602 444.5C326.956 444.059 327.402 443.701 327.909 443.449C328.416 443.198 328.971 443.06 329.536 443.044C330.102 443.029 330.664 443.137 331.183 443.36C331.703 443.584 332.167 443.918 332.545 444.339C332.679 444.339 332.545 444.608 332.384 444.554C331.574 444.152 330.659 444.014 329.767 444.159C328.875 444.304 328.05 444.724 327.409 445.361C326.321 446.414 325.356 447.587 324.532 448.857C324.236 449.26 323.51 448.857 323.752 448.426C324.532 442.215 330.636 434.147 337.358 434.605Z" fill="#0D0D2B"/>
<path d="M295.944 488.868L301.887 508.015L326.842 486.502L332.758 494.569C332.758 494.569 307.211 530.011 307.185 528.317L300.838 511.726L288.926 521.944L292.072 494.112L295.944 488.868Z" fill="white"/>
<path d="M289.701 507.987C290.374 503.415 290.911 498.79 291.799 494.245C291.799 494.084 292.095 494.03 292.121 494.245C292.686 498.763 289.997 516.269 289.674 520.491C290.185 520.061 300.7 511.536 300.78 511.698C302.232 514.387 306.911 526.461 307.207 527.563C311.241 521.916 326.649 501.506 331.409 496.235C331.543 496.101 331.785 496.235 331.678 496.424C328.021 502.42 307.476 529.956 307.315 529.849C304.812 524.112 302.604 518.251 300.7 512.289C298.871 514.198 288.168 523.906 288.195 523.207C288.427 518.11 288.929 513.03 289.701 507.987Z" fill="#263238"/>
<path d="M804.479 139.336H456.539V487.276H804.479V139.336Z" fill="#FF78BF"/>
<path d="M604.895 51.168V285.575H839.302V51.168H604.895ZM826.556 272.802H617.614V63.8873H826.556V272.802Z" fill="#BB0163"/>
<path d="M571.609 346.079L590.432 347.397C596.422 337.029 599.061 325.063 597.988 313.138C597.773 310.449 603.501 326.314 599.951 348.096C619.824 349.467 646.876 351.35 670.486 352.775C671.374 343.552 672.61 335.054 672.61 335.054C673.087 341.147 674.104 347.185 675.649 353.098C678.876 353.313 682.049 353.474 685.088 353.636C685.546 340.502 686.731 327.404 688.637 314.402C689.717 328.172 693.051 341.672 698.506 354.362C713.538 355.115 723.407 355.33 722.708 354.577C701.195 327.498 718.513 313.246 713.081 290.039C706.6 262.207 683.098 256.748 684.738 236.257C686.056 219.477 689.525 189.117 668.604 181.615C663.158 175.754 656.114 171.619 648.342 169.722C640.57 167.824 632.413 168.248 624.879 170.939C590.755 182.233 601.673 234.644 598.903 245.077C594.95 259.975 587.528 264.95 581.397 281.891C575.266 298.832 582.553 310.906 582.903 322.711C583.252 334.516 567.844 345.864 571.609 346.079Z" fill="#0D0D2B"/>
<path d="M723.698 350.785C720.805 346.106 718.578 341.047 717.083 335.753C715.973 330.513 716.242 325.074 717.862 319.968C719.329 314.549 720.505 309.056 721.385 303.511C722.267 297.721 721.975 291.814 720.525 286.14C718.948 280.457 716.087 275.213 712.162 270.812C708.357 266.629 704.21 262.77 699.765 259.276C695.464 255.93 691.621 252.033 688.336 247.686C685.192 243.166 683.333 237.878 682.958 232.385C682.482 238.082 683.738 243.79 686.562 248.761C689.536 253.608 693.226 257.978 697.506 261.723C701.582 265.37 705.417 269.278 708.989 273.42C712.362 277.466 714.829 282.189 716.222 287.269C717.466 292.416 717.758 297.748 717.083 303C716.518 308.378 715.281 313.756 714.393 319.135C713.869 321.957 713.564 324.816 713.479 327.686C713.461 330.621 713.971 333.536 714.985 336.291C717.012 341.598 719.961 346.505 723.698 350.785Z" fill="#0D0D2B"/>
<path d="M604.949 189.438C602.35 195.807 600.543 202.472 599.571 209.283C598.415 216.033 597.581 222.728 596.882 229.639L595.672 239.777C595.332 243.051 594.675 246.284 593.709 249.431C591.436 255.629 588.066 261.368 583.76 266.372C581.601 269.139 579.633 272.05 577.87 275.085C576.1 278.203 574.692 281.515 573.675 284.954C572.77 288.371 572.114 291.849 571.712 295.36C571.273 298.932 571.273 302.545 571.712 306.117C572.169 309.64 573.003 313.001 573.675 316.282C574.358 319.547 574.736 322.869 574.805 326.204C574.75 329.546 573.902 332.827 572.331 335.777C570.76 338.726 568.511 341.261 565.77 343.172C568.872 341.489 571.513 339.068 573.46 336.123C575.406 333.178 576.597 329.799 576.929 326.285C577.145 322.784 577.01 319.271 576.526 315.798C576.069 312.355 575.37 309.021 575.154 305.74C574.769 299.156 575.599 292.556 577.601 286.271C578.598 283.176 579.914 280.193 581.528 277.37C583.233 274.513 585.129 271.773 587.201 269.169C589.353 266.419 591.355 263.556 593.198 260.591C595.08 257.526 596.571 254.238 597.635 250.802C598.578 247.382 599.19 243.879 599.464 240.342C599.813 236.9 600.028 233.485 600.244 230.07C600.701 223.239 601.05 216.436 601.696 209.659C602.072 202.824 603.163 196.046 604.949 189.438Z" fill="#0D0D2B"/>
<path d="M769.114 477.737C769.114 477.334 769.114 476.931 768.898 476.527C769.005 477.025 769.086 477.527 769.141 478.033C769.145 477.934 769.136 477.834 769.114 477.737Z" fill="#FFC727"/>
<path d="M701.785 489.65C702.005 489.797 702.24 489.923 702.484 490.027V489.839L701.758 489.677L701.785 489.65Z" fill="#FFC727"/>
<path d="M605.566 301.415C563.294 348.958 512.121 447.029 523.603 465.772C536.376 486.639 597.337 418.928 595.24 415.862C593.465 413.173 613.284 354.605 627.697 311.714C642.111 268.823 616.027 289.664 605.566 301.415Z" fill="#D3766A"/>
<path d="M605.566 301.415C563.294 348.958 512.121 447.029 523.603 465.772C536.376 486.639 597.337 418.928 595.24 415.862C593.465 413.173 613.284 354.605 627.697 311.714C642.111 268.823 616.027 289.664 605.566 301.415Z" fill="white"/>
<path d="M611.267 360.923C607.126 373.427 603.361 385.124 600.511 394.536C593.976 394.832 574.857 393.783 555.012 374.691C560.981 364.123 567.435 353.501 574.104 343.336C584.005 353.433 597.182 359.669 611.267 360.923Z" fill="#EBEBEB"/>
<path d="M564.801 487.444L575.396 415.511C575.396 415.511 558.401 385.931 568.27 364.419C573.245 353.662 607.423 300.849 625.816 287.484C643.08 274.953 666.744 286.381 674.784 297.272C697.91 328.627 709.178 385.044 722.085 487.364L564.801 487.444Z" fill="white"/>
<path d="M595.751 320.721C592.255 325.507 588.867 330.374 585.532 335.295C586.446 333.386 587.361 331.477 588.221 329.568C588.221 329.433 588.221 329.299 588.033 329.568C586.796 331.961 585.64 334.381 584.537 336.828C580.073 343.407 575.753 350.094 571.576 356.889C569.763 359.731 568.223 362.738 566.977 365.87C565.849 368.941 565.099 372.137 564.746 375.39C564.356 378.647 564.302 381.936 564.584 385.205C564.803 388.562 565.279 391.897 566.009 395.181C566.836 398.92 568.006 402.575 569.505 406.099C570.258 407.82 571.038 409.514 571.898 411.208C572.759 412.902 574.238 415.833 574.238 415.941C573.915 417.662 573.593 418.872 573.377 420.324C573.162 421.776 572.92 423.282 572.705 424.761C572.248 427.719 568.429 456.439 567.999 459.397C567.139 465.259 566.386 471.121 565.66 477.01C565.256 480.398 565.014 483.786 564.557 487.148C564.557 487.282 564.746 487.336 564.772 487.148C565.256 484.217 565.982 481.339 566.493 478.408C567.004 475.477 567.569 472.546 568.134 469.615C569.236 463.699 573.512 431.968 574.426 426.025C574.695 424.385 574.937 422.744 575.206 421.077C575.568 419.306 575.775 417.506 575.825 415.699C572.93 409.759 570.485 403.611 568.51 397.306C567.568 394.101 566.876 390.829 566.44 387.517C566.131 384.289 566.131 381.038 566.44 377.81C566.704 374.569 567.327 371.367 568.295 368.263C569.376 365.106 570.763 362.062 572.436 359.174C575.878 353.07 579.535 347.074 583.193 341.131C587.388 334.39 591.654 327.676 595.993 320.989C595.993 320.989 595.831 320.613 595.751 320.721Z" fill="#0D0D2B"/>
<path d="M523.607 465.772C534.364 479.621 561.873 480.939 630.767 490.727C640.286 492.098 667.957 427.399 657.846 425.436C645.127 422.935 595.191 416.051 591.48 416.024C560.152 415.648 516.266 456.387 523.607 465.772Z" fill="#D3766A"/>
<path d="M644.051 423.016C644.051 423.016 673.174 425.893 688.018 432.132C703.317 438.999 716.717 449.483 727.063 462.68C738.25 476.851 755.46 518.882 744.22 525.954C734.055 532.354 718.62 488.495 718.62 488.495C718.62 488.495 741.719 530.606 728.058 536.065C714.398 541.524 699.366 489.597 699.366 489.597C699.366 489.597 722.142 533.403 707.164 536.791C695.843 539.48 679.601 493.12 679.601 493.12C679.601 493.12 698.909 530.902 687.372 534.021C674.626 537.49 656.959 495.755 656.959 495.755C626.303 498.794 610.438 487.688 600.112 478.465C597.476 476.233 644.051 423.016 644.051 423.016Z" fill="#F7A9A0"/>
<path d="M711.411 473.434C714.315 478.274 717.273 483.168 719.72 488.25C722.167 493.333 724.453 498.523 726.416 503.82C729.141 510.682 731.054 517.839 732.117 525.145C729.266 512.318 720.769 493.978 718.295 488.869C715.821 483.76 713.67 478.597 711.223 473.514L711.411 473.434Z" fill="#0D0D2B"/>
<path d="M692.878 481.96C696.293 488.306 699.95 494.491 703.096 500.972C706.243 507.453 708.475 513.88 711.164 520.549C711.379 521.059 711.164 521.006 710.787 520.549C707.856 513.987 704.629 508.152 701.617 501.725C698.606 495.298 695.836 488.575 692.582 482.175C692.663 481.906 692.824 481.853 692.878 481.96Z" fill="#0D0D2B"/>
<path d="M675.643 486.397C681.165 496.005 685.671 506.162 689.089 516.703C689.277 517.214 688.847 517.106 688.631 516.568C684.356 506.431 681.102 498.417 675.374 486.612C675.24 486.424 675.536 486.209 675.643 486.397Z" fill="#0D0D2B"/>
<path d="M666.047 423.524L609.334 490.267C609.334 490.267 531.889 484.889 522.961 464.452C514.033 444.015 573.005 414.3 591.398 416.048C609.791 417.796 666.047 423.524 666.047 423.524Z" fill="white"/>
<path d="M561.548 424.762C566.012 421.696 578.651 414.49 591.397 415.915V416.13C580.937 416.453 566.201 422.342 561.656 424.923C561.548 425.004 561.441 424.816 561.548 424.762Z" fill="#0D0D2B"/>
<path d="M597.341 478.735C619.634 455.125 639.479 426.916 643.298 422.264C643.459 422.049 643.083 421.78 642.921 421.995C639.425 426.782 613.341 456.55 596.938 478.466C596.75 478.708 597.126 478.95 597.341 478.735Z" fill="#0D0D2B"/>
<path d="M538.584 333.092L513.445 456.213L608.006 475.52L633.144 352.4L538.584 333.092Z" fill="#BB0163"/>
<path d="M609.944 341.01L565.137 331.812L562.347 345.405L607.154 354.602L609.944 341.01Z" fill="#F9FAFD"/>
<path d="M599.733 338.981L594.22 337.825L595.484 331.586L582.093 328.816L580.802 335.082L575.289 333.953L577.629 322.551L602.153 327.579L599.733 338.981Z" fill="#F9FAFD"/>
<path d="M686.105 312.278C731.658 370.228 748.842 474.484 723.564 482.551C700.465 489.973 605.46 466.201 577.144 456.574C568.834 453.751 594.515 389.132 603.416 392.036C614.172 395.667 672.902 409.596 674.058 409.623C676.505 409.623 663.436 345.569 657.924 316.5C650.018 276.056 669.003 290.497 686.105 312.278Z" fill="#D3766A"/>
<path d="M527.448 367.785C526.096 369.434 525.284 371.458 525.12 373.584C524.957 375.71 525.45 377.835 526.534 379.671C523.063 380.717 520.066 382.942 518.063 385.963C514.782 391.342 521.962 399.005 521.962 399.005C518.582 400.839 515.836 403.651 514.083 407.073C511.394 412.639 517.633 421.298 517.633 421.298C515.458 424.685 514.579 428.743 515.159 432.727C517.149 443.322 532.45 449.345 542.05 453.271C551.65 457.197 582.924 459.214 588.813 460.209L614.52 398.172C614.52 398.172 576.04 368.242 563.966 365.231C553.935 362.703 532.853 361.547 527.448 367.785Z" fill="#F7A9A0"/>
<path d="M527.373 378.857C538.828 378.857 549.612 382.407 560.583 385.257C560.825 385.257 560.583 385.688 560.583 385.634C549.827 382.676 538.371 381.923 527.4 379.395C527.329 379.399 527.259 379.374 527.206 379.326C527.153 379.278 527.121 379.211 527.118 379.14C527.114 379.068 527.139 378.999 527.187 378.946C527.235 378.893 527.302 378.861 527.373 378.857Z" fill="#0D0D2B"/>
<path d="M522.5 398.275C525.096 398.539 527.646 399.144 530.083 400.077C532.772 400.91 535.461 401.771 537.935 402.766C543.313 404.594 548.342 406.557 553.478 408.655C553.693 408.655 553.478 409.112 553.478 409.031C548.261 407.239 543.017 405.527 537.747 403.895C535.058 403.089 532.369 402.309 529.814 401.556C527.257 401.004 524.769 400.174 522.392 399.082C522.339 399.075 522.288 399.057 522.242 399.031C522.196 399.004 522.155 398.968 522.123 398.926C522.09 398.883 522.066 398.835 522.053 398.783C522.039 398.731 522.036 398.678 522.043 398.625C522.05 398.572 522.067 398.521 522.094 398.474C522.121 398.428 522.156 398.388 522.199 398.355C522.241 398.323 522.29 398.299 522.341 398.285C522.393 398.271 522.447 398.268 522.5 398.275Z" fill="#0D0D2B"/>
<path d="M517.847 421.322C520.194 421.61 522.476 422.292 524.596 423.339C526.936 424.226 529.329 425.087 531.695 426.028C536.428 427.722 541.188 429.443 545.974 430.976C546.016 430.991 546.051 431.019 546.076 431.055C546.101 431.091 546.115 431.134 546.115 431.178C546.115 431.222 546.101 431.264 546.076 431.301C546.051 431.337 546.016 431.364 545.974 431.379C541.107 429.82 536.186 428.341 531.319 426.754L524.166 424.361C521.912 423.86 519.77 422.948 517.847 421.672C517.824 421.672 517.801 421.667 517.78 421.658C517.759 421.65 517.739 421.637 517.723 421.621C517.707 421.604 517.694 421.585 517.685 421.564C517.676 421.543 517.672 421.52 517.672 421.497C517.672 421.474 517.676 421.451 517.685 421.43C517.694 421.409 517.707 421.39 517.723 421.373C517.739 421.357 517.759 421.344 517.78 421.336C517.801 421.327 517.824 421.322 517.847 421.322Z" fill="#0D0D2B"/>
<path d="M673.277 407.014C674.003 406.557 660.37 344.708 655.798 312.412C651.227 280.116 665.64 283.236 686.373 310.826C708.612 340.406 748.222 420.433 734.481 479.7C730.044 498.9 592.551 472.009 592.551 472.009L611.079 392.977C611.079 392.977 672.067 407.687 673.277 407.014Z" fill="white"/>
<path d="M729.231 401.151C706.804 407.712 682.468 404.378 672.545 402.522C671.12 394.751 667.651 377.917 664.102 359.739C687.658 362.428 703.631 358.986 712.37 356.055C719.168 370.62 724.806 385.698 729.231 401.151Z" fill="#F9FAFD"/>
<path d="M610.463 463.888C618.826 436.352 623.424 406.181 624.607 400.964C624.607 400.722 624.258 400.668 624.231 400.964C623.343 406.127 614.308 440.063 610.032 463.862C609.978 464.077 610.382 464.13 610.463 463.888Z" fill="#0D0D2B"/>
<path d="M699.042 416.159C696.353 415.702 626.194 395.937 610.867 393.544C610.625 393.544 610.867 392.71 611.082 392.764C641.2 398.027 670.907 405.413 699.983 414.868C703.479 416.267 703.99 417.02 699.042 416.159Z" fill="#0D0D2B"/>
<path d="M672.526 407.632C672.526 407.632 667.901 383.807 667.148 382.328C666.395 380.849 664.459 377.407 663.706 375.82C662.173 372.62 660.855 369.34 659.457 366.086C659.457 365.817 659.753 365.629 659.86 365.898C661.393 369.017 663.168 372.029 664.97 375.014C665.857 376.466 666.744 377.945 667.659 379.37C667.659 379.37 663.329 356.244 662.711 352.156C662.711 351.86 662.98 351.753 663.087 352.156C664.405 356.271 673.602 402.819 674.866 407.982C674.078 407.923 673.296 407.806 672.526 407.632Z" fill="#0D0D2B"/>
<path d="M620.783 476.905C616.185 475.641 597.819 472.683 593.355 472.037C594.186 468.739 594.726 465.373 594.968 461.98C594.95 461.947 594.922 461.919 594.889 461.899C594.856 461.879 594.819 461.869 594.78 461.869C594.742 461.869 594.704 461.879 594.671 461.899C594.638 461.919 594.61 461.947 594.592 461.98C593.187 465.728 592.063 469.575 591.23 473.489C591.23 473.866 615.97 476.985 620.81 477.227C620.864 477.173 620.918 476.958 620.783 476.905Z" fill="#0D0D2B"/>
<path d="M614.625 293.321C614.625 293.321 616.454 311.499 631.539 314.322C646.625 317.146 674.78 297.354 674.78 297.354C670.91 292.659 666.065 288.86 660.581 286.223C655.097 283.586 649.106 282.172 643.022 282.08C623.365 282.053 614.625 293.321 614.625 293.321Z" fill="#F7A9A0"/>
<path d="M657.899 288.239C657.093 290.928 642.867 308.192 630.256 306.874C626.141 306.417 627.566 283.882 627.566 283.882L627.298 282.215L623.398 258.605L651.795 242.471L655.883 240.373C655.883 240.373 656.528 246.907 657.227 255.055C657.227 255.432 657.227 255.808 657.227 256.212C657.227 256.615 657.227 257.099 657.362 257.529C657.362 258.739 657.604 259.976 657.684 261.213C657.765 262.45 657.846 263.096 657.899 264.064L658.061 267.022C658.491 274.09 658.437 281.178 657.899 288.239Z" fill="#F7A9A0"/>
<path d="M657.145 255.163C654.414 261.571 650.323 267.309 645.155 271.98C639.987 276.651 633.866 280.143 627.216 282.215L623.316 258.605L651.713 242.471L655.801 240.373C655.801 240.373 656.473 247.015 657.145 255.163Z" fill="#0D0D2B"/>
<path d="M596.045 214.528C584.993 255.026 608.038 266.239 616.778 268.606C624.845 270.757 651.978 277.076 667.171 237.923C682.365 198.77 667.01 180.807 649.101 174.918C631.191 169.029 607.097 174.004 596.045 214.528Z" fill="#F7A9A0"/>
<path d="M610.65 206.596C611.645 206.596 612.559 206.596 613.554 206.596C614.566 206.764 615.605 206.594 616.512 206.112C616.776 205.91 616.962 205.624 617.041 205.301C617.119 204.978 617.084 204.638 616.942 204.337C616.588 203.783 616.092 203.334 615.506 203.036C614.919 202.738 614.264 202.602 613.607 202.643C612.253 202.509 610.898 202.894 609.816 203.719C609.562 203.917 609.373 204.187 609.274 204.494C609.174 204.801 609.169 205.13 609.259 205.44C609.349 205.749 609.529 206.025 609.777 206.231C610.025 206.437 610.329 206.565 610.65 206.596Z" fill="#0D0D2B"/>
<path d="M639.534 210.63C638.613 210.284 637.715 209.88 636.845 209.42C635.851 209.139 634.98 208.533 634.371 207.699C634.231 207.401 634.194 207.064 634.267 206.743C634.34 206.421 634.519 206.133 634.774 205.925C635.342 205.58 635.993 205.398 636.657 205.398C637.32 205.398 637.971 205.58 638.539 205.925C639.814 206.419 640.852 207.381 641.443 208.614C641.529 208.884 641.541 209.172 641.478 209.449C641.414 209.725 641.278 209.979 641.083 210.185C640.888 210.391 640.642 210.541 640.369 210.619C640.097 210.698 639.808 210.701 639.534 210.63Z" fill="#0D0D2B"/>
<path d="M630.26 223.59C630.26 223.59 630.421 223.778 630.26 223.886C629.48 226.575 629.077 229.936 631.362 231.469C631.362 231.469 631.362 231.657 631.362 231.603C628.485 230.42 629.104 226.064 630.26 223.59Z" fill="#0D0D2B"/>
<path d="M633.45 221.306C638.022 222.059 636.139 231.122 631.944 230.396C627.75 229.67 629.659 220.661 633.45 221.306Z" fill="#0D0D2B"/>
<path d="M635.148 222.139C635.82 222.812 636.411 223.887 637.353 224.183C638.294 224.479 639.45 223.726 640.364 222.973C640.364 222.973 640.526 222.973 640.364 223.107C640.015 224.855 638.993 226.496 637.084 226.361C635.174 226.227 634.395 224.452 634.395 222.623C634.502 222.301 634.879 221.87 635.148 222.139Z" fill="#0D0D2B"/>
<path d="M613.579 218.055C613.579 218.055 613.337 218.055 613.31 218.27C612.8 221.093 611.751 224.213 609.008 224.589V224.751C612.181 224.993 613.552 220.824 613.579 218.055Z" fill="#0D0D2B"/>
<path d="M611.724 214.609C607.287 213.291 605.002 222.246 609.035 223.456C613.069 224.666 615.435 215.711 611.724 214.609Z" fill="#0D0D2B"/>
<path d="M609.707 214.723C608.873 215.019 607.959 215.691 607.018 215.53C606.077 215.368 605.539 214.185 605.162 213.109C605.162 213.109 605.028 213.109 605.001 213.109C604.517 214.803 604.625 216.74 606.184 217.493C607.744 218.245 609.062 216.982 609.922 215.395C610.164 215.153 610.03 214.615 609.707 214.723Z" fill="#0D0D2B"/>
<path d="M623.101 244.78C622.321 245.318 621.514 246.125 620.412 246.044C619.372 245.855 618.384 245.452 617.508 244.861C617.508 244.861 617.319 244.861 617.346 244.861C617.662 245.48 618.138 246.004 618.724 246.377C619.311 246.751 619.986 246.961 620.681 246.985C621.292 246.934 621.874 246.702 622.352 246.319C622.831 245.936 623.185 245.419 623.37 244.834C623.424 244.78 623.236 244.7 623.101 244.78Z" fill="#0D0D2B"/>
<path d="M613.637 232.117C613.637 232.117 612.158 236.177 611.727 238.141C611.727 238.329 612.131 238.517 612.803 238.705C614.422 239.39 616.2 239.612 617.937 239.346C619.675 239.08 621.305 238.337 622.645 237.199C622.833 237.038 622.645 236.796 622.403 236.877C619.523 238.04 616.343 238.238 613.341 237.441C613.341 236.877 616.03 230.611 615.815 230.504C614.253 230.29 612.67 230.29 611.109 230.504C613.986 221.979 618.181 213.993 620.897 205.468C620.897 205.145 620.548 204.957 620.413 205.226C615.648 213.653 611.738 222.535 608.742 231.74C608.393 232.87 612.776 232.278 613.637 232.117Z" fill="#0D0D2B"/>
<path d="M613.578 238.085C614.327 239.879 615.521 241.453 617.047 242.657C617.906 243.287 618.94 243.635 620.005 243.652C622.318 243.652 622.909 241.662 622.963 239.86C622.986 238.903 622.896 237.946 622.694 237.01C619.845 238.321 616.654 238.697 613.578 238.085Z" fill="#0D0D2B"/>
<path d="M617.051 242.658C617.91 243.288 618.943 243.636 620.009 243.653C622.321 243.653 622.913 241.663 622.967 239.861C621.81 239.612 620.604 239.751 619.534 240.256C618.465 240.762 617.592 241.606 617.051 242.658Z" fill="#FF9CBD"/>
<path d="M664.915 237.255C660.586 235.723 652.599 220.341 658.354 199.017C658.354 199.017 654.508 218.539 655.154 221.739C655.799 224.939 650.69 213.08 655.154 195.817C648.653 198.141 641.852 199.518 634.959 199.904C626.246 199.904 621.298 198.344 620.895 197.591C620.491 196.838 633.453 196.516 637.728 193.719C637.728 193.719 613.365 197.564 603.227 195.467C602.071 195.225 607.449 171.265 625.654 165.645C643.859 160.025 665.023 177.8 669.755 185.974C669.755 185.974 677.097 189.255 682.179 202.996C687.261 216.738 669.567 238.896 664.915 237.255Z" fill="#0D0D2B"/>
<path d="M658.654 238.14C658.654 238.14 670.002 226.872 675.273 231.148C680.543 235.424 670.352 252.903 663.037 254.194C662.113 254.428 661.151 254.474 660.209 254.329C659.266 254.184 658.363 253.851 657.553 253.349C656.742 252.847 656.041 252.187 655.491 251.408C654.941 250.629 654.553 249.747 654.352 248.815L658.654 238.14Z" fill="#F7A9A0"/>
<path d="M672.227 236.098C672.227 236.098 672.227 236.26 672.227 236.287C667.064 237.362 663.703 241.369 661.095 245.672C661.461 245.236 661.917 244.886 662.433 244.646C662.949 244.406 663.511 244.281 664.08 244.281C664.648 244.281 665.21 244.406 665.726 244.646C666.242 244.886 666.698 245.236 667.064 245.672C667.064 245.672 667.064 245.94 666.876 245.887C666.079 245.462 665.169 245.296 664.272 245.412C663.376 245.528 662.538 245.919 661.875 246.532C660.775 247.567 659.784 248.712 658.916 249.947C658.594 250.351 657.868 249.947 658.137 249.517C659.185 243.224 665.505 235.507 672.227 236.098Z" fill="#0D0D2B"/>
<path d="M768.898 476.527C769.005 477.025 769.086 477.527 769.141 478.033C769.154 477.935 769.154 477.836 769.141 477.737C769.06 477.334 768.979 476.931 768.898 476.527Z" fill="#FFC727"/>
<path d="M768.898 476.527C769.005 477.025 769.086 477.527 769.141 478.033C769.154 477.935 769.154 477.836 769.141 477.737C769.06 477.334 768.979 476.931 768.898 476.527Z" fill="#FFC727"/>
<path d="M768.898 476.527C769.005 477.025 769.086 477.527 769.141 478.033C769.154 477.935 769.154 477.836 769.141 477.737C769.06 477.334 768.979 476.931 768.898 476.527Z" fill="#DBDBDB"/>
<path d="M0.0625 27.0781V132.974H106.093V27.0781H0.0625ZM8.12975 125.068V35.0647H98.0796V125.068H8.12975Z" fill="#FF78BF"/>
<path d="M435.121 0H75.4023V331.268H435.121V0Z" fill="#0D0D2B"/>
<path d="M319.522 164.28C363.354 208.703 418.48 302.149 408.262 321.107C396.806 342.216 335.791 279.937 336.006 276.28C336.194 273.591 314.735 216.771 298.359 175.493C281.982 134.216 308.685 153.281 319.522 164.28Z" fill="#F7A9A0"/>
<path d="M335.554 276.356C333.698 270.279 304.468 195.442 296.132 171.751C287.796 148.06 295.513 140.773 319.366 162.447C343.218 184.121 395.493 256.565 407.433 294.992C418.915 331.966 399.85 331.966 374.787 314.945C354.108 300.988 335.554 276.356 335.554 276.356Z" fill="#FF78BF"/>
<path opacity="0.1" d="M315.22 164.898C314.65 168.22 313.223 171.334 311.079 173.934C311.35 172.278 311.848 170.667 312.558 169.147C313.254 167.62 314.149 166.191 315.22 164.898ZM387.503 267.837C386.773 269.349 386.275 270.963 386.023 272.623C387.119 271.343 388.024 269.912 388.713 268.374C389.423 266.854 389.92 265.244 390.192 263.588C389.087 264.861 388.181 266.293 387.503 267.837ZM361.66 228.495C360.935 230.019 360.437 231.641 360.181 233.309C361.271 232.015 362.176 230.576 362.871 229.033C363.588 227.516 364.086 225.904 364.349 224.247C363.26 225.531 362.355 226.961 361.66 228.495ZM334.77 218.626C333.257 217.897 331.643 217.398 329.983 217.147C332.582 219.291 335.697 220.719 339.018 221.289C337.753 220.207 336.341 219.311 334.823 218.626H334.77ZM358.971 258.398C357.448 257.672 355.826 257.174 354.158 256.919C355.452 258.009 356.891 258.914 358.434 259.608C359.951 260.325 361.563 260.823 363.22 261.087C361.952 260.002 360.541 259.097 359.025 258.398H358.971ZM339.287 190.283C337.775 189.554 336.161 189.055 334.501 188.804C335.781 189.9 337.212 190.805 338.749 191.493C340.264 192.219 341.876 192.717 343.536 192.972C342.272 191.882 340.86 190.976 339.341 190.283H339.287ZM324.282 243.393C324.852 244.973 325.639 246.467 326.622 247.83C326.294 244.471 325.098 241.256 323.153 238.499C323.326 240.176 323.724 241.822 324.336 243.393H324.282ZM374.918 290.774C375.481 292.358 376.269 293.852 377.257 295.211C376.929 291.853 375.734 288.637 373.788 285.88C373.945 287.56 374.344 289.208 374.971 290.774H374.918ZM340.82 282.707L341.707 283.756C343.174 283.215 344.559 282.472 345.822 281.551C344.121 281.719 342.454 282.136 340.874 282.788L340.82 282.707ZM400.813 310.996C402.397 310.432 403.891 309.645 405.25 308.657C403.573 308.796 401.925 309.177 400.356 309.786C398.768 310.339 397.272 311.128 395.919 312.126C397.609 312.004 399.274 311.651 400.867 311.077L400.813 310.996ZM310.81 201.309C309.713 201.714 308.652 202.209 307.637 202.788L307.879 203.46C309.027 203.257 310.153 202.942 311.24 202.519C312.837 201.966 314.341 201.178 315.704 200.179C314.043 200.36 312.414 200.767 310.864 201.389L310.81 201.309Z" fill="black"/>
<path d="M330.305 331.345H163.582C163.582 331.345 190.07 200.656 253.962 144.078C261.868 137.086 279.67 138.699 291.313 144.454C295.455 146.525 310.352 167.365 314.601 187.076C318.85 206.787 330.789 330.754 330.305 331.345Z" fill="#FF78BF"/>
<path d="M316.166 195.232C317.483 199.642 318.559 204.186 319.446 208.677C319.433 208.498 319.433 208.318 319.446 208.139C319.446 205.45 319.446 202.949 319.796 200.368C319.796 200.368 320.038 200.206 320.038 200.368C320.378 202.962 320.45 205.584 320.253 208.193C320.253 209.403 320.119 210.64 320.011 211.877C320.361 213.921 320.683 215.991 320.925 218.035C321.436 221.907 322.727 236.402 322.834 239.279C322.834 239.87 322.162 239.978 322.001 239.279C321.221 236.375 319.15 221.423 318.478 217.578C317.178 210.129 316.281 202.616 315.789 195.07C315.87 195.07 316.112 195.07 316.166 195.232Z" fill="#263238"/>
<path opacity="0.1" d="M264.53 178.209C264.257 179.868 263.75 181.479 263.024 182.996C262.346 184.539 261.439 185.971 260.335 187.244C260.612 185.587 261.119 183.975 261.841 182.458C262.525 180.918 263.431 179.487 264.53 178.209ZM241.942 244.576C241.212 246.088 240.714 247.702 240.463 249.362C242.607 246.763 244.034 243.648 244.604 240.327C243.518 241.609 242.621 243.039 241.942 244.576ZM187.81 268.32C187.085 269.844 186.586 271.465 186.331 273.134C187.421 271.849 188.326 270.419 189.02 268.885C189.746 267.361 190.244 265.74 190.499 264.071C189.41 265.356 188.505 266.786 187.81 268.32ZM227.609 310.888C226.879 312.401 226.381 314.014 226.13 315.675C227.21 314.384 228.114 312.955 228.819 311.426C229.52 309.893 230.018 308.275 230.298 306.613C229.199 307.9 228.293 309.34 227.609 310.888ZM297.068 228.656C296.354 230.184 295.856 231.804 295.589 233.47C296.688 232.183 297.594 230.742 298.278 229.194C299.007 227.681 299.506 226.068 299.757 224.407C298.677 225.699 297.772 227.127 297.068 228.656ZM318.957 273.806C318.231 275.329 317.733 276.951 317.478 278.619C318.567 277.335 319.472 275.905 320.167 274.371C320.893 272.847 321.391 271.225 321.646 269.557C320.564 270.847 319.659 272.276 318.957 273.806ZM265.982 306.344C265.28 307.877 264.783 309.495 264.503 311.157C265.602 309.87 266.508 308.43 267.192 306.882C267.918 305.365 268.425 303.754 268.698 302.095C267.6 303.379 266.686 304.809 265.982 306.344ZM215.239 218.33C214.517 219.848 214.01 221.459 213.733 223.117C214.837 221.843 215.744 220.411 216.422 218.868C217.148 217.352 217.655 215.74 217.928 214.081C216.829 215.359 215.924 216.79 215.239 218.33ZM278.217 203.486C276.705 202.757 275.091 202.258 273.431 202.007C274.711 203.103 276.142 204.008 277.679 204.696C279.198 205.41 280.809 205.908 282.466 206.175C281.186 205.08 279.755 204.175 278.217 203.486ZM288.732 257.107C287.219 256.377 285.605 255.879 283.945 255.628C285.232 256.714 286.661 257.619 288.194 258.317C289.711 259.034 291.323 259.532 292.98 259.796C291.707 258.691 290.275 257.785 288.732 257.107ZM190.741 313.927C189.225 313.201 187.614 312.694 185.955 312.421C187.228 313.525 188.66 314.432 190.204 315.11C191.723 315.829 193.333 316.335 194.99 316.616C193.717 315.512 192.284 314.605 190.741 313.927ZM290.453 324.683C288.934 323.97 287.323 323.472 285.666 323.204C286.946 324.3 288.377 325.205 289.915 325.893L290.937 326.351C291.824 326.351 292.685 326.351 293.626 326.512C292.625 325.831 291.563 325.246 290.453 324.764V324.683ZM228.2 270.418C226.683 269.7 225.071 269.203 223.414 268.939C224.687 270.043 226.119 270.95 227.663 271.628C229.178 272.349 230.79 272.848 232.449 273.107C231.157 272.049 229.728 271.172 228.2 270.498V270.418ZM278.217 155.943C276.701 155.217 275.089 154.71 273.431 154.438C274.712 155.532 276.142 156.437 277.679 157.127C279.203 157.828 280.812 158.325 282.466 158.606C281.186 157.539 279.754 156.669 278.217 156.024V155.943ZM288.974 180.817C289.532 182.403 290.32 183.898 291.313 185.254C291.163 183.579 290.783 181.932 290.184 180.36C289.615 178.779 288.827 177.286 287.844 175.923C287.997 177.63 288.395 179.306 289.027 180.898L288.974 180.817ZM315.622 304.919C316.175 306.507 316.964 308.002 317.962 309.356C317.634 305.997 316.438 302.782 314.493 300.024C314.633 301.702 315.013 303.35 315.622 304.919ZM244.12 212.065C244.694 213.643 245.481 215.136 246.459 216.502C246.329 214.826 245.957 213.177 245.357 211.607C244.782 210.029 243.995 208.536 243.017 207.17C243.117 208.838 243.443 210.484 243.985 212.065H244.12ZM264.718 266.653C265.276 268.239 266.064 269.734 267.058 271.09C266.915 269.413 266.534 267.765 265.928 266.196C265.359 264.615 264.571 263.122 263.589 261.759C263.665 263.427 263.982 265.076 264.53 266.653H264.718ZM169.229 330.68C169.215 330.904 169.215 331.128 169.229 331.352H169.659L169.229 330.68ZM216.126 330.465C215.563 328.873 214.775 327.37 213.787 326.001C213.923 327.679 214.304 329.327 214.916 330.895L215.078 331.352H216.422C216.126 331.057 216.126 330.761 216.126 330.465ZM206.553 291.984C207.123 293.565 207.91 295.058 208.893 296.421C208.756 294.743 208.376 293.095 207.763 291.527C207.205 289.941 206.417 288.446 205.424 287.09C205.523 288.76 205.858 290.408 206.419 291.984H206.553ZM246.889 163.5C247.436 165.09 248.226 166.587 249.229 167.937C249.086 166.26 248.706 164.612 248.1 163.043C247.53 161.462 246.743 159.968 245.76 158.606C245.862 160.278 246.206 161.926 246.782 163.5H246.889ZM291.421 289.429C293.002 288.861 294.495 288.073 295.858 287.09C294.182 287.221 292.533 287.592 290.963 288.193C289.385 288.767 287.892 289.554 286.527 290.532C288.202 290.401 289.851 290.03 291.421 289.429ZM247.75 329.551C249.333 328.987 250.827 328.199 252.187 327.211C248.829 327.539 245.613 328.735 242.856 330.68C244.533 330.54 246.181 330.16 247.75 329.551ZM173.558 293.221C173.558 293.598 173.316 293.974 173.209 294.35C174.012 293.956 174.777 293.488 175.494 292.952C174.844 292.998 174.197 293.088 173.558 293.221ZM211.582 246.996C213.174 246.433 214.677 245.645 216.046 244.656C214.368 244.793 212.719 245.173 211.152 245.786C209.56 246.349 208.057 247.137 206.688 248.125C208.363 247.975 210.01 247.595 211.582 246.996ZM246.54 291.151C248.153 290.638 249.684 289.895 251.084 288.945C247.726 289.274 244.51 290.469 241.753 292.414C243.41 292.224 245.031 291.799 246.567 291.151H246.54ZM267.219 227.823C268.806 227.248 270.307 226.461 271.683 225.483C270.006 225.611 268.358 225.982 266.789 226.586C265.208 227.154 263.714 227.942 262.352 228.925C264.019 228.795 265.658 228.423 267.219 227.823ZM311.185 202.599C312.782 202.046 314.287 201.258 315.649 200.259C313.972 200.396 312.323 200.777 310.755 201.389C309.169 201.947 307.674 202.735 306.318 203.728C308.023 203.599 309.699 203.218 311.293 202.599H311.185ZM232.584 187.863C234.167 187.299 235.661 186.511 237.02 185.523C233.662 185.851 230.447 187.047 227.689 188.992C229.403 188.863 231.088 188.482 232.691 187.863H232.584Z" fill="black"/>
<path d="M109.778 92.6397C109.428 84.5724 111.042 47.8126 113.784 37.6748C116.527 27.537 126.531 -1.10178 134.517 0.215873C142.504 1.53352 140.245 10.1386 140.245 10.1386C140.245 10.1386 146.376 -1.29 154.309 0.753702C162.242 2.79741 158.262 16.1084 158.262 16.1084C158.262 16.1084 165.415 4.8411 173.186 7.44951C180.958 10.0579 174.719 22.7504 174.719 22.7504C174.719 22.7504 180.77 12.1554 186.255 16.9958C192.844 22.8042 179.452 41.1975 177.274 52.5186C176.763 55.2076 170.927 105.843 170.927 105.843L109.778 92.6397Z" fill="#F7A9A0"/>
<path d="M175.224 21.7252C165.382 35.1706 163.419 42.8076 162.343 59.1841C162.343 59.5068 161.832 59.5337 161.832 59.1841C161.429 43.0496 162.531 33.1538 174.578 21.1874C175.17 20.6496 175.788 21.1067 175.224 21.7252Z" fill="#263238"/>
<path d="M159.072 15.1383C150.091 30.0089 147.886 38.2375 145.465 55.2863C145.465 55.5283 145.035 55.5014 145.035 55.2863C146.003 38.3451 147.321 28.3955 158.239 14.95C158.749 14.1702 159.476 14.4391 159.072 15.1383Z" fill="#263238"/>
<path d="M140.136 11.0833C132.499 26.1153 129.702 35.043 129.379 51.9036C129.359 51.9702 129.319 52.0286 129.263 52.0701C129.207 52.1117 129.139 52.1341 129.07 52.1341C129 52.1341 128.933 52.1117 128.877 52.0701C128.821 52.0286 128.781 51.9702 128.761 51.9036C127.309 34.6934 130.724 23.5337 139.517 10.8682C140.27 10.0345 140.62 10.1421 140.136 11.0833Z" fill="#263238"/>
<path d="M170.419 116.412C170.419 116.412 185.612 102.08 190.91 94.3351C196.207 86.5906 205.296 50.3686 197.579 47.9484C187.629 44.856 178.271 64.7014 174.963 75.0275C174.963 75.0275 151.945 67.8207 142.157 80.6208C132.368 93.4208 170.419 116.412 170.419 116.412Z" fill="#F7A9A0"/>
<path d="M194.617 47.9947C183.511 51.7056 180.042 65.5275 176.062 75.3157C176.011 75.4637 175.925 75.5971 175.811 75.7045C175.697 75.812 175.559 75.8902 175.409 75.9325C175.258 75.9748 175.099 75.9799 174.946 75.9474C174.793 75.9149 174.65 75.8458 174.529 75.746C164.687 73.3527 150.113 72.8687 142.26 79.9678C142.218 80.0178 142.157 80.0487 142.091 80.0537C142.026 80.0588 141.961 80.0375 141.911 79.9947C141.861 79.952 141.83 79.8911 141.825 79.8255C141.82 79.76 141.841 79.6951 141.884 79.6452C149.44 70.8519 163.8 70.1796 174.422 73.4603C178.321 63.3762 182.489 49.635 194.724 47.8871C194.617 47.8602 194.617 47.9678 194.617 47.9947Z" fill="#263238"/>
<path d="M263.271 163.58C253.268 180.898 195.453 234.276 144.952 243.527C138.121 244.764 112.091 239.278 106.632 222.014C96.9246 191.251 104.696 127.735 109.644 89.496C110.612 82.0472 179.937 97.375 178.135 108.777C176.145 121.415 168.723 167.802 169.879 168.34C174.021 170.249 218.283 151.103 247.406 144.837C268.112 140.373 270.989 150.242 263.271 163.58Z" fill="#F7A9A0"/>
<path d="M99.9321 108.371L178.937 125.474C178.937 125.474 171.757 165.81 173.156 165.622C174.554 165.433 230.003 145.158 251.381 143.033C272.759 140.909 272.733 150.321 261.896 167.961C251.059 185.602 180.067 244.654 145.082 244.654C127.28 244.654 110.715 233.252 107.435 227.793C97.4581 210.96 99.9321 108.371 99.9321 108.371Z" fill="#455A64"/>
<path d="M99.9321 108.371L178.937 125.474C178.937 125.474 171.757 165.81 173.156 165.622C174.554 165.433 230.003 145.158 251.381 143.033C272.759 140.909 272.733 150.321 261.896 167.961C251.059 185.602 180.067 244.654 145.082 244.654C127.28 244.654 110.715 233.252 107.435 227.793C97.4581 210.96 99.9321 108.371 99.9321 108.371Z" fill="#FF78BF"/>
<path opacity="0.1" d="M213.142 164.624C212.425 166.142 211.927 167.753 211.663 169.411C212.767 168.138 213.674 166.705 214.352 165.162C215.078 163.648 215.576 162.035 215.831 160.376C214.745 161.662 213.84 163.092 213.142 164.624ZM150.379 235.159C149.649 236.672 149.151 238.285 148.9 239.946C151.044 237.346 152.471 234.231 153.041 230.91C151.961 232.196 151.065 233.626 150.379 235.159ZM103.857 186.756C103.12 188.267 102.612 189.88 102.352 191.542C103.446 190.261 104.351 188.83 105.041 187.293C105.745 185.771 106.242 184.161 106.52 182.507C105.43 183.786 104.534 185.217 103.857 186.756ZM172.617 186.944C171.904 188.472 171.406 190.092 171.138 191.757C172.243 190.474 173.15 189.033 173.827 187.482C174.553 185.965 175.06 184.354 175.333 182.695C174.23 183.984 173.316 185.424 172.617 186.971V186.944ZM138.143 206.897C137.433 208.417 136.936 210.028 136.664 211.683C137.769 210.41 138.675 208.978 139.353 207.435C140.079 205.918 140.587 204.307 140.859 202.648C139.756 203.927 138.841 205.358 138.143 206.897ZM141.209 158.332C140.487 159.848 139.989 161.46 139.73 163.118C141.874 160.519 143.302 157.404 143.871 154.083C142.738 155.356 141.796 156.788 141.074 158.332H141.209ZM105.874 122.218C105.148 123.734 104.641 125.345 104.368 127.004C105.481 125.737 106.389 124.303 107.057 122.755C107.78 121.238 108.286 119.627 108.563 117.969C107.468 119.249 106.562 120.68 105.874 122.218ZM247.938 163.011C247.375 161.428 246.587 159.934 245.599 158.574C245.736 160.252 246.116 161.9 246.728 163.468C247.277 165.053 248.056 166.548 249.041 167.905C248.925 166.241 248.572 164.602 247.992 163.038L247.938 163.011ZM201.148 195.28C200.58 193.699 199.792 192.205 198.809 190.843C198.949 192.52 199.329 194.168 199.938 195.737C200.491 197.325 201.28 198.821 202.278 200.174C202.14 198.519 201.779 196.891 201.202 195.334L201.148 195.28ZM166.002 158.897C165.438 157.313 164.65 155.819 163.663 154.46C163.991 157.818 165.186 161.034 167.132 163.791C167.004 162.134 166.642 160.505 166.056 158.95L166.002 158.897ZM161.458 211.549C160.894 209.966 160.106 208.471 159.118 207.112C159.258 208.789 159.638 210.437 160.248 212.006C160.805 213.592 161.594 215.087 162.587 216.443C162.46 214.787 162.097 213.157 161.511 211.603L161.458 211.549ZM116.389 205.875C115.831 204.289 115.042 202.794 114.049 201.438C114.205 203.112 114.585 204.758 115.178 206.332C115.742 207.915 116.53 209.409 117.518 210.769C117.393 209.112 117.031 207.482 116.442 205.929L116.389 205.875ZM130.614 131.441C130.051 129.849 129.263 128.346 128.274 126.977C128.405 128.662 128.776 130.319 129.377 131.898C129.957 133.474 130.744 134.966 131.716 136.335C131.601 134.68 131.248 133.05 130.668 131.495L130.614 131.441ZM125.236 173.66C124.667 172.079 123.879 170.585 122.896 169.223C123.036 170.9 123.416 172.548 124.026 174.117C124.583 175.703 125.372 177.198 126.365 178.554C126.258 176.9 125.914 175.27 125.343 173.713L125.236 173.66ZM232.261 186.756C230.678 187.319 229.184 188.107 227.824 189.095C229.501 188.952 231.149 188.572 232.718 187.966C234.302 187.402 235.796 186.614 237.155 185.626C235.478 185.766 233.83 186.146 232.261 186.756ZM148.684 184.819C147.109 185.4 145.617 186.186 144.247 187.159C145.925 187.022 147.574 186.642 149.142 186.029C150.727 185.472 152.222 184.683 153.579 183.69C151.898 183.792 150.24 184.137 148.658 184.712L148.684 184.819ZM156.59 135.179C155.009 135.748 153.516 136.535 152.153 137.518C153.822 137.378 155.461 136.998 157.021 136.389C158.611 135.842 160.108 135.053 161.458 134.049C159.786 134.152 158.137 134.496 156.563 135.071L156.59 135.179ZM111.736 150.749C110.155 151.317 108.662 152.105 107.299 153.088C110.659 152.785 113.879 151.598 116.631 149.646C114.952 149.75 113.296 150.085 111.71 150.641L111.736 150.749ZM186.305 217.976C184.726 218.55 183.234 219.337 181.868 220.315C185.228 220.012 188.447 218.825 191.199 216.873C189.514 217.001 187.856 217.373 186.278 217.976H186.305ZM126.257 231.125C124.674 231.689 123.18 232.477 121.82 233.465C123.498 233.328 125.147 232.948 126.715 232.335C128.3 231.778 129.795 230.989 131.152 229.996C129.465 230.133 127.808 230.513 126.231 231.125H126.257ZM190.984 164.275C189.403 164.844 187.909 165.631 186.547 166.614C188.22 166.467 189.866 166.096 191.441 165.512C193.017 164.931 194.509 164.145 195.878 163.172C194.192 163.297 192.535 163.669 190.957 164.275H190.984Z" fill="black"/>
<path d="M173.774 165.967C173.173 171.989 172.122 177.957 170.628 183.822C169.31 189.792 167.428 195.573 165.68 201.409H165.465C166.998 195.547 168.154 189.55 169.391 183.607C170.628 177.664 171.569 171.721 173.102 165.859C173.102 165.429 173.801 165.563 173.774 165.967Z" fill="#263238"/>
<path d="M174.284 140.373C165.141 138.114 155.891 136.313 146.613 134.565C137.336 132.817 128.059 131.015 118.754 129.482C113.376 128.622 108.213 127.734 102.916 127.035C102.916 127.035 102.727 127.25 102.916 127.277C112.032 129.563 121.309 131.391 130.559 133.22C139.81 135.049 149.114 136.77 158.391 138.41C163.77 139.324 168.933 140.158 174.23 140.83C174.418 140.884 174.553 140.454 174.284 140.373Z" fill="#263238"/>
<path d="M200.37 221.069C201.822 219.779 203.435 218.676 204.968 217.493C206.501 216.31 207.926 215.153 209.432 214.024L218.575 207.006C224.652 202.3 230.622 197.432 236.645 192.646C240.087 189.957 243.476 187.268 246.864 184.363C246.878 184.351 246.894 184.342 246.912 184.336C246.93 184.33 246.949 184.327 246.968 184.328C246.986 184.33 247.005 184.335 247.021 184.343C247.038 184.351 247.053 184.363 247.066 184.377C247.078 184.391 247.087 184.407 247.093 184.425C247.099 184.443 247.102 184.462 247.101 184.481C247.099 184.499 247.094 184.518 247.086 184.534C247.078 184.551 247.066 184.566 247.052 184.579C242.911 188.478 238.716 192.323 234.413 196.034L236.027 195.254C237.694 194.421 239.308 193.533 240.921 192.565C240.921 192.565 241.163 192.7 240.921 192.78C239.408 193.849 237.827 194.819 236.188 195.685C235.382 196.115 234.575 196.545 233.741 196.921L232.531 197.432C231.563 198.266 230.595 199.1 229.6 199.906C223.63 204.783 217.535 209.471 211.314 213.97C209.521 215.207 207.774 216.417 206.071 217.601C204.215 218.811 202.413 220.155 200.45 221.258C200.417 221.241 200.391 221.212 200.376 221.178C200.362 221.144 200.359 221.105 200.37 221.069Z" fill="#263238"/>
<path d="M278.785 183.982L288.009 169.945L296.694 181.75L293.145 192.184L283.303 192.399L278.785 183.982Z" fill="#263238"/>
<path d="M283.303 192.407L266.953 301.126L283.545 339.446L298.523 299.943L293.145 192.191L283.303 192.407Z" fill="#263238"/>
<path d="M291.427 168.953C281.826 171.266 265.235 156.691 258.647 144.751C258.189 143.945 259.4 135.34 260.341 124.798C260.905 118.398 261.363 111.353 261.336 104.711L302.425 114.419C300.133 122.612 298.859 131.057 298.633 139.561C298.631 140.466 298.73 141.368 298.929 142.251C298.929 142.385 298.929 142.519 298.929 142.708C299.736 147.844 300.596 166.667 291.427 168.953Z" fill="#F7A9A0"/>
<path d="M264.105 105.465C265.369 114.124 271.232 142.628 294.653 143.112C296.065 143.147 297.477 143.066 298.875 142.87C298.865 142.718 298.865 142.565 298.875 142.413C298.68 141.529 298.572 140.628 298.553 139.724C298.799 131.219 300.082 122.776 302.371 114.581L264.105 105.465Z" fill="#263238"/>
<path d="M251.762 58.9142C248.616 73.7848 259.991 114.982 271.124 123.452C287.258 135.661 311.836 134.773 321.732 115.788C331.332 97.395 315.574 43.9898 303.312 36.541C285.241 25.4082 256.468 36.9175 251.762 58.9142Z" fill="#F7A9A0"/>
<path d="M288.439 83.3359C288.439 83.3359 288.251 83.5242 288.278 83.6317C289.111 86.3208 289.622 89.6822 287.363 91.2956C287.363 91.2956 287.363 91.4839 287.363 91.4301C290.375 90.1662 289.676 85.8099 288.439 83.3359Z" fill="#263238"/>
<path d="M285.162 81.104C280.617 81.9645 282.688 91.0267 286.91 90.22C291.131 89.4132 288.98 80.3779 285.162 81.104Z" fill="#263238"/>
<path d="M305.164 79.1989C305.164 79.0645 305.406 79.199 305.433 79.3872C305.971 82.2107 307.1 85.3569 309.843 85.7065V85.8679C306.67 86.1099 305.218 81.888 305.164 79.1989Z" fill="#263238"/>
<path d="M306.994 75.6459C311.431 74.2745 313.851 83.256 309.683 84.5199C305.515 85.7838 303.283 76.8022 306.994 75.6459Z" fill="#263238"/>
<path d="M280.673 77.7918C281.83 77.2002 282.798 76.4473 283.9 75.7482C285.003 75.049 286.186 74.4305 286.778 73.0591C286.907 72.6474 286.896 72.2041 286.745 71.7997C286.594 71.3953 286.312 71.053 285.944 70.8271C285.151 70.4754 284.277 70.3447 283.415 70.4489C282.554 70.553 281.737 70.8881 281.05 71.4187C279.488 72.2785 278.3 73.6869 277.715 75.3717C277.611 75.7614 277.622 76.1728 277.746 76.5567C277.87 76.9405 278.102 77.2805 278.414 77.5359C278.726 77.7913 279.105 77.9513 279.506 77.9967C279.907 78.0421 280.312 77.971 280.673 77.7918Z" fill="white"/>
<path d="M309.441 70.2956C308.169 70.3624 306.894 70.3624 305.622 70.2956C304.28 70.4523 302.924 70.1489 301.777 69.4351C301.453 69.1442 301.235 68.7539 301.157 68.3255C301.079 67.8971 301.146 67.455 301.346 67.0687C301.857 66.3693 302.544 65.8186 303.339 65.4735C304.133 65.1285 305.004 65.0015 305.864 65.1057C307.641 65.0434 309.377 65.6477 310.731 66.7998C310.991 67.0839 311.167 67.4339 311.241 67.8115C311.315 68.1891 311.283 68.5797 311.15 68.9406C311.017 69.3015 310.787 69.6188 310.485 69.8578C310.184 70.0968 309.822 70.2483 309.441 70.2956Z" fill="white"/>
<path d="M293.711 100.14C294.687 101.073 295.845 101.794 297.113 102.257C298.381 102.72 299.732 102.915 301.079 102.829C302.26 102.796 303.429 102.587 304.548 102.211L305.167 101.996L305.785 101.754C305.923 101.687 306.037 101.578 306.109 101.443C306.182 101.307 306.209 101.153 306.188 101.001C306.2 100.902 306.2 100.803 306.188 100.705V100.463C305.758 98.2847 304.79 95.0847 304.79 95.0847C305.678 95.2998 310.168 96.1872 309.792 95.0847C307.304 85.4115 303.844 76.0146 299.466 67.0375C299.441 66.9697 299.39 66.9147 299.324 66.8844C299.259 66.8542 299.184 66.8512 299.116 66.8762C299.048 66.9011 298.993 66.952 298.963 67.0176C298.933 67.0831 298.93 67.158 298.955 67.2257C301.214 76.1804 305.005 84.6779 307.399 93.6325C305.818 93.2929 304.197 93.1842 302.585 93.3098C302.289 93.4712 304.548 99.5216 304.683 100.517C302.954 101.109 301.124 101.343 299.302 101.204C297.48 101.066 295.706 100.557 294.088 99.7099C293.684 99.7099 293.496 99.9519 293.711 100.14Z" fill="#263238"/>
<path d="M303.044 101.832C302.123 103.615 300.762 105.133 299.091 106.243C298.167 106.795 297.099 107.057 296.025 106.995C293.632 106.807 293.336 104.737 293.336 102.908C293.382 101.922 293.554 100.946 293.847 100.004C296.641 101.573 299.862 102.213 303.044 101.832Z" fill="#263238"/>
<path d="M299.091 106.248C298.167 106.799 297.099 107.062 296.025 107C293.632 106.812 293.336 104.742 293.336 102.913C294.53 102.743 295.747 102.979 296.791 103.584C297.834 104.189 298.644 105.127 299.091 106.248Z" fill="#FF9CBD"/>
<g opacity="0.2">
<path d="M292.774 64.026C294.266 63.8962 295.748 63.6716 297.211 63.3538C298.69 62.9773 300.062 62.305 301.541 61.9554C304.378 61.4576 307.281 61.4576 310.119 61.9554C310.361 61.9554 310.361 62.1437 310.119 62.1168C307.116 61.7101 304.062 61.9577 301.164 62.8428C298.855 63.7585 296.429 64.3468 293.957 64.5907C288.286 64.6244 282.77 66.4504 278.199 69.8075C282.37 66.4667 287.447 64.4529 292.774 64.026Z" fill="black"/>
<path d="M291.802 60.1013C293.223 60.0026 294.634 59.7958 296.024 59.4828C297.422 59.1332 298.713 58.4878 300.138 58.1651C302.807 57.7002 305.536 57.7002 308.205 58.1651C308.447 58.1651 308.447 58.3534 308.205 58.3265C305.355 57.9635 302.46 58.2017 299.708 59.0256C297.52 59.8931 295.221 60.4454 292.878 60.666C287.503 60.7094 282.279 62.4506 277.953 65.6408C281.916 62.4592 286.738 60.5306 291.802 60.1013Z" fill="black"/>
</g>
<path d="M255.849 94.4106C255.849 94.4106 241.435 70.666 242.78 56.9248C243.372 50.713 251.815 46.545 251.815 46.545C251.167 44.012 251.238 41.3483 252.022 38.8539C252.806 36.3595 254.271 34.1337 256.252 32.4273C263.593 25.5163 281.368 27.0491 281.368 27.0491C281.368 27.0491 292.878 10.4037 309.173 16.9919C325.469 23.5802 314.874 42.0542 314.874 42.0542C314.874 42.0542 320.844 50.5517 306.242 57.1937C291.641 63.8358 262.948 57.3282 262.948 57.3282C264.311 67.3325 264.166 77.4847 262.518 87.4459C262.154 89.1078 261.339 90.6372 260.163 91.866C258.986 93.0947 257.493 93.9752 255.849 94.4106Z" fill="white"/>
<path d="M284.161 27.2656C280.527 25.7887 276.626 25.0836 272.706 25.195C269.197 25.1373 265.704 25.683 262.379 26.8085C259.387 27.657 256.682 29.3042 254.555 31.5735C252.428 33.8427 250.959 36.6483 250.305 39.6892C250.068 41.2673 250.148 42.8769 250.54 44.4238C250.933 45.9707 251.63 47.4236 252.591 48.6976C252.591 48.6976 252.833 48.6976 252.753 48.6976C248.988 44.0186 250.951 36.7581 254.85 32.8589C259.613 28.7174 265.721 26.452 272.033 26.4858C276.076 26.4345 280.11 26.8587 284.053 27.7497C284.296 27.669 284.376 27.3732 284.161 27.2656Z" fill="white"/>
<path d="M263.723 92.2388C263.723 92.2388 252.805 79.7614 247.024 83.795C241.242 87.8287 250.52 106.652 257.995 108.535C258.939 108.848 259.937 108.966 260.928 108.882C261.919 108.798 262.882 108.513 263.76 108.045C264.637 107.578 265.411 106.937 266.033 106.161C266.655 105.385 267.114 104.491 267.38 103.533L263.723 92.2388Z" fill="#F7A9A0"/>
<path d="M249.828 89.1182V89.3064C255.206 90.8123 258.272 95.1955 260.584 99.8476C260.232 99.3775 259.783 98.9884 259.267 98.7063C258.752 98.4243 258.182 98.256 257.596 98.2127C257.01 98.1694 256.421 98.2521 255.87 98.4552C255.319 98.6584 254.817 98.9773 254.4 99.3905C254.364 99.4154 254.34 99.4536 254.332 99.4964C254.324 99.5393 254.334 99.5834 254.359 99.6191C254.384 99.6547 254.422 99.679 254.465 99.6866C254.508 99.6941 254.552 99.6844 254.588 99.6594C255.44 99.2773 256.39 99.1704 257.306 99.3536C258.222 99.5367 259.057 100.001 259.697 100.681C260.726 101.836 261.628 103.098 262.386 104.446C262.655 104.876 263.462 104.446 263.22 104.043C262.79 97.4813 256.793 89.0106 249.828 89.1182Z" fill="#263238"/>
<path d="M287.633 98.014C285.278 98.3305 282.882 97.9797 280.717 97.0016C278.552 96.0234 276.705 94.4572 275.386 92.481C274.067 90.5049 273.329 88.1981 273.256 85.8233C273.183 83.4485 273.778 81.101 274.974 79.0478C276.17 76.9946 277.917 75.3182 280.019 74.2093C282.12 73.1004 284.49 72.6036 286.86 72.7754C289.23 72.9472 291.504 73.7806 293.423 75.181C295.342 76.5813 296.83 78.4922 297.717 80.6963C298.339 82.2431 298.65 83.8971 298.632 85.564C298.615 87.2309 298.269 88.8779 297.615 90.4111C296.96 91.9444 296.01 93.3337 294.819 94.4998C293.628 95.6659 292.219 96.5859 290.672 97.2073C289.693 97.5918 288.674 97.8625 287.633 98.014ZM284.514 74.5114C283.594 74.6412 282.692 74.8758 281.825 75.2106C279.236 76.2487 277.139 78.2339 275.962 80.7625C274.784 83.2911 274.614 86.1732 275.486 88.8228C276.358 91.4724 278.206 93.6905 280.655 95.0261C283.104 96.3616 285.969 96.7143 288.669 96.0124C291.368 95.3105 293.699 93.6068 295.187 91.2476C296.676 88.8885 297.209 86.051 296.68 83.3124C296.151 80.5737 294.598 78.1394 292.338 76.5046C290.078 74.8697 287.281 74.157 284.514 74.5114Z" fill="#0D0D2B"/>
<path d="M315.816 90.6505C311.002 91.2959 305.974 86.9396 304.333 80.5396C303.509 77.4776 303.659 74.2347 304.764 71.2623C305.157 69.9608 305.881 68.7833 306.865 67.8443C307.848 66.9054 309.058 66.2369 310.376 65.904C311.694 65.571 313.076 65.5848 314.388 65.9442C315.699 66.3036 316.895 66.9962 317.859 67.9547C320.291 70.0506 321.972 72.8833 322.646 76.0219C324.367 82.7984 321.678 89.4673 316.623 90.6236C316.355 90.658 316.085 90.667 315.816 90.6505ZM311.433 67.4438H310.787C309.751 67.7633 308.805 68.3251 308.029 69.0826C307.253 69.8402 306.668 70.7717 306.323 71.8001C305.365 74.4328 305.243 77.2971 305.974 80.0018C307.48 85.8909 312.051 89.8169 316.192 88.7413C320.333 87.6657 322.512 82.0724 321.006 76.1833C320.368 73.4519 318.892 70.9885 316.784 69.1379C316.061 68.4954 315.211 68.0126 314.289 67.7207C313.367 67.4288 312.394 67.3344 311.433 67.4438Z" fill="#0D0D2B"/>
<path d="M297.695 82.2015L296.297 81.2066C297.776 79.1629 301.541 75.9629 305.359 78.5175L304.445 79.9427C301.03 77.657 297.83 82.0133 297.695 82.2015Z" fill="#0D0D2B"/>
<path d="M243.699 99.2779L242.059 98.9015C242.22 98.1216 243.887 91.3451 247.437 89.8124C250.986 88.2796 273.306 84.8376 274.328 84.7031L274.596 86.3703C268.116 87.3922 250.744 90.2426 248.19 91.372C245.635 92.5015 244.129 97.4225 243.699 99.2779Z" fill="#0D0D2B"/>
<path d="M298.847 141.874L287.364 165.43L259.478 132.973L250.309 142.196C250.309 142.196 276.312 192.697 276.635 190.6L288.01 170.485L301.455 185.948L302.773 149.537L298.847 141.874Z" fill="white"/>
<path d="M303.041 167.77C303.041 161.747 303.256 155.696 303.041 149.673C303.041 149.484 302.692 149.35 302.638 149.673C301.051 155.374 301.078 178.392 300.675 183.878C300.137 183.232 288.251 170.244 288.117 170.432C285.723 173.579 277.36 188.234 276.796 189.579C272.708 181.511 256.843 152.335 251.868 144.671C251.837 144.632 251.794 144.606 251.746 144.595C251.698 144.584 251.647 144.59 251.603 144.613C251.559 144.635 251.524 144.671 251.504 144.716C251.483 144.761 251.479 144.811 251.491 144.859C255.014 153.276 275.962 192.59 276.312 192.51C280.649 185.631 284.625 178.531 288.224 171.239C290.187 173.928 302.073 188.557 302.181 187.669C302.809 181.055 303.096 174.414 303.041 167.77Z" fill="#263238"/>
<path d="M408.21 321.21C398.341 335.301 371.477 338.017 304.519 351.113C295.242 352.941 264.828 290.985 274.616 288.538C286.959 285.445 335.524 276.168 339.154 275.926C369.837 273.882 414.906 311.529 408.21 321.21Z" fill="#F7A9A0"/>
<path d="M288.038 285.369C288.038 285.369 259.642 289.672 245.443 296.529C230.853 304.046 218.304 314.99 208.872 328.421C198.653 342.889 183.917 384.892 195.292 391.292C205.591 397.047 218.472 353.322 218.472 353.322C218.472 353.322 197.981 395.729 211.641 400.381C225.302 405.033 237.376 353.484 237.376 353.484C237.376 353.484 217.289 397.558 232.132 400.112C243.373 402.048 256.926 355.904 256.926 355.904C256.926 355.904 239.931 393.901 251.386 396.401C264.052 399.09 279.245 357.329 279.245 357.329C309.417 358.754 324.368 347.084 334.022 337.51C336.361 335.117 288.038 285.369 288.038 285.369Z" fill="#F7A9A0"/>
<path d="M224.597 338.178C221.908 343.072 219.354 348.02 217.229 353.13C215.105 358.239 213.115 363.429 211.448 368.699C209.156 375.571 207.649 382.679 206.957 389.889C209.108 377.197 216.503 358.777 218.655 353.667C220.806 348.558 222.661 343.341 224.813 338.259C224.866 338.125 224.678 338.071 224.597 338.178Z" fill="#263238"/>
<path d="M243.205 345.573C240.166 351.973 236.913 358.212 234.17 364.746C231.427 371.28 229.41 377.654 227.124 384.323C226.936 384.833 227.286 384.753 227.474 384.323C230.029 377.761 232.852 371.872 235.541 365.338C238.23 358.803 240.543 352.134 243.393 345.707C243.393 345.546 243.232 345.411 243.205 345.573Z" fill="#263238"/>
<path d="M260.313 349.069C255.415 358.76 251.54 368.935 248.75 379.429C248.589 379.94 249.019 379.805 249.181 379.267C252.838 369.103 255.634 361.116 260.636 349.23C260.717 349.069 260.421 348.854 260.313 349.069Z" fill="#263238"/>
<path d="M282.117 285.365L340.793 350.79C340.793 350.79 400.141 337.183 408.881 321.963C414.635 311.933 369.943 271.355 336.275 276.087L282.117 285.365Z" fill="#FF78BF"/>
<path opacity="0.1" d="M334.205 326.161C333.946 327.82 333.447 329.432 332.726 330.948C332.048 332.491 331.141 333.923 330.037 335.197C330.301 333.539 330.799 331.928 331.516 330.41C332.214 328.878 333.119 327.448 334.205 326.161ZM374.971 322.477C374.258 324.006 373.76 325.626 373.492 327.291C374.592 326.004 375.497 324.564 376.181 323.015C376.907 321.499 377.414 319.887 377.687 318.229C376.589 319.512 375.675 320.942 374.971 322.477ZM345.902 308.763C344.39 308.034 342.776 307.535 341.116 307.284C343.715 309.428 346.83 310.856 350.151 311.425C348.869 310.34 347.438 309.443 345.902 308.763ZM374.971 290.773C375.535 292.356 376.323 293.851 377.311 295.21C376.983 291.852 375.787 288.636 373.842 285.879C373.981 287.556 374.362 289.204 374.971 290.773ZM315.623 304.918C316.176 306.506 316.965 308.001 317.963 309.355C317.635 305.996 316.439 302.781 314.494 300.024C314.633 301.701 315.014 303.349 315.623 304.918ZM291.421 289.429C293.002 288.86 294.496 288.072 295.858 287.089C294.183 287.22 292.534 287.591 290.964 288.192C289.386 288.766 287.893 289.553 286.527 290.531C288.203 290.4 289.852 290.029 291.421 289.429ZM341.385 284.05C342.966 283.482 344.459 282.694 345.822 281.711C344.146 281.844 342.498 282.216 340.928 282.813C339.352 283.394 337.86 284.181 336.491 285.153C338.148 284.999 339.776 284.619 341.331 284.024L341.385 284.05ZM359.886 341.489C361.469 340.925 362.963 340.138 364.322 339.15C362.645 339.286 360.996 339.667 359.428 340.279C357.843 340.837 356.348 341.625 354.991 342.619C356.651 342.462 358.281 342.073 359.832 341.462L359.886 341.489ZM403.986 308.898C402.785 309.122 401.605 309.455 400.464 309.893C398.881 310.456 397.386 311.244 396.027 312.232C397.702 312.079 399.348 311.699 400.921 311.103C402.137 310.669 403.301 310.101 404.39 309.409L403.986 308.898Z" fill="black"/>
<path d="M376.453 286.628C364.79 278.201 350.428 274.371 336.117 275.872C335.956 275.872 335.956 276.168 336.117 276.168C350.853 275.764 370.726 283.455 376.292 286.789C376.48 286.978 376.615 286.736 376.453 286.628Z" fill="#263238"/>
<path d="M356.852 339.765C350.774 332.236 344.321 325.056 337.813 317.876C331.305 310.696 324.852 303.489 318.183 296.363C314.418 292.41 310.68 288.296 306.781 284.585C306.76 284.557 306.728 284.538 306.692 284.533C306.657 284.528 306.621 284.537 306.593 284.558C306.564 284.58 306.545 284.611 306.54 284.647C306.535 284.682 306.545 284.718 306.566 284.746C312.643 292.249 319.07 299.483 325.39 306.689C331.709 313.896 338.351 321.103 344.939 328.202C348.65 332.209 352.442 336.269 356.341 340.007C356.664 340.276 357.013 340.034 356.852 339.765Z" fill="#263238"/>
<path d="M282.019 284.535C285.621 283.436 289.296 282.591 293.017 282.007C296.701 281.335 300.439 280.69 304.15 280.098C311.545 278.915 327.088 275.553 340.748 275.58C340.909 275.58 340.13 276.333 339.968 276.306C333.461 275.957 286.859 285.234 283.04 285.503C283.175 285.772 283.336 286.014 283.444 286.283C283.483 286.326 283.504 286.382 283.501 286.44C283.499 286.498 283.473 286.553 283.43 286.592C283.388 286.631 283.331 286.652 283.273 286.649C283.215 286.647 283.16 286.621 283.121 286.579C282.637 286.256 282.314 285.853 281.857 285.503C281.771 285.446 281.703 285.364 281.662 285.269C281.62 285.174 281.607 285.069 281.624 284.967C281.642 284.864 281.688 284.769 281.758 284.693C281.828 284.616 281.918 284.561 282.019 284.535Z" fill="#263238"/>
</svg>
