<svg width="64" height="64" viewBox="0 0 64 64" fill="none" xmlns="http://www.w3.org/2000/svg">
<circle cx="32" cy="32" r="31" transform="matrix(-1 0 0 1 64 0)" stroke="white" stroke-width="2"/>
<path d="M35.0001 42.0001C35.2633 42.0016 35.5243 41.9512 35.7679 41.8516C36.0116 41.7521 36.2332 41.6055 36.4201 41.4201C36.6076 41.2342 36.7564 41.013 36.8579 40.7693C36.9594 40.5255 37.0117 40.2641 37.0117 40.0001C37.0117 39.7361 36.9594 39.4747 36.8579 39.2309C36.7564 38.9872 36.6076 38.766 36.4201 38.5801L29.8001 32.0001L36.1601 25.3801C36.5326 25.0054 36.7417 24.4985 36.7417 23.9701C36.7417 23.4417 36.5326 22.9348 36.1601 22.5601C35.9742 22.3726 35.753 22.2239 35.5093 22.1223C35.2656 22.0208 35.0041 21.9685 34.7401 21.9685C34.4761 21.9685 34.2147 22.0208 33.971 22.1223C33.7272 22.2239 33.506 22.3726 33.3201 22.5601L25.6001 30.5601C25.2337 30.934 25.0284 31.4366 25.0284 31.9601C25.0284 32.4836 25.2337 32.9862 25.6001 33.3601L33.6001 41.3601C33.7796 41.554 33.9958 41.7103 34.2361 41.8202C34.4764 41.93 34.7361 41.9912 35.0001 42.0001Z" fill="white"/>
</svg>
