<svg width="2442" height="2591" viewBox="0 0 2442 2591" fill="none" xmlns="http://www.w3.org/2000/svg">
<g opacity="0.3">
<path opacity="0.3" d="M2441.73 2462.09V2423.54L2432.07 2417.6C2429.32 2435.76 2409.76 2447.81 2393.35 2450.3L2282.04 2521.65L2233.49 2540.84L2078.36 2453.14L2081.97 2450.91C2068.69 2444.11 2061.55 2428.62 2054.4 2414.42L2043.95 2421.21L2037.74 2423.19V2462.7C2038.16 2467.19 2039.63 2471.48 2042.03 2475.15C2044.43 2478.82 2047.66 2481.74 2051.41 2483.61L2207.02 2581.89C2217.26 2587.54 2228.56 2590.48 2240.01 2590.48C2251.47 2590.48 2262.77 2587.54 2273.01 2581.89L2428.38 2483.61C2432.06 2481.76 2435.24 2478.91 2437.62 2475.32C2440 2471.73 2441.5 2467.53 2441.97 2463.13C2442.01 2462.78 2442.01 2462.44 2441.97 2462.09H2441.73Z" fill="url(#paint0_linear_204_20331)"/>
<path opacity="0.3" d="M2393.35 2450.3L2282.04 2521.65L2239.78 2538.35V2590.5C2251.26 2590.76 2262.62 2587.8 2272.77 2581.89L2428.14 2483.61C2431.82 2481.76 2435.01 2478.91 2437.39 2475.32C2439.77 2471.73 2441.26 2467.53 2441.73 2463.13C2441.77 2462.78 2441.77 2462.44 2441.73 2462.09V2462.09V2423.54L2432.86 2418.12H2431.91C2428.93 2436.02 2409.61 2447.46 2393.35 2450.3Z" fill="#0F054C"/>
<path opacity="0.3" d="M2207.02 2542.65L2051.65 2444.37C2033.42 2432.92 2033.42 2414.16 2051.65 2402.63L2207.02 2304.34C2217.26 2298.7 2228.56 2295.76 2240.01 2295.76C2251.47 2295.76 2262.77 2298.7 2273.01 2304.34L2428.38 2402.63C2446.53 2414.16 2446.53 2432.92 2428.38 2444.37L2273.01 2542.65C2262.78 2548.33 2251.48 2551.3 2240.01 2551.3C2228.55 2551.3 2217.25 2548.33 2207.02 2542.65Z" fill="url(#paint1_linear_204_20331)"/>
<g opacity="0.3">
<path opacity="0.3" d="M2207.03 2542.65L2051.65 2444.37C2033.43 2432.92 2033.43 2414.16 2051.65 2402.63L2207.03 2304.34C2217.26 2298.7 2228.56 2295.76 2240.02 2295.76C2251.48 2295.76 2262.77 2298.7 2273.01 2304.34L2428.38 2402.63C2446.53 2414.16 2446.53 2432.92 2428.38 2444.37L2273.01 2542.65C2262.78 2548.33 2251.48 2551.3 2240.02 2551.3C2228.55 2551.3 2217.25 2548.33 2207.03 2542.65Z" fill="#0F054C"/>
</g>
</g>
<path d="M2239.77 2418.46C2229.57 2418.66 2219.49 2416.03 2210.47 2410.8L2055.1 2312.52C2051.43 2311.11 2048.25 2308.48 2046 2305C2043.75 2301.53 2042.55 2297.37 2042.55 2293.11C2042.55 2288.85 2043.75 2284.69 2046 2281.22C2048.25 2277.74 2051.43 2275.12 2055.1 2273.7L2210.47 2175.42C2219.55 2170.41 2229.57 2167.8 2239.73 2167.8C2249.9 2167.8 2259.92 2170.41 2269 2175.42L2424.45 2273.7C2428.12 2275.12 2431.3 2277.74 2433.55 2281.22C2435.79 2284.69 2437 2288.85 2437 2293.11C2437 2297.37 2435.79 2301.53 2433.55 2305C2431.3 2308.48 2428.12 2311.11 2424.45 2312.52L2269.07 2410.8C2260.06 2416.03 2249.97 2418.66 2239.77 2418.46ZM2239.77 2170.77C2230.05 2170.56 2220.43 2173.05 2211.81 2178L2056.44 2276.29C2053.21 2277.46 2050.4 2279.72 2048.41 2282.74C2046.42 2285.76 2045.35 2289.39 2045.35 2293.11C2045.35 2296.83 2046.42 2300.46 2048.41 2303.48C2050.4 2306.5 2053.21 2308.76 2056.44 2309.94L2211.81 2408.22C2220.47 2413.01 2230.03 2415.51 2239.73 2415.51C2249.44 2415.51 2259 2413.01 2267.66 2408.22L2423.03 2309.76C2426.26 2308.59 2429.07 2306.33 2431.06 2303.31C2433.05 2300.29 2434.12 2296.66 2434.12 2292.94C2434.12 2289.21 2433.05 2285.58 2431.06 2282.56C2429.07 2279.54 2426.26 2277.29 2423.03 2276.11L2267.66 2177.83C2259.05 2172.94 2249.46 2170.52 2239.77 2170.77V2170.77Z" fill="#42E8E0"/>
<path opacity="0.4" d="M2441.73 2255.37V2197.11L2432.07 2191.17C2429.32 2209.41 2409.76 2221.38 2393.35 2223.87L2282.04 2295.22L2233.49 2314.41L2078.36 2226.71L2081.97 2224.48C2068.69 2217.68 2061.55 2202.19 2054.4 2187.99L2043.95 2194.78L2037.74 2196.76V2255.97C2038.16 2260.47 2039.63 2264.76 2042.03 2268.43C2044.43 2272.1 2047.66 2275.01 2051.41 2276.89L2207.02 2375.17C2217.25 2380.86 2228.55 2383.82 2240.01 2383.82C2251.48 2383.82 2262.78 2380.86 2273.01 2375.17L2428.38 2276.89C2432.06 2275.04 2435.24 2272.18 2437.62 2268.6C2440 2265.01 2441.5 2260.81 2441.97 2256.4C2442.01 2256.06 2442.01 2255.71 2441.97 2255.37H2441.73Z" fill="#42E8E0"/>
<path d="M2441.73 2203.56V2165.01L2432.07 2159.07C2429.32 2177.31 2409.76 2189.28 2393.35 2191.77L2282.04 2263.12L2233.49 2282.31L2078.36 2194.61L2081.97 2192.37C2068.69 2185.58 2061.55 2170.08 2054.4 2155.88L2043.95 2162.77L2037.74 2164.66V2204.17C2038.16 2208.66 2039.63 2212.95 2042.03 2216.62C2044.43 2220.29 2047.66 2223.21 2051.41 2225.08L2207.02 2323.36C2217.25 2329.05 2228.55 2332.01 2240.01 2332.01C2251.48 2332.01 2262.78 2329.05 2273.01 2323.36L2428.38 2225.08C2432.06 2223.23 2435.24 2220.38 2437.62 2216.79C2440 2213.2 2441.5 2209 2441.97 2204.6C2442.01 2204.25 2442.01 2203.91 2441.97 2203.56H2441.73Z" fill="url(#paint2_linear_204_20331)"/>
<path opacity="0.3" d="M2393.35 2191.77L2282.04 2263.12L2239.78 2279.81V2331.97C2251.26 2332.22 2262.62 2329.26 2272.77 2323.36L2428.14 2225.08C2431.82 2223.23 2435.01 2220.37 2437.39 2216.79C2439.77 2213.2 2441.26 2209 2441.73 2204.59C2441.77 2204.25 2441.77 2203.9 2441.73 2203.56V2203.56V2165L2432.86 2159.58H2431.91C2428.93 2177.48 2409.61 2189.27 2393.35 2191.77Z" fill="#0F054C"/>
<path d="M2207.02 2283.94L2051.65 2185.66C2033.42 2174.13 2033.42 2155.37 2051.65 2143.92L2207.02 2045.89C2217.25 2040.21 2228.55 2037.25 2240.01 2037.25C2251.48 2037.25 2262.78 2040.21 2273.01 2045.89L2428.38 2144.18C2446.53 2155.62 2446.53 2174.38 2428.38 2185.92L2272.77 2283.94C2262.57 2289.55 2251.31 2292.46 2239.9 2292.46C2228.48 2292.46 2217.23 2289.55 2207.02 2283.94V2283.94Z" fill="url(#paint3_linear_204_20331)"/>
<path d="M2428.14 2185.92L2272.77 2283.95C2262.53 2289.59 2251.23 2292.53 2239.78 2292.53C2228.32 2292.53 2217.02 2289.59 2206.78 2283.95L2051.41 2185.66C2048.02 2183.91 2045.04 2181.33 2042.7 2178.13C2040.36 2174.92 2038.71 2171.17 2037.9 2167.16C2036.8 2175.77 2041.36 2184.37 2051.41 2190.4L2207.02 2288.94C2217.24 2294.62 2228.55 2297.59 2240.01 2297.59C2251.48 2297.59 2262.78 2294.62 2273 2288.94L2428.38 2190.65C2432.53 2188.77 2436.04 2185.52 2438.45 2181.36C2440.85 2177.2 2442.02 2172.33 2441.81 2167.42C2440.97 2171.44 2439.3 2175.2 2436.94 2178.41C2434.57 2181.61 2431.56 2184.18 2428.14 2185.92V2185.92Z" fill="white"/>
<path d="M2161.75 2160.41L1808.33 1928.8L1695.96 1999.79H1694.66L1475.81 1858.53L1477.12 1854.94L1695.96 1995.48L1808.33 1924.5L1810.94 1925.93L2163.06 2156.82L2161.75 2160.41Z" fill="url(#paint4_linear_204_20331)"/>
<g opacity="0.3">
<path opacity="0.3" d="M404.514 2457.92V2419.37L394.769 2413.43C392.018 2431.67 372.45 2443.64 356.103 2446.13L244.665 2517.48L196.097 2536.67L40.8841 2448.97L44.4994 2446.73C31.2179 2439.94 24.0662 2424.44 16.9147 2410.24L6.46248 2417.13L0.253906 2419.02V2458.53C0.665282 2463.02 2.14424 2467.31 4.54357 2470.98C6.9429 2474.65 10.1787 2477.57 13.9283 2479.44L169.377 2577.72C179.605 2583.41 190.914 2586.37 202.384 2586.37C213.854 2586.37 225.163 2583.41 235.391 2577.72L390.839 2479.44C394.536 2477.6 397.737 2474.75 400.133 2471.16C402.529 2467.57 404.038 2463.37 404.514 2458.96C404.514 2458.96 404.514 2458.27 404.514 2457.92V2457.92Z" fill="url(#paint5_linear_204_20331)"/>
<path opacity="0.3" d="M356.104 2446.3L244.666 2517.65L202.385 2534.34V2586.5C213.877 2586.76 225.239 2583.79 235.392 2577.89L390.84 2479.61C394.537 2477.77 397.738 2474.92 400.134 2471.33C402.529 2467.74 404.038 2463.54 404.515 2459.12C404.515 2459.12 404.515 2458.44 404.515 2458.09V2419.54L395.556 2414.11H394.613C391.626 2431.84 372.293 2443.63 356.104 2446.3Z" fill="#0F054C"/>
<path opacity="0.3" d="M169.377 2538.56L13.9283 2440.28C-4.30424 2428.75 -4.30424 2409.99 13.9283 2398.54L169.377 2300C179.605 2294.31 190.914 2291.35 202.384 2291.35C213.854 2291.35 225.163 2294.31 235.391 2300L390.84 2398.28C408.994 2409.73 408.994 2428.49 390.84 2440.02L235.391 2538.56C225.152 2544.21 213.848 2547.15 202.384 2547.15C190.92 2547.15 179.616 2544.21 169.377 2538.56V2538.56Z" fill="url(#paint6_linear_204_20331)"/>
<g opacity="0.3">
<path opacity="0.3" d="M169.377 2538.56L13.9283 2440.28C-4.30424 2428.75 -4.30424 2409.98 13.9283 2398.54L169.377 2300C179.605 2294.31 190.914 2291.35 202.384 2291.35C213.854 2291.35 225.163 2294.31 235.391 2300L390.84 2398.28C408.994 2409.73 408.994 2428.49 390.84 2440.02L235.391 2538.56C225.152 2544.21 213.848 2547.15 202.384 2547.15C190.92 2547.15 179.616 2544.21 169.377 2538.56V2538.56Z" fill="#0F054C"/>
</g>
</g>
<path d="M202.386 2395.53C192.177 2395.77 182.082 2393.13 173.073 2387.87L17.6243 2289.59C13.9802 2288.16 10.8285 2285.53 8.60013 2282.06C6.3718 2278.6 5.17578 2274.46 5.17578 2270.22C5.17578 2265.98 6.3718 2261.85 8.60013 2258.38C10.8285 2254.91 13.9802 2252.29 17.6243 2250.86L173.073 2152.57C182.156 2147.52 192.199 2144.89 202.386 2144.89C212.573 2144.89 222.616 2147.52 231.7 2152.57L387.148 2250.86C390.792 2252.29 393.944 2254.91 396.173 2258.38C398.401 2261.85 399.597 2265.98 399.597 2270.22C399.597 2274.46 398.401 2278.6 396.173 2282.06C393.944 2285.53 390.792 2288.16 387.148 2289.59L231.7 2387.87C222.691 2393.13 212.596 2395.77 202.386 2395.53ZM174.409 2385.29C183.071 2390.08 192.641 2392.58 202.347 2392.58C212.053 2392.58 221.623 2390.08 230.285 2385.29L385.734 2287C389.206 2286.14 392.307 2284 394.528 2280.96C396.749 2277.91 397.959 2274.12 397.959 2270.22C397.959 2266.32 396.749 2262.54 394.528 2259.49C392.307 2256.44 389.206 2254.31 385.734 2253.44L230.285 2155.16C221.634 2150.32 212.06 2147.8 202.347 2147.8C192.634 2147.8 183.06 2150.32 174.409 2155.16L18.9605 2253.44C15.4879 2254.31 12.3871 2256.44 10.166 2259.49C7.94492 2262.54 6.73518 2266.32 6.73518 2270.22C6.73518 2274.12 7.94492 2277.91 10.166 2280.96C12.3871 2284 15.4879 2286.14 18.9605 2287L174.409 2385.29Z" fill="#42E8E0"/>
<path opacity="0.4" d="M404.514 2232.53V2174.18L394.769 2168.24C392.018 2186.48 372.45 2198.44 356.103 2200.94L244.665 2272.29L196.097 2291.39L40.8841 2203.69L44.4994 2201.46C31.2179 2194.66 24.0662 2179.17 16.9147 2164.97L6.46248 2171.85L0.253906 2173.74V2233.04C0.631359 2237.53 2.09809 2241.83 4.50232 2245.49C6.90655 2249.16 10.1608 2252.05 13.9283 2253.87L169.377 2352.15C179.605 2357.84 190.914 2360.8 202.384 2360.8C213.854 2360.8 225.163 2357.84 235.391 2352.15L390.839 2253.87C394.536 2252.03 397.737 2249.18 400.133 2245.59C402.529 2242.01 404.038 2237.8 404.514 2233.39C404.514 2233.39 404.514 2232.7 404.514 2232.35V2232.53Z" fill="#42E8E0"/>
<path d="M404.514 2180.63V2142.07L394.769 2136.14C392.018 2154.38 372.45 2166.34 356.103 2168.84L244.665 2240.19L196.097 2259.38L40.8841 2171.68L44.4994 2169.44C31.2179 2162.64 24.0662 2147.15 16.9147 2133.04L6.46248 2139.84L0.253906 2141.73V2181.32C0.678401 2185.79 2.16345 2190.07 4.56204 2193.72C6.96062 2197.38 10.1894 2200.28 13.9283 2202.15L169.377 2300.43C179.605 2306.11 190.914 2309.08 202.384 2309.08C213.854 2309.08 225.163 2306.11 235.391 2300.43L390.839 2202.15C394.536 2200.31 397.737 2197.46 400.133 2193.87C402.529 2190.28 404.038 2186.08 404.514 2181.66C404.514 2181.66 404.514 2180.97 404.514 2180.63V2180.63Z" fill="url(#paint7_linear_204_20331)"/>
<path d="M169.377 2261.27L13.9283 2162.99C-4.30424 2151.45 -4.30424 2132.69 13.9283 2121.25L169.377 2022.96C179.605 2017.28 190.914 2014.32 202.384 2014.32C213.854 2014.32 225.163 2017.28 235.391 2022.96L390.84 2121.25C408.994 2132.78 408.994 2151.45 390.84 2162.99L235.391 2261.27C225.163 2266.96 213.854 2269.92 202.384 2269.92C190.914 2269.92 179.605 2266.96 169.377 2261.27Z" fill="url(#paint8_linear_204_20331)"/>
<path d="M202.388 2243.37C193.167 2243.59 184.047 2241.22 175.904 2236.48L54.4839 2159.71C51.1638 2158.42 48.2901 2156.04 46.2579 2152.89C44.2256 2149.74 43.1348 2145.97 43.1348 2142.11C43.1348 2138.26 44.2256 2134.49 46.2579 2131.34C48.2901 2128.19 51.1638 2125.81 54.4839 2124.51L175.904 2047.75C184.106 2043.17 193.181 2040.78 202.388 2040.78C211.594 2040.78 220.67 2043.17 228.872 2047.75L350.292 2124.51C353.612 2125.81 356.485 2128.19 358.518 2131.34C360.55 2134.49 361.641 2138.26 361.641 2142.11C361.641 2145.97 360.55 2149.74 358.518 2152.89C356.485 2156.04 353.612 2158.42 350.292 2159.71L228.872 2236.48C220.728 2241.22 211.609 2243.59 202.388 2243.37V2243.37ZM177.239 2233.9C185.019 2238.23 193.622 2240.49 202.349 2240.49C211.075 2240.49 219.679 2238.23 227.458 2233.9L348.956 2157.13C351.871 2156.12 354.417 2154.12 356.224 2151.42C358.031 2148.72 359.005 2145.46 359.005 2142.11C359.005 2138.77 358.031 2135.51 356.224 2132.81C354.417 2130.1 351.871 2128.11 348.956 2127.1L227.458 2050.42C219.679 2046.08 211.075 2043.83 202.349 2043.83C193.622 2043.83 185.019 2046.08 177.239 2050.42L55.82 2127.18C53.0912 2128.48 50.7278 2130.55 48.9735 2133.19C47.2192 2135.82 46.1372 2138.92 45.8391 2142.16C46.1476 2145.41 47.2326 2148.51 48.9848 2151.15C50.737 2153.8 53.0946 2155.89 55.82 2157.22L177.239 2233.9Z" fill="#5351AF"/>
<path d="M390.839 2162.99L235.39 2261.27C225.162 2266.96 213.854 2269.92 202.383 2269.92C190.913 2269.92 179.604 2266.96 169.376 2261.27L13.9275 2162.99C10.5354 2161.24 7.554 2158.66 5.2112 2155.45C2.86839 2152.24 1.22619 2148.49 0.410207 2144.48C0.23051 2149.42 1.42809 2154.29 3.84319 2158.46C6.25828 2162.62 9.77608 2165.89 13.9275 2167.81L169.376 2266.09C179.615 2271.74 190.92 2274.68 202.383 2274.68C213.847 2274.68 225.151 2271.74 235.39 2266.09L390.839 2167.81C394.989 2165.89 398.503 2162.63 400.906 2158.46C403.309 2154.29 404.486 2149.41 404.278 2144.48C403.475 2148.49 401.847 2152.24 399.518 2155.44C397.188 2158.65 394.22 2161.23 390.839 2162.99V2162.99Z" fill="white"/>
<path d="M221.425 2228.77L573.657 2006.82L686.381 2073.42L687.688 2073.42L905.809 1938.03L904.485 1934.64L686.359 2069.34L573.635 2002.74L571.029 2004.12L220.1 2225.38L221.425 2228.77Z" fill="url(#paint9_linear_204_20331)"/>
<g opacity="0.3">
<path opacity="0.3" d="M2437.56 898.233V859.677L2427.83 853.739C2425.08 871.898 2405.53 883.947 2389.2 886.443L2277.87 957.702L2229.35 976.98L2074.28 889.283L2077.89 886.959C2064.63 880.246 2057.48 864.669 2050.34 850.555L2039.89 857.353L2033.69 859.247V898.836C2034.06 903.329 2035.52 907.632 2037.93 911.295C2040.33 914.959 2043.58 917.848 2047.35 919.663L2202.65 1017.95C2212.87 1023.63 2224.17 1026.59 2235.63 1026.59C2247.09 1026.59 2258.38 1023.63 2268.6 1017.95L2423.9 919.663C2427.59 917.826 2430.79 914.976 2433.19 911.388C2435.58 907.799 2437.09 903.594 2437.56 899.18V898.233V898.233Z" fill="url(#paint10_linear_204_20331)"/>
<path opacity="0.3" d="M2389.2 886.442L2277.87 957.702L2235.62 974.484V1026.64C2247.11 1026.9 2258.46 1023.93 2268.6 1018.03L2423.9 919.748C2427.59 917.912 2430.79 915.062 2433.18 911.473C2435.58 907.885 2437.08 903.68 2437.56 899.266V898.319V859.763L2428.69 854.341H2427.75C2424.61 872.156 2405.37 883.946 2389.2 886.442Z" fill="#0F054C"/>
<path opacity="0.3" d="M2202.65 978.786L2047.74 880.503C2029.53 868.971 2029.53 850.295 2047.74 838.763L2202.65 740.136C2212.87 734.451 2224.16 731.488 2235.62 731.488C2247.08 731.488 2258.38 734.451 2268.6 740.136L2423.9 838.419C2442.11 849.951 2442.11 868.627 2423.9 880.159L2268.6 978.442C2258.4 984.18 2247.12 987.202 2235.66 987.262C2224.2 987.322 2212.89 984.418 2202.65 978.786V978.786Z" fill="url(#paint11_linear_204_20331)"/>
<g opacity="0.3">
<path opacity="0.3" d="M2202.65 978.786L2047.74 880.503C2029.52 868.971 2029.52 850.295 2047.74 838.763L2202.65 740.136C2212.86 734.451 2224.16 731.488 2235.62 731.488C2247.08 731.488 2258.38 734.451 2268.6 740.136L2423.9 838.419C2442.11 849.951 2442.11 868.627 2423.9 880.159L2268.6 978.442C2258.4 984.18 2247.12 987.202 2235.66 987.262C2224.2 987.322 2212.89 984.418 2202.65 978.786V978.786Z" fill="#0F054C"/>
</g>
</g>
<path d="M2235.63 861.054C2225.44 861.257 2215.36 858.621 2206.35 853.395L2051.05 755.112C2047.38 753.7 2044.2 751.074 2041.96 747.598C2039.71 744.121 2038.5 739.965 2038.5 735.704C2038.5 731.444 2039.71 727.288 2041.96 723.811C2044.2 720.335 2047.38 717.709 2051.05 716.297L2206.35 618.014C2215.43 613.004 2225.46 610.395 2235.63 610.395C2245.8 610.395 2255.83 613.004 2264.92 618.014L2420.22 716.297C2423.89 717.709 2427.06 720.335 2429.31 723.811C2431.56 727.288 2432.77 731.444 2432.77 735.704C2432.77 739.965 2431.56 744.121 2429.31 747.598C2427.06 751.074 2423.89 753.7 2420.22 755.112L2264.92 853.395C2255.91 858.621 2245.83 861.257 2235.63 861.054ZM2235.63 613.281C2225.93 613.096 2216.34 615.613 2207.76 620.596L2052.38 718.879C2049.16 720.053 2046.35 722.31 2044.37 725.33C2042.38 728.35 2041.31 731.98 2041.31 735.704C2041.31 739.429 2042.38 743.059 2044.37 746.079C2046.35 749.099 2049.16 751.356 2052.38 752.53L2207.76 850.813C2216.42 855.608 2225.98 858.106 2235.67 858.106C2245.37 858.106 2254.93 855.608 2263.58 850.813L2418.88 752.53C2422.11 751.356 2424.91 749.099 2426.9 746.079C2428.89 743.059 2429.96 739.429 2429.96 735.704C2429.96 731.98 2428.89 728.35 2426.9 725.33C2424.91 722.31 2422.11 720.053 2418.88 718.879L2263.58 620.596C2254.98 615.613 2245.36 613.097 2235.63 613.281V613.281Z" fill="#42E8E0"/>
<path opacity="0.4" d="M2437.56 697.966V639.702L2427.83 633.763C2425.08 651.922 2405.53 663.971 2389.2 666.467L2277.87 737.813L2229.35 757.349L2074.28 669.651L2077.89 667.414C2064.63 660.615 2057.48 645.124 2050.34 630.923L2039.89 637.722L2033.69 639.702V698.913C2034.19 703.388 2035.75 707.641 2038.22 711.25C2040.68 714.858 2043.97 717.696 2047.75 719.481L2202.65 817.592C2212.87 823.277 2224.17 826.24 2235.63 826.24C2247.09 826.24 2258.38 823.277 2268.6 817.592L2423.9 719.309C2427.59 717.473 2430.79 714.623 2433.19 711.034C2435.58 707.446 2437.09 703.241 2437.56 698.826V697.794V697.966Z" fill="#42E8E0"/>
<path d="M2437.56 646.156V607.6L2427.83 601.662C2425.08 619.821 2405.53 631.87 2389.2 634.365L2277.87 705.711L2229.35 724.903L2074.28 636.861L2077.89 634.624C2064.63 627.825 2057.48 612.333 2050.34 598.133L2039.89 604.932L2033.69 606.911V646.414C2034.1 650.905 2035.58 655.199 2037.98 658.868C2040.37 662.538 2043.61 665.454 2047.35 667.327L2202.65 765.955C2212.88 771.6 2224.17 774.54 2235.63 774.54C2247.08 774.54 2258.37 771.6 2268.6 765.955L2423.9 667.671C2427.59 665.835 2430.79 662.985 2433.19 659.397C2435.58 655.808 2437.09 651.603 2437.56 647.189V646.156Z" fill="url(#paint12_linear_204_20331)"/>
<path opacity="0.3" d="M2389.2 634.368L2277.87 705.713L2235.62 722.41V774.563C2247.11 774.822 2258.46 771.86 2268.6 765.957L2423.9 667.674C2427.59 665.838 2430.79 662.987 2433.18 659.399C2435.58 655.811 2437.08 651.606 2437.56 647.191V646.158V607.602L2428.69 602.181H2427.75C2424.61 620.082 2405.37 631.872 2389.2 634.368Z" fill="#0F054C"/>
<path d="M2077.9 634.966L2225.11 542.191C2228.39 540.389 2232 539.451 2235.67 539.451C2239.34 539.451 2242.95 540.389 2246.23 542.191L2390.77 633.675L2389.2 634.708C2405.53 632.212 2425.08 620.163 2427.83 602.004L2265.54 503.033L2218.44 489.349L2179.96 514.135L2050.42 598.82C2057.48 612.676 2064.63 628.253 2077.9 634.966Z" fill="url(#paint13_linear_204_20331)"/>
<path opacity="0.3" d="M2235.63 494.083L2218.36 489.005L2179.88 513.791L2050.34 598.476C2057.48 612.676 2064.63 628.168 2077.9 634.967L2225.11 542.191C2228.33 540.247 2231.95 539.267 2235.63 539.351V494.083Z" fill="#0F054C"/>
<path d="M2202.65 726.71L2047.75 628.255C2029.53 616.809 2029.53 598.047 2047.75 586.515L2203.05 488.232C2213.28 482.587 2224.57 479.646 2236.02 479.646C2247.47 479.646 2258.77 482.587 2269 488.232L2424.3 586.515C2442.51 598.047 2442.51 616.809 2424.3 628.255L2269 726.538C2258.74 732.321 2247.38 735.352 2235.84 735.382C2224.31 735.412 2212.94 732.44 2202.65 726.71ZM2246.23 502.948C2242.95 501.146 2239.33 500.208 2235.67 500.208C2232 500.208 2228.39 501.146 2225.11 502.948L2069.81 601.232C2068.52 601.692 2067.39 602.589 2066.59 603.795C2065.79 605.001 2065.36 606.453 2065.36 607.944C2065.36 609.435 2065.79 610.888 2066.59 612.094C2067.39 613.3 2068.52 614.197 2069.81 614.657L2225.11 712.94C2228.39 714.742 2232 715.681 2235.67 715.681C2239.33 715.681 2242.95 714.742 2246.23 712.94L2401.53 614.657C2402.78 614.156 2403.87 613.243 2404.64 612.042C2405.4 610.841 2405.82 609.411 2405.82 607.944C2405.82 606.478 2405.4 605.048 2404.64 603.847C2403.87 602.646 2402.78 601.733 2401.53 601.232L2246.23 502.948Z" fill="url(#paint14_linear_204_20331)"/>
<path d="M2401.52 600.886L2246.23 502.603C2242.95 500.801 2239.33 499.863 2235.67 499.863C2232 499.863 2228.38 500.801 2225.11 502.603L2069.81 600.886C2065.88 603.382 2064.62 606.825 2065.88 610.009C2066.77 608.175 2068.13 606.675 2069.81 605.706L2225.11 507.767C2228.38 505.965 2232 505.027 2235.67 505.027C2239.33 505.027 2242.95 505.965 2246.23 507.767L2401.52 606.05C2403.18 607.02 2404.52 608.522 2405.37 610.353C2406.63 606.825 2405.37 603.382 2401.52 600.886Z" fill="white"/>
<path d="M2423.91 628.254L2268.61 726.537C2258.39 732.222 2247.09 735.185 2235.63 735.185C2224.17 735.185 2212.88 732.222 2202.66 726.537L2047.75 628.254C2044.36 626.527 2041.38 623.967 2039.04 620.773C2036.7 617.579 2035.06 613.837 2034.25 609.836C2034.07 614.756 2035.27 619.616 2037.69 623.769C2040.1 627.921 2043.61 631.167 2047.75 633.073L2202.66 731.528C2212.88 737.213 2224.17 740.176 2235.63 740.176C2247.09 740.176 2258.39 737.213 2268.61 731.528L2423.91 633.245C2428.05 631.339 2431.56 628.093 2433.97 623.941C2436.39 619.789 2437.59 614.928 2437.41 610.008C2436.58 613.978 2434.93 617.686 2432.59 620.848C2430.25 624.011 2427.28 626.544 2423.91 628.254Z" fill="white"/>
<path d="M2207.05 723.957L2051.75 625.674C2036.05 615.69 2036.05 599.855 2051.75 589.527L2207.05 491.244C2215.9 486.289 2225.69 483.705 2235.63 483.705C2245.57 483.705 2255.36 486.289 2264.21 491.244L2419.51 589.527C2435.21 599.511 2435.21 615.346 2419.51 625.674L2264.21 723.957C2255.36 728.912 2245.57 731.496 2235.63 731.496C2225.69 731.496 2215.9 728.912 2207.05 723.957V723.957ZM2250.55 500.195C2245.93 497.604 2240.82 496.253 2235.63 496.253C2230.44 496.253 2225.33 497.604 2220.71 500.195L2065.41 598.134C2063.6 598.798 2062.03 600.07 2060.91 601.768C2059.8 603.467 2059.2 605.507 2059.2 607.601C2059.2 609.694 2059.8 611.734 2060.91 613.433C2062.03 615.131 2063.6 616.403 2065.41 617.067L2220.48 715.351C2225.11 717.895 2230.21 719.219 2235.39 719.219C2240.57 719.219 2245.68 717.895 2250.31 715.351L2405.69 617.067C2407.5 616.403 2409.07 615.131 2410.19 613.433C2411.3 611.734 2411.9 609.694 2411.9 607.601C2411.9 605.507 2411.3 603.467 2410.19 601.768C2409.07 600.07 2407.5 598.798 2405.69 598.134L2250.55 500.195Z" fill="url(#paint15_linear_204_20331)"/>
<path opacity="0.4" d="M2246.23 502.603C2242.95 500.801 2239.34 499.863 2235.67 499.863C2232 499.863 2228.39 500.801 2225.11 502.603L2069.81 600.886C2068.52 601.346 2067.39 602.244 2066.59 603.45C2065.79 604.656 2065.36 606.108 2065.36 607.599C2065.36 609.09 2065.79 610.543 2066.59 611.749C2067.39 612.955 2068.52 613.852 2069.81 614.312L2225.11 712.595C2228.39 714.397 2232 715.335 2235.67 715.335C2239.34 715.335 2242.95 714.397 2246.23 712.595L2401.53 614.312C2402.79 613.811 2403.87 612.898 2404.64 611.697C2405.41 610.496 2405.82 609.065 2405.82 607.599C2405.82 606.133 2405.41 604.702 2404.64 603.502C2403.87 602.301 2402.79 601.388 2401.53 600.886L2246.23 502.603Z" fill="#42E8E0"/>
<path d="M2129.08 804.751L1769.2 1024.13L1769.16 1166.18L1768.51 1167.42L1547.37 1304.34L1545.19 1301.31L1765.76 1164.03L1765.8 1021.97L1768.24 1020.21L2126.89 801.719L2129.08 804.751Z" fill="url(#paint16_linear_204_20331)"/>
<path opacity="0.5" d="M1904.43 1426.83L1965.32 1465.43V1619.55L1904.43 1581.02V1426.83Z" fill="#758EF5"/>
<path opacity="0.2" d="M1843.53 1465.43L1904.42 1503.96V1581.02L1843.53 1542.49V1465.43Z" fill="#758EF5"/>
<path opacity="0.5" d="M1782.63 1195.57L1843.53 1234.17V1542.49L1782.63 1503.96V1195.57Z" fill="#758EF5"/>
<path opacity="0.2" d="M1721.68 1079.97L1782.63 1118.51V1503.96L1721.68 1465.43V1079.97Z" fill="#758EF5"/>
<path opacity="0.5" d="M1660.79 1118.51L1721.68 1157.04V1465.43L1660.79 1426.83V1118.51Z" fill="#758EF5"/>
<path opacity="0.2" d="M1599.89 848.718L1660.78 887.249V1426.83L1599.89 1388.29V848.718Z" fill="#758EF5"/>
<path opacity="0.5" d="M1539 887.251L1599.9 925.782V1388.3L1539 1349.76V887.251Z" fill="#758EF5"/>
<path opacity="0.2" d="M1478.11 925.779L1539.01 964.311V1349.76L1478.11 1311.23V925.779Z" fill="#758EF5"/>
<path opacity="0.5" d="M1417.16 733.056L1478.11 771.657V1311.23L1417.16 1272.7V733.056Z" fill="#758EF5"/>
<path opacity="0.2" d="M1356.26 540.398L1417.15 578.929V1272.7L1356.26 1234.1V540.398Z" fill="#758EF5"/>
<path opacity="0.5" d="M1295.37 578.931L1356.27 617.462V1234.1L1295.37 1195.57V578.931Z" fill="#758EF5"/>
<path opacity="0.2" d="M1234.48 386.204L1295.38 424.735V1195.57L1234.48 1157.04V386.204Z" fill="#758EF5"/>
<path opacity="0.5" d="M1173.52 347.673L1234.48 386.204V1157.04L1173.52 1118.51V347.673Z" fill="#758EF5"/>
<path opacity="0.2" d="M1112.63 154.947L1173.53 193.479V1118.51L1112.63 1079.98V154.947Z" fill="#758EF5"/>
<path opacity="0.4" d="M1172.46 2191.4C1480.57 2191.4 1730.34 2033.34 1730.34 1838.36C1730.34 1643.38 1480.57 1485.31 1172.46 1485.31C864.343 1485.31 614.568 1643.38 614.568 1838.36C614.568 2033.34 864.343 2191.4 1172.46 2191.4Z" fill="#0F054C"/>
<path d="M1172.46 2051.03C1523.14 2051.03 1807.43 1871.13 1807.43 1649.21C1807.43 1427.28 1523.14 1247.38 1172.46 1247.38C821.769 1247.38 537.48 1427.28 537.48 1649.21C537.48 1871.13 821.769 2051.03 1172.46 2051.03Z" fill="url(#paint17_linear_204_20331)"/>
<path opacity="0.48" d="M1807.5 1516.89H1791.8C1766.32 1445.34 1709.57 1377.29 1621.49 1321.62C1373.53 1164.68 971.452 1164.68 723.802 1321.62C640.624 1374.26 585.696 1437.84 558.012 1505.06H538.112V1594.16C533.153 1700.88 595.049 1808.63 723.802 1890.03C971.766 2046.91 1373.84 2046.91 1621.81 1890.03C1745.79 1811.52 1807.81 1708.73 1807.81 1605.86L1807.5 1516.89Z" fill="url(#paint18_linear_204_20331)"/>
<path opacity="0.48" d="M1791.8 1482.35C1790.92 1479.87 1789.98 1477.4 1788.97 1474.92V1416.37H1755.7V1412.17C1747.01 1399.39 1737.57 1387.23 1727.45 1375.77V1416.37H1708.62V1355.61C1699.79 1346.8 1690.33 1338.18 1680.25 1329.74V1416.5H1661.41V1314.33C1652.31 1307.45 1642.58 1300.57 1632.91 1294.1V1416.16H1614.08V1281.99C1604.79 1276.25 1595.27 1270.75 1585.52 1265.48V1416.16H1566.69V1255.91C1557.27 1251.32 1547.73 1246.74 1538.06 1242.15V1416.16H1519.23V1275.45H1490.54V1416.37H1471.71V1314.33H1442.89V1416.57H1424.06V1353H1395.18V1416.57H1376.73V1391.73H1348.04V1416.57H997.374V1391.73H968.371V1416.57H949.915V1353H921.164V1416.57H902.331V1314.33H873.518V1416.57H854.685V1275.45H825.996V1416.37H807.164V1242.22C797.496 1246.53 787.954 1251.12 778.538 1255.98V1416.57H759.705V1265.54C749.975 1270.84 740.433 1276.28 731.142 1281.99V1416.37H712.31V1294.1C702.391 1300.61 692.891 1307.33 683.81 1314.26V1416.37H664.977V1329.4C654.87 1337.79 645.454 1346.46 636.602 1355.27V1416.37H617.77V1375.08C607.687 1386.55 598.253 1398.68 589.521 1411.41V1416.02H556.25V1470.04H542.125V1619.41C547.632 1647.3 557.146 1674.06 570.311 1698.68V1605.58H589.521V1730.6C598.219 1743.34 607.655 1755.45 617.77 1766.86V1605.58H636.602V1787.09C645.454 1795.83 654.933 1804.5 664.977 1812.9V1605.58H683.81V1828.03C692.933 1834.91 702.433 1841.66 712.31 1848.26V1605.58H731.142V1860.17C740.433 1865.81 749.954 1871.29 759.705 1876.61V1605.58H778.538V1886.52C787.954 1891.11 797.496 1895.69 807.164 1900.28V1605.79H825.996V1908.54C835.413 1912.46 844.829 1916.17 854.685 1919.75V1605.58H873.518V1925.81C883.059 1929.04 892.35 1932.07 902.331 1934.96V1605.58H921.164V1940.46C930.706 1943.01 940.311 1945.48 950.041 1947.76V1605.79H968.497V1951.95C978.102 1954.02 987.769 1955.87 997.499 1957.66V1605.58H1015.89V1960.55C1025.5 1962.14 1035.23 1963.51 1044.96 1964.82V1605.58H1063.23V1967.02C1072.89 1968.05 1082.62 1968.95 1092.42 1969.77V1605.58H1110.56V1971.08C1120.35 1971.63 1130.08 1972.11 1139.87 1972.46V1605.58H1157.95V1972.87C1167.83 1972.87 1177.69 1972.87 1187.52 1972.87V1605.58H1205.6V1972.46C1215.39 1972.46 1225.12 1971.63 1234.92 1971.08V1605.58H1253.06V1969.77C1262.85 1968.95 1272.58 1968.05 1282.25 1966.95V1605.58H1300.52V1964.75C1310.25 1963.51 1319.98 1962.07 1329.58 1960.55V1605.58H1348.04V1957.39C1357.77 1955.67 1367.44 1953.74 1377.04 1951.68V1605.58H1395.5V1947.34C1405.23 1945 1414.83 1942.59 1424.37 1939.98V1605.58H1443.21V1934.89C1452.87 1932 1462.48 1928.9 1472.02 1925.74V1605.58H1490.85V1919.13C1500.52 1915.62 1510.13 1912.25 1519.54 1907.99V1605.58H1538.37V1899.94C1548.04 1895.6 1557.58 1891.13 1567 1886.17V1605.58H1585.83V1876.61C1595.58 1871.29 1605.1 1865.81 1614.4 1860.17V1605.58H1633.23V1848.12C1643.15 1841.52 1652.65 1834.75 1661.73 1827.83V1605.58H1680.56V1812.69C1690.61 1804.2 1700.06 1795.58 1708.94 1786.82V1605.58H1727.77V1766.66C1737.9 1755.22 1747.34 1743.06 1756.02 1730.26V1605.58H1774.91V1698.4C1788.18 1673.57 1797.7 1646.55 1803.1 1618.38V1482.42L1791.8 1482.35Z" fill="url(#paint19_linear_204_20331)"/>
<path d="M1172.46 1884.32C1523.14 1884.32 1807.43 1704.41 1807.43 1482.49C1807.43 1260.57 1523.14 1080.66 1172.46 1080.66C821.769 1080.66 537.48 1260.57 537.48 1482.49C537.48 1704.41 821.769 1884.32 1172.46 1884.32Z" fill="url(#paint20_linear_204_20331)"/>
<path opacity="0.3" d="M1172.71 1080.39C1028.83 1080.39 884.944 1111.14 767.804 1172.59L578.348 1623.95C609.233 1675.9 657.508 1724.55 723.485 1766.31C766.064 1792.89 811.016 1814.61 857.636 1831.13L1172.71 1080.39Z" fill="#91A2FA"/>
<path opacity="0.3" d="M1350.61 1096.76L1024.68 1873.31C1103.44 1885.03 1183.13 1887.34 1262.35 1880.19L1562.35 1165.36C1494.73 1132.7 1423.57 1109.65 1350.61 1096.76V1096.76Z" fill="#91A2FA"/>
<g opacity="0.05">
<path opacity="0.05" d="M1172.46 1838.36C1483.03 1838.36 1734.8 1679.03 1734.8 1482.49C1734.8 1285.95 1483.03 1126.63 1172.46 1126.63C861.885 1126.63 610.115 1285.95 610.115 1482.49C610.115 1679.03 861.885 1838.36 1172.46 1838.36Z" fill="url(#paint21_linear_204_20331)"/>
<g opacity="0.05">
<path opacity="0.05" d="M167.985 1480.98L161.959 1477.12L1141.64 857.182L1147.66 861.035L167.985 1480.98Z" fill="#91A2FA"/>
<path opacity="0.05" d="M185.243 1491.85L179.217 1488.06L1158.89 868.12L1164.92 871.905L185.243 1491.85Z" fill="#91A2FA"/>
<path opacity="0.05" d="M202.517 1502.79L196.49 1499.01L1176.17 879.064L1182.19 882.848L202.517 1502.79Z" fill="#91A2FA"/>
<path opacity="0.05" d="M219.775 1513.73L213.748 1509.94L1193.42 890.003L1199.45 893.787L219.775 1513.73Z" fill="#91A2FA"/>
<path opacity="0.05" d="M237.04 1524.67L231.014 1520.82L1210.69 900.874L1216.72 904.727L237.04 1524.67Z" fill="#91A2FA"/>
<path opacity="0.05" d="M254.3 1535.54L248.273 1531.76L1227.95 911.813L1233.98 915.598L254.3 1535.54Z" fill="#91A2FA"/>
<path opacity="0.05" d="M271.564 1546.48L265.537 1542.69L1245.21 922.752L1251.18 926.537L271.564 1546.48Z" fill="#91A2FA"/>
<path opacity="0.05" d="M288.829 1557.42L282.803 1553.64L1262.48 933.693L1268.44 937.478L288.829 1557.42Z" fill="#91A2FA"/>
<path opacity="0.05" d="M306.095 1568.36L300.068 1564.51L1279.74 944.567L1285.71 948.352L306.095 1568.36Z" fill="#91A2FA"/>
<path opacity="0.05" d="M323.355 1579.23L317.328 1575.45L1297 955.506L1302.97 959.291L323.355 1579.23Z" fill="#91A2FA"/>
<path opacity="0.05" d="M340.555 1590.17L334.592 1586.39L1314.27 966.445L1320.23 970.23L340.555 1590.17Z" fill="#91A2FA"/>
<path opacity="0.05" d="M357.821 1601.11L351.857 1597.33L1331.53 977.386L1337.5 981.171L357.821 1601.11Z" fill="#91A2FA"/>
<path opacity="0.05" d="M375.081 1611.98L369.117 1608.2L1348.79 988.256L1354.76 992.041L375.081 1611.98Z" fill="#91A2FA"/>
<path opacity="0.05" d="M392.346 1622.92L386.383 1619.14L1366.06 999.197L1372.02 1002.98L392.346 1622.92Z" fill="#91A2FA"/>
<path opacity="0.05" d="M409.612 1633.86L403.648 1630.08L1383.32 1010.14L1389.29 1013.92L409.612 1633.86Z" fill="#91A2FA"/>
<path opacity="0.05" d="M426.874 1644.8L420.848 1641.02L1400.52 1021.01L1406.55 1024.86L426.874 1644.8Z" fill="#91A2FA"/>
<path opacity="0.05" d="M444.14 1655.74L438.113 1651.89L1417.79 1031.95L1423.82 1035.73L444.14 1655.74Z" fill="#91A2FA"/>
<path opacity="0.05" d="M461.403 1666.62L455.377 1662.83L1435.05 1042.89L1441.08 1046.67L461.403 1666.62Z" fill="#91A2FA"/>
<path opacity="0.05" d="M478.663 1677.56L472.637 1673.77L1452.31 1053.83L1458.34 1057.61L478.663 1677.56Z" fill="#91A2FA"/>
<path opacity="0.05" d="M495.929 1688.5L489.902 1684.64L1469.58 1064.7L1475.61 1068.55L495.929 1688.5Z" fill="#91A2FA"/>
<path opacity="0.05" d="M513.194 1699.37L507.168 1695.58L1486.84 1075.64L1492.87 1079.42L513.194 1699.37Z" fill="#91A2FA"/>
<path opacity="0.05" d="M530.452 1710.31L524.426 1706.52L1504.1 1086.58L1510.13 1090.37L530.452 1710.31Z" fill="#91A2FA"/>
<path opacity="0.05" d="M547.718 1721.25L541.691 1717.46L1521.37 1097.52L1527.39 1101.31L547.718 1721.25Z" fill="#91A2FA"/>
<path opacity="0.05" d="M564.978 1732.19L558.951 1728.4L1538.63 1108.39L1544.65 1112.25L564.978 1732.19Z" fill="#91A2FA"/>
<path opacity="0.05" d="M582.241 1743.06L576.215 1739.27L1555.89 1119.33L1561.92 1123.12L582.241 1743.06Z" fill="#91A2FA"/>
<path opacity="0.05" d="M599.507 1754L593.48 1750.21L1573.16 1130.27L1579.12 1134.05L599.507 1754Z" fill="#91A2FA"/>
<path opacity="0.05" d="M616.773 1764.94L610.746 1761.15L1590.42 1141.21L1596.39 1145L616.773 1764.94Z" fill="#91A2FA"/>
<path opacity="0.05" d="M633.97 1775.88L628.006 1772.02L1607.68 1152.08L1613.65 1155.94L633.97 1775.88Z" fill="#91A2FA"/>
<path opacity="0.05" d="M651.235 1786.75L645.271 1782.97L1624.95 1163.02L1630.91 1166.81L651.235 1786.75Z" fill="#91A2FA"/>
<path opacity="0.05" d="M668.499 1797.69L662.535 1793.9L1642.21 1173.96L1648.18 1177.75L668.499 1797.69Z" fill="#91A2FA"/>
<path opacity="0.05" d="M685.759 1808.63L679.795 1804.84L1659.47 1184.9L1665.43 1188.69L685.759 1808.63Z" fill="#91A2FA"/>
<path opacity="0.05" d="M703.024 1819.57L697.061 1815.72L1676.74 1195.78L1682.7 1199.56L703.024 1819.57Z" fill="#91A2FA"/>
<path opacity="0.05" d="M720.29 1830.44L714.326 1826.66L1693.94 1206.71L1699.97 1210.5L720.29 1830.44Z" fill="#91A2FA"/>
<path opacity="0.05" d="M737.548 1841.38L731.584 1837.6L1711.26 1217.66L1717.22 1221.44L737.548 1841.38Z" fill="#91A2FA"/>
<path opacity="0.05" d="M754.813 1852.32L748.85 1848.54L1728.46 1228.53L1734.49 1232.38L754.813 1852.32Z" fill="#91A2FA"/>
<path opacity="0.05" d="M772.079 1863.26L766.115 1859.41L1745.73 1239.47L1751.76 1243.32L772.079 1863.26Z" fill="#91A2FA"/>
<path opacity="0.05" d="M789.341 1874.13L783.314 1870.35L1762.99 1250.41L1769.02 1254.19L789.341 1874.13Z" fill="#91A2FA"/>
<path opacity="0.05" d="M806.607 1885.08L800.58 1881.29L1780.26 1261.35L1786.28 1265.13L806.607 1885.08Z" fill="#91A2FA"/>
<path opacity="0.05" d="M823.872 1896.01L817.846 1892.23L1797.52 1272.22L1803.55 1276.07L823.872 1896.01Z" fill="#91A2FA"/>
<path opacity="0.05" d="M841.13 1906.95L835.104 1903.1L1814.78 1283.16L1820.81 1287.01L841.13 1906.95Z" fill="#91A2FA"/>
<path opacity="0.05" d="M858.396 1917.82L852.369 1914.04L1832.05 1294.1L1838.07 1297.88L858.396 1917.82Z" fill="#91A2FA"/>
<path opacity="0.05" d="M875.661 1928.76L869.635 1924.98L1849.31 1305.04L1855.34 1308.82L875.661 1928.76Z" fill="#91A2FA"/>
<path opacity="0.05" d="M892.919 1939.71L886.893 1935.92L1866.57 1315.98L1872.6 1319.77L892.919 1939.71Z" fill="#91A2FA"/>
<path opacity="0.05" d="M910.185 1950.65L904.158 1946.79L1883.83 1326.85L1889.86 1330.64L910.185 1950.65Z" fill="#91A2FA"/>
<path opacity="0.05" d="M927.45 1961.52L921.424 1957.73L1901.1 1337.79L1907.13 1341.58L927.45 1961.52Z" fill="#91A2FA"/>
<path opacity="0.05" d="M944.716 1972.46L938.689 1968.67L1918.37 1348.73L1924.39 1352.52L944.716 1972.46Z" fill="#91A2FA"/>
<path opacity="0.05" d="M961.976 1983.4L955.949 1979.61L1935.63 1359.6L1941.65 1363.46L961.976 1983.4Z" fill="#91A2FA"/>
<path opacity="0.05" d="M979.239 1994.27L973.213 1990.48L1952.89 1370.54L1958.85 1374.33L979.239 1994.27Z" fill="#91A2FA"/>
<path opacity="0.05" d="M996.499 2005.21L990.473 2001.43L1970.15 1381.48L1976.11 1385.27L996.499 2005.21Z" fill="#91A2FA"/>
<path opacity="0.05" d="M1013.7 2016.15L1007.74 2012.37L1987.41 1392.42L1993.38 1396.21L1013.7 2016.15Z" fill="#91A2FA"/>
<path opacity="0.05" d="M1030.96 2027.09L1025 2023.31L2004.67 1403.3L2010.64 1407.15L1030.96 2027.09Z" fill="#91A2FA"/>
<path opacity="0.05" d="M1048.23 2037.96L1042.27 2034.18L2021.95 1414.23L2027.91 1418.02L1048.23 2037.96Z" fill="#91A2FA"/>
<path opacity="0.05" d="M1065.5 2048.9L1059.53 2045.12L2039.21 1425.17L2045.17 1428.96L1065.5 2048.9Z" fill="#91A2FA"/>
<path opacity="0.05" d="M1082.76 2059.84L1076.79 2056.06L2056.47 1436.12L2062.43 1439.9L1082.76 2059.84Z" fill="#91A2FA"/>
<path opacity="0.05" d="M1100.01 2070.78L1093.99 2066.93L2073.66 1446.99L2079.69 1450.84L1100.01 2070.78Z" fill="#91A2FA"/>
<path opacity="0.05" d="M1117.28 2081.65L1111.25 2077.87L2090.93 1457.93L2096.95 1461.71L1117.28 2081.65Z" fill="#91A2FA"/>
<path opacity="0.05" d="M1134.54 2092.59L1128.52 2088.81L2108.19 1468.87L2114.22 1472.65L1134.54 2092.59Z" fill="#91A2FA"/>
<path opacity="0.05" d="M1151.8 2103.53L1145.78 2099.75L2125.45 1479.81L2131.48 1483.59L1151.8 2103.53Z" fill="#91A2FA"/>
<path opacity="0.05" d="M1169.07 2114.47L1163.04 2110.62L2142.72 1490.68L2148.74 1494.53L1169.07 2114.47Z" fill="#91A2FA"/>
<path opacity="0.05" d="M1186.33 2125.35L1180.31 2121.56L2159.98 1501.62L2166.01 1505.4L1186.33 2125.35Z" fill="#91A2FA"/>
<path opacity="0.05" d="M1203.59 2136.29L1197.56 2132.5L2177.24 1512.56L2183.27 1516.34L1203.59 2136.29Z" fill="#91A2FA"/>
</g>
</g>
<path d="M774.838 1254.81C994.553 1115.89 1350.49 1115.89 1570.14 1254.81C1675.1 1321.28 1729.84 1407.42 1734.49 1494.46C1739.51 1399.44 1684.77 1303.39 1570.14 1230.87C1350.43 1091.88 994.427 1091.88 774.838 1230.87C660.21 1303.39 605.344 1399.44 610.491 1494.46C615.137 1407.42 670.065 1321.21 774.838 1254.81Z" fill="url(#paint22_linear_204_20331)"/>
<path d="M1346.28 1407.15C1312.8 1403.89 1279.11 1410.08 1248.42 1425.11C1286.08 1390.7 1277.4 1355.54 1222.36 1319.63L1218.28 1317.01C1200.44 1305.36 1181.27 1296.31 1161.28 1290.11C1142.37 1284.06 1122.79 1280.85 1103.09 1280.54C1084.28 1280.68 1065.56 1283.36 1047.35 1288.53C1037.18 1291.37 1027.47 1294.53 1018.22 1298.02L982.812 1275.59L930.708 1308.55L959.836 1327.06C954.689 1330.08 949.478 1333.25 944.142 1336.62L925.31 1348.73L896.433 1330.43L844.329 1363.39L873.206 1381.69L837.235 1404.46L823.174 1413.41L819.344 1415.75L759.582 1453.59L811.686 1486.62L871.448 1448.77L1246.97 1686.57L1187.15 1724.41L1239.25 1757.37L1299.08 1719.53L1316.97 1708.24L1352.94 1685.47L1382.32 1704.04L1434.42 1671.09L1415.59 1659.32L1404.85 1652.44L1439.44 1630.56L1468.82 1649.14L1520.92 1616.18L1502.09 1604.41L1487.15 1594.92C1507.68 1575.31 1518.54 1555.49 1519.92 1535.54C1521.43 1505.72 1498.83 1475.91 1452.12 1446.09L1448.98 1444.03C1417.55 1423.82 1382.53 1411.24 1346.28 1407.15V1407.15ZM996.497 1393.8L1013.26 1383.13C1054.77 1356.9 1094.53 1355.75 1132.53 1379.69C1154.75 1393.45 1166.81 1406.6 1168.88 1418.22C1170.95 1429.85 1160.53 1442.93 1137.49 1457.38L1117.21 1470.17L996.497 1393.8ZM1331.22 1605.58L1187.02 1514.55L1207.86 1501.34C1227.68 1487.58 1250.7 1480.41 1274.15 1480.7C1294.83 1481.8 1318.68 1490.98 1345.72 1508.22C1369.82 1523.5 1382.84 1537.6 1384.76 1550.54C1386.71 1563.47 1376.16 1577.24 1353.38 1591.82L1331.22 1605.58Z" fill="url(#paint23_linear_204_20331)"/>
<path d="M844.02 1317.08V1353.69L872.896 1335.38L844.02 1317.08Z" fill="url(#paint24_linear_204_20331)"/>
<path d="M930.709 1262.24V1298.85L959.837 1280.75L930.709 1262.24Z" fill="url(#paint25_linear_204_20331)"/>
<path d="M1271.45 1335.45V1378.93L1245.34 1361.39L1271.45 1335.45Z" fill="url(#paint26_linear_204_20331)"/>
<path d="M1520.24 1482.49V1535.61L1481.07 1509.05L1520.24 1482.49Z" fill="url(#paint27_linear_204_20331)"/>
<path d="M1346.28 1360.84C1312.8 1357.59 1279.11 1363.77 1248.42 1378.8C1286.08 1344.4 1277.4 1309.22 1222.36 1273.25L1218.28 1270.71C1200.44 1259.05 1181.27 1250.01 1161.28 1243.8C1142.37 1237.73 1122.79 1234.51 1103.09 1234.24C1084.28 1234.37 1065.56 1237.05 1047.35 1242.22C1037.18 1245.02 1027.47 1248.18 1018.22 1251.72L982.812 1229.29L930.708 1262.24L959.836 1280.75C954.689 1283.78 949.478 1286.94 944.142 1290.32L925.31 1302.43L896.433 1284.12L844.329 1317.08L873.206 1335.38L837.235 1358.16L823.174 1367.04L819.344 1369.44L759.582 1407.29L811.686 1440.31L871.448 1402.47L1247.29 1640.26L1187.46 1678.11L1239.56 1711.07L1299.39 1673.22L1317.28 1661.94L1353.25 1639.16L1382.63 1657.74L1434.73 1624.78L1415.9 1613.02L1405.17 1606.14L1439.76 1584.26L1469.13 1602.83L1521.24 1569.88L1502.41 1558.11L1487.47 1548.61C1507.99 1529 1518.85 1509.19 1520.23 1489.23C1521.74 1459.42 1499.14 1429.6 1452.44 1399.79L1449.3 1397.79C1417.79 1377.48 1382.65 1364.88 1346.28 1360.84V1360.84ZM996.497 1347.49L1013.26 1336.83C1054.77 1310.59 1094.53 1309.44 1132.53 1333.39C1154.75 1347.15 1166.81 1360.29 1168.88 1371.92C1170.95 1383.55 1160.53 1396.62 1137.49 1411.07L1117.21 1423.87L996.497 1347.49ZM1331.22 1559.28L1187.27 1468.25L1208.11 1455.04C1227.93 1441.28 1250.95 1434.11 1274.4 1434.4C1295.08 1435.5 1318.93 1444.67 1345.97 1461.92C1370.07 1477.19 1383.09 1491.3 1385.02 1504.23C1386.96 1517.17 1376.42 1530.93 1353.63 1545.52L1331.22 1559.28Z" fill="url(#paint28_linear_204_20331)"/>
<path d="M1521.11 1569.94V1616.25L1469.01 1649.21V1602.9L1521.11 1569.94Z" fill="url(#paint29_linear_204_20331)"/>
<path d="M1434.42 1624.78V1671.09L1382.32 1704.05V1657.74L1434.42 1624.78Z" fill="url(#paint30_linear_204_20331)"/>
<path d="M1239.31 1711.06V1757.37L1187.14 1724.41V1678.11L1239.31 1711.06Z" fill="url(#paint31_linear_204_20331)"/>
<path d="M759.271 1407.28V1453.66L811.375 1486.62V1440.31L759.271 1407.28Z" fill="url(#paint32_linear_204_20331)"/>
<path d="M871.133 1448.78V1402.47L811.371 1440.31V1486.62L871.133 1448.78Z" fill="url(#paint33_linear_204_20331)"/>
<path d="M871.129 1402.47V1448.78L1210.37 1663.45L1246.97 1640.26L871.129 1402.47Z" fill="url(#paint34_linear_204_20331)"/>
<path d="M1180.24 1147.61C1158.08 1148.12 1136.16 1142.38 1116.59 1130.96C1098.89 1119.81 1089.16 1104.68 1089.16 1088.44C1089.16 1072.2 1098.89 1057.13 1116.59 1045.92C1151.68 1023.76 1208.81 1023.76 1243.96 1045.92C1261.6 1057.13 1271.33 1072.27 1271.33 1088.44C1271.33 1104.61 1261.6 1119.81 1243.96 1130.96C1224.37 1142.38 1202.43 1148.12 1180.24 1147.61V1147.61ZM1180.24 1036.83C1159.28 1036.41 1138.57 1041.83 1120.04 1052.59C1104.66 1062.36 1096.19 1075.09 1096.19 1088.44C1096.19 1101.79 1104.66 1114.58 1120.1 1124.35C1153.25 1145.34 1207.24 1145.34 1240.45 1124.35C1255.83 1114.58 1264.36 1101.86 1264.36 1088.44C1264.36 1075.02 1255.83 1062.36 1240.45 1052.59C1221.92 1041.82 1201.21 1036.4 1180.24 1036.83V1036.83Z" fill="#91A2FA"/>
<path d="M1217.97 1112.31C1206.3 1118.82 1193.4 1122.21 1180.31 1122.21C1167.22 1122.21 1154.31 1118.82 1142.64 1112.31C1121.8 1099.17 1121.8 1077.91 1142.64 1064.63C1154.31 1058.13 1167.22 1054.74 1180.31 1054.74C1193.4 1054.74 1206.3 1058.13 1217.97 1064.63C1238.75 1077.77 1238.75 1099.17 1217.97 1112.31Z" fill="#97A6FC"/>
<path d="M1400.14 972.912L1362.79 949.311L1426.38 909.06L1463.8 932.66L1400.14 972.912Z" fill="#91A2FA"/>
<path opacity="0.8" d="M1332.97 935.621L1285.89 920.414L1326.76 869.704L1373.84 884.911L1332.97 935.621Z" fill="#91A2FA"/>
<path opacity="0.6" d="M1250.87 913.191L1198.7 907.961L1212.76 851.747L1264.93 856.976L1250.87 913.191Z" fill="#91A2FA"/>
<path opacity="0.4" d="M1161.85 907.961L1109.62 913.191L1095.56 856.976L1147.73 851.747L1161.85 907.961Z" fill="#91A2FA"/>
<path opacity="0.2" d="M1074.59 920.414L1027.51 935.621L986.703 884.842L1033.72 869.704L1074.59 920.414Z" fill="#91A2FA"/>
<path opacity="0.1" d="M997.687 949.311L960.336 972.912L896.744 932.66L934.096 909.06L997.687 949.311Z" fill="#91A2FA"/>
<path opacity="0.2" d="M1275.48 1036.56L1262.36 1028.23L1357.27 968.164L1370.39 976.489L1275.48 1036.56Z" fill="#91A2FA"/>
<path opacity="0.4" d="M1245.41 1020.46L1228.9 1015.09L1289.85 939.403L1306.36 944.77L1245.41 1020.46Z" fill="#91A2FA"/>
<path opacity="0.6" d="M1209.06 1011.03L1190.73 1009.17L1211.7 925.299L1230.03 927.157L1209.06 1011.03Z" fill="#91A2FA"/>
<path opacity="0.8" d="M1169.83 1009.17L1151.49 1011.03L1130.46 927.157L1148.8 925.299L1169.83 1009.17Z" fill="#91A2FA"/>
<path d="M1131.59 1015.09L1115.08 1020.46L1054.12 944.77L1070.7 939.403L1131.59 1015.09Z" fill="#91A2FA"/>
<path d="M1098.19 1028.23L1085.07 1036.56L990.156 976.489L1003.28 968.164L1098.19 1028.23Z" fill="#91A2FA"/>
<path d="M1072.77 1047.22L1064.36 1057.68L944.77 1019.08L953.182 1008.62L1072.77 1047.22Z" fill="#91A2FA"/>
<path d="M1057.89 1070.27L1055 1081.83L922.418 1068.55L925.306 1056.92L1057.89 1070.27Z" fill="#91A2FA"/>
<path d="M1055 1095.04L1057.89 1106.67L925.306 1119.95L922.418 1108.32L1055 1095.04Z" fill="#91A2FA"/>
<path d="M1064.36 1119.26L1072.77 1129.72L953.182 1168.25L944.77 1157.79L1064.36 1119.26Z" fill="#91A2FA"/>
<path d="M1085.07 1140.39L1098.19 1148.71L1003.28 1208.78L990.156 1200.45L1085.07 1140.39Z" fill="#91A2FA"/>
<path opacity="0.6" d="M1553.06 893.44C1692.61 999.952 1700.4 1152.22 1576.61 1263.96L1626.83 1314.67C1797.64 1179.95 1793.87 985.984 1615.71 853.67L1553.06 893.44Z" fill="#97A6FC"/>
<path opacity="0.2" d="M1255.76 1390.84C1108.18 1405.5 951.866 1377.08 838.179 1304.97C813.355 1289.51 790.192 1271.05 769.126 1249.93L683.939 1268.51C711.345 1298.04 742.182 1323.49 775.655 1344.19C919.474 1435.15 1120.92 1467.49 1305.61 1441.28L1255.76 1390.84Z" fill="#91A2FA"/>
<path d="M614.134 1139.84L699.32 1121.26C684.254 1032.36 730.708 940.093 838.18 871.975C1016.21 759.34 1298.39 752.872 1488.47 852.503L1550.93 813.008C1326.26 691.635 988.276 698.102 775.844 832.549C643.45 916.286 589.588 1030.92 614.134 1139.84Z" fill="#97A6FC"/>
<path d="M1128.08 1290.87L1094.74 1269.81L1522.75 998.923L1556.08 1019.98L1128.08 1290.87Z" fill="#97A6FC"/>
<path opacity="0.8" d="M1175.4 1320.86L1142.07 1299.74L1328.14 1182.01L1361.47 1203.14L1175.4 1320.86Z" fill="#97A6FC"/>
<path opacity="0.6" d="M1226.07 1352.93L1192.73 1331.8L1488.91 1144.45L1522.24 1165.5L1226.07 1352.93Z" fill="#97A6FC"/>
<path opacity="0.2" d="M1275.97 1384.44L1242.58 1363.39L1473.15 1217.52L1506.49 1238.57L1275.97 1384.44Z" fill="#97A6FC"/>
<defs>
<linearGradient id="paint0_linear_204_20331" x1="2077.96" y1="2346.86" x2="2412.49" y2="2523.13" gradientUnits="userSpaceOnUse">
<stop stop-color="#BCBEFF"/>
<stop offset="0.23" stop-color="#AAADF8"/>
<stop offset="0.68" stop-color="#7C83E5"/>
<stop offset="1" stop-color="#5761D7"/>
</linearGradient>
<linearGradient id="paint1_linear_204_20331" x1="2037.74" y1="2423.54" x2="2441.73" y2="2423.54" gradientUnits="userSpaceOnUse">
<stop stop-color="#E9E9FD"/>
<stop offset="0.36" stop-color="#D3D2F9"/>
<stop offset="0.71" stop-color="#C5C4F7"/>
<stop offset="1" stop-color="#C0BFF6"/>
</linearGradient>
<linearGradient id="paint2_linear_204_20331" x1="211672" y1="42183.9" x2="219651" y2="52761.2" gradientUnits="userSpaceOnUse">
<stop stop-color="#BCBEFF"/>
<stop offset="0.23" stop-color="#AAADF8"/>
<stop offset="0.68" stop-color="#7C83E5"/>
<stop offset="1" stop-color="#5761D7"/>
</linearGradient>
<linearGradient id="paint3_linear_204_20331" x1="209477" y1="62314.4" x2="230255" y2="62314.4" gradientUnits="userSpaceOnUse">
<stop stop-color="#E9E9FD"/>
<stop offset="0.36" stop-color="#D3D2F9"/>
<stop offset="0.71" stop-color="#C5C4F7"/>
<stop offset="1" stop-color="#C0BFF6"/>
</linearGradient>
<linearGradient id="paint4_linear_204_20331" x1="1475.65" y1="2007.58" x2="2163.27" y2="2007.58" gradientUnits="userSpaceOnUse">
<stop stop-color="#5778FF"/>
<stop offset="0.1042" stop-color="#567FFF"/>
<stop offset="0.2607" stop-color="#5394FF"/>
<stop offset="0.4503" stop-color="#4DB6FF"/>
<stop offset="0.6638" stop-color="#46E4FF"/>
<stop offset="0.7742" stop-color="#42FFFF"/>
</linearGradient>
<linearGradient id="paint5_linear_204_20331" x1="174034" y1="52422.7" x2="182013" y2="63000.2" gradientUnits="userSpaceOnUse">
<stop stop-color="#BCBEFF"/>
<stop offset="0.23" stop-color="#AAADF8"/>
<stop offset="0.68" stop-color="#7C83E5"/>
<stop offset="1" stop-color="#5761D7"/>
</linearGradient>
<linearGradient id="paint6_linear_204_20331" x1="171939" y1="77206.9" x2="192731" y2="77206.9" gradientUnits="userSpaceOnUse">
<stop stop-color="#E9E9FD"/>
<stop offset="0.36" stop-color="#D3D2F9"/>
<stop offset="0.71" stop-color="#C5C4F7"/>
<stop offset="1" stop-color="#C0BFF6"/>
</linearGradient>
<linearGradient id="paint7_linear_204_20331" x1="174034" y1="46450.9" x2="182011" y2="57025.8" gradientUnits="userSpaceOnUse">
<stop stop-color="#BCBEFF"/>
<stop offset="0.23" stop-color="#AAADF8"/>
<stop offset="0.68" stop-color="#7C83E5"/>
<stop offset="1" stop-color="#5761D7"/>
</linearGradient>
<linearGradient id="paint8_linear_204_20331" x1="171939" y1="68637" x2="192731" y2="68637" gradientUnits="userSpaceOnUse">
<stop stop-color="#E9E9FD"/>
<stop offset="0.36" stop-color="#D3D2F9"/>
<stop offset="0.71" stop-color="#C5C4F7"/>
<stop offset="1" stop-color="#C0BFF6"/>
</linearGradient>
<linearGradient id="paint9_linear_204_20331" x1="906.736" y1="2079.39" x2="219.124" y2="2083.1" gradientUnits="userSpaceOnUse">
<stop stop-color="#5778FF"/>
<stop offset="0.1042" stop-color="#567FFF"/>
<stop offset="0.2607" stop-color="#5394FF"/>
<stop offset="0.4503" stop-color="#4DB6FF"/>
<stop offset="0.6638" stop-color="#46E4FF"/>
<stop offset="0.7742" stop-color="#42FFFF"/>
</linearGradient>
<linearGradient id="paint10_linear_204_20331" x1="107577" y1="22851.9" x2="115556" y2="33419.5" gradientUnits="userSpaceOnUse">
<stop stop-color="#BCBEFF"/>
<stop offset="0.23" stop-color="#AAADF8"/>
<stop offset="0.68" stop-color="#7C83E5"/>
<stop offset="1" stop-color="#5761D7"/>
</linearGradient>
<linearGradient id="paint11_linear_204_20331" x1="105409" y1="34977.2" x2="126164" y2="34977.2" gradientUnits="userSpaceOnUse">
<stop stop-color="#E9E9FD"/>
<stop offset="0.36" stop-color="#D3D2F9"/>
<stop offset="0.71" stop-color="#C5C4F7"/>
<stop offset="1" stop-color="#C0BFF6"/>
</linearGradient>
<linearGradient id="paint12_linear_204_20331" x1="107577" y1="17478.5" x2="115577" y2="28052.1" gradientUnits="userSpaceOnUse">
<stop stop-color="#BCBEFF"/>
<stop offset="0.23" stop-color="#AAADF8"/>
<stop offset="0.68" stop-color="#7C83E5"/>
<stop offset="1" stop-color="#5761D7"/>
</linearGradient>
<linearGradient id="paint13_linear_204_20331" x1="2093.13" y1="517.319" x2="2391.34" y2="674.392" gradientUnits="userSpaceOnUse">
<stop offset="0.24" stop-color="#5761D7"/>
<stop offset="0.39" stop-color="#7A82E5"/>
<stop offset="0.55" stop-color="#979CF0"/>
<stop offset="0.7" stop-color="#ACAFF8"/>
<stop offset="0.85" stop-color="#B8BAFD"/>
<stop offset="1" stop-color="#BCBEFF"/>
</linearGradient>
<linearGradient id="paint14_linear_204_20331" x1="105510" y1="27229.6" x2="126285" y2="27229.6" gradientUnits="userSpaceOnUse">
<stop stop-color="#E9E9FD"/>
<stop offset="0.36" stop-color="#D3D2F9"/>
<stop offset="0.71" stop-color="#C5C4F7"/>
<stop offset="1" stop-color="#C0BFF6"/>
</linearGradient>
<linearGradient id="paint15_linear_204_20331" x1="102606" y1="26402.7" x2="122117" y2="26402.7" gradientUnits="userSpaceOnUse">
<stop stop-color="#E9E9FD"/>
<stop offset="0.36" stop-color="#D3D2F9"/>
<stop offset="0.71" stop-color="#C5C4F7"/>
<stop offset="1" stop-color="#C0BFF6"/>
</linearGradient>
<linearGradient id="paint16_linear_204_20331" x1="1665.17" y1="1379.03" x2="2057.91" y2="757.841" gradientUnits="userSpaceOnUse">
<stop stop-color="#5778FF"/>
<stop offset="0.1042" stop-color="#567FFF"/>
<stop offset="0.2607" stop-color="#5394FF"/>
<stop offset="0.4503" stop-color="#4DB6FF"/>
<stop offset="0.6638" stop-color="#46E4FF"/>
<stop offset="0.7742" stop-color="#42FFFF"/>
</linearGradient>
<linearGradient id="paint17_linear_204_20331" x1="403911" y1="-71708.5" x2="491064" y2="57506.6" gradientUnits="userSpaceOnUse">
<stop stop-color="#35068C"/>
<stop offset="0.02" stop-color="#40DDDA"/>
<stop offset="0.09" stop-color="#3AAEC0"/>
<stop offset="0.17" stop-color="#3484A9"/>
<stop offset="0.26" stop-color="#2F6195"/>
<stop offset="0.35" stop-color="#2B4486"/>
<stop offset="0.44" stop-color="#282E79"/>
<stop offset="0.54" stop-color="#261E71"/>
<stop offset="0.66" stop-color="#24156C"/>
<stop offset="0.82" stop-color="#24126A"/>
</linearGradient>
<linearGradient id="paint18_linear_204_20331" x1="441.626" y1="1605.59" x2="1699.02" y2="1605.59" gradientUnits="userSpaceOnUse">
<stop stop-color="#3671E9"/>
<stop offset="0.15" stop-color="#91A2FA"/>
<stop offset="0.33" stop-color="#8B97F1"/>
<stop offset="0.52" stop-color="#7366C8"/>
<stop offset="0.72" stop-color="#654CB3"/>
<stop offset="0.93" stop-color="#4127A7"/>
<stop offset="1" stop-color="#260672"/>
</linearGradient>
<linearGradient id="paint19_linear_204_20331" x1="89592.1" y1="199720" x2="342884" y2="199720" gradientUnits="userSpaceOnUse">
<stop stop-color="#42E8E0"/>
<stop offset="0.15" stop-color="#43E3E0"/>
<stop offset="0.33" stop-color="#45D5DF"/>
<stop offset="0.52" stop-color="#49BDDD"/>
<stop offset="0.72" stop-color="#4E9CDB"/>
<stop offset="0.93" stop-color="#5472D8"/>
<stop offset="1" stop-color="#5761D7"/>
</linearGradient>
<linearGradient id="paint20_linear_204_20331" x1="414966" y1="-98465.9" x2="502122" y2="30749.3" gradientUnits="userSpaceOnUse">
<stop stop-color="#654CB2"/>
<stop offset="0.02" stop-color="#40DDDA"/>
<stop offset="0.09" stop-color="#3AAEC0"/>
<stop offset="0.17" stop-color="#3484A9"/>
<stop offset="0.26" stop-color="#2F6195"/>
<stop offset="0.35" stop-color="#2B4486"/>
<stop offset="0.44" stop-color="#282E79"/>
<stop offset="0.54" stop-color="#261E71"/>
<stop offset="0.66" stop-color="#24156C"/>
<stop offset="0.82" stop-color="#24126A"/>
</linearGradient>
<linearGradient id="paint21_linear_204_20331" x1="1073.34" y1="939.543" x2="1447.89" y2="2647.21" gradientUnits="userSpaceOnUse">
<stop stop-color="#42E8E0"/>
<stop offset="0.02" stop-color="#40DDDA"/>
<stop offset="0.09" stop-color="#3AAEC0"/>
<stop offset="0.17" stop-color="#3484A9"/>
<stop offset="0.26" stop-color="#2F6195"/>
<stop offset="0.35" stop-color="#2B4486"/>
<stop offset="0.44" stop-color="#282E79"/>
<stop offset="0.54" stop-color="#261E71"/>
<stop offset="0.66" stop-color="#24156C"/>
<stop offset="0.82" stop-color="#24126A"/>
</linearGradient>
<linearGradient id="paint22_linear_204_20331" x1="610.177" y1="1310.55" x2="1734.8" y2="1310.55" gradientUnits="userSpaceOnUse">
<stop stop-color="#2B237C"/>
<stop offset="1" stop-color="#180D5B"/>
</linearGradient>
<linearGradient id="paint23_linear_204_20331" x1="80860.4" y1="125758" x2="173257" y2="125758" gradientUnits="userSpaceOnUse">
<stop stop-color="#2B237C"/>
<stop offset="1" stop-color="#180D5B"/>
</linearGradient>
<linearGradient id="paint24_linear_204_20331" x1="4329.74" y1="9674.33" x2="4349.64" y2="9938.42" gradientUnits="userSpaceOnUse">
<stop stop-color="#2B237D"/>
<stop offset="0.02" stop-color="#40DDDA"/>
<stop offset="0.09" stop-color="#3AAEC0"/>
<stop offset="0.17" stop-color="#3484A9"/>
<stop offset="0.26" stop-color="#2F6195"/>
<stop offset="0.35" stop-color="#2B4486"/>
<stop offset="0.44" stop-color="#282E79"/>
<stop offset="0.54" stop-color="#261E71"/>
<stop offset="0.66" stop-color="#24156C"/>
<stop offset="0.82" stop-color="#24126A"/>
</linearGradient>
<linearGradient id="paint25_linear_204_20331" x1="4849.57" y1="9327.75" x2="4868.86" y2="9591.89" gradientUnits="userSpaceOnUse">
<stop stop-color="#2C247E"/>
<stop offset="0.02" stop-color="#40DDDA"/>
<stop offset="0.09" stop-color="#3AAEC0"/>
<stop offset="0.17" stop-color="#3484A9"/>
<stop offset="0.26" stop-color="#2F6195"/>
<stop offset="0.35" stop-color="#2B4486"/>
<stop offset="0.44" stop-color="#282E79"/>
<stop offset="0.54" stop-color="#261E71"/>
<stop offset="0.66" stop-color="#24156C"/>
<stop offset="0.82" stop-color="#24126A"/>
</linearGradient>
<linearGradient id="paint26_linear_204_20331" x1="6064.8" y1="11382.3" x2="6101.51" y2="11754.4" gradientUnits="userSpaceOnUse">
<stop stop-color="#2B237C"/>
<stop offset="1" stop-color="#180D5B"/>
</linearGradient>
<linearGradient id="paint27_linear_204_20331" x1="10120.8" y1="15084.5" x2="10461.1" y2="15137.2" gradientUnits="userSpaceOnUse">
<stop stop-color="#2B237C"/>
<stop offset="1" stop-color="#180D5B"/>
</linearGradient>
<linearGradient id="paint28_linear_204_20331" x1="84823.6" y1="116384" x2="372412" y2="211665" gradientUnits="userSpaceOnUse">
<stop stop-color="#654DB3"/>
<stop offset="0.0899" stop-color="#40DDDA"/>
<stop offset="0.09" stop-color="#E9E9FE"/>
<stop offset="0.17" stop-color="#654DB3"/>
<stop offset="0.26" stop-color="#2F6195"/>
<stop offset="0.35" stop-color="#2B4486"/>
<stop offset="0.44" stop-color="#282E79"/>
<stop offset="0.54" stop-color="#261E71"/>
<stop offset="0.66" stop-color="#24156C"/>
<stop offset="0.82" stop-color="#24126A"/>
</linearGradient>
<linearGradient id="paint29_linear_204_20331" x1="12846.9" y1="23055.4" x2="13409.5" y2="23133" gradientUnits="userSpaceOnUse">
<stop stop-color="#2B237C"/>
<stop offset="1" stop-color="#180D5B"/>
</linearGradient>
<linearGradient id="paint30_linear_204_20331" x1="12041.2" y1="23742" x2="12603.8" y2="23819.5" gradientUnits="userSpaceOnUse">
<stop stop-color="#2B237C"/>
<stop offset="1" stop-color="#180D5B"/>
</linearGradient>
<linearGradient id="paint31_linear_204_20331" x1="10188.5" y1="24394.6" x2="10881.6" y2="24490.2" gradientUnits="userSpaceOnUse">
<stop stop-color="#2B237C"/>
<stop offset="1" stop-color="#180D5B"/>
</linearGradient>
<linearGradient id="paint32_linear_204_20331" x1="6431.81" y1="20454.4" x2="6548.44" y2="21745.5" gradientUnits="userSpaceOnUse">
<stop stop-color="#2C247D"/>
<stop offset="0.02" stop-color="#40DDDA"/>
<stop offset="0.09" stop-color="#3AAEC0"/>
<stop offset="0.17" stop-color="#3484A9"/>
<stop offset="0.26" stop-color="#2F6195"/>
<stop offset="0.35" stop-color="#2B4486"/>
<stop offset="0.44" stop-color="#282E79"/>
<stop offset="0.54" stop-color="#261E71"/>
<stop offset="0.66" stop-color="#24156C"/>
<stop offset="0.82" stop-color="#24126A"/>
</linearGradient>
<linearGradient id="paint33_linear_204_20331" x1="7851.38" y1="21595.9" x2="7962.38" y2="22927.6" gradientUnits="userSpaceOnUse">
<stop stop-color="#2B237C"/>
<stop offset="1" stop-color="#180D5B"/>
</linearGradient>
<linearGradient id="paint34_linear_204_20331" x1="57697.8" y1="62098.8" x2="58298.7" y2="76735" gradientUnits="userSpaceOnUse">
<stop stop-color="#91A2FA"/>
<stop offset="0.0199" stop-color="#91A2FA"/>
<stop offset="0.02" stop-color="#654DB3"/>
<stop offset="0.09" stop-color="#654DB3"/>
<stop offset="0.17" stop-color="#654DB3"/>
<stop offset="0.26" stop-color="#654CB3"/>
<stop offset="0.35" stop-color="#35068C"/>
<stop offset="0.44" stop-color="#35068C"/>
<stop offset="0.54" stop-color="#35068C"/>
<stop offset="0.66" stop-color="#35068C"/>
<stop offset="0.82" stop-color="#35068C"/>
</linearGradient>
</defs>
</svg>
