<svg width="1728" height="2011" viewBox="0 0 1728 2011" fill="none" xmlns="http://www.w3.org/2000/svg">
<ellipse cx="966.203" cy="1206.72" rx="1276.13" ry="960.374" transform="rotate(-12.1099 966.203 1206.72)" fill="#0D0D2B"/>
<path d="M1579.17 844.442C1586.9 871.726 1576.56 903.717 1549.06 938.784C1521.64 973.745 1477.81 1010.87 1420.67 1047.89C1306.46 1121.89 1140.06 1194.86 948.578 1249.1C757.091 1303.33 577.146 1328.45 441.086 1325.33C373.024 1323.77 316.239 1315.14 274.556 1299.75C232.747 1284.32 207.171 1262.5 199.443 1235.21C191.715 1207.93 202.051 1175.94 229.557 1140.87C256.979 1105.91 300.809 1068.79 357.943 1031.77C472.159 957.763 638.552 884.792 830.038 830.559C1021.52 776.325 1201.47 751.205 1337.53 754.327C1405.59 755.889 1462.38 764.513 1504.06 779.902C1545.87 795.337 1571.44 817.157 1579.17 844.442Z" stroke="#FF78BF" stroke-width="10"/>
</svg>
