<svg width="1728" height="1117" viewBox="0 0 1728 1117" fill="none" xmlns="http://www.w3.org/2000/svg">
<rect width="1728" height="1117" fill="#F9FAFD"/>
<rect x="768" y="1072.86" width="120" height="997.881" transform="rotate(-120 768 1072.86)" fill="url(#paint0_linear_89_1814)"/>
<g opacity="0.3">
<path opacity="0.3" d="M1583.92 945.042V933.597L1581.05 931.835C1580.24 937.225 1574.43 940.801 1569.56 941.542L1536.52 962.72L1522.11 968.417L1476.06 942.385L1477.13 941.721C1473.19 939.703 1471.07 935.105 1468.95 930.889L1465.84 932.908L1464 933.495V945.221C1464.12 946.554 1464.56 947.829 1465.28 948.918C1465.99 950.007 1466.95 950.873 1468.06 951.429L1514.25 980.603C1517.29 982.279 1520.64 983.151 1524.04 983.151C1527.45 983.151 1530.8 982.279 1533.84 980.603L1579.96 951.429C1581.05 950.88 1582 950.033 1582.7 948.968C1583.41 947.903 1583.85 946.656 1583.99 945.349C1584 945.247 1584 945.144 1583.99 945.042H1583.92Z" fill="url(#paint1_linear_89_1814)"/>
<path opacity="0.3" d="M1569.56 941.542L1536.52 962.72L1523.97 967.676V983.158C1527.38 983.235 1530.75 982.355 1533.77 980.603L1579.89 951.429C1580.98 950.88 1581.93 950.033 1582.63 948.968C1583.34 947.903 1583.78 946.657 1583.92 945.349C1583.93 945.247 1583.93 945.144 1583.92 945.042V933.597L1581.29 931.988H1581.01C1580.12 937.302 1574.38 940.699 1569.56 941.542Z" fill="#0F054C"/>
<path opacity="0.3" d="M1514.25 968.954L1468.13 939.78C1462.72 936.382 1462.72 930.813 1468.13 927.39L1514.25 898.215C1517.29 896.54 1520.64 895.667 1524.04 895.667C1527.45 895.667 1530.8 896.54 1533.84 898.215L1579.96 927.39C1585.34 930.813 1585.34 936.382 1579.96 939.78L1533.84 968.954C1530.8 970.641 1527.45 971.521 1524.04 971.521C1520.64 971.521 1517.29 970.641 1514.25 968.954Z" fill="url(#paint2_linear_89_1814)"/>
<g opacity="0.3">
<path opacity="0.3" d="M1514.25 968.954L1468.13 939.78C1462.72 936.382 1462.72 930.813 1468.13 927.39L1514.25 898.215C1517.29 896.54 1520.64 895.667 1524.04 895.667C1527.45 895.667 1530.8 896.54 1533.84 898.215L1579.96 927.39C1585.34 930.813 1585.34 936.382 1579.96 939.78L1533.84 968.954C1530.8 970.641 1527.45 971.521 1524.04 971.521C1520.64 971.521 1517.29 970.641 1514.25 968.954Z" fill="#0F054C"/>
</g>
</g>
<path d="M1523.97 932.09C1520.95 932.15 1517.95 931.368 1515.28 929.816L1469.15 900.642C1468.07 900.223 1467.12 899.444 1466.45 898.412C1465.79 897.38 1465.43 896.146 1465.43 894.882C1465.43 893.617 1465.79 892.383 1466.45 891.351C1467.12 890.319 1468.07 889.54 1469.15 889.121L1515.28 859.947C1517.97 858.46 1520.94 857.685 1523.96 857.685C1526.98 857.685 1529.95 858.46 1532.65 859.947L1578.79 889.121C1579.88 889.54 1580.82 890.319 1581.49 891.351C1582.16 892.383 1582.52 893.617 1582.52 894.882C1582.52 896.146 1582.16 897.38 1581.49 898.412C1580.82 899.444 1579.88 900.223 1578.79 900.642L1532.67 929.816C1529.99 931.368 1527 932.15 1523.97 932.09ZM1523.97 858.567C1521.09 858.504 1518.23 859.242 1515.67 860.713L1469.55 889.887C1468.59 890.236 1467.76 890.906 1467.17 891.802C1466.58 892.699 1466.26 893.776 1466.26 894.882C1466.26 895.987 1466.58 897.064 1467.17 897.961C1467.76 898.857 1468.59 899.527 1469.55 899.876L1515.67 929.05C1518.24 930.473 1521.08 931.215 1523.96 931.215C1526.84 931.215 1529.68 930.473 1532.25 929.05L1578.37 899.825C1579.33 899.476 1580.16 898.806 1580.75 897.91C1581.34 897.013 1581.66 895.936 1581.66 894.83C1581.66 893.725 1581.34 892.647 1580.75 891.751C1580.16 890.855 1579.33 890.185 1578.37 889.836L1532.25 860.662C1529.7 859.212 1526.85 858.491 1523.97 858.567Z" fill="#42E8E0"/>
<path opacity="0.4" d="M1583.92 883.679V866.384L1581.05 864.622C1580.24 870.038 1574.43 873.588 1569.56 874.329L1536.52 895.507L1522.11 901.204L1476.06 875.172L1477.13 874.508C1473.19 872.49 1471.07 867.892 1468.95 863.676L1465.84 865.695L1464 866.282V883.858C1464.12 885.191 1464.56 886.466 1465.28 887.555C1465.99 888.644 1466.95 889.51 1468.06 890.066L1514.25 919.24C1517.29 920.928 1520.64 921.807 1524.04 921.807C1527.45 921.807 1530.8 920.928 1533.84 919.24L1579.96 890.066C1581.05 889.517 1582 888.67 1582.7 887.605C1583.41 886.54 1583.85 885.294 1583.99 883.986C1584 883.884 1584 883.781 1583.99 883.679H1583.92Z" fill="#42E8E0"/>
<path d="M1583.92 868.3V856.856L1581.05 855.093C1580.24 860.509 1574.43 864.06 1569.56 864.801L1536.52 885.979L1522.11 891.675L1476.06 865.644L1477.13 864.979C1473.19 862.961 1471.07 858.363 1468.95 854.148L1465.84 856.191L1464 856.753V868.479C1464.12 869.812 1464.56 871.087 1465.28 872.176C1465.99 873.265 1466.95 874.131 1468.06 874.687L1514.25 903.861C1517.29 905.549 1520.64 906.428 1524.04 906.428C1527.45 906.428 1530.8 905.549 1533.84 903.861L1579.96 874.687C1581.05 874.139 1582 873.291 1582.7 872.226C1583.41 871.161 1583.85 869.915 1583.99 868.607C1584 868.505 1584 868.402 1583.99 868.3H1583.92Z" fill="url(#paint3_linear_89_1814)"/>
<path opacity="0.3" d="M1569.56 864.8L1536.52 885.978L1523.97 890.934V906.415C1527.38 906.492 1530.75 905.613 1533.77 903.86L1579.89 874.686C1580.98 874.138 1581.92 873.29 1582.63 872.225C1583.34 871.16 1583.78 869.914 1583.92 868.606C1583.93 868.505 1583.93 868.402 1583.92 868.3V856.855L1581.29 855.245H1581.01C1580.12 860.559 1574.38 864.059 1569.56 864.8Z" fill="#0F054C"/>
<path d="M1514.25 892.16L1468.13 862.986C1462.72 859.563 1462.72 853.994 1468.13 850.596L1514.25 821.498C1517.29 819.811 1520.64 818.931 1524.04 818.931C1527.45 818.931 1530.8 819.811 1533.84 821.498L1579.96 850.672C1585.34 854.07 1585.34 859.639 1579.96 863.063L1533.77 892.16C1530.74 893.823 1527.4 894.689 1524.01 894.689C1520.62 894.689 1517.28 893.823 1514.25 892.16Z" fill="url(#paint4_linear_89_1814)"/>
<path d="M1579.89 863.064L1533.77 892.161C1530.73 893.837 1527.37 894.71 1523.97 894.71C1520.57 894.71 1517.22 893.837 1514.18 892.161L1468.06 862.987C1467.05 862.467 1466.17 861.702 1465.47 860.75C1464.78 859.798 1464.29 858.684 1464.05 857.494C1463.72 860.049 1465.07 862.604 1468.06 864.392L1514.25 893.643C1517.28 895.33 1520.64 896.21 1524.04 896.21C1527.45 896.21 1530.8 895.33 1533.84 893.643L1579.96 864.469C1581.19 863.908 1582.23 862.945 1582.95 861.71C1583.66 860.476 1584.01 859.031 1583.94 857.571C1583.69 858.765 1583.2 859.881 1582.5 860.833C1581.79 861.785 1580.9 862.548 1579.89 863.064Z" fill="white"/>
<path d="M1500.81 855.491L1395.9 786.74L1362.55 807.812H1362.16L1297.2 765.881L1297.59 764.816L1362.55 806.535L1395.9 785.463L1396.68 785.889L1501.2 854.426L1500.81 855.491Z" fill="url(#paint5_linear_89_1814)"/>
<g opacity="0.3">
<path opacity="0.3" d="M979.2 943.804V932.359L976.307 930.596C975.49 936.012 969.682 939.563 964.83 940.304L931.75 961.482L917.334 967.179L871.261 941.147L872.334 940.483C868.391 938.465 866.269 933.866 864.146 929.651L861.043 931.695L859.2 932.257V943.983C859.322 945.316 859.761 946.59 860.474 947.68C861.186 948.769 862.146 949.635 863.259 950.191L909.402 979.365C912.438 981.052 915.795 981.932 919.2 981.932C922.605 981.932 925.961 981.052 928.998 979.365L975.14 950.191C976.238 949.645 977.188 948.799 977.899 947.734C978.61 946.669 979.058 945.421 979.2 944.11C979.2 944.11 979.2 943.906 979.2 943.804Z" fill="url(#paint6_linear_89_1814)"/>
<path opacity="0.3" d="M964.829 940.354L931.75 961.532L919.199 966.488V981.97C922.611 982.046 925.983 981.167 928.997 979.415L975.14 950.241C976.237 949.696 977.187 948.85 977.898 947.784C978.61 946.719 979.058 945.471 979.199 944.161C979.199 944.161 979.199 943.956 979.199 943.854V932.409L976.539 930.8H976.26C975.373 936.063 969.634 939.562 964.829 940.354Z" fill="#0F054C"/>
<path opacity="0.3" d="M909.402 967.741L863.259 938.567C857.847 935.143 857.847 929.574 863.259 926.177L909.402 896.926C912.438 895.238 915.795 894.359 919.2 894.359C922.605 894.359 925.962 895.238 928.998 896.926L975.141 926.1C980.529 929.498 980.529 935.067 975.141 938.49L928.998 967.741C925.958 969.416 922.603 970.289 919.2 970.289C915.797 970.289 912.442 969.416 909.402 967.741Z" fill="url(#paint7_linear_89_1814)"/>
<g opacity="0.3">
<path opacity="0.3" d="M909.402 967.741L863.259 938.566C857.847 935.143 857.847 929.574 863.259 926.176L909.402 896.926C912.438 895.238 915.795 894.359 919.2 894.359C922.605 894.359 925.962 895.238 928.998 896.926L975.141 926.1C980.529 929.497 980.529 935.067 975.141 938.49L928.998 967.741C925.958 969.416 922.603 970.289 919.2 970.289C915.797 970.289 912.442 969.416 909.402 967.741Z" fill="#0F054C"/>
</g>
</g>
<path d="M919.2 925.283C916.169 925.355 913.172 924.572 910.498 923.009L864.355 893.835C863.274 893.411 862.338 892.631 861.677 891.602C861.015 890.573 860.66 889.345 860.66 888.087C860.66 886.829 861.015 885.601 861.677 884.572C862.338 883.543 863.274 882.763 864.355 882.339L910.498 853.165C913.195 851.666 916.176 850.885 919.2 850.885C922.223 850.885 925.205 851.666 927.901 853.165L974.044 882.339C975.125 882.763 976.061 883.543 976.723 884.572C977.384 885.601 977.739 886.829 977.739 888.087C977.739 889.345 977.384 890.573 976.723 891.602C976.061 892.631 975.125 893.411 974.044 893.835L927.901 923.009C925.227 924.572 922.23 925.355 919.2 925.283ZM910.895 922.243C913.466 923.666 916.307 924.408 919.188 924.408C922.069 924.408 924.91 923.666 927.481 922.243L973.624 893.069C974.655 892.811 975.575 892.178 976.234 891.273C976.894 890.368 977.253 889.245 977.253 888.087C977.253 886.929 976.894 885.806 976.234 884.901C975.575 883.996 974.655 883.363 973.624 883.105L927.481 853.931C924.913 852.496 922.071 851.748 919.188 851.748C916.305 851.748 913.463 852.496 910.895 853.931L864.752 883.105C863.721 883.363 862.801 883.996 862.141 884.901C861.482 885.806 861.123 886.929 861.123 888.087C861.123 889.245 861.482 890.368 862.141 891.273C862.801 892.178 863.721 892.811 864.752 893.069L910.895 922.243Z" fill="#42E8E0"/>
<path opacity="0.4" d="M979.2 876.898V859.577L976.307 857.814C975.49 863.23 969.682 866.781 964.83 867.522L931.75 888.7L917.334 894.371L871.261 868.339L872.334 867.675C868.391 865.657 866.269 861.059 864.146 856.844L861.043 858.887L859.2 859.449V877.051C859.312 878.384 859.748 879.66 860.461 880.747C861.175 881.834 862.141 882.692 863.259 883.233L909.402 912.407C912.438 914.095 915.795 914.974 919.2 914.974C922.605 914.974 925.961 914.095 928.998 912.407L975.14 883.233C976.238 882.688 977.188 881.842 977.899 880.777C978.61 879.712 979.058 878.463 979.2 877.153C979.2 877.153 979.2 876.949 979.2 876.846V876.898Z" fill="#42E8E0"/>
<path d="M979.2 861.493V850.048L976.307 848.286C975.49 853.701 969.682 857.252 964.83 857.993L931.75 879.171L917.334 884.868L871.261 858.836L872.334 858.172C868.391 856.154 866.269 851.555 864.146 847.366L861.043 849.384L859.2 849.946V861.697C859.326 863.026 859.767 864.295 860.479 865.38C861.191 866.464 862.149 867.326 863.259 867.88L909.402 897.054C912.438 898.741 915.795 899.621 919.2 899.621C922.605 899.621 925.961 898.741 928.998 897.054L975.14 867.88C976.238 867.335 977.188 866.489 977.899 865.423C978.61 864.358 979.058 863.11 979.2 861.8C979.2 861.8 979.2 861.595 979.2 861.493Z" fill="url(#paint8_linear_89_1814)"/>
<path d="M909.402 885.43L863.259 856.256C857.847 852.833 857.847 847.264 863.259 843.866L909.402 814.692C912.438 813.004 915.795 812.125 919.2 812.125C922.605 812.125 925.962 813.004 928.998 814.692L975.141 843.866C980.529 847.289 980.529 852.833 975.141 856.256L928.998 885.43C925.962 887.117 922.605 887.997 919.2 887.997C915.795 887.997 912.438 887.117 909.402 885.43Z" fill="url(#paint9_linear_89_1814)"/>
<path d="M919.2 880.116C916.463 880.183 913.756 879.48 911.338 878.072L875.297 855.285C874.311 854.902 873.458 854.194 872.855 853.258C872.252 852.323 871.928 851.206 871.928 850.06C871.928 848.915 872.252 847.798 872.855 846.863C873.458 845.927 874.311 845.219 875.297 844.836L911.338 822.049C913.773 820.689 916.467 819.981 919.2 819.981C921.933 819.981 924.627 820.689 927.062 822.049L963.103 844.836C964.089 845.219 964.942 845.927 965.545 846.863C966.148 847.798 966.472 848.915 966.472 850.06C966.472 851.206 966.148 852.323 965.545 853.258C964.942 854.194 964.089 854.902 963.103 855.285L927.062 878.072C924.644 879.48 921.937 880.183 919.2 880.116ZM911.735 877.306C914.044 878.591 916.598 879.261 919.188 879.261C921.779 879.261 924.332 878.591 926.642 877.306L962.707 854.518C963.572 854.219 964.328 853.625 964.864 852.824C965.401 852.022 965.69 851.054 965.69 850.06C965.69 849.067 965.401 848.099 964.864 847.297C964.328 846.495 963.572 845.902 962.707 845.602L926.642 822.841C924.332 821.555 921.779 820.885 919.188 820.885C916.598 820.885 914.044 821.555 911.735 822.841L875.693 845.628C874.883 846.014 874.182 846.629 873.661 847.41C873.14 848.191 872.819 849.111 872.73 850.073C872.822 851.038 873.144 851.959 873.664 852.744C874.184 853.528 874.884 854.149 875.693 854.544L911.735 877.306Z" fill="#5351AF"/>
<path d="M975.14 856.256L928.997 885.43C925.961 887.118 922.604 887.997 919.2 887.997C915.795 887.997 912.438 887.118 909.402 885.43L863.259 856.256C862.252 855.736 861.367 854.971 860.672 854.019C859.976 853.067 859.489 851.954 859.246 850.764C859.193 852.228 859.549 853.675 860.265 854.911C860.982 856.148 862.027 857.117 863.259 857.687L909.402 886.861C912.441 888.537 915.797 889.41 919.2 889.41C922.602 889.41 925.958 888.537 928.997 886.861L975.14 857.687C976.372 857.119 977.415 856.15 978.128 854.912C978.842 853.674 979.191 852.226 979.129 850.764C978.891 851.952 978.408 853.065 977.716 854.017C977.025 854.969 976.144 855.735 975.14 856.256Z" fill="white"/>
<path d="M924.852 875.782L1029.41 809.901L1062.87 829.67L1063.26 829.668L1128 789.48L1127.61 788.473L1062.86 828.459L1029.4 808.69L1028.63 809.098L924.459 874.775L924.852 875.782Z" fill="url(#paint10_linear_89_1814)"/>
<g opacity="0.3">
<path opacity="0.3" d="M1582.68 480.83V469.385L1579.79 467.622C1578.98 473.013 1573.18 476.589 1568.33 477.33L1535.28 498.483L1520.88 504.205L1474.85 478.173L1475.92 477.483C1471.98 475.491 1469.86 470.867 1467.74 466.677L1464.64 468.695L1462.8 469.257V481.009C1462.91 482.343 1463.34 483.62 1464.06 484.707C1464.77 485.795 1465.74 486.653 1466.86 487.191L1512.95 516.365C1515.99 518.053 1519.34 518.932 1522.74 518.932C1526.14 518.932 1529.5 518.053 1532.53 516.365L1578.63 487.191C1579.73 486.646 1580.68 485.8 1581.39 484.735C1582.1 483.67 1582.54 482.421 1582.68 481.111V480.83Z" fill="url(#paint11_linear_89_1814)"/>
<path opacity="0.3" d="M1568.33 477.33L1535.28 498.483L1522.74 503.464V518.945C1526.15 519.022 1529.52 518.143 1532.53 516.391L1578.63 487.217C1579.73 486.671 1580.67 485.825 1581.38 484.76C1582.1 483.695 1582.54 482.447 1582.68 481.137V480.855V469.411L1580.05 467.801H1579.77C1578.84 473.089 1573.13 476.589 1568.33 477.33Z" fill="#0F054C"/>
<path opacity="0.3" d="M1512.95 504.741L1466.97 475.567C1461.57 472.144 1461.57 466.6 1466.97 463.177L1512.95 433.901C1515.99 432.213 1519.34 431.334 1522.74 431.334C1526.14 431.334 1529.5 432.213 1532.53 433.901L1578.63 463.075C1584.04 466.498 1584.04 472.042 1578.63 475.465L1532.53 504.639C1529.5 506.342 1526.16 507.239 1522.75 507.257C1519.35 507.275 1515.99 506.413 1512.95 504.741Z" fill="url(#paint12_linear_89_1814)"/>
<g opacity="0.3">
<path opacity="0.3" d="M1512.95 504.741L1466.97 475.567C1461.57 472.144 1461.57 466.6 1466.97 463.177L1512.95 433.901C1515.99 432.213 1519.34 431.334 1522.74 431.334C1526.14 431.334 1529.5 432.213 1532.53 433.901L1578.63 463.075C1584.04 466.498 1584.04 472.042 1578.63 475.465L1532.53 504.639C1529.5 506.342 1526.16 507.239 1522.75 507.257C1519.35 507.275 1515.99 506.413 1512.95 504.741Z" fill="#0F054C"/>
</g>
</g>
<path d="M1522.74 469.794C1519.72 469.854 1516.73 469.072 1514.05 467.52L1467.95 438.346C1466.86 437.927 1465.92 437.148 1465.25 436.116C1464.59 435.084 1464.23 433.85 1464.23 432.586C1464.23 431.321 1464.59 430.087 1465.25 429.055C1465.92 428.023 1466.86 427.244 1467.95 426.825L1514.05 397.651C1516.75 396.164 1519.72 395.389 1522.74 395.389C1525.76 395.389 1528.74 396.164 1531.44 397.651L1577.53 426.825C1578.62 427.244 1579.57 428.023 1580.23 429.055C1580.9 430.087 1581.26 431.321 1581.26 432.586C1581.26 433.85 1580.9 435.084 1580.23 436.116C1579.57 437.148 1578.62 437.927 1577.53 438.346L1531.44 467.52C1528.76 469.072 1525.77 469.854 1522.74 469.794ZM1522.74 396.246C1519.86 396.191 1517.02 396.938 1514.47 398.417L1468.35 427.591C1467.39 427.94 1466.56 428.61 1465.97 429.506C1465.38 430.403 1465.06 431.48 1465.06 432.586C1465.06 433.691 1465.38 434.768 1465.97 435.665C1466.56 436.561 1467.39 437.231 1468.35 437.58L1514.47 466.754C1517.04 468.177 1519.88 468.919 1522.76 468.919C1525.63 468.919 1528.47 468.177 1531.04 466.754L1577.14 437.58C1578.1 437.231 1578.93 436.561 1579.52 435.665C1580.11 434.768 1580.43 433.691 1580.43 432.586C1580.43 431.48 1580.11 430.403 1579.52 429.506C1578.93 428.61 1578.1 427.94 1577.14 427.591L1531.04 398.417C1528.49 396.938 1525.63 396.191 1522.74 396.246Z" fill="#42E8E0"/>
<path opacity="0.4" d="M1582.68 421.383V404.088L1579.79 402.326C1578.98 407.716 1573.18 411.292 1568.33 412.033L1535.28 433.211L1520.88 439.01L1474.85 412.979L1475.92 412.314C1471.98 410.296 1469.86 405.698 1467.74 401.483L1464.64 403.501L1462.8 404.088V421.664C1462.95 422.993 1463.41 424.255 1464.14 425.326C1464.88 426.398 1465.85 427.24 1466.97 427.77L1512.95 456.893C1515.99 458.58 1519.34 459.46 1522.74 459.46C1526.14 459.46 1529.5 458.58 1532.53 456.893L1578.63 427.719C1579.73 427.174 1580.68 426.328 1581.39 425.263C1582.1 424.197 1582.54 422.949 1582.68 421.639V421.332V421.383Z" fill="#42E8E0"/>
<path d="M1582.68 406.004V394.559L1579.79 392.797C1578.98 398.187 1573.18 401.763 1568.33 402.504L1535.28 423.682L1520.88 429.379L1474.85 403.245L1475.92 402.581C1471.98 400.563 1469.86 395.964 1467.74 391.749L1464.64 393.767L1462.8 394.355V406.081C1462.92 407.414 1463.36 408.688 1464.07 409.778C1464.78 410.867 1465.74 411.733 1466.86 412.289L1512.95 441.565C1515.99 443.241 1519.34 444.113 1522.74 444.113C1526.14 444.113 1529.49 443.241 1532.53 441.565L1578.63 412.391C1579.73 411.846 1580.68 411 1581.39 409.935C1582.1 408.869 1582.54 407.621 1582.68 406.311V406.004Z" fill="url(#paint13_linear_89_1814)"/>
<path opacity="0.3" d="M1568.33 402.505L1535.28 423.683L1522.74 428.639V444.12C1526.15 444.197 1529.52 443.318 1532.53 441.566L1578.63 412.392C1579.72 411.846 1580.67 411 1581.38 409.935C1582.09 408.87 1582.54 407.622 1582.68 406.311V406.005V394.56L1580.05 392.951H1579.77C1578.84 398.264 1573.13 401.764 1568.33 402.505Z" fill="#0F054C"/>
<path d="M1475.92 402.683L1519.62 375.144C1520.59 374.609 1521.67 374.33 1522.75 374.33C1523.84 374.33 1524.92 374.609 1525.89 375.144L1568.79 402.299L1568.33 402.606C1573.18 401.865 1578.98 398.289 1579.79 392.898L1531.62 363.52L1517.64 359.458L1506.22 366.815L1467.76 391.953C1469.86 396.066 1471.98 400.69 1475.92 402.683Z" fill="url(#paint14_linear_89_1814)"/>
<path opacity="0.3" d="M1522.74 360.863L1517.62 359.356L1506.2 366.713L1467.74 391.851C1469.86 396.066 1471.98 400.665 1475.92 402.683L1519.62 375.144C1520.57 374.566 1521.65 374.276 1522.74 374.301V360.863Z" fill="#0F054C"/>
<path d="M1512.95 429.916L1466.97 400.691C1461.57 397.293 1461.57 391.724 1466.97 388.301L1513.07 359.126C1516.11 357.451 1519.46 356.578 1522.86 356.578C1526.26 356.578 1529.61 357.451 1532.65 359.126L1578.75 388.301C1584.15 391.724 1584.15 397.293 1578.75 400.691L1532.65 429.865C1529.6 431.581 1526.23 432.481 1522.81 432.49C1519.38 432.499 1516.01 431.616 1512.95 429.916ZM1525.89 363.495C1524.92 362.96 1523.84 362.682 1522.75 362.682C1521.67 362.682 1520.59 362.96 1519.62 363.495L1473.52 392.669C1473.14 392.806 1472.8 393.072 1472.56 393.43C1472.33 393.788 1472.2 394.219 1472.2 394.662C1472.2 395.104 1472.33 395.535 1472.56 395.893C1472.8 396.251 1473.14 396.518 1473.52 396.654L1519.62 425.828C1520.59 426.363 1521.67 426.642 1522.75 426.642C1523.84 426.642 1524.92 426.363 1525.89 425.828L1571.99 396.654C1572.36 396.505 1572.68 396.234 1572.91 395.878C1573.14 395.522 1573.26 395.097 1573.26 394.662C1573.26 394.226 1573.14 393.802 1572.91 393.445C1572.68 393.089 1572.36 392.818 1571.99 392.669L1525.89 363.495Z" fill="url(#paint15_linear_89_1814)"/>
<path d="M1571.99 392.567L1525.89 363.392C1524.92 362.858 1523.84 362.579 1522.75 362.579C1521.66 362.579 1520.59 362.858 1519.62 363.392L1473.52 392.567C1472.35 393.307 1471.98 394.329 1472.35 395.274C1472.62 394.73 1473.02 394.285 1473.52 393.997L1519.62 364.925C1520.59 364.39 1521.66 364.112 1522.75 364.112C1523.84 364.112 1524.92 364.39 1525.89 364.925L1571.99 394.099C1572.48 394.387 1572.88 394.833 1573.13 395.377C1573.5 394.329 1573.13 393.307 1571.99 392.567Z" fill="white"/>
<path d="M1578.63 400.69L1532.53 429.864C1529.5 431.552 1526.15 432.431 1522.74 432.431C1519.34 432.431 1515.99 431.552 1512.96 429.864L1466.97 400.69C1465.97 400.178 1465.08 399.418 1464.39 398.47C1463.69 397.522 1463.21 396.411 1462.96 395.223C1462.91 396.684 1463.27 398.126 1463.99 399.359C1464.7 400.591 1465.74 401.555 1466.97 402.121L1512.96 431.346C1515.99 433.033 1519.34 433.913 1522.74 433.913C1526.15 433.913 1529.5 433.033 1532.53 431.346L1578.63 402.172C1579.86 401.606 1580.9 400.643 1581.62 399.41C1582.33 398.177 1582.69 396.735 1582.64 395.274C1582.39 396.453 1581.9 397.553 1581.21 398.492C1580.51 399.431 1579.63 400.183 1578.63 400.69Z" fill="white"/>
<path d="M1514.26 429.098L1468.16 399.924C1463.5 396.961 1463.5 392.26 1468.16 389.195L1514.26 360.021C1516.88 358.55 1519.79 357.783 1522.74 357.783C1525.69 357.783 1528.6 358.55 1531.22 360.021L1577.32 389.195C1581.98 392.158 1581.98 396.859 1577.32 399.924L1531.22 429.098C1528.6 430.569 1525.69 431.336 1522.74 431.336C1519.79 431.336 1516.88 430.569 1514.26 429.098ZM1527.17 362.678C1525.8 361.909 1524.28 361.507 1522.74 361.507C1521.2 361.507 1519.68 361.909 1518.31 362.678L1472.22 391.749C1471.68 391.947 1471.21 392.324 1470.88 392.828C1470.55 393.333 1470.37 393.938 1470.37 394.56C1470.37 395.181 1470.55 395.786 1470.88 396.291C1471.21 396.795 1471.68 397.172 1472.22 397.37L1518.24 426.544C1519.62 427.299 1521.13 427.692 1522.67 427.692C1524.21 427.692 1525.73 427.299 1527.1 426.544L1573.22 397.37C1573.76 397.172 1574.23 396.795 1574.56 396.291C1574.89 395.786 1575.07 395.181 1575.07 394.56C1575.07 393.938 1574.89 393.333 1574.56 392.828C1574.23 392.324 1573.76 391.947 1573.22 391.749L1527.17 362.678Z" fill="url(#paint16_linear_89_1814)"/>
<path opacity="0.4" d="M1525.89 363.392C1524.92 362.858 1523.84 362.579 1522.75 362.579C1521.67 362.579 1520.59 362.858 1519.62 363.392L1473.52 392.567C1473.14 392.703 1472.8 392.969 1472.57 393.327C1472.33 393.685 1472.2 394.117 1472.2 394.559C1472.2 395.002 1472.33 395.433 1472.57 395.791C1472.8 396.149 1473.14 396.415 1473.52 396.552L1519.62 425.726C1520.59 426.261 1521.67 426.539 1522.75 426.539C1523.84 426.539 1524.92 426.261 1525.89 425.726L1571.99 396.552C1572.36 396.403 1572.68 396.132 1572.91 395.776C1573.14 395.419 1573.26 394.994 1573.26 394.559C1573.26 394.124 1573.14 393.699 1572.91 393.343C1572.68 392.986 1572.36 392.715 1571.99 392.567L1525.89 363.392Z" fill="#42E8E0"/>
<path d="M1491.11 453.081L1384.29 518.199L1384.28 560.368L1384.08 560.735L1318.44 601.378L1317.79 600.478L1383.27 559.729L1383.28 517.561L1384 517.038L1490.47 452.181L1491.11 453.081Z" fill="url(#paint17_linear_89_1814)"/>
<path opacity="0.5" d="M1424.43 637.736L1442.5 649.194V694.944L1424.43 683.507V637.736Z" fill="#758EF5"/>
<path opacity="0.2" d="M1406.35 649.194L1424.43 660.632V683.507L1406.35 672.069V649.194Z" fill="#758EF5"/>
<path opacity="0.5" d="M1388.28 569.091L1406.35 580.549V672.07L1388.28 660.632V569.091Z" fill="#758EF5"/>
<path opacity="0.2" d="M1370.18 534.777L1388.28 546.215V660.631L1370.18 649.194V534.777Z" fill="#758EF5"/>
<path opacity="0.5" d="M1352.11 546.216L1370.18 557.653V649.194L1352.11 637.736V546.216Z" fill="#758EF5"/>
<path opacity="0.2" d="M1334.03 466.132L1352.11 477.57V637.736L1334.03 626.298V466.132Z" fill="#758EF5"/>
<path opacity="0.5" d="M1315.96 477.57L1334.03 489.008V626.299L1315.96 614.861V477.57Z" fill="#758EF5"/>
<path opacity="0.2" d="M1297.88 489.007L1315.96 500.444V614.861L1297.88 603.423V489.007Z" fill="#758EF5"/>
<path opacity="0.5" d="M1279.79 431.799L1297.88 443.257V603.424L1279.79 591.986V431.799Z" fill="#758EF5"/>
<path opacity="0.2" d="M1261.71 374.611L1279.79 386.049V591.986L1261.71 580.528V374.611Z" fill="#758EF5"/>
<path opacity="0.5" d="M1243.64 386.049L1261.71 397.487V580.528L1243.64 569.091V386.049Z" fill="#758EF5"/>
<path opacity="0.2" d="M1225.56 328.841L1243.64 340.278V569.09L1225.56 557.653V328.841Z" fill="#758EF5"/>
<path opacity="0.5" d="M1207.47 317.403L1225.56 328.841V557.653L1207.47 546.215V317.403Z" fill="#758EF5"/>
<path opacity="0.2" d="M1189.4 260.195L1207.47 271.633V546.215L1189.4 534.778V260.195Z" fill="#758EF5"/>
<path opacity="0.4" d="M1207.15 864.69C1298.61 864.69 1372.75 817.771 1372.75 759.893C1372.75 702.016 1298.61 655.097 1207.15 655.097C1115.69 655.097 1041.55 702.016 1041.55 759.893C1041.55 817.771 1115.69 864.69 1207.15 864.69Z" fill="#0F054C"/>
<path d="M1207.15 823.024C1311.25 823.024 1395.64 769.622 1395.64 703.747C1395.64 637.872 1311.25 584.47 1207.15 584.47C1103.06 584.47 1018.67 637.872 1018.67 703.747C1018.67 769.622 1103.06 823.024 1207.15 823.024Z" fill="url(#paint18_linear_89_1814)"/>
<path opacity="0.48" d="M1395.66 664.472H1391C1383.43 643.231 1366.59 623.031 1340.44 606.508C1266.84 559.92 1147.49 559.92 1073.98 606.508C1049.28 622.132 1032.98 641.004 1024.76 660.959H1018.86V687.408C1017.38 719.086 1035.76 751.07 1073.98 775.232C1147.58 821.799 1266.93 821.799 1340.54 775.232C1377.34 751.928 1395.75 721.414 1395.75 690.88L1395.66 664.472Z" fill="url(#paint19_linear_89_1814)"/>
<path opacity="0.48" d="M1391 654.218C1390.74 653.483 1390.46 652.748 1390.16 652.012V634.631H1380.28V633.385C1377.7 629.591 1374.9 625.982 1371.9 622.581V634.631H1366.31V616.597C1363.69 613.982 1360.88 611.423 1357.89 608.917V634.672H1352.3V604.342C1349.59 602.3 1346.71 600.257 1343.84 598.338V634.57H1338.25V594.743C1335.49 593.041 1332.66 591.407 1329.77 589.841V634.57H1324.18V587.002C1321.38 585.641 1318.55 584.279 1315.68 582.917V634.57H1310.09V592.803H1301.57V634.631H1295.98V604.342H1287.43V634.693H1281.84V615.821H1273.27V634.693H1267.79V627.319H1259.27V634.693H1155.18V627.319H1146.57V634.693H1141.1V615.821H1132.56V634.693H1126.97V604.342H1118.42V634.693H1112.83V592.803H1104.31V634.631H1098.72V582.938C1095.85 584.218 1093.02 585.579 1090.22 587.023V634.693H1084.63V589.862C1081.75 591.434 1078.91 593.048 1076.16 594.743V634.631H1070.57V598.338C1067.62 600.271 1064.8 602.266 1062.11 604.322V634.631H1056.52V608.815C1053.52 611.307 1050.72 613.88 1048.09 616.495V634.631H1042.5V622.377C1039.51 625.781 1036.71 629.382 1034.12 633.161V634.529H1024.24V650.562H1020.05V694.903C1021.68 703.182 1024.51 711.124 1028.42 718.432V690.798H1034.12V727.909C1036.7 731.689 1039.5 735.285 1042.5 738.672V690.798H1048.09V744.677C1050.72 747.271 1053.53 749.844 1056.52 752.336V690.798H1062.11V756.829C1064.81 758.872 1067.63 760.873 1070.57 762.834V690.798H1076.16V766.367C1078.91 768.042 1081.74 769.669 1084.63 771.249V690.798H1090.22V774.19C1093.02 775.551 1095.85 776.913 1098.72 778.275V690.859H1104.31V780.725C1107.11 781.89 1109.9 782.992 1112.83 784.055V690.798H1118.42V785.852C1121.25 786.812 1124.01 787.71 1126.97 788.568V690.798H1132.56V790.202C1135.39 790.958 1138.25 791.693 1141.13 792.367V690.859H1146.61V793.613C1149.46 794.226 1152.33 794.777 1155.22 795.308V690.798H1160.68V796.166C1163.53 796.636 1166.42 797.044 1169.31 797.432V690.798H1174.73V798.086C1177.6 798.392 1180.49 798.658 1183.4 798.903V690.798H1188.78V799.291C1191.69 799.454 1194.58 799.597 1197.48 799.699V690.798H1202.85V799.822C1205.78 799.822 1208.71 799.822 1211.63 799.822V690.798H1216.99V799.699C1219.9 799.699 1222.79 799.454 1225.7 799.291V690.798H1231.08V798.903C1233.99 798.658 1236.88 798.392 1239.75 798.066V690.798H1245.17V797.412C1248.06 797.044 1250.94 796.615 1253.8 796.166V690.798H1259.27V795.227C1262.16 794.716 1265.03 794.144 1267.88 793.531V690.798H1273.36V792.245C1276.25 791.55 1279.1 790.835 1281.93 790.059V690.798H1287.52V788.548C1290.39 787.69 1293.24 786.771 1296.08 785.831V690.798H1301.67V783.871C1304.54 782.829 1307.39 781.828 1310.18 780.562V690.798H1315.77V778.172C1318.64 776.886 1321.47 775.558 1324.27 774.088V690.798H1329.86V771.249C1332.75 769.669 1335.58 768.042 1338.34 766.367V690.798H1343.93V762.793C1346.87 760.832 1349.69 758.824 1352.39 756.768V690.798H1357.98V752.275C1360.96 749.756 1363.77 747.196 1366.4 744.595V690.798H1371.99V738.611C1375 735.215 1377.8 731.605 1380.38 727.806V690.798H1385.99V718.35C1389.93 710.978 1392.75 702.957 1394.35 694.597V654.239L1391 654.218Z" fill="url(#paint20_linear_89_1814)"/>
<path d="M1207.15 773.537C1311.25 773.537 1395.64 720.134 1395.64 654.26C1395.64 588.385 1311.25 534.982 1207.15 534.982C1103.06 534.982 1018.67 588.385 1018.67 654.26C1018.67 720.134 1103.06 773.537 1207.15 773.537Z" fill="url(#paint21_linear_89_1814)"/>
<path opacity="0.3" d="M1207.23 534.9C1164.52 534.9 1121.81 544.03 1087.04 562.269L1030.8 696.251C1039.97 711.671 1054.3 726.111 1073.88 738.509C1086.52 746.396 1099.86 752.843 1113.7 757.748L1207.23 534.9Z" fill="#91A2FA"/>
<path opacity="0.3" d="M1260.04 539.761L1163.29 770.268C1186.67 773.748 1210.32 774.433 1233.84 772.311L1322.89 560.124C1302.82 550.428 1281.69 543.585 1260.04 539.761Z" fill="#91A2FA"/>
<g opacity="0.05">
<path opacity="0.05" d="M1207.15 759.893C1299.34 759.893 1374.08 712.599 1374.08 654.259C1374.08 595.92 1299.34 548.626 1207.15 548.626C1114.96 548.626 1040.23 595.92 1040.23 654.259C1040.23 712.599 1114.96 759.893 1207.15 759.893Z" fill="url(#paint22_linear_89_1814)"/>
<g opacity="0.05">
<path opacity="0.05" d="M908.989 653.81L907.2 652.666L1198 468.644L1199.79 469.788L908.989 653.81Z" fill="#91A2FA"/>
<path opacity="0.05" d="M914.113 657.037L912.324 655.913L1203.13 471.891L1204.92 473.015L914.113 657.037Z" fill="#91A2FA"/>
<path opacity="0.05" d="M919.238 660.285L917.449 659.162L1208.25 475.14L1210.04 476.263L919.238 660.285Z" fill="#91A2FA"/>
<path opacity="0.05" d="M924.362 663.532L922.573 662.409L1213.38 478.387L1215.17 479.51L924.362 663.532Z" fill="#91A2FA"/>
<path opacity="0.05" d="M929.487 666.78L927.698 665.636L1218.5 481.614L1220.29 482.758L929.487 666.78Z" fill="#91A2FA"/>
<path opacity="0.05" d="M934.611 670.006L932.822 668.883L1223.63 484.861L1225.42 485.984L934.611 670.006Z" fill="#91A2FA"/>
<path opacity="0.05" d="M939.735 673.253L937.946 672.13L1228.75 488.108L1230.52 489.232L939.735 673.253Z" fill="#91A2FA"/>
<path opacity="0.05" d="M944.86 676.501L943.071 675.378L1233.88 491.356L1235.65 492.479L944.86 676.501Z" fill="#91A2FA"/>
<path opacity="0.05" d="M949.984 679.749L948.195 678.605L1239 494.584L1240.77 495.707L949.984 679.749Z" fill="#91A2FA"/>
<path opacity="0.05" d="M955.109 682.976L953.32 681.853L1244.12 497.831L1245.89 498.954L955.109 682.976Z" fill="#91A2FA"/>
<path opacity="0.05" d="M960.215 686.223L958.444 685.1L1249.25 501.078L1251.02 502.201L960.215 686.223Z" fill="#91A2FA"/>
<path opacity="0.05" d="M965.339 689.471L963.568 688.347L1254.37 504.326L1256.14 505.449L965.339 689.471Z" fill="#91A2FA"/>
<path opacity="0.05" d="M970.464 692.697L968.693 691.574L1259.5 507.552L1261.27 508.676L970.464 692.697Z" fill="#91A2FA"/>
<path opacity="0.05" d="M975.588 695.945L973.817 694.822L1264.62 510.8L1266.39 511.923L975.588 695.945Z" fill="#91A2FA"/>
<path opacity="0.05" d="M980.712 699.192L978.941 698.069L1269.75 514.047L1271.52 515.17L980.712 699.192Z" fill="#91A2FA"/>
<path opacity="0.05" d="M985.837 702.44L984.048 701.316L1274.85 517.274L1276.64 518.418L985.837 702.44Z" fill="#91A2FA"/>
<path opacity="0.05" d="M990.961 705.687L989.172 704.544L1279.98 520.522L1281.77 521.645L990.961 705.687Z" fill="#91A2FA"/>
<path opacity="0.05" d="M996.086 708.915L994.297 707.791L1285.1 523.77L1286.89 524.893L996.086 708.915Z" fill="#91A2FA"/>
<path opacity="0.05" d="M1001.21 712.162L999.421 711.038L1290.23 527.017L1292.01 528.14L1001.21 712.162Z" fill="#91A2FA"/>
<path opacity="0.05" d="M1006.33 715.409L1004.55 714.266L1295.35 530.244L1297.14 531.388L1006.33 715.409Z" fill="#91A2FA"/>
<path opacity="0.05" d="M1011.46 718.636L1009.67 717.513L1300.47 533.491L1302.26 534.614L1011.46 718.636Z" fill="#91A2FA"/>
<path opacity="0.05" d="M1016.58 721.884L1014.79 720.76L1305.6 536.739L1307.39 537.862L1016.58 721.884Z" fill="#91A2FA"/>
<path opacity="0.05" d="M1021.71 725.132L1019.92 724.008L1310.72 539.986L1312.51 541.11L1021.71 725.132Z" fill="#91A2FA"/>
<path opacity="0.05" d="M1026.83 728.378L1025.04 727.255L1315.85 543.213L1317.64 544.357L1026.83 728.378Z" fill="#91A2FA"/>
<path opacity="0.05" d="M1031.96 731.605L1030.17 730.482L1320.97 546.46L1322.76 547.583L1031.96 731.605Z" fill="#91A2FA"/>
<path opacity="0.05" d="M1037.08 734.852L1035.29 733.729L1326.1 549.707L1327.87 550.83L1037.08 734.852Z" fill="#91A2FA"/>
<path opacity="0.05" d="M1042.21 738.1L1040.42 736.977L1331.22 552.955L1332.99 554.078L1042.21 738.1Z" fill="#91A2FA"/>
<path opacity="0.05" d="M1047.31 741.348L1045.54 740.204L1336.35 556.182L1338.12 557.326L1047.31 741.348Z" fill="#91A2FA"/>
<path opacity="0.05" d="M1052.44 744.575L1050.67 743.452L1341.47 559.43L1343.24 560.553L1052.44 744.575Z" fill="#91A2FA"/>
<path opacity="0.05" d="M1057.56 747.822L1055.79 746.699L1346.59 562.677L1348.36 563.8L1057.56 747.822Z" fill="#91A2FA"/>
<path opacity="0.05" d="M1062.68 751.069L1060.91 749.946L1351.72 565.924L1353.49 567.047L1062.68 751.069Z" fill="#91A2FA"/>
<path opacity="0.05" d="M1067.81 754.317L1066.04 753.173L1356.84 569.152L1358.61 570.275L1067.81 754.317Z" fill="#91A2FA"/>
<path opacity="0.05" d="M1072.93 757.544L1071.16 756.421L1361.95 572.399L1363.74 573.522L1072.93 757.544Z" fill="#91A2FA"/>
<path opacity="0.05" d="M1078.06 760.792L1076.29 759.668L1367.09 575.647L1368.86 576.77L1078.06 760.792Z" fill="#91A2FA"/>
<path opacity="0.05" d="M1083.18 764.039L1081.41 762.916L1372.2 578.874L1373.99 580.017L1083.18 764.039Z" fill="#91A2FA"/>
<path opacity="0.05" d="M1088.31 767.286L1086.54 766.143L1377.32 582.121L1379.11 583.265L1088.31 767.286Z" fill="#91A2FA"/>
<path opacity="0.05" d="M1093.43 770.513L1091.64 769.39L1382.45 585.368L1384.23 586.491L1093.43 770.513Z" fill="#91A2FA"/>
<path opacity="0.05" d="M1098.56 773.761L1096.77 772.638L1387.57 588.616L1389.36 589.74L1098.56 773.761Z" fill="#91A2FA"/>
<path opacity="0.05" d="M1103.68 777.008L1101.89 775.885L1392.69 591.843L1394.48 592.987L1103.68 777.008Z" fill="#91A2FA"/>
<path opacity="0.05" d="M1108.8 780.256L1107.01 779.112L1397.82 595.091L1399.61 596.234L1108.8 780.256Z" fill="#91A2FA"/>
<path opacity="0.05" d="M1113.93 783.483L1112.14 782.359L1402.94 598.338L1404.73 599.461L1113.93 783.483Z" fill="#91A2FA"/>
<path opacity="0.05" d="M1119.05 786.73L1117.26 785.606L1408.07 601.585L1409.86 602.708L1119.05 786.73Z" fill="#91A2FA"/>
<path opacity="0.05" d="M1124.18 789.978L1122.39 788.855L1413.19 604.833L1414.98 605.956L1124.18 789.978Z" fill="#91A2FA"/>
<path opacity="0.05" d="M1129.3 793.226L1127.51 792.082L1418.32 608.06L1420.11 609.184L1129.3 793.226Z" fill="#91A2FA"/>
<path opacity="0.05" d="M1134.43 796.452L1132.64 795.329L1423.44 611.307L1425.23 612.431L1134.43 796.452Z" fill="#91A2FA"/>
<path opacity="0.05" d="M1139.55 799.699L1137.76 798.576L1428.57 614.554L1430.35 615.678L1139.55 799.699Z" fill="#91A2FA"/>
<path opacity="0.05" d="M1144.67 802.947L1142.89 801.824L1433.69 617.782L1435.48 618.925L1144.67 802.947Z" fill="#91A2FA"/>
<path opacity="0.05" d="M1149.8 806.174L1148.01 805.05L1438.81 621.029L1440.58 622.152L1149.8 806.174Z" fill="#91A2FA"/>
<path opacity="0.05" d="M1154.92 809.422L1153.13 808.299L1443.94 624.277L1445.71 625.4L1154.92 809.422Z" fill="#91A2FA"/>
<path opacity="0.05" d="M1160.03 812.669L1158.26 811.546L1449.06 627.524L1450.83 628.647L1160.03 812.669Z" fill="#91A2FA"/>
<path opacity="0.05" d="M1165.15 815.917L1163.38 814.794L1454.19 630.751L1455.96 631.895L1165.15 815.917Z" fill="#91A2FA"/>
<path opacity="0.05" d="M1170.28 819.143L1168.51 818.02L1459.31 633.998L1461.08 635.122L1170.28 819.143Z" fill="#91A2FA"/>
<path opacity="0.05" d="M1175.4 822.391L1173.63 821.267L1464.44 637.245L1466.21 638.369L1175.4 822.391Z" fill="#91A2FA"/>
<path opacity="0.05" d="M1180.53 825.639L1178.76 824.516L1469.56 640.494L1471.33 641.617L1180.53 825.639Z" fill="#91A2FA"/>
<path opacity="0.05" d="M1185.65 828.887L1183.86 827.743L1474.67 643.721L1476.45 644.865L1185.65 828.887Z" fill="#91A2FA"/>
<path opacity="0.05" d="M1190.77 832.113L1188.99 830.99L1479.79 646.968L1481.58 648.091L1190.77 832.113Z" fill="#91A2FA"/>
<path opacity="0.05" d="M1195.9 835.36L1194.11 834.237L1484.91 650.215L1486.7 651.338L1195.9 835.36Z" fill="#91A2FA"/>
<path opacity="0.05" d="M1201.02 838.608L1199.23 837.485L1490.04 653.463L1491.83 654.586L1201.02 838.608Z" fill="#91A2FA"/>
<path opacity="0.05" d="M1206.15 841.854L1204.36 840.711L1495.16 656.689L1496.95 657.833L1206.15 841.854Z" fill="#91A2FA"/>
<path opacity="0.05" d="M1211.27 845.083L1209.48 843.96L1500.29 659.938L1502.08 661.061L1211.27 845.083Z" fill="#91A2FA"/>
<path opacity="0.05" d="M1216.4 848.33L1214.61 847.207L1505.41 663.185L1507.2 664.308L1216.4 848.33Z" fill="#91A2FA"/>
</g>
</g>
<path d="M1089.13 586.676C1154.35 545.44 1260 545.44 1325.2 586.676C1356.36 606.406 1372.61 631.977 1373.99 657.813C1375.48 629.608 1359.23 601.095 1325.2 579.568C1259.98 538.312 1154.31 538.312 1089.13 579.568C1055.1 601.095 1038.81 629.608 1040.34 657.813C1041.72 631.977 1058.03 606.385 1089.13 586.676Z" fill="url(#paint23_linear_89_1814)"/>
<path d="M1258.75 631.895C1248.81 630.929 1238.81 632.764 1229.7 637.225C1240.88 627.013 1238.3 616.576 1221.97 605.915L1220.76 605.139C1215.46 601.679 1209.77 598.995 1203.84 597.153C1198.22 595.359 1192.41 594.404 1186.56 594.314C1180.98 594.353 1175.42 595.149 1170.02 596.683C1167 597.527 1164.12 598.467 1161.37 599.502L1150.86 592.844L1135.39 602.627L1144.04 608.121C1142.51 609.019 1140.97 609.959 1139.38 610.96L1133.79 614.554L1125.22 609.122L1109.75 618.905L1118.33 624.338L1107.65 631.098L1103.47 633.753L1102.34 634.448L1084.6 645.681L1100.06 655.484L1117.8 644.251L1229.27 714.837L1211.51 726.07L1226.98 735.854L1244.74 724.62L1250.05 721.271L1260.73 714.51L1269.45 720.025L1284.91 710.242L1279.32 706.749L1276.14 704.707L1286.41 698.212L1295.13 703.726L1310.59 693.943L1305 690.451L1300.57 687.632C1306.66 681.811 1309.88 675.929 1310.29 670.006C1310.74 661.156 1304.03 652.305 1290.17 643.455L1289.24 642.842C1279.91 636.844 1269.51 633.111 1258.75 631.895ZM1154.92 627.932L1159.9 624.767C1172.22 616.978 1184.02 616.638 1195.3 623.745C1201.9 627.83 1205.48 631.731 1206.09 635.183C1206.71 638.635 1203.61 642.515 1196.78 646.804L1190.76 650.603L1154.92 627.932ZM1254.28 690.798L1211.48 663.777L1217.66 659.855C1223.55 655.771 1230.38 653.643 1237.34 653.728C1243.48 654.055 1250.56 656.778 1258.58 661.898C1265.74 666.432 1269.6 670.619 1270.17 674.458C1270.75 678.298 1267.62 682.383 1260.86 686.713L1254.28 690.798Z" fill="url(#paint24_linear_89_1814)"/>
<path d="M1109.66 605.159V616.025L1118.23 610.592L1109.66 605.159Z" fill="url(#paint25_linear_89_1814)"/>
<path d="M1135.39 588.882V599.747L1144.04 594.376L1135.39 588.882Z" fill="url(#paint26_linear_89_1814)"/>
<path d="M1236.54 610.612V623.52L1228.79 618.312L1236.54 610.612Z" fill="url(#paint27_linear_89_1814)"/>
<path d="M1310.39 654.259V670.027L1298.76 662.143L1310.39 654.259Z" fill="url(#paint28_linear_89_1814)"/>
<path d="M1258.75 618.15C1248.81 617.184 1238.81 619.019 1229.7 623.48C1240.88 613.268 1238.3 602.825 1221.97 592.15L1220.76 591.394C1215.46 587.934 1209.77 585.25 1203.84 583.408C1198.22 581.604 1192.41 580.649 1186.56 580.569C1180.98 580.609 1175.42 581.404 1170.02 582.938C1167 583.769 1164.12 584.708 1161.37 585.757L1150.86 579.099L1135.39 588.882L1144.04 594.376C1142.51 595.275 1140.97 596.214 1139.38 597.215L1133.79 600.81L1125.22 595.377L1109.75 605.16L1118.33 610.593L1107.65 617.353L1103.47 619.988L1102.34 620.703L1084.6 631.936L1100.06 641.74L1117.8 630.506L1229.37 701.092L1211.61 712.325L1227.07 722.109L1244.83 710.875L1250.14 707.526L1260.82 700.765L1269.54 706.28L1285.01 696.497L1279.42 693.004L1276.23 690.962L1286.5 684.467L1295.22 689.981L1310.69 680.198L1305.1 676.706L1300.66 673.887C1306.75 668.066 1309.98 662.184 1310.39 656.261C1310.83 647.411 1304.13 638.56 1290.26 629.71L1289.33 629.117C1279.98 623.09 1269.55 619.348 1258.75 618.15ZM1154.92 614.187L1159.9 611.022C1172.22 603.233 1184.02 602.893 1195.3 610C1201.9 614.085 1205.48 617.986 1206.09 621.438C1206.71 624.89 1203.61 628.77 1196.78 633.059L1190.76 636.858L1154.92 614.187ZM1254.28 677.053L1211.55 650.032L1217.74 646.11C1223.62 642.026 1230.45 639.898 1237.42 639.983C1243.55 640.31 1250.63 643.033 1258.66 648.153C1265.81 652.687 1269.68 656.874 1270.25 660.714C1270.83 664.553 1267.7 668.638 1260.93 672.968L1254.28 677.053Z" fill="url(#paint29_linear_89_1814)"/>
<path d="M1310.65 680.218V693.964L1295.18 703.747V690.001L1310.65 680.218Z" fill="url(#paint30_linear_89_1814)"/>
<path d="M1284.91 696.497V710.242L1269.45 720.025V706.28L1284.91 696.497Z" fill="url(#paint31_linear_89_1814)"/>
<path d="M1227 722.109V735.854L1211.51 726.071V712.325L1227 722.109Z" fill="url(#paint32_linear_89_1814)"/>
<path d="M1084.5 631.935V645.701L1099.97 655.484V641.739L1084.5 631.935Z" fill="url(#paint33_linear_89_1814)"/>
<path d="M1117.71 644.252V630.506L1099.97 641.739V655.485L1117.71 644.252Z" fill="url(#paint34_linear_89_1814)"/>
<path d="M1117.71 630.506V644.252L1218.41 707.975L1229.27 701.092L1117.71 630.506Z" fill="url(#paint35_linear_89_1814)"/>
<path d="M1209.46 554.855C1202.88 555.005 1196.38 553.303 1190.57 549.912C1185.32 546.603 1182.43 542.11 1182.43 537.29C1182.43 532.47 1185.32 527.997 1190.57 524.668C1200.99 518.091 1217.94 518.091 1228.38 524.668C1233.61 527.997 1236.5 532.49 1236.5 537.29C1236.5 542.09 1233.61 546.603 1228.38 549.912C1222.56 553.303 1216.05 555.004 1209.46 554.855ZM1209.46 521.972C1203.24 521.846 1197.09 523.456 1191.59 526.649C1187.03 529.549 1184.51 533.328 1184.51 537.29C1184.51 541.252 1187.03 545.051 1191.61 547.951C1201.45 554.181 1217.48 554.181 1227.34 547.951C1231.9 545.051 1234.43 541.273 1234.43 537.29C1234.43 533.307 1231.9 529.549 1227.34 526.649C1221.84 523.453 1215.69 521.844 1209.46 521.972Z" fill="#91A2FA"/>
<path d="M1220.66 544.377C1217.2 546.307 1213.37 547.313 1209.48 547.313C1205.6 547.313 1201.77 546.307 1198.3 544.377C1192.12 540.476 1192.12 534.165 1198.3 530.223C1201.77 528.293 1205.6 527.287 1209.48 527.287C1213.37 527.287 1217.2 528.293 1220.66 530.223C1226.83 534.124 1226.83 540.476 1220.66 544.377Z" fill="#97A6FC"/>
<path d="M1274.74 502.997L1263.65 495.992L1282.53 484.044L1293.63 491.049L1274.74 502.997Z" fill="#91A2FA"/>
<path opacity="0.8" d="M1254.8 491.928L1240.83 487.414L1252.96 472.362L1266.93 476.875L1254.8 491.928Z" fill="#91A2FA"/>
<path opacity="0.6" d="M1230.43 485.27L1214.94 483.718L1219.12 467.031L1234.6 468.583L1230.43 485.27Z" fill="#91A2FA"/>
<path opacity="0.4" d="M1204 483.718L1188.5 485.27L1184.33 468.583L1199.81 467.031L1204 483.718Z" fill="#91A2FA"/>
<path opacity="0.2" d="M1178.1 487.414L1164.13 491.928L1152.02 476.855L1165.97 472.362L1178.1 487.414Z" fill="#91A2FA"/>
<path opacity="0.1" d="M1155.28 495.992L1144.19 502.997L1125.31 491.049L1136.4 484.044L1155.28 495.992Z" fill="#91A2FA"/>
<path opacity="0.2" d="M1237.73 521.89L1233.84 519.418L1262.01 501.588L1265.91 504.059L1237.73 521.89Z" fill="#91A2FA"/>
<path opacity="0.4" d="M1228.81 517.111L1223.91 515.518L1242 493.051L1246.9 494.644L1228.81 517.111Z" fill="#91A2FA"/>
<path opacity="0.6" d="M1218.02 514.313L1212.58 513.761L1218.8 488.864L1224.24 489.416L1218.02 514.313Z" fill="#91A2FA"/>
<path opacity="0.8" d="M1206.37 513.761L1200.93 514.313L1194.69 489.416L1200.13 488.864L1206.37 513.761Z" fill="#91A2FA"/>
<path d="M1195.02 515.518L1190.12 517.111L1172.03 494.644L1176.95 493.051L1195.02 515.518Z" fill="#91A2FA"/>
<path d="M1185.11 519.418L1181.21 521.89L1153.04 504.059L1156.93 501.588L1185.11 519.418Z" fill="#91A2FA"/>
<path d="M1177.56 525.056L1175.07 528.16L1139.57 516.702L1142.06 513.598L1177.56 525.056Z" fill="#91A2FA"/>
<path d="M1173.15 531.898L1172.29 535.329L1132.93 531.387L1133.79 527.935L1173.15 531.898Z" fill="#91A2FA"/>
<path d="M1172.29 539.251L1173.15 542.702L1133.79 546.644L1132.93 543.192L1172.29 539.251Z" fill="#91A2FA"/>
<path d="M1175.07 546.44L1177.56 549.544L1142.06 560.982L1139.57 557.877L1175.07 546.44Z" fill="#91A2FA"/>
<path d="M1181.21 552.71L1185.11 555.182L1156.93 573.012L1153.04 570.541L1181.21 552.71Z" fill="#91A2FA"/>
<path opacity="0.6" d="M1320.13 479.407C1361.56 511.024 1363.87 556.223 1327.12 589.391L1342.03 604.444C1392.73 564.454 1391.61 506.878 1338.73 467.602L1320.13 479.407Z" fill="#97A6FC"/>
<path opacity="0.2" d="M1231.88 627.055C1188.07 631.405 1141.67 622.97 1107.93 601.565C1100.56 596.977 1093.68 591.496 1087.43 585.226L1062.14 590.741C1070.28 599.508 1079.43 607.062 1089.37 613.207C1132.06 640.208 1191.86 649.807 1246.68 642.026L1231.88 627.055Z" fill="#91A2FA"/>
<path d="M1041.42 552.547L1066.71 547.032C1062.24 520.644 1076.03 493.256 1107.93 473.036C1160.77 439.601 1244.53 437.681 1300.96 467.256L1319.5 455.532C1252.81 419.504 1152.48 421.424 1089.42 461.333C1050.12 486.189 1034.14 520.215 1041.42 552.547Z" fill="#97A6FC"/>
<path d="M1193.98 597.378L1184.08 591.128L1311.13 510.719L1321.03 516.968L1193.98 597.378Z" fill="#97A6FC"/>
<path opacity="0.8" d="M1208.03 606.283L1198.13 600.012L1253.37 565.067L1263.26 571.337L1208.03 606.283Z" fill="#97A6FC"/>
<path opacity="0.6" d="M1223.07 615.8L1213.17 609.53L1301.09 553.915L1310.98 560.165L1223.07 615.8Z" fill="#97A6FC"/>
<path opacity="0.2" d="M1237.88 625.155L1227.97 618.905L1296.41 575.606L1306.31 581.855L1237.88 625.155Z" fill="#97A6FC"/>
<line opacity="0.3" x1="1437.5" y1="65" x2="1437.5" y2="89" stroke="#F2F2F2"/>
<defs>
<linearGradient id="paint0_linear_89_1814" x1="828" y1="1419.62" x2="828" y2="2070.74" gradientUnits="userSpaceOnUse">
<stop stop-color="white" stop-opacity="0.04"/>
<stop offset="1" stop-color="white" stop-opacity="0.01"/>
</linearGradient>
<linearGradient id="paint1_linear_89_1814" x1="1475.94" y1="910.835" x2="1575.24" y2="963.159" gradientUnits="userSpaceOnUse">
<stop stop-color="#BCBEFF"/>
<stop offset="0.23" stop-color="#AAADF8"/>
<stop offset="0.68" stop-color="#7C83E5"/>
<stop offset="1" stop-color="#5761D7"/>
</linearGradient>
<linearGradient id="paint2_linear_89_1814" x1="1464" y1="933.597" x2="1583.92" y2="933.597" gradientUnits="userSpaceOnUse">
<stop stop-color="#E9E9FD"/>
<stop offset="0.36" stop-color="#D3D2F9"/>
<stop offset="0.71" stop-color="#C5C4F7"/>
<stop offset="1" stop-color="#C0BFF6"/>
</linearGradient>
<linearGradient id="paint3_linear_89_1814" x1="63691.2" y1="12735.9" x2="66059.7" y2="15875.7" gradientUnits="userSpaceOnUse">
<stop stop-color="#BCBEFF"/>
<stop offset="0.23" stop-color="#AAADF8"/>
<stop offset="0.68" stop-color="#7C83E5"/>
<stop offset="1" stop-color="#5761D7"/>
</linearGradient>
<linearGradient id="paint4_linear_89_1814" x1="63039.5" y1="18711.4" x2="69207.3" y2="18711.4" gradientUnits="userSpaceOnUse">
<stop stop-color="#E9E9FD"/>
<stop offset="0.36" stop-color="#D3D2F9"/>
<stop offset="0.71" stop-color="#C5C4F7"/>
<stop offset="1" stop-color="#C0BFF6"/>
</linearGradient>
<linearGradient id="paint5_linear_89_1814" x1="1297.15" y1="810.126" x2="1501.26" y2="810.126" gradientUnits="userSpaceOnUse">
<stop stop-color="#5778FF"/>
<stop offset="0.1042" stop-color="#567FFF"/>
<stop offset="0.2607" stop-color="#5394FF"/>
<stop offset="0.4503" stop-color="#4DB6FF"/>
<stop offset="0.6638" stop-color="#46E4FF"/>
<stop offset="0.7742" stop-color="#42FFFF"/>
</linearGradient>
<linearGradient id="paint6_linear_89_1814" x1="52518.9" y1="15775.2" x2="54887.4" y2="18915" gradientUnits="userSpaceOnUse">
<stop stop-color="#BCBEFF"/>
<stop offset="0.23" stop-color="#AAADF8"/>
<stop offset="0.68" stop-color="#7C83E5"/>
<stop offset="1" stop-color="#5761D7"/>
</linearGradient>
<linearGradient id="paint7_linear_89_1814" x1="51897.1" y1="23132.1" x2="58069" y2="23132.1" gradientUnits="userSpaceOnUse">
<stop stop-color="#E9E9FD"/>
<stop offset="0.36" stop-color="#D3D2F9"/>
<stop offset="0.71" stop-color="#C5C4F7"/>
<stop offset="1" stop-color="#C0BFF6"/>
</linearGradient>
<linearGradient id="paint8_linear_89_1814" x1="52518.9" y1="14002.5" x2="54886.7" y2="17141.6" gradientUnits="userSpaceOnUse">
<stop stop-color="#BCBEFF"/>
<stop offset="0.23" stop-color="#AAADF8"/>
<stop offset="0.68" stop-color="#7C83E5"/>
<stop offset="1" stop-color="#5761D7"/>
</linearGradient>
<linearGradient id="paint9_linear_89_1814" x1="51897.1" y1="20588.2" x2="58069" y2="20588.2" gradientUnits="userSpaceOnUse">
<stop stop-color="#E9E9FD"/>
<stop offset="0.36" stop-color="#D3D2F9"/>
<stop offset="0.71" stop-color="#C5C4F7"/>
<stop offset="1" stop-color="#C0BFF6"/>
</linearGradient>
<linearGradient id="paint10_linear_89_1814" x1="1128.28" y1="831.442" x2="924.169" y2="832.542" gradientUnits="userSpaceOnUse">
<stop stop-color="#5778FF"/>
<stop offset="0.1042" stop-color="#567FFF"/>
<stop offset="0.2607" stop-color="#5394FF"/>
<stop offset="0.4503" stop-color="#4DB6FF"/>
<stop offset="0.6638" stop-color="#46E4FF"/>
<stop offset="0.7742" stop-color="#42FFFF"/>
</linearGradient>
<linearGradient id="paint11_linear_89_1814" x1="32792.1" y1="6997.5" x2="35160.5" y2="10134.3" gradientUnits="userSpaceOnUse">
<stop stop-color="#BCBEFF"/>
<stop offset="0.23" stop-color="#AAADF8"/>
<stop offset="0.68" stop-color="#7C83E5"/>
<stop offset="1" stop-color="#5761D7"/>
</linearGradient>
<linearGradient id="paint12_linear_89_1814" x1="32148.5" y1="10596.7" x2="38309.4" y2="10596.7" gradientUnits="userSpaceOnUse">
<stop stop-color="#E9E9FD"/>
<stop offset="0.36" stop-color="#D3D2F9"/>
<stop offset="0.71" stop-color="#C5C4F7"/>
<stop offset="1" stop-color="#C0BFF6"/>
</linearGradient>
<linearGradient id="paint13_linear_89_1814" x1="32792.1" y1="5402.48" x2="35166.8" y2="8541.12" gradientUnits="userSpaceOnUse">
<stop stop-color="#BCBEFF"/>
<stop offset="0.23" stop-color="#AAADF8"/>
<stop offset="0.68" stop-color="#7C83E5"/>
<stop offset="1" stop-color="#5761D7"/>
</linearGradient>
<linearGradient id="paint14_linear_89_1814" x1="1480.44" y1="367.761" x2="1568.96" y2="414.386" gradientUnits="userSpaceOnUse">
<stop offset="0.24" stop-color="#5761D7"/>
<stop offset="0.39" stop-color="#7A82E5"/>
<stop offset="0.55" stop-color="#979CF0"/>
<stop offset="0.7" stop-color="#ACAFF8"/>
<stop offset="0.85" stop-color="#B8BAFD"/>
<stop offset="1" stop-color="#BCBEFF"/>
</linearGradient>
<linearGradient id="paint15_linear_89_1814" x1="32178.4" y1="8296.96" x2="38345.2" y2="8296.96" gradientUnits="userSpaceOnUse">
<stop stop-color="#E9E9FD"/>
<stop offset="0.36" stop-color="#D3D2F9"/>
<stop offset="0.71" stop-color="#C5C4F7"/>
<stop offset="1" stop-color="#C0BFF6"/>
</linearGradient>
<linearGradient id="paint16_linear_89_1814" x1="31316.5" y1="8051.51" x2="37108" y2="8051.51" gradientUnits="userSpaceOnUse">
<stop stop-color="#E9E9FD"/>
<stop offset="0.36" stop-color="#D3D2F9"/>
<stop offset="0.71" stop-color="#C5C4F7"/>
<stop offset="1" stop-color="#C0BFF6"/>
</linearGradient>
<linearGradient id="paint17_linear_89_1814" x1="1353.41" y1="623.547" x2="1469.99" y2="439.156" gradientUnits="userSpaceOnUse">
<stop stop-color="#5778FF"/>
<stop offset="0.1042" stop-color="#567FFF"/>
<stop offset="0.2607" stop-color="#5394FF"/>
<stop offset="0.4503" stop-color="#4DB6FF"/>
<stop offset="0.6638" stop-color="#46E4FF"/>
<stop offset="0.7742" stop-color="#42FFFF"/>
</linearGradient>
<linearGradient id="paint18_linear_89_1814" x1="120755" y1="-21071.6" x2="146625" y2="17284.3" gradientUnits="userSpaceOnUse">
<stop stop-color="#35068C"/>
<stop offset="0.02" stop-color="#40DDDA"/>
<stop offset="0.09" stop-color="#3AAEC0"/>
<stop offset="0.17" stop-color="#3484A9"/>
<stop offset="0.26" stop-color="#2F6195"/>
<stop offset="0.35" stop-color="#2B4486"/>
<stop offset="0.44" stop-color="#282E79"/>
<stop offset="0.54" stop-color="#261E71"/>
<stop offset="0.66" stop-color="#24156C"/>
<stop offset="0.82" stop-color="#24126A"/>
</linearGradient>
<linearGradient id="paint19_linear_89_1814" x1="990.215" y1="690.798" x2="1363.46" y2="690.798" gradientUnits="userSpaceOnUse">
<stop stop-color="#3671E9"/>
<stop offset="0.15" stop-color="#91A2FA"/>
<stop offset="0.33" stop-color="#8B97F1"/>
<stop offset="0.52" stop-color="#7366C8"/>
<stop offset="0.72" stop-color="#654CB3"/>
<stop offset="0.93" stop-color="#4127A7"/>
<stop offset="1" stop-color="#260672"/>
</linearGradient>
<linearGradient id="paint20_linear_89_1814" x1="27453.4" y1="59498.6" x2="102640" y2="59498.6" gradientUnits="userSpaceOnUse">
<stop stop-color="#42E8E0"/>
<stop offset="0.15" stop-color="#43E3E0"/>
<stop offset="0.33" stop-color="#45D5DF"/>
<stop offset="0.52" stop-color="#49BDDD"/>
<stop offset="0.72" stop-color="#4E9CDB"/>
<stop offset="0.93" stop-color="#5472D8"/>
<stop offset="1" stop-color="#5761D7"/>
</linearGradient>
<linearGradient id="paint21_linear_89_1814" x1="124036" y1="-29014.1" x2="149908" y2="9341.74" gradientUnits="userSpaceOnUse">
<stop stop-color="#654CB2"/>
<stop offset="0.02" stop-color="#40DDDA"/>
<stop offset="0.09" stop-color="#3AAEC0"/>
<stop offset="0.17" stop-color="#3484A9"/>
<stop offset="0.26" stop-color="#2F6195"/>
<stop offset="0.35" stop-color="#2B4486"/>
<stop offset="0.44" stop-color="#282E79"/>
<stop offset="0.54" stop-color="#261E71"/>
<stop offset="0.66" stop-color="#24156C"/>
<stop offset="0.82" stop-color="#24126A"/>
</linearGradient>
<linearGradient id="paint22_linear_89_1814" x1="1177.73" y1="493.092" x2="1288.91" y2="999.991" gradientUnits="userSpaceOnUse">
<stop stop-color="#42E8E0"/>
<stop offset="0.02" stop-color="#40DDDA"/>
<stop offset="0.09" stop-color="#3AAEC0"/>
<stop offset="0.17" stop-color="#3484A9"/>
<stop offset="0.26" stop-color="#2F6195"/>
<stop offset="0.35" stop-color="#2B4486"/>
<stop offset="0.44" stop-color="#282E79"/>
<stop offset="0.54" stop-color="#261E71"/>
<stop offset="0.66" stop-color="#24156C"/>
<stop offset="0.82" stop-color="#24126A"/>
</linearGradient>
<linearGradient id="paint23_linear_89_1814" x1="1040.25" y1="603.22" x2="1374.08" y2="603.22" gradientUnits="userSpaceOnUse">
<stop stop-color="#2B237C"/>
<stop offset="1" stop-color="#180D5B"/>
</linearGradient>
<linearGradient id="paint24_linear_89_1814" x1="24861.5" y1="37543.8" x2="52288.2" y2="37543.8" gradientUnits="userSpaceOnUse">
<stop stop-color="#2B237C"/>
<stop offset="1" stop-color="#180D5B"/>
</linearGradient>
<linearGradient id="paint25_linear_89_1814" x1="2144.35" y1="3085.9" x2="2150.26" y2="3164.29" gradientUnits="userSpaceOnUse">
<stop stop-color="#2B237D"/>
<stop offset="0.02" stop-color="#40DDDA"/>
<stop offset="0.09" stop-color="#3AAEC0"/>
<stop offset="0.17" stop-color="#3484A9"/>
<stop offset="0.26" stop-color="#2F6195"/>
<stop offset="0.35" stop-color="#2B4486"/>
<stop offset="0.44" stop-color="#282E79"/>
<stop offset="0.54" stop-color="#261E71"/>
<stop offset="0.66" stop-color="#24156C"/>
<stop offset="0.82" stop-color="#24126A"/>
</linearGradient>
<linearGradient id="paint26_linear_89_1814" x1="2298.66" y1="2983.02" x2="2304.38" y2="3061.43" gradientUnits="userSpaceOnUse">
<stop stop-color="#2C247E"/>
<stop offset="0.02" stop-color="#40DDDA"/>
<stop offset="0.09" stop-color="#3AAEC0"/>
<stop offset="0.17" stop-color="#3484A9"/>
<stop offset="0.26" stop-color="#2F6195"/>
<stop offset="0.35" stop-color="#2B4486"/>
<stop offset="0.44" stop-color="#282E79"/>
<stop offset="0.54" stop-color="#261E71"/>
<stop offset="0.66" stop-color="#24156C"/>
<stop offset="0.82" stop-color="#24126A"/>
</linearGradient>
<linearGradient id="paint27_linear_89_1814" x1="2659.38" y1="3592.89" x2="2670.28" y2="3703.34" gradientUnits="userSpaceOnUse">
<stop stop-color="#2B237C"/>
<stop offset="1" stop-color="#180D5B"/>
</linearGradient>
<linearGradient id="paint28_linear_89_1814" x1="3863.36" y1="4691.83" x2="3964.38" y2="4707.48" gradientUnits="userSpaceOnUse">
<stop stop-color="#2B237C"/>
<stop offset="1" stop-color="#180D5B"/>
</linearGradient>
<linearGradient id="paint29_linear_89_1814" x1="26037.9" y1="34761.4" x2="111405" y2="63044.2" gradientUnits="userSpaceOnUse">
<stop stop-color="#654DB3"/>
<stop offset="0.0899" stop-color="#40DDDA"/>
<stop offset="0.09" stop-color="#E9E9FE"/>
<stop offset="0.17" stop-color="#654DB3"/>
<stop offset="0.26" stop-color="#2F6195"/>
<stop offset="0.35" stop-color="#2B4486"/>
<stop offset="0.44" stop-color="#282E79"/>
<stop offset="0.54" stop-color="#261E71"/>
<stop offset="0.66" stop-color="#24156C"/>
<stop offset="0.82" stop-color="#24126A"/>
</linearGradient>
<linearGradient id="paint30_linear_89_1814" x1="4672.56" y1="7057.9" x2="4839.57" y2="7080.92" gradientUnits="userSpaceOnUse">
<stop stop-color="#2B237C"/>
<stop offset="1" stop-color="#180D5B"/>
</linearGradient>
<linearGradient id="paint31_linear_89_1814" x1="4433.39" y1="7261.7" x2="4600.4" y2="7284.72" gradientUnits="userSpaceOnUse">
<stop stop-color="#2B237C"/>
<stop offset="1" stop-color="#180D5B"/>
</linearGradient>
<linearGradient id="paint32_linear_89_1814" x1="3883.44" y1="7455.41" x2="4089.2" y2="7483.81" gradientUnits="userSpaceOnUse">
<stop stop-color="#2B237C"/>
<stop offset="1" stop-color="#180D5B"/>
</linearGradient>
<linearGradient id="paint33_linear_89_1814" x1="2768.32" y1="6285.83" x2="2802.94" y2="6669.08" gradientUnits="userSpaceOnUse">
<stop stop-color="#2C247D"/>
<stop offset="0.02" stop-color="#40DDDA"/>
<stop offset="0.09" stop-color="#3AAEC0"/>
<stop offset="0.17" stop-color="#3484A9"/>
<stop offset="0.26" stop-color="#2F6195"/>
<stop offset="0.35" stop-color="#2B4486"/>
<stop offset="0.44" stop-color="#282E79"/>
<stop offset="0.54" stop-color="#261E71"/>
<stop offset="0.66" stop-color="#24156C"/>
<stop offset="0.82" stop-color="#24126A"/>
</linearGradient>
<linearGradient id="paint34_linear_89_1814" x1="3189.7" y1="6624.66" x2="3222.65" y2="7019.96" gradientUnits="userSpaceOnUse">
<stop stop-color="#2B237C"/>
<stop offset="1" stop-color="#180D5B"/>
</linearGradient>
<linearGradient id="paint35_linear_89_1814" x1="17986" y1="18647.4" x2="18164.3" y2="22992" gradientUnits="userSpaceOnUse">
<stop stop-color="#91A2FA"/>
<stop offset="0.0199" stop-color="#91A2FA"/>
<stop offset="0.02" stop-color="#654DB3"/>
<stop offset="0.09" stop-color="#654DB3"/>
<stop offset="0.17" stop-color="#654DB3"/>
<stop offset="0.26" stop-color="#654CB3"/>
<stop offset="0.35" stop-color="#35068C"/>
<stop offset="0.44" stop-color="#35068C"/>
<stop offset="0.54" stop-color="#35068C"/>
<stop offset="0.66" stop-color="#35068C"/>
<stop offset="0.82" stop-color="#35068C"/>
</linearGradient>
</defs>
</svg>
