<svg width="1394" height="450" viewBox="0 0 1394 450" fill="none" xmlns="http://www.w3.org/2000/svg">
<path d="M225.249 449.999C349.513 449.999 450.249 349.263 450.249 224.999C450.249 100.735 349.513 -0.00100708 225.249 -0.00100708C100.985 -0.00100708 0.249023 100.735 0.249023 224.999C0.249023 349.263 100.985 449.999 225.249 449.999Z" fill="white" fill-opacity="0.1"/>
<path d="M212.226 315.52C168.014 309.045 134.084 270.931 134.084 224.876C134.084 178.822 168.014 140.708 212.226 134.236V86.5385C141.837 93.2711 86.7881 152.636 86.7881 224.876C86.7881 297.117 141.837 356.478 212.226 363.214V315.52Z" fill="#BB0163"/>
<path d="M303.98 134.999L302.752 139.174V260.316L303.98 261.542L360.213 228.303L303.98 134.999Z" fill="#BB0163"/>
<path d="M303.982 134.999L247.749 228.303L303.982 261.542V202.744V134.999Z" fill="#BB0163"/>
<path d="M303.983 279.835L303.291 280.679V323.832L303.983 325.854L360.25 246.613L303.983 279.835Z" fill="#BB0163"/>
<path d="M303.982 325.854V279.835L247.749 246.613L303.982 325.854Z" fill="#BB0163"/>
<path d="M303.981 261.541L360.213 228.302L303.981 202.743V261.541Z" fill="#BB0163"/>
<path d="M247.749 228.302L303.981 261.542V202.743L247.749 228.302Z" fill="#BB0163"/>
<path d="M571.792 213.898H550.542C549.936 210.413 548.819 207.326 547.19 204.636C545.561 201.909 543.534 199.598 541.11 197.705C538.686 195.811 535.921 194.39 532.815 193.443C529.747 192.458 526.432 191.966 522.872 191.966C516.546 191.966 510.94 193.557 506.053 196.739C501.167 199.883 497.341 204.504 494.576 210.602C491.811 216.663 490.428 224.068 490.428 232.818C490.428 241.72 491.811 249.22 494.576 255.318C497.379 261.379 501.205 265.962 506.053 269.068C510.94 272.136 516.527 273.67 522.815 273.67C526.3 273.67 529.557 273.216 532.587 272.307C535.656 271.36 538.402 269.977 540.826 268.159C543.288 266.341 545.353 264.106 547.019 261.455C548.724 258.803 549.898 255.773 550.542 252.364L571.792 252.477C570.997 258.008 569.273 263.197 566.622 268.045C564.008 272.894 560.58 277.174 556.337 280.886C552.095 284.561 547.133 287.439 541.451 289.523C535.769 291.568 529.462 292.591 522.531 292.591C512.303 292.591 503.175 290.223 495.144 285.489C487.114 280.754 480.788 273.917 476.167 264.977C471.546 256.038 469.235 245.318 469.235 232.818C469.235 220.28 471.565 209.561 476.224 200.659C480.883 191.72 487.228 184.883 495.258 180.148C503.288 175.413 512.379 173.045 522.531 173.045C529.008 173.045 535.031 173.955 540.599 175.773C546.167 177.591 551.129 180.261 555.485 183.784C559.841 187.269 563.421 191.549 566.224 196.625C569.065 201.663 570.921 207.42 571.792 213.898ZM596.587 291V203.727H616.53V218.273H617.439C619.03 213.235 621.757 209.352 625.621 206.625C629.523 203.86 633.973 202.477 638.973 202.477C640.11 202.477 641.379 202.534 642.78 202.648C644.219 202.723 645.413 202.856 646.36 203.045V221.966C645.488 221.663 644.106 221.398 642.212 221.17C640.356 220.905 638.557 220.773 636.814 220.773C633.064 220.773 629.693 221.587 626.701 223.216C623.746 224.807 621.416 227.023 619.712 229.864C618.007 232.705 617.155 235.981 617.155 239.693V291H596.587ZM681.865 323.727C679.062 323.727 676.467 323.5 674.081 323.045C671.732 322.629 669.857 322.136 668.456 321.568L673.228 305.545C676.221 306.417 678.891 306.833 681.24 306.795C683.588 306.758 685.653 306.019 687.433 304.58C689.251 303.178 690.785 300.83 692.035 297.534L693.797 292.818L662.149 203.727H683.967L704.081 269.636H704.99L725.16 203.727H747.035L712.092 301.568C710.463 306.189 708.304 310.148 705.615 313.443C702.925 316.777 699.63 319.314 695.728 321.057C691.865 322.837 687.244 323.727 681.865 323.727ZM767.668 323.727V203.727H787.895V218.159H789.089C790.149 216.038 791.645 213.784 793.577 211.398C795.509 208.973 798.123 206.909 801.418 205.205C804.714 203.462 808.918 202.591 814.032 202.591C820.774 202.591 826.854 204.314 832.27 207.761C837.725 211.17 842.043 216.227 845.225 222.932C848.445 229.598 850.055 237.78 850.055 247.477C850.055 257.061 848.483 265.205 845.339 271.909C842.195 278.614 837.914 283.727 832.498 287.25C827.081 290.773 820.945 292.534 814.089 292.534C809.089 292.534 804.941 291.701 801.645 290.034C798.35 288.367 795.698 286.36 793.691 284.011C791.721 281.625 790.187 279.371 789.089 277.25H788.236V323.727H767.668ZM787.839 247.364C787.839 253.008 788.634 257.951 790.225 262.193C791.854 266.436 794.183 269.75 797.214 272.136C800.282 274.485 803.994 275.659 808.35 275.659C812.895 275.659 816.702 274.447 819.77 272.023C822.839 269.561 825.149 266.208 826.702 261.966C828.293 257.686 829.089 252.818 829.089 247.364C829.089 241.947 828.312 237.136 826.759 232.932C825.206 228.727 822.895 225.432 819.827 223.045C816.759 220.659 812.933 219.466 808.35 219.466C803.956 219.466 800.225 220.621 797.157 222.932C794.089 225.242 791.759 228.481 790.168 232.648C788.615 236.814 787.839 241.72 787.839 247.364ZM917.648 203.727V219.636H867.477V203.727H917.648ZM879.864 182.818H900.432V264.75C900.432 267.515 900.848 269.636 901.682 271.114C902.553 272.553 903.689 273.538 905.091 274.068C906.492 274.598 908.045 274.864 909.75 274.864C911.038 274.864 912.212 274.769 913.273 274.58C914.371 274.39 915.205 274.22 915.773 274.068L919.239 290.148C918.14 290.527 916.568 290.943 914.523 291.398C912.515 291.852 910.053 292.117 907.136 292.193C901.985 292.345 897.345 291.568 893.216 289.864C889.087 288.121 885.811 285.432 883.386 281.795C881 278.159 879.826 273.614 879.864 268.159V182.818ZM978.38 292.705C969.857 292.705 962.471 290.83 956.221 287.08C949.971 283.33 945.123 278.083 941.676 271.341C938.267 264.598 936.562 256.72 936.562 247.705C936.562 238.689 938.267 230.792 941.676 224.011C945.123 217.231 949.971 211.966 956.221 208.216C962.471 204.466 969.857 202.591 978.38 202.591C986.903 202.591 994.289 204.466 1000.54 208.216C1006.79 211.966 1011.62 217.231 1015.03 224.011C1018.47 230.792 1020.2 238.689 1020.2 247.705C1020.2 256.72 1018.47 264.598 1015.03 271.341C1011.62 278.083 1006.79 283.33 1000.54 287.08C994.289 290.83 986.903 292.705 978.38 292.705ZM978.494 276.227C983.115 276.227 986.979 274.958 990.085 272.42C993.191 269.845 995.501 266.398 997.017 262.08C998.57 257.761 999.346 252.951 999.346 247.648C999.346 242.307 998.57 237.477 997.017 233.159C995.501 228.803 993.191 225.337 990.085 222.761C986.979 220.186 983.115 218.898 978.494 218.898C973.759 218.898 969.82 220.186 966.676 222.761C963.57 225.337 961.24 228.803 959.687 233.159C958.172 237.477 957.414 242.307 957.414 247.648C957.414 252.951 958.172 257.761 959.687 262.08C961.24 266.398 963.57 269.845 966.676 272.42C969.82 274.958 973.759 276.227 978.494 276.227ZM1044.96 291V174.636H1088.6C1097.54 174.636 1105.04 176.303 1111.1 179.636C1117.2 182.97 1121.8 187.553 1124.91 193.386C1128.05 199.182 1129.62 205.773 1129.62 213.159C1129.62 220.621 1128.05 227.25 1124.91 233.045C1121.76 238.841 1117.12 243.405 1110.99 246.739C1104.85 250.034 1097.29 251.682 1088.32 251.682H1059.4V234.352H1085.48C1090.7 234.352 1094.98 233.443 1098.32 231.625C1101.65 229.807 1104.11 227.307 1105.7 224.125C1107.33 220.943 1108.15 217.288 1108.15 213.159C1108.15 209.03 1107.33 205.394 1105.7 202.25C1104.11 199.106 1101.63 196.663 1098.26 194.92C1094.93 193.14 1090.63 192.25 1085.36 192.25H1066.04V291H1044.96ZM1176.98 292.761C1171.45 292.761 1166.46 291.777 1162.03 289.807C1157.64 287.799 1154.15 284.845 1151.58 280.943C1149.04 277.042 1147.77 272.231 1147.77 266.511C1147.77 261.587 1148.68 257.515 1150.5 254.295C1152.32 251.076 1154.8 248.5 1157.94 246.568C1161.09 244.636 1164.63 243.178 1168.57 242.193C1172.54 241.17 1176.65 240.432 1180.9 239.977C1186.01 239.447 1190.16 238.973 1193.34 238.557C1196.52 238.102 1198.83 237.42 1200.27 236.511C1201.75 235.564 1202.49 234.106 1202.49 232.136V231.795C1202.49 227.515 1201.22 224.201 1198.68 221.852C1196.14 219.504 1192.49 218.33 1187.71 218.33C1182.68 218.33 1178.68 219.428 1175.73 221.625C1172.81 223.822 1170.84 226.417 1169.82 229.409L1150.61 226.682C1152.13 221.379 1154.63 216.947 1158.11 213.386C1161.6 209.788 1165.86 207.098 1170.9 205.318C1175.93 203.5 1181.5 202.591 1187.6 202.591C1191.81 202.591 1195.99 203.083 1200.16 204.068C1204.32 205.053 1208.13 206.682 1211.58 208.955C1215.02 211.189 1217.79 214.239 1219.87 218.102C1221.99 221.966 1223.06 226.795 1223.06 232.591V291H1203.28V279.011H1202.6C1201.35 281.436 1199.59 283.708 1197.32 285.83C1195.08 287.913 1192.26 289.598 1188.85 290.886C1185.48 292.136 1181.52 292.761 1176.98 292.761ZM1182.32 277.648C1186.45 277.648 1190.02 276.833 1193.06 275.205C1196.09 273.538 1198.41 271.341 1200.04 268.614C1201.71 265.886 1202.54 262.913 1202.54 259.693V249.409C1201.9 249.939 1200.8 250.432 1199.25 250.886C1197.73 251.341 1196.03 251.739 1194.13 252.08C1192.24 252.42 1190.37 252.723 1188.51 252.989C1186.65 253.254 1185.04 253.481 1183.68 253.67C1180.61 254.087 1177.87 254.769 1175.44 255.716C1173.02 256.663 1171.1 257.989 1169.7 259.693C1168.3 261.36 1167.6 263.519 1167.6 266.17C1167.6 269.958 1168.98 272.818 1171.75 274.75C1174.51 276.682 1178.04 277.648 1182.32 277.648ZM1270.71 174.636V291H1250.14V174.636H1270.71Z" fill="black"/>
</svg>
