<svg width="1728" height="708" viewBox="0 0 1728 708" fill="none" xmlns="http://www.w3.org/2000/svg">
<rect width="1754" height="708" transform="translate(-13)" fill="#F9FAFD"/>
<path d="M1201.87 539.734C1059.45 486.764 956.715 422.372 972.4 395.911C988.085 369.451 1116.25 390.941 1258.67 443.911C1401.09 496.881 1503.83 561.273 1488.15 587.734C1472.46 614.195 1344.29 592.704 1201.87 539.734Z" fill="#0D0D2B" fill-opacity="0.16"/>
<path d="M1473.01 507.651C1473.01 507.651 1461.72 474.699 1478.18 450.499C1494.65 426.299 1523.82 425.032 1535.01 426.933C1546.21 428.834 1556.4 438.391 1541.82 449.112C1527.23 459.834 1495.88 481.653 1494.37 496.45L1473.01 507.651Z" fill="#9488E4"/>
<path opacity="0.15" d="M1473.01 507.651C1473.01 507.651 1461.72 474.699 1478.18 450.499C1494.65 426.299 1523.82 425.032 1535.01 426.933C1546.21 428.834 1556.4 438.391 1541.82 449.112C1527.23 459.834 1495.88 481.653 1494.37 496.45L1473.01 507.651Z" fill="black"/>
<path d="M1525.76 432.498C1511.82 438.407 1476.57 457.88 1477.99 502.067" stroke="white" stroke-miterlimit="10" stroke-linecap="round"/>
<path d="M1475.25 498.03C1472.93 489.467 1481.04 481.297 1500.45 479.019C1519.87 476.741 1516.96 477.067 1537.61 467.253C1558.26 457.44 1576.98 460.403 1581.53 466.397C1586.47 472.991 1569.45 480.526 1557.77 488.405C1546.09 496.283 1539.19 504.401 1546.71 512.708C1553.05 519.832 1554.29 526.871 1539.26 533.756C1525.88 539.871 1507.6 537.507 1506.26 549.17C1505.51 555.85 1494.85 565.561 1479.9 563.214C1435.94 546.636 1475.25 498.03 1475.25 498.03Z" fill="#9488E4"/>
<path d="M1563.33 466.975C1540.31 474.048 1481.74 502.427 1468.74 550.896" stroke="white" stroke-miterlimit="10" stroke-linecap="round"/>
<path d="M1530.8 517.962C1530.8 517.962 1509.31 512.824 1487.46 516.25" stroke="white" stroke-miterlimit="10" stroke-linecap="round"/>
<path d="M1040.11 121.718C1041.79 121.159 1043.65 120.933 1045.48 121.062C1047.32 121.191 1049.08 121.671 1050.59 122.454L1450.04 292.488C1454.79 294.785 1458.63 297.971 1461.17 301.72L1480.02 293.687C1477.45 289.947 1473.57 286.779 1468.78 284.507L1069.47 114.422C1065.29 112.709 1061.5 112.572 1058.62 113.857L1040.11 121.718Z" fill="#515176"/>
<path d="M1479.44 566.273C1482.97 564.818 1485.2 561.375 1485.2 556.477V307.574C1485.2 307.009 1485.2 306.444 1485.2 305.862C1485.2 305.279 1485.2 305.074 1485.04 304.68C1484.88 304.286 1484.92 303.926 1484.83 303.549C1484.78 303.279 1484.71 303.01 1484.62 302.745C1484.38 301.789 1484.06 300.846 1483.67 299.919C1483.53 299.508 1483.35 299.097 1483.16 298.685C1482.97 298.274 1482.6 297.572 1482.32 296.973C1482.32 296.973 1482.32 296.853 1482.21 296.802C1481.91 296.254 1481.6 295.723 1481.26 295.209C1480.91 294.695 1480.51 294.096 1480.12 293.496L1461.17 301.717C1461.58 302.282 1461.98 302.864 1462.37 303.43C1462.77 303.995 1462.95 304.389 1463.21 304.868C1463.22 304.942 1463.22 305.017 1463.21 305.091C1463.54 305.639 1463.81 306.204 1464.07 306.804C1464.32 307.403 1464.6 307.985 1464.81 308.516C1464.99 308.955 1465.14 309.401 1465.25 309.852C1465.88 311.736 1466.2 313.668 1466.21 315.607V564.492C1466.21 569.442 1463.88 572.918 1460.35 574.357L1479.44 566.273Z" fill="#3B3B69"/>
<path d="M1050.59 122.456L1450.05 292.472C1459.11 296.343 1466.45 306.688 1466.45 315.594V564.496C1466.45 573.402 1459.11 577.495 1450.05 573.642L1050.59 403.625C1041.54 399.771 1034.2 389.41 1034.2 380.504V131.601C1034.2 122.695 1041.54 118.602 1050.59 122.456Z" fill="#0D0D2B"/>
<path d="M1072.58 401.399L1427.91 552.696C1432.55 554.683 1436.43 552.559 1436.43 547.952V306.688C1436.43 302.064 1432.62 296.703 1427.91 294.699L1072.58 143.419C1067.93 141.415 1064.08 143.539 1064.08 148.146V389.41C1064.08 394.034 1067.89 399.344 1072.58 401.399Z" fill="#9488E4"/>
<path opacity="0.1" d="M1072.58 401.399L1427.91 552.696C1432.55 554.683 1436.43 552.559 1436.43 547.952V306.688C1436.43 302.064 1432.62 296.703 1427.91 294.699L1072.58 143.419C1067.93 141.415 1064.08 143.539 1064.08 148.146V389.41C1064.08 394.034 1067.89 399.344 1072.58 401.399Z" fill="black"/>
<path d="M1445.87 440.737C1445.91 442.25 1446.42 443.737 1447.37 445.079C1448.32 446.42 1449.69 447.578 1451.36 448.461C1454.4 449.762 1456.86 448.461 1456.86 445.412C1456.83 443.894 1456.32 442.401 1455.36 441.056C1454.41 439.711 1453.03 438.551 1451.36 437.671C1448.34 436.369 1445.87 437.757 1445.87 440.737Z" fill="#E0E0E0"/>
<path d="M1451.36 400.833C1452.37 401.37 1453.2 402.073 1453.78 402.888C1454.36 403.702 1454.68 404.605 1454.7 405.525V427.002C1454.7 428.818 1453.19 429.64 1451.36 428.852C1450.35 428.319 1449.52 427.618 1448.94 426.806C1448.37 425.994 1448.06 425.093 1448.04 424.176V402.768C1448.04 400.884 1449.52 400.062 1451.36 400.833Z" fill="#E0E0E0"/>
<path d="M1098.41 174.863L1381.44 295.367V532.812L1098.41 412.394V174.863Z" fill="#FAFAFA"/>
<path d="M1098.39 174.861L1107.84 170.854L1390.85 291.34L1381.42 295.365L1098.39 174.861Z" fill="white"/>
<path d="M1390.85 291.342L1381.42 295.367V532.811L1390.85 536.819V291.342Z" fill="#E0E0E0"/>
<path d="M1120.55 200.484L1196.03 232.631V270.43L1120.55 238.283V200.484Z" fill="#E0E0E0"/>
<path d="M1120.54 260.291L1363.47 363.719V353.94L1120.54 250.512V260.291Z" fill="#9488E4"/>
<path d="M1286.43 432.599L1363.47 465.397V375.944L1286.43 343.146V432.599Z" fill="#455A64"/>
<path d="M1299.39 362.914L1350.48 384.682C1351.44 385.076 1352.2 384.682 1352.2 383.74C1352.19 383.271 1352.03 382.812 1351.73 382.398C1351.43 381.984 1351 381.628 1350.48 381.359L1299.39 359.608C1298.46 359.197 1297.7 359.608 1297.7 360.55C1297.71 361.014 1297.87 361.47 1298.16 361.88C1298.46 362.29 1298.88 362.644 1299.39 362.914Z" fill="white"/>
<path d="M1299.39 378.96L1350.48 400.711C1351.44 401.105 1352.2 400.711 1352.2 399.769C1352.19 399.298 1352.03 398.836 1351.73 398.42C1351.43 398.003 1351.01 397.644 1350.48 397.371L1299.39 375.62C1298.46 375.227 1297.7 375.62 1297.7 376.562C1297.71 377.032 1297.86 377.493 1298.16 377.909C1298.45 378.326 1298.88 378.685 1299.39 378.96Z" fill="white"/>
<path d="M1299.39 394.993L1350.48 416.744C1351.44 417.155 1352.2 416.744 1352.2 415.802C1352.19 415.333 1352.03 414.872 1351.73 414.458C1351.44 414.044 1351.01 413.689 1350.48 413.421L1299.39 391.653C1298.46 391.259 1297.7 391.653 1297.7 392.612C1297.71 393.079 1297.87 393.538 1298.16 393.951C1298.46 394.364 1298.88 394.721 1299.39 394.993Z" fill="white"/>
<path d="M1299.39 411.023L1350.48 432.791C1351.44 433.185 1352.2 432.791 1352.2 431.849C1352.19 431.377 1352.03 430.914 1351.74 430.497C1351.44 430.08 1351.01 429.722 1350.48 429.451L1299.39 407.7C1298.46 407.289 1297.7 407.7 1297.7 408.642C1297.71 409.109 1297.86 409.568 1298.16 409.981C1298.45 410.395 1298.88 410.752 1299.39 411.023Z" fill="white"/>
<path d="M1299.39 427.071L1350.48 448.822C1351.44 449.216 1352.2 448.822 1352.2 447.88C1352.19 447.41 1352.03 446.947 1351.73 446.531C1351.43 446.115 1351.01 445.756 1350.48 445.483L1299.39 423.732C1298.46 423.338 1297.7 423.732 1297.7 424.674C1297.71 425.143 1297.86 425.604 1298.16 426.021C1298.45 426.437 1298.88 426.797 1299.39 427.071Z" fill="white"/>
<path d="M1299.39 370.567L1350.48 392.318C1351.44 392.712 1352.2 392.318 1352.2 391.376C1352.19 390.905 1352.03 390.441 1351.74 390.025C1351.44 389.608 1351.01 389.249 1350.48 388.978L1299.39 367.227C1298.46 366.816 1297.7 367.227 1297.7 368.169C1297.71 368.639 1297.87 369.099 1298.16 369.515C1298.46 369.931 1298.88 370.291 1299.39 370.567Z" fill="white"/>
<path d="M1299.39 386.599L1350.48 408.35C1351.44 408.761 1352.2 408.35 1352.2 407.408C1352.19 406.937 1352.03 406.475 1351.73 406.058C1351.43 405.642 1351.01 405.283 1350.48 405.01L1299.39 383.259C1298.46 382.865 1297.7 383.259 1297.7 384.201C1297.71 384.671 1297.86 385.132 1298.16 385.548C1298.45 385.964 1298.88 386.324 1299.39 386.599Z" fill="white"/>
<path d="M1299.39 402.632L1350.48 424.4C1351.44 424.794 1352.2 424.4 1352.2 423.441C1352.19 422.972 1352.03 422.511 1351.73 422.097C1351.44 421.683 1351.01 421.327 1350.48 421.06L1299.39 399.292C1298.46 398.898 1297.7 399.292 1297.7 400.251C1297.71 400.718 1297.87 401.176 1298.16 401.59C1298.46 402.003 1298.88 402.36 1299.39 402.632Z" fill="white"/>
<path d="M1299.39 418.676L1350.48 440.427C1351.44 440.821 1352.2 440.427 1352.2 439.485C1352.19 439.014 1352.03 438.551 1351.74 438.134C1351.44 437.717 1351.01 437.359 1350.48 437.088L1299.39 415.337C1298.46 414.926 1297.7 415.337 1297.7 416.279C1297.71 416.748 1297.87 417.209 1298.16 417.625C1298.46 418.041 1298.88 418.401 1299.39 418.676Z" fill="white"/>
<path d="M1120.54 421.724L1269.38 485.11V335.884L1120.54 272.516V421.724Z" fill="#E0E0E0"/>
<path d="M1258.91 338.423L1129.53 283.343C1127.72 282.555 1126.23 283.189 1126.23 284.73V363.051C1126.3 363.892 1126.63 364.71 1127.2 365.439C1127.78 366.168 1128.57 366.787 1129.53 367.247L1258.89 422.344C1260.72 423.114 1262.19 422.481 1262.19 420.939V342.619C1262.13 341.779 1261.8 340.962 1261.23 340.233C1260.66 339.504 1259.87 338.884 1258.91 338.423Z" fill="#9488E4"/>
<path opacity="0.8" d="M1258.91 338.423L1129.53 283.343C1127.72 282.555 1126.23 283.189 1126.23 284.73V363.051C1126.3 363.892 1126.63 364.71 1127.2 365.439C1127.78 366.168 1128.57 366.787 1129.53 367.247L1258.89 422.344C1260.72 423.114 1262.19 422.481 1262.19 420.939V342.619C1262.13 341.779 1261.8 340.962 1261.23 340.233C1260.66 339.504 1259.87 338.884 1258.91 338.423Z" fill="white"/>
<path d="M1162.32 328.523L1183.95 356.731L1168.76 371.255L1218.94 339.399L1262.19 408.471V420.973C1262.19 422.515 1260.72 423.149 1258.89 422.378L1129.53 367.281C1128.57 366.821 1127.78 366.202 1127.2 365.473C1126.63 364.744 1126.3 363.926 1126.23 363.085V352.895L1162.32 328.523Z" fill="#9488E4"/>
<path d="M1147.38 302.663C1143.8 301.139 1140.9 302.372 1140.9 305.421C1141.02 307.08 1141.67 308.696 1142.8 310.136C1143.92 311.576 1145.49 312.8 1147.38 313.71C1150.96 315.234 1153.86 314.001 1153.86 310.952C1153.74 309.293 1153.09 307.677 1151.96 306.237C1150.84 304.797 1149.27 303.573 1147.38 302.663Z" fill="#9488E4"/>
<path d="M1235.63 426.094L1126.71 379.715V411.845L1235.63 458.224V426.094Z" fill="#F0F0F0"/>
<path d="M1245.56 462.438L1363.47 512.637V480.524L1245.56 430.309V462.438Z" fill="#9488E4"/>
<path d="M892.297 390.508L794.059 344.111L750.792 354.37L892.297 390.508Z" fill="#9488E4"/>
<path d="M892.297 390.507L807.39 338.288L826.248 322.223L892.297 390.507Z" fill="#9488E4"/>
<path d="M807.39 338.293V350.419L892.297 390.512L807.39 338.293Z" fill="#9488E4"/>
<path opacity="0.3" d="M807.39 338.293V350.419L892.297 390.512L807.39 338.293Z" fill="black"/>
<path d="M1021.46 389.018L949.002 354.799L917.069 362.352L1021.46 389.018Z" fill="#9488E4"/>
<path d="M1021.46 389.018L958.826 350.5L972.737 338.648L1021.46 389.018Z" fill="#9488E4"/>
<path d="M958.826 350.5V359.44L1021.46 389.018L958.826 350.5Z" fill="#9488E4"/>
<path opacity="0.3" d="M958.826 350.5V359.44L1021.46 389.018L958.826 350.5Z" fill="black"/>
<path d="M795.012 334.933C795.362 334.933 795.704 334.855 795.993 334.709C796.283 334.564 796.506 334.358 796.634 334.117C796.762 333.877 796.788 333.614 796.71 333.362C796.632 333.11 796.453 332.882 796.196 332.706C792.858 330.438 789.825 327.937 787.139 325.239C786.862 324.967 786.451 324.787 785.995 324.736C785.54 324.684 785.075 324.767 784.7 324.965C784.513 325.063 784.354 325.189 784.234 325.333C784.113 325.478 784.034 325.638 783.999 325.806C783.964 325.974 783.976 326.145 784.032 326.309C784.089 326.474 784.19 326.628 784.329 326.763C787.155 329.586 790.336 332.206 793.828 334.59C794.151 334.809 794.573 334.931 795.012 334.933ZM779.638 320.015C779.911 320.011 780.18 319.964 780.427 319.878C780.83 319.721 781.134 319.454 781.273 319.134C781.412 318.814 781.375 318.466 781.17 318.166C779.12 315.182 777.456 312.063 776.2 308.849C776.141 308.686 776.039 308.533 775.899 308.4C775.759 308.267 775.585 308.155 775.386 308.072C775.187 307.99 774.967 307.937 774.74 307.917C774.513 307.897 774.283 307.911 774.064 307.958C773.62 308.054 773.244 308.274 773.018 308.572C772.792 308.87 772.734 309.222 772.856 309.551C774.162 312.928 775.913 316.204 778.082 319.33C778.229 319.54 778.452 319.715 778.727 319.836C779.002 319.957 779.317 320.019 779.638 320.015ZM772.252 302.084H772.461C772.688 302.065 772.907 302.013 773.105 301.93C773.304 301.848 773.479 301.738 773.62 301.606C773.76 301.474 773.863 301.322 773.924 301.16C773.984 300.998 774 300.829 773.971 300.662C773.627 298.514 773.456 296.352 773.46 294.188C773.46 293.006 773.46 291.808 773.599 290.643C773.618 290.474 773.591 290.303 773.519 290.142C773.447 289.981 773.332 289.832 773.18 289.704C773.028 289.576 772.843 289.472 772.636 289.398C772.429 289.324 772.204 289.281 771.974 289.273C771.746 289.261 771.518 289.283 771.302 289.337C771.086 289.392 770.886 289.477 770.715 289.589C770.545 289.7 770.406 289.836 770.307 289.987C770.208 290.139 770.151 290.304 770.139 290.472C770.023 291.705 769.976 292.955 769.976 294.188C769.977 296.477 770.155 298.765 770.511 301.039C770.591 301.335 770.809 301.601 771.127 301.792C771.445 301.982 771.843 302.086 772.252 302.084ZM773.46 283.347C773.856 283.346 774.24 283.245 774.548 283.062C774.857 282.878 775.071 282.622 775.155 282.336C776.108 279.049 777.42 275.825 779.08 272.694C779.247 272.376 779.235 272.023 779.047 271.711C778.86 271.399 778.513 271.156 778.082 271.033C777.65 270.91 777.171 270.919 776.748 271.057C776.326 271.195 775.995 271.451 775.829 271.769C774.101 275.028 772.734 278.384 771.741 281.806C771.652 282.137 771.743 282.481 771.995 282.763C772.248 283.045 772.64 283.243 773.088 283.313C773.208 283.341 773.334 283.353 773.46 283.347ZM782.355 265.758C782.668 265.757 782.974 265.694 783.244 265.577C783.513 265.459 783.735 265.291 783.888 265.09C786.067 262.108 788.535 259.246 791.273 256.527C791.55 256.254 791.669 255.911 791.604 255.574C791.538 255.237 791.294 254.933 790.925 254.728C790.555 254.524 790.09 254.436 789.633 254.484C789.176 254.532 788.763 254.713 788.486 254.985C785.66 257.78 783.099 260.716 780.822 263.771C780.614 264.067 780.57 264.412 780.7 264.732C780.83 265.051 781.124 265.321 781.519 265.484C781.761 265.627 782.049 265.722 782.355 265.758ZM797.334 250.566C797.571 250.568 797.806 250.533 798.022 250.462C798.239 250.391 798.432 250.286 798.589 250.155C801.722 247.695 805.048 245.374 808.552 243.202C808.727 243.089 808.871 242.953 808.974 242.799C809.078 242.646 809.14 242.479 809.156 242.308C809.172 242.137 809.142 241.965 809.069 241.803C808.995 241.64 808.878 241.49 808.726 241.361C808.573 241.232 808.388 241.126 808.18 241.049C807.972 240.973 807.745 240.927 807.514 240.915C807.282 240.903 807.049 240.925 806.829 240.98C806.608 241.034 806.405 241.12 806.229 241.232C802.622 243.469 799.201 245.866 795.987 248.408C795.757 248.592 795.604 248.821 795.547 249.067C795.491 249.313 795.533 249.567 795.668 249.796C795.804 250.025 796.027 250.22 796.311 250.357C796.594 250.494 796.926 250.566 797.265 250.566H797.334ZM816.657 238.355C817.007 238.349 817.347 238.266 817.632 238.115C821.069 236.403 824.716 234.69 828.478 233.097L829.337 232.738C829.535 232.653 829.709 232.541 829.849 232.407C829.988 232.273 830.09 232.12 830.15 231.957C830.209 231.794 830.224 231.624 830.194 231.457C830.164 231.29 830.09 231.128 829.976 230.982C829.861 230.836 829.709 230.708 829.528 230.605C829.346 230.502 829.139 230.427 828.918 230.383C828.697 230.339 828.466 230.328 828.239 230.35C828.012 230.372 827.794 230.427 827.595 230.511L826.736 230.871C822.904 232.481 819.165 234.296 815.658 236.009C815.349 236.164 815.116 236.388 814.993 236.649C814.87 236.909 814.864 237.192 814.976 237.455C815.088 237.718 815.312 237.948 815.615 238.11C815.918 238.272 816.283 238.358 816.657 238.355ZM838.511 228.61C838.813 228.614 839.111 228.555 839.37 228.439L851.446 223.301C851.658 223.221 851.846 223.11 851.997 222.975C852.149 222.84 852.261 222.684 852.327 222.516C852.394 222.347 852.413 222.171 852.383 221.997C852.354 221.823 852.277 221.655 852.156 221.504C852.035 221.353 851.874 221.222 851.682 221.119C851.49 221.016 851.271 220.942 851.04 220.904C850.808 220.865 850.568 220.862 850.334 220.894C850.101 220.926 849.879 220.993 849.682 221.091L837.628 226.229C837.295 226.371 837.034 226.59 836.887 226.852C836.74 227.114 836.715 227.405 836.816 227.679C836.917 227.953 837.138 228.195 837.444 228.366C837.751 228.538 838.126 228.629 838.511 228.627V228.61ZM860.62 219.173C860.922 219.173 861.218 219.114 861.479 219.002L873.533 213.864C873.92 213.695 874.204 213.423 874.325 213.104C874.446 212.785 874.395 212.443 874.183 212.151C873.951 211.869 873.581 211.662 873.15 211.573C872.719 211.484 872.258 211.519 871.86 211.672L859.807 216.81C859.474 216.951 859.213 217.17 859.066 217.433C858.919 217.695 858.894 217.986 858.995 218.259C859.096 218.533 859.317 218.775 859.623 218.946C859.93 219.118 860.305 219.21 860.69 219.207L860.62 219.173ZM882.729 209.736C883.033 209.73 883.329 209.665 883.589 209.548L895.642 204.41C896.025 204.239 896.305 203.966 896.426 203.648C896.546 203.33 896.499 202.99 896.292 202.697C896.06 202.415 895.689 202.209 895.257 202.123C894.824 202.037 894.363 202.077 893.97 202.235L881.917 207.373C881.529 207.541 881.246 207.814 881.124 208.133C881.003 208.452 881.054 208.793 881.266 209.086C881.425 209.266 881.642 209.415 881.897 209.519C882.152 209.624 882.438 209.681 882.729 209.685V209.736ZM904.815 200.282C905.125 200.284 905.43 200.225 905.698 200.111L909.902 198.398C910.1 198.314 910.274 198.202 910.413 198.068C910.552 197.934 910.655 197.781 910.714 197.618C910.773 197.455 910.788 197.285 910.759 197.118C910.729 196.951 910.655 196.789 910.54 196.643C910.426 196.497 910.274 196.369 910.092 196.266C909.91 196.163 909.703 196.088 909.482 196.044C909.261 196 909.031 195.989 908.804 196.011C908.577 196.033 908.358 196.088 908.16 196.172L903.956 197.885C903.573 198.056 903.293 198.328 903.173 198.646C903.052 198.964 903.1 199.304 903.306 199.597C903.46 199.791 903.681 199.952 903.946 200.063C904.211 200.174 904.511 200.232 904.815 200.231V200.282Z" fill="#E6E6E6"/>
<path d="M944.064 350.654C944.419 350.652 944.764 350.569 945.054 350.418C945.343 350.267 945.563 350.055 945.684 349.809C945.805 349.563 945.822 349.296 945.732 349.043C945.641 348.79 945.449 348.564 945.179 348.394L936.517 343.119C936.341 343.006 936.138 342.92 935.917 342.866C935.697 342.811 935.464 342.79 935.232 342.802C935 342.813 934.774 342.859 934.566 342.935C934.358 343.012 934.173 343.118 934.02 343.247C933.868 343.376 933.751 343.527 933.677 343.689C933.604 343.852 933.574 344.023 933.59 344.194C933.606 344.365 933.668 344.532 933.772 344.685C933.875 344.839 934.019 344.976 934.194 345.088L942.857 350.363C943.192 350.574 943.626 350.678 944.064 350.654ZM926.437 339.933C926.694 339.935 926.949 339.895 927.182 339.815C927.415 339.735 927.621 339.617 927.784 339.471C928.076 339.206 928.215 338.867 928.171 338.528C928.128 338.188 927.906 337.875 927.552 337.655L916.799 331.113C916.441 330.909 915.988 330.816 915.538 330.854C915.087 330.891 914.675 331.057 914.388 331.316C914.101 331.574 913.961 331.905 914 332.238C914.038 332.571 914.251 332.88 914.593 333.099L925.323 339.642C925.64 339.828 926.032 339.931 926.437 339.933ZM907.068 327.67C907.54 327.664 907.99 327.523 908.323 327.276C908.649 327.036 908.832 326.709 908.832 326.369C908.832 326.028 908.649 325.702 908.323 325.461C905.058 323.106 901.958 320.631 899.033 318.045C898.728 317.791 898.302 317.633 897.844 317.604C897.385 317.575 896.93 317.678 896.571 317.891C896.221 318.113 896.003 318.428 895.964 318.767C895.925 319.107 896.068 319.444 896.362 319.706C899.335 322.293 902.563 324.844 906 327.311C906.287 327.521 906.666 327.648 907.068 327.67ZM890.486 313.387C890.837 313.381 891.177 313.297 891.462 313.147C891.819 312.957 892.063 312.674 892.145 312.355C892.227 312.037 892.141 311.707 891.903 311.434C889.279 308.689 886.882 305.829 884.727 302.871C884.633 302.707 884.494 302.559 884.318 302.436C884.142 302.314 883.934 302.22 883.706 302.16C883.478 302.1 883.236 302.076 882.995 302.089C882.754 302.102 882.519 302.152 882.306 302.235C882.092 302.319 881.905 302.434 881.755 302.574C881.605 302.714 881.496 302.875 881.436 303.048C881.375 303.22 881.364 303.4 881.403 303.576C881.442 303.752 881.53 303.92 881.661 304.07C883.879 307.139 886.345 310.108 889.047 312.958C889.225 313.107 889.448 313.223 889.698 313.297C889.948 313.372 890.218 313.402 890.486 313.387ZM878.34 296.859C878.548 296.884 878.76 296.884 878.967 296.859C879.189 296.799 879.392 296.706 879.564 296.586C879.736 296.466 879.872 296.322 879.966 296.161C880.059 296.001 880.107 295.828 880.107 295.654C880.108 295.48 880.059 295.307 879.966 295.147C878.3 292.016 876.949 288.799 875.925 285.521C875.888 285.348 875.802 285.182 875.675 285.034C875.547 284.885 875.379 284.758 875.182 284.659C874.985 284.561 874.762 284.493 874.528 284.46C874.294 284.428 874.053 284.431 873.821 284.47C873.588 284.508 873.369 284.582 873.177 284.686C872.984 284.789 872.823 284.921 872.702 285.073C872.582 285.224 872.505 285.392 872.476 285.567C872.447 285.741 872.467 285.918 872.534 286.087C873.587 289.487 874.985 292.825 876.715 296.072C876.848 296.307 877.075 296.508 877.364 296.648C877.654 296.789 877.994 296.862 878.34 296.859ZM872.441 278.602H872.604C872.832 278.589 873.054 278.543 873.258 278.466C873.461 278.389 873.642 278.283 873.789 278.153C873.936 278.024 874.047 277.875 874.114 277.714C874.182 277.552 874.205 277.383 874.183 277.215C873.997 275.502 873.904 273.927 873.904 272.3C873.904 270.673 873.904 268.874 874.206 267.162C874.229 266.994 874.205 266.824 874.138 266.663C874.07 266.502 873.959 266.352 873.812 266.223C873.665 266.094 873.485 265.988 873.281 265.911C873.078 265.834 872.855 265.787 872.627 265.774C872.17 265.75 871.718 265.858 871.367 266.076C871.016 266.293 870.793 266.603 870.746 266.939C870.537 268.652 870.421 270.501 870.421 272.282C870.421 274.064 870.421 275.708 870.723 277.421C870.757 277.74 870.953 278.039 871.271 278.257C871.589 278.476 872.007 278.599 872.441 278.602ZM874.392 259.9C874.781 259.898 875.158 259.801 875.465 259.624C875.771 259.448 875.99 259.201 876.087 258.924C877.166 255.669 878.643 252.493 880.5 249.435C880.599 249.281 880.655 249.113 880.664 248.942C880.674 248.771 880.638 248.601 880.557 248.441C880.476 248.28 880.353 248.134 880.194 248.009C880.035 247.884 879.844 247.784 879.633 247.715C879.421 247.645 879.192 247.608 878.961 247.604C878.729 247.601 878.498 247.631 878.283 247.694C878.067 247.757 877.871 247.851 877.705 247.971C877.54 248.09 877.408 248.233 877.318 248.391C875.384 251.591 873.83 254.909 872.674 258.307C872.568 258.638 872.642 258.987 872.881 259.279C873.12 259.57 873.504 259.781 873.951 259.866L874.392 259.9ZM884.402 242.653C884.696 242.655 884.986 242.603 885.245 242.501C885.505 242.4 885.726 242.252 885.888 242.071C888.323 239.23 891.065 236.538 894.086 234.021C894.394 233.765 894.551 233.428 894.523 233.086C894.495 232.744 894.283 232.425 893.935 232.197C893.587 231.97 893.131 231.854 892.667 231.875C892.203 231.896 891.77 232.052 891.462 232.309C888.332 234.928 885.482 237.722 882.939 240.667C882.765 240.859 882.666 241.083 882.652 241.314C882.639 241.546 882.711 241.775 882.862 241.978C883.013 242.181 883.236 242.349 883.507 242.466C883.779 242.582 884.088 242.641 884.402 242.636V242.653ZM900.984 228.404C901.412 228.404 901.825 228.288 902.145 228.078C905.564 225.844 909.179 223.779 912.967 221.896C913.156 221.8 913.318 221.678 913.443 221.536C913.568 221.395 913.654 221.236 913.696 221.07C913.738 220.904 913.736 220.733 913.688 220.568C913.641 220.402 913.55 220.245 913.42 220.106C913.291 219.967 913.125 219.847 912.933 219.755C912.741 219.663 912.526 219.599 912.301 219.568C912.075 219.537 911.844 219.539 911.619 219.574C911.395 219.609 911.182 219.676 910.993 219.772C907.089 221.724 903.358 223.857 899.823 226.16C899.652 226.273 899.512 226.409 899.413 226.561C899.313 226.713 899.255 226.878 899.242 227.047C899.229 227.215 899.262 227.384 899.337 227.544C899.413 227.703 899.53 227.85 899.683 227.976C899.845 228.112 900.045 228.221 900.27 228.295C900.494 228.369 900.738 228.406 900.984 228.404ZM921.885 217.58C922.205 217.578 922.517 217.513 922.791 217.391L934.728 212.099C934.945 212.023 935.138 211.916 935.295 211.782C935.452 211.649 935.571 211.493 935.643 211.325C935.715 211.156 935.739 210.978 935.713 210.803C935.688 210.627 935.614 210.457 935.495 210.303C935.377 210.15 935.216 210.016 935.024 209.91C934.833 209.804 934.613 209.729 934.38 209.688C934.147 209.648 933.904 209.643 933.669 209.675C933.433 209.707 933.209 209.774 933.01 209.873C932.034 210.284 924.277 213.726 921.003 215.199C920.681 215.344 920.431 215.563 920.292 215.822C920.152 216.08 920.131 216.366 920.231 216.634C920.33 216.903 920.545 217.14 920.844 217.311C921.142 217.481 921.508 217.576 921.885 217.58Z" fill="#E6E6E6"/>
<path d="M1237.92 251.559L1236.62 280.678L1231.07 278.385L1221.12 254.395L1220.25 273.915L1214.69 271.622L1216 242.503L1221.55 244.796L1231.52 268.813L1232.39 249.274L1237.92 251.559ZM1259.74 285.459L1259.53 290.139L1245.19 284.216L1245.4 279.536L1259.74 285.459ZM1248.3 255.846L1247 284.965L1241.45 282.672L1242.75 253.553L1248.3 255.846ZM1258.43 272.107L1258.23 276.667L1245.76 271.516L1245.96 266.957L1258.43 272.107ZM1260.81 261.012L1260.6 265.712L1246.28 259.797L1246.49 255.097L1260.81 261.012ZM1269.47 289.538L1275.93 267.255L1278.93 268.493L1279.43 272.856L1272.59 295.534L1269.37 294.204L1269.47 289.538ZM1267.81 263.9L1271.15 290.234L1270.58 294.701L1266.99 293.218L1262.31 261.631L1267.81 263.9ZM1283.24 295.124L1288.72 272.536L1294.21 274.805L1286.95 301.464L1283.36 299.981L1283.24 295.124ZM1280.61 269.188L1284.91 296.019L1284.56 300.478L1281.34 299.148L1276.71 271.712L1277.63 267.958L1280.61 269.188ZM1310.29 303.343C1310.31 302.823 1310.26 302.326 1310.13 301.851C1310.02 301.369 1309.77 300.875 1309.41 300.37C1309.04 299.852 1308.52 299.277 1307.84 298.646C1307.17 298.014 1306.29 297.284 1305.21 296.457C1304.01 295.526 1302.87 294.568 1301.8 293.581C1300.73 292.599 1299.8 291.582 1298.99 290.529C1298.2 289.467 1297.58 288.364 1297.14 287.219C1296.72 286.079 1296.53 284.882 1296.59 283.628C1296.64 282.415 1296.94 281.417 1297.48 280.634C1298.01 279.838 1298.74 279.27 1299.66 278.93C1300.58 278.577 1301.66 278.457 1302.88 278.569C1304.12 278.687 1305.47 279.046 1306.92 279.648C1308.91 280.468 1310.63 281.57 1312.07 282.955C1313.52 284.34 1314.62 285.873 1315.37 287.556C1316.14 289.244 1316.48 290.955 1316.4 292.688L1310.89 290.411C1310.93 289.558 1310.79 288.742 1310.49 287.965C1310.2 287.179 1309.73 286.462 1309.08 285.813C1308.44 285.17 1307.62 284.642 1306.62 284.229C1305.66 283.832 1304.85 283.661 1304.2 283.716C1303.54 283.758 1303.04 283.979 1302.7 284.38C1302.35 284.767 1302.17 285.288 1302.14 285.941C1302.12 286.434 1302.21 286.927 1302.41 287.419C1302.63 287.915 1302.96 288.431 1303.4 288.966C1303.84 289.502 1304.38 290.06 1305.04 290.642C1305.69 291.224 1306.45 291.842 1307.31 292.497C1308.76 293.583 1310.02 294.656 1311.1 295.714C1312.2 296.778 1313.11 297.838 1313.83 298.896C1314.55 299.953 1315.08 301.034 1315.42 302.139C1315.76 303.243 1315.9 304.396 1315.84 305.595C1315.79 306.862 1315.51 307.901 1315.01 308.713C1314.51 309.524 1313.81 310.098 1312.91 310.435C1312.02 310.772 1310.97 310.873 1309.75 310.739C1308.54 310.605 1307.19 310.232 1305.71 309.62C1304.38 309.07 1303.08 308.341 1301.8 307.433C1300.52 306.511 1299.37 305.445 1298.34 304.233C1297.33 303.027 1296.53 301.694 1295.96 300.234C1295.38 298.774 1295.13 297.224 1295.2 295.584L1300.77 297.884C1300.73 298.791 1300.83 299.611 1301.06 300.345C1301.29 301.079 1301.63 301.735 1302.08 302.316C1302.55 302.901 1303.1 303.415 1303.75 303.859C1304.41 304.307 1305.13 304.694 1305.92 305.021C1306.88 305.418 1307.68 305.597 1308.31 305.559C1308.95 305.525 1309.43 305.31 1309.75 304.912C1310.08 304.519 1310.26 303.996 1310.29 303.343Z" fill="#0D0D2B"/>
</svg>
