<svg width="1396" height="582" viewBox="0 0 1396 582" fill="none" xmlns="http://www.w3.org/2000/svg">
<path d="M1388.17 95.4416C1395.9 122.726 1385.56 154.717 1358.06 189.784C1330.64 224.745 1286.81 261.866 1229.67 298.886C1115.46 372.892 949.064 445.862 757.578 500.096C566.091 554.329 386.146 579.45 250.086 576.328C182.024 574.766 125.239 566.142 83.5558 550.753C41.7473 535.317 16.1707 513.498 8.44301 486.213C0.715298 458.928 11.0514 426.937 38.5566 391.87C65.9792 356.909 109.809 319.789 166.943 282.768C281.159 208.763 447.552 135.792 639.038 81.5587C830.524 27.3253 1010.47 2.20496 1146.53 5.32696C1214.59 6.8887 1271.38 15.5127 1313.06 30.9017C1354.87 46.337 1380.44 68.1567 1388.17 95.4416Z" stroke="#FF78BF" stroke-width="10"/>
</svg>
