<svg width="7458" height="5557" viewBox="0 0 7458 5557" fill="none" xmlns="http://www.w3.org/2000/svg">
<path d="M7457.86 4883.4H0V4887.13H7457.86V4883.4Z" fill="#EBEBEB"/>
<path d="M6710.6 5123.4H6216.59V5127.13H6710.6V5123.4Z" fill="#EBEBEB"/>
<path d="M4940.4 5163.97H4810.78V5167.7H4940.4V5163.97Z" fill="#EBEBEB"/>
<path d="M6201.66 4984.98H5915.43V4988.71H6201.66V4984.98Z" fill="#EBEBEB"/>
<path d="M1426.71 5010.04H782.5V5013.77H1426.71V5010.04Z" fill="#EBEBEB"/>
<path d="M1653.98 5010.04H1559.56V5013.77H1653.98V5010.04Z" fill="#EBEBEB"/>
<path d="M3358.27 5072.99H1960.97V5076.72H3358.27V5072.99Z" fill="#EBEBEB"/>
<path d="M3535.01 4218.16H654.934C632.371 4218.12 610.747 4209.13 594.807 4193.17C578.867 4177.2 569.914 4155.56 569.914 4133V84.423C570.11 61.9901 579.15 40.5406 595.069 24.7335C610.987 8.92643 632.5 0.0384287 654.934 0H3535.01C3557.6 0 3579.26 8.97311 3595.23 24.9454C3611.21 40.9176 3620.18 62.5806 3620.18 85.1687V4133C3620.18 4155.58 3611.21 4177.25 3595.23 4193.22C3579.26 4209.19 3557.6 4218.16 3535.01 4218.16ZM654.934 2.98315C633.36 3.02267 612.684 11.6203 597.443 26.889C582.203 42.1576 573.643 62.8496 573.643 84.423V4133C573.643 4154.57 582.203 4175.26 597.443 4190.53C612.684 4205.8 633.36 4214.4 654.934 4214.44H3535.01C3556.6 4214.4 3577.29 4205.8 3592.55 4190.54C3607.82 4175.27 3616.41 4154.58 3616.45 4133V84.423C3616.41 62.8359 3607.82 42.1442 3592.55 26.8799C3577.29 11.6155 3556.6 3.02258 3535.01 2.98315H654.934Z" fill="#EBEBEB"/>
<path d="M6761.47 4218.16H3881.25C3858.67 4218.12 3837.03 4209.14 3821.07 4193.18C3805.1 4177.21 3796.12 4155.57 3796.08 4133V84.423C3796.31 61.9765 3805.39 40.5271 3821.33 24.7242C3837.27 8.92122 3858.8 0.0380096 3881.25 0H6761.47C6783.88 0.0776288 6805.35 8.98298 6821.24 24.7859C6837.13 40.5887 6846.15 62.0159 6846.34 84.423V4133C6846.34 4155.53 6837.41 4177.15 6821.5 4193.11C6805.59 4209.08 6784.01 4218.09 6761.47 4218.16ZM3881.25 2.98315C3859.66 3.02258 3838.97 11.6155 3823.7 26.8799C3808.44 42.1442 3799.85 62.8359 3799.81 84.423V4133C3799.85 4154.58 3808.44 4175.27 3823.7 4190.54C3838.97 4205.8 3859.66 4214.4 3881.25 4214.44H6761.47C6783.06 4214.4 6803.75 4205.8 6819.01 4190.54C6834.28 4175.27 6842.87 4154.58 6842.91 4133V84.423C6842.87 62.8359 6834.28 42.1442 6819.01 26.8799C6803.75 11.6155 6783.06 3.02258 6761.47 2.98315H3881.25Z" fill="#EBEBEB"/>
<path d="M5354.91 2722.26H5022.29V2863.81H5354.91V2722.26Z" fill="#FAFAFA"/>
<path d="M4952.49 2722.26H4619.87V2863.81H4952.49V2722.26Z" fill="#FAFAFA"/>
<path d="M4550.07 2722.26H4217.45V2863.81H4550.07V2722.26Z" fill="#FAFAFA"/>
<path d="M5556.12 2919.3H5223.5V3060.85H5556.12V2919.3Z" fill="#FAFAFA"/>
<path d="M5153.7 2919.3H4821.08V3060.85H5153.7V2919.3Z" fill="#FAFAFA"/>
<path d="M4751.28 2919.3H4418.66V3060.85H4751.28V2919.3Z" fill="#FAFAFA"/>
<path d="M4348.8 2919.3H4016.18V3060.85H4348.8V2919.3Z" fill="#FAFAFA"/>
<path d="M6204.78 3116.34H5872.16V3257.89H6204.78V3116.34Z" fill="#FAFAFA"/>
<path d="M5802.36 3116.34H5469.73V3257.89H5802.36V3116.34Z" fill="#FAFAFA"/>
<path d="M4952.49 3116.34H4619.87V3257.89H4952.49V3116.34Z" fill="#FAFAFA"/>
<path d="M4550.07 3116.34H4217.45V3257.89H4550.07V3116.34Z" fill="#FAFAFA"/>
<path d="M4147.59 3116.34H3814.97V3257.89H4147.59V3116.34Z" fill="#FAFAFA"/>
<path d="M6003.57 3313.23H5670.95V3454.78H6003.57V3313.23Z" fill="#FAFAFA"/>
<path d="M5153.7 3313.23H4821.08V3454.78H5153.7V3313.23Z" fill="#FAFAFA"/>
<path d="M4751.28 3313.23H4418.66V3454.78H4751.28V3313.23Z" fill="#FAFAFA"/>
<path d="M4348.8 3313.23H4016.18V3454.78H4348.8V3313.23Z" fill="#FAFAFA"/>
<path d="M2778.94 715.356H2446.32V856.906H2778.94V715.356Z" fill="#FAFAFA"/>
<path d="M2376.52 715.356H2043.9V856.906H2376.52V715.356Z" fill="#FAFAFA"/>
<path d="M2980.15 912.395H2647.53V1053.95H2980.15V912.395Z" fill="#FAFAFA"/>
<path d="M2577.73 912.395H2245.11V1053.95H2577.73V912.395Z" fill="#FAFAFA"/>
<path d="M1772.89 912.395H1440.27V1053.95H1772.89V912.395Z" fill="#FAFAFA"/>
<path d="M1370.46 912.395H1037.84V1053.95H1370.46V912.395Z" fill="#FAFAFA"/>
<path d="M2376.52 1109.43H2043.9V1250.98H2376.52V1109.43Z" fill="#FAFAFA"/>
<path d="M6039.94 1868.34H5707.32V2009.89H6039.94V1868.34Z" fill="#FAFAFA"/>
<path d="M5339.24 1868.34H5006.62V2009.89H5339.24V1868.34Z" fill="#FAFAFA"/>
<path d="M6241.32 2065.38H5908.7V2206.93H6241.32V2065.38Z" fill="#FAFAFA"/>
<path d="M5838.73 2065.38H5506.11V2206.93H5838.73V2065.38Z" fill="#FAFAFA"/>
<path d="M2405.03 1669.66H2072.41V1811.21H2405.03V1669.66Z" fill="#FAFAFA"/>
<path d="M1554.99 1669.66H1222.37V1811.21H1554.99V1669.66Z" fill="#FAFAFA"/>
<path d="M2606.24 1866.55H2273.62V2008.1H2606.24V1866.55Z" fill="#FAFAFA"/>
<path d="M2054.48 1866.55H1721.86V2008.1H2054.48V1866.55Z" fill="#FAFAFA"/>
<path d="M6039.94 2262.42H5707.32V2403.97H6039.94V2262.42Z" fill="#FAFAFA"/>
<path d="M5339.24 2262.42H5006.62V2403.97H5339.24V2262.42Z" fill="#FAFAFA"/>
<path d="M1571.68 1109.43H1239.05V1250.98H1571.68V1109.43Z" fill="#FAFAFA"/>
<path d="M6283.86 720.726H5951.24V862.277H6283.86V720.726Z" fill="#FAFAFA"/>
<path d="M5881.44 720.726H5548.82V862.277H5881.44V720.726Z" fill="#FAFAFA"/>
<path d="M6082.65 917.613H5750.03V1059.16H6082.65V917.613Z" fill="#FAFAFA"/>
<path d="M4481 723.862H4148.38V865.412H4481V723.862Z" fill="#FAFAFA"/>
<path d="M4078.57 723.862H3745.95V865.412H4078.57V723.862Z" fill="#FAFAFA"/>
<path d="M4682.21 920.749H4349.59V1062.3H4682.21V920.749Z" fill="#FAFAFA"/>
<path d="M4279.78 920.749H3947.16V1062.3H4279.78V920.749Z" fill="#FAFAFA"/>
<path d="M3877.36 920.749H3544.74V1062.3H3877.36V920.749Z" fill="#FAFAFA"/>
<path d="M4883.42 1117.78H4550.8V1259.33H4883.42V1117.78Z" fill="#FAFAFA"/>
<path d="M4481 1117.78H4148.38V1259.33H4481V1117.78Z" fill="#FAFAFA"/>
<path d="M4078.57 1117.78H3745.95V1259.33H4078.57V1117.78Z" fill="#FAFAFA"/>
<path d="M4682.21 1314.82H4349.59V1456.37H4682.21V1314.82Z" fill="#FAFAFA"/>
<path d="M4279.78 1314.82H3947.16V1456.37H4279.78V1314.82Z" fill="#FAFAFA"/>
<path d="M1977.21 2668.87H1644.59V2810.42H1977.21V2668.87Z" fill="#FAFAFA"/>
<path d="M1574.68 2668.87H1242.05V2810.42H1574.68V2668.87Z" fill="#FAFAFA"/>
<path d="M3132.6 2686.77H2799.98V2828.32H3132.6V2686.77Z" fill="#FAFAFA"/>
<path d="M2178.42 2865.76H1845.8V3007.31H2178.42V2865.76Z" fill="#FAFAFA"/>
<path d="M1775.89 2865.76H1443.27V3007.31H1775.89V2865.76Z" fill="#FAFAFA"/>
<path d="M3333.81 2883.8H3001.19V3025.35H3333.81V2883.8Z" fill="#FAFAFA"/>
<path d="M2931.21 2883.8H2598.59V3025.35H2931.21V2883.8Z" fill="#FAFAFA"/>
<path d="M3999.21 2246.9H3666.59V2388.45H3999.21V2246.9Z" fill="#FAFAFA"/>
<path d="M1912.67 2153.23H1580.05V2294.78H1912.67V2153.23Z" fill="#FAFAFA"/>
<path d="M3545.6 1548.4H3212.98V1689.95H3545.6V1548.4Z" fill="#FAFAFA"/>
<path d="M3798 2050.02H3465.38V2191.57H3798V2050.02Z" fill="#FAFAFA"/>
<path d="M4200.42 2050.02H3867.8V2191.57H4200.42V2050.02Z" fill="#FAFAFA"/>
<path d="M5711.23 4739.17H5378.61V4880.72H5711.23V4739.17Z" fill="#FAFAFA"/>
<path d="M5912.44 4542.28H5579.82V4683.83H5912.44V4542.28Z" fill="#FAFAFA"/>
<path d="M1977.21 3062.79H1644.59V3204.34H1977.21V3062.79Z" fill="#FAFAFA"/>
<path d="M1574.68 3062.79H1242.05V3204.34H1574.68V3062.79Z" fill="#FAFAFA"/>
<path d="M2178.42 3259.83H1845.8V3401.38H2178.42V3259.83Z" fill="#FAFAFA"/>
<path d="M1775.89 3259.83H1443.27V3401.38H1775.89V3259.83Z" fill="#FAFAFA"/>
<path d="M2608.78 3804.7H2276.16V3946.25H2608.78V3804.7Z" fill="#FAFAFA"/>
<path d="M2206.36 3804.7H1873.74V3946.25H2206.36V3804.7Z" fill="#FAFAFA"/>
<path d="M1803.77 3804.7H1471.15V3946.25H1803.77V3804.7Z" fill="#FAFAFA"/>
<path d="M1401.35 3804.7H1068.73V3946.25H1401.35V3804.7Z" fill="#FAFAFA"/>
<path d="M2810 4001.74H2477.38V4143.29H2810V4001.74Z" fill="#FAFAFA"/>
<path d="M2407.57 4001.74H2074.95V4143.29H2407.57V4001.74Z" fill="#FAFAFA"/>
<path d="M1602.56 4001.74H1269.94V4143.29H1602.56V4001.74Z" fill="#FAFAFA"/>
<path d="M3011.21 4198.63H2678.59V4340.18H3011.21V4198.63Z" fill="#FAFAFA"/>
<path d="M2608.78 4198.63H2276.16V4340.18H2608.78V4198.63Z" fill="#FAFAFA"/>
<path d="M2206.36 4198.63H1873.74V4340.18H2206.36V4198.63Z" fill="#FAFAFA"/>
<path d="M2810 4395.66H2477.38V4537.21H2810V4395.66Z" fill="#FAFAFA"/>
<path d="M2407.57 4395.66H2074.95V4537.21H2407.57V4395.66Z" fill="#FAFAFA"/>
<path d="M2005.1 4395.66H1672.48V4537.21H2005.1V4395.66Z" fill="#FAFAFA"/>
<path d="M5331.32 3795.6H4998.7V3937.15H5331.32V3795.6Z" fill="#FAFAFA"/>
<path d="M4481.45 3795.6H4148.83V3937.15H4481.45V3795.6Z" fill="#FAFAFA"/>
<path d="M4078.97 3795.6H3746.35V3937.15H4078.97V3795.6Z" fill="#FAFAFA"/>
<path d="M5532.7 3992.64H5200.08V4134.19H5532.7V3992.64Z" fill="#FAFAFA"/>
<path d="M4682.66 3992.64H4350.04V4134.19H4682.66V3992.64Z" fill="#FAFAFA"/>
<path d="M4280.24 3992.64H3947.62V4134.19H4280.24V3992.64Z" fill="#FAFAFA"/>
<path d="M3877.76 3992.64H3545.14V4134.19H3877.76V3992.64Z" fill="#FAFAFA"/>
<path d="M5733.91 4189.53H5401.29V4331.08H5733.91V4189.53Z" fill="#FAFAFA"/>
<path d="M5331.32 4189.53H4998.7V4331.08H5331.32V4189.53Z" fill="#FAFAFA"/>
<path d="M4481.45 4189.53H4148.83V4331.08H4481.45V4189.53Z" fill="#FAFAFA"/>
<path d="M4078.97 4189.53H3746.35V4331.08H4078.97V4189.53Z" fill="#FAFAFA"/>
<path d="M5085.08 4386.56H4752.46V4528.11H5085.08V4386.56Z" fill="#FAFAFA"/>
<path d="M4682.66 4386.56H4350.04V4528.11H4682.66V4386.56Z" fill="#FAFAFA"/>
<path d="M4280.24 4386.56H3947.62V4528.11H4280.24V4386.56Z" fill="#FAFAFA"/>
<path d="M3877.76 4386.56H3545.14V4528.11H3877.76V4386.56Z" fill="#FAFAFA"/>
<path d="M4609.42 3136.62H6046.1V1493.36L4609.42 1493.36V3136.62Z" fill="#E0E0E0"/>
<path d="M4612.09 3136.62H5993.44V1493.36L4612.09 1493.36V3136.62Z" fill="#E0E0E0"/>
<path d="M4564.51 3136.62H6001.19V1493.36L4564.51 1493.36V3136.62Z" fill="#F0F0F0"/>
<path d="M4629.86 3061H5938.57V1545.56L4629.86 1545.56V3061Z" fill="white"/>
<path d="M4629.85 3061H4670.72V1545.56H4629.85V3061Z" fill="#E0E0E0"/>
<path d="M4666.37 2635.46V2676.33H5942.26V2635.46H4666.37Z" fill="#E0E0E0"/>
<path d="M4629.83 2635.31H5960.46V2566.7H4629.83V2635.31Z" fill="#F0F0F0"/>
<path d="M1579.55 3136.62H3016.23V1493.36L1579.55 1493.36L1579.55 3136.62Z" fill="#E0E0E0"/>
<path d="M1582.4 3136.62H2963.74V1493.36L1582.4 1493.36L1582.4 3136.62Z" fill="#E0E0E0"/>
<path d="M1534.81 3136.62H2971.49V1493.36L1534.81 1493.36L1534.81 3136.62Z" fill="#F0F0F0"/>
<path d="M1600 3061H2908.7V1545.56L1600 1545.56L1600 3061Z" fill="white"/>
<path d="M1599.98 3061H1640.85L1640.85 1545.56H1599.98L1599.98 3061Z" fill="#E0E0E0"/>
<path d="M1636.55 2635.31V2676.18H2912.44V2635.31H1636.55Z" fill="#E0E0E0"/>
<path d="M1600.02 2635.31H2930.65V2566.7H1600.02V2635.31Z" fill="#F0F0F0"/>
<path d="M3728.93 5557C5326.14 5557 6620.94 5481.41 6620.94 5388.15C6620.94 5294.9 5326.14 5219.31 3728.93 5219.31C2131.72 5219.31 836.922 5294.9 836.922 5388.15C836.922 5481.41 2131.72 5557 3728.93 5557Z" fill="#F5F5F5"/>
<path d="M1333.15 5002.89C1333.15 5002.89 1312.56 4851.19 1215.46 4834.64C1118.36 4818.08 1147.59 4745.14 1122.39 4716.21C1097.18 4687.27 1031.1 4771.54 1087.63 4852.83C1144.16 4934.13 1097.92 4908.47 1122.39 4983.94C1146.85 5059.42 1342.39 5128.78 1333.15 5002.89Z" fill="#0D0D2B"/>
<path opacity="0.2" d="M1333.15 5002.89C1333.15 5002.89 1312.56 4851.19 1215.46 4834.64C1118.36 4818.08 1147.59 4745.14 1122.39 4716.21C1097.18 4687.27 1031.1 4771.54 1087.63 4852.83C1144.16 4934.13 1097.92 4908.47 1122.39 4983.94C1146.85 5059.42 1342.39 5128.78 1333.15 5002.89Z" fill="white"/>
<path d="M1329.12 5108.19C1327.85 5108.21 1326.61 5107.87 1325.52 5107.21C1324.44 5106.55 1323.57 5105.6 1323 5104.46C1323 5102.82 1248.43 4945.01 1287.21 4693.53C1299.76 4621.6 1319.76 4551.17 1346.87 4483.37C1393.85 4355.39 1430.85 4254.26 1346.12 4069.61C1319.28 4011.14 1291.83 3956.7 1265.28 3904.04C1165.64 3706.26 1087.04 3550.09 1145.96 3391.84C1146.59 3390.18 1147.86 3388.84 1149.48 3388.11C1151.1 3387.38 1152.94 3387.33 1154.61 3387.96C1155.45 3388.23 1156.23 3388.66 1156.89 3389.24C1157.56 3389.82 1158.1 3390.53 1158.48 3391.33C1158.85 3392.13 1159.06 3393 1159.09 3393.88C1159.12 3394.76 1158.96 3395.64 1158.63 3396.46C1102.1 3549.2 1179.66 3703.13 1277.96 3897.93C1304.51 3950.73 1331.95 4005.32 1358.95 4063.94C1446.06 4253.67 1406.23 4362.25 1360.14 4487.99C1332.97 4554.9 1312.98 4624.5 1300.48 4695.62C1262.15 4942.62 1334.49 5097 1335.24 5098.34C1336 5099.95 1336.11 5101.79 1335.52 5103.47C1334.93 5105.14 1333.7 5106.52 1332.1 5107.29C1331.19 5107.81 1330.17 5108.11 1329.12 5108.19Z" fill="#0D0D2B"/>
<path d="M1273.21 5071.35C1273.21 5071.35 1210.42 4976.79 1300.95 4928.16C1391.49 4879.54 1409.69 4918.77 1465.03 4883.41C1520.37 4848.06 1563.47 4764.09 1573.02 4817.94C1582.56 4871.78 1517.98 4903.1 1540.8 4927.86C1563.62 4952.62 1389.11 5113.71 1273.21 5071.35Z" fill="#0D0D2B"/>
<path d="M1125.1 3473.13C1125.1 3473.13 1064.1 3287.43 1203.11 3283.55C1342.13 3279.67 1188.79 3453.29 1125.1 3473.13Z" fill="#0D0D2B"/>
<path d="M1245.9 3616.02C1245.9 3616.02 1287.36 3447.02 1385.96 3482.67C1484.55 3518.32 1344.19 3619.15 1245.9 3616.02Z" fill="#0D0D2B"/>
<path d="M1078.54 3630.64C1078.54 3630.64 1093.46 3496.4 989.048 3493.12C884.638 3489.83 930.578 3609.61 1078.54 3630.64Z" fill="#0D0D2B"/>
<path d="M1148.48 3905.54C1148.48 3905.54 1007.98 3780.25 957.414 3873.47C906.849 3966.69 1063.17 3986.08 1148.48 3905.54Z" fill="#0D0D2B"/>
<path d="M1396.7 3883.31C1396.7 3883.31 1423.1 3674.49 1536.61 3740.57C1650.12 3806.65 1495.59 3904.19 1396.7 3883.31Z" fill="#0D0D2B"/>
<path d="M1496.62 4181.18C1496.62 4181.18 1412.79 3971.02 1568.51 3994.73C1724.23 4018.45 1606.55 4130.17 1496.62 4181.18Z" fill="#0D0D2B"/>
<path d="M1257.66 4256.2C1257.66 4256.2 1126.26 4101.83 1025.72 4150.45C925.192 4199.08 1007.38 4353.45 1257.66 4256.2Z" fill="#0D0D2B"/>
<path d="M1377.02 4599.42C1377.02 4599.42 1489.03 4350.62 1588.67 4434.45C1688.31 4518.28 1525.13 4643.57 1377.02 4599.42Z" fill="#0D0D2B"/>
<path d="M1214.27 4584.8C1214.27 4584.8 1244.1 4391.79 1132.98 4407.3C1021.85 4422.82 1051.24 4540.95 1214.27 4584.8Z" fill="#0D0D2B"/>
<g opacity="0.2">
<path d="M1125.1 3473.13C1125.1 3473.13 1064.1 3287.43 1203.11 3283.55C1342.13 3279.67 1188.79 3453.29 1125.1 3473.13Z" fill="white"/>
<path d="M1245.89 3616.02C1245.89 3616.02 1287.36 3447.02 1385.95 3482.67C1484.54 3518.32 1344.19 3619.15 1245.89 3616.02Z" fill="white"/>
<path d="M1078.54 3630.64C1078.54 3630.64 1093.46 3496.4 989.048 3493.12C884.638 3489.83 930.578 3609.61 1078.54 3630.64Z" fill="white"/>
<path d="M1148.48 3905.54C1148.48 3905.54 1007.97 3780.25 957.406 3873.47C906.842 3966.69 1063.16 3986.08 1148.48 3905.54Z" fill="white"/>
<path d="M1396.7 3883.31C1396.7 3883.31 1423.1 3674.49 1536.61 3740.57C1650.12 3806.65 1495.59 3904.19 1396.7 3883.31Z" fill="white"/>
<path d="M1496.62 4181.18C1496.62 4181.18 1412.79 3971.02 1568.51 3994.73C1724.23 4018.45 1606.55 4130.17 1496.62 4181.18Z" fill="white"/>
<path d="M1257.66 4256.2C1257.66 4256.2 1126.26 4101.83 1025.72 4150.45C925.192 4199.08 1007.38 4353.45 1257.66 4256.2Z" fill="white"/>
<path d="M1377.02 4599.42C1377.02 4599.42 1489.03 4350.62 1588.67 4434.45C1688.31 4518.28 1525.13 4643.57 1377.02 4599.42Z" fill="white"/>
<path d="M1214.27 4584.8C1214.27 4584.8 1244.1 4391.79 1132.98 4407.3C1021.85 4422.82 1051.24 4540.95 1214.27 4584.8Z" fill="white"/>
</g>
<path d="M1185.35 3727.74C1184.21 3727.74 1183.09 3727.49 1182.07 3727C1099.73 3680.91 1040.52 3593.8 1038.13 3590.22C1037.62 3589.49 1037.27 3588.66 1037.08 3587.79C1036.9 3586.92 1036.89 3586.02 1037.06 3585.15C1037.22 3584.27 1037.56 3583.44 1038.05 3582.7C1038.54 3581.96 1039.18 3581.32 1039.92 3580.82C1041.41 3579.84 1043.23 3579.48 1044.98 3579.81C1046.74 3580.15 1048.29 3581.15 1049.32 3582.61C1085.06 3633.83 1130.34 3677.68 1182.66 3711.78C1195.19 3688.52 1240.39 3608.27 1278.12 3585.6C1279.65 3584.67 1281.48 3584.38 1283.21 3584.8C1284.07 3585.01 1284.88 3585.38 1285.59 3585.9C1286.31 3586.42 1286.91 3587.08 1287.37 3587.83C1287.83 3588.59 1288.14 3589.43 1288.27 3590.3C1288.41 3591.17 1288.37 3592.06 1288.17 3592.92C1287.96 3593.78 1287.58 3594.59 1287.06 3595.3C1286.54 3596.02 1285.89 3596.62 1285.13 3597.08C1245.01 3621.1 1191.76 3723.12 1191.31 3724.16C1190.89 3724.95 1190.32 3725.65 1189.63 3726.21C1188.94 3726.77 1188.14 3727.19 1187.29 3727.45C1186.67 3727.68 1186.01 3727.78 1185.35 3727.74Z" fill="#0D0D2B"/>
<path d="M1312.55 3985.93C1311.1 3985.97 1309.67 3985.49 1308.53 3984.59C1191.44 3896.14 1041.83 3899.87 1040.04 3899.87C1038.27 3899.84 1036.57 3899.15 1035.27 3897.94C1033.98 3896.73 1033.18 3895.08 1033.03 3893.31C1033.01 3892.43 1033.17 3891.55 1033.49 3890.73C1033.81 3889.91 1034.28 3889.16 1034.89 3888.52C1035.5 3887.88 1036.23 3887.37 1037.04 3887.01C1037.85 3886.66 1038.71 3886.47 1039.6 3886.45C1041.09 3886.45 1190.39 3882.57 1310.32 3969.38C1325.98 3944.47 1386.09 3853.93 1463.35 3808.44C1464.89 3807.53 1466.74 3807.27 1468.47 3807.72C1470.2 3808.16 1471.69 3809.28 1472.6 3810.82C1473.51 3812.37 1473.77 3814.21 1473.32 3815.94C1472.87 3817.68 1471.76 3819.16 1470.21 3820.07C1385.04 3870.19 1318.67 3981.46 1318.07 3982.65C1317.58 3983.45 1316.93 3984.15 1316.16 3984.68C1315.39 3985.22 1314.52 3985.6 1313.6 3985.79L1312.55 3985.93Z" fill="#0D0D2B"/>
<path d="M1393.85 4327.05C1392.64 4327.06 1391.46 4326.75 1390.42 4326.16C1388.77 4325.11 1217.69 4226.82 1094.04 4224.43C1092.41 4224.19 1090.93 4223.37 1089.85 4222.13C1088.78 4220.88 1088.19 4219.29 1088.19 4217.65C1088.19 4216 1088.78 4214.41 1089.85 4213.17C1090.93 4211.92 1092.41 4211.1 1094.04 4210.86C1211.87 4213.25 1365.36 4296.63 1392.35 4312.14C1471.71 4245.17 1534.8 4080.94 1535.4 4079.3C1535.68 4078.44 1536.13 4077.64 1536.73 4076.96C1537.33 4076.27 1538.06 4075.72 1538.88 4075.32C1539.7 4074.93 1540.59 4074.71 1541.5 4074.67C1542.41 4074.63 1543.32 4074.78 1544.17 4075.11C1545.02 4075.43 1545.79 4075.92 1546.45 4076.56C1547.1 4077.19 1547.62 4077.95 1547.97 4078.79C1548.32 4079.62 1548.5 4080.53 1548.49 4081.44C1548.48 4082.35 1548.29 4083.24 1547.92 4084.08C1545.24 4091.09 1481.1 4258.29 1397.28 4325.56C1396.29 4326.35 1395.1 4326.87 1393.85 4327.05Z" fill="#0D0D2B"/>
<path d="M1294.84 4679.66C1293.64 4679.65 1292.46 4679.34 1291.41 4678.77C1226.82 4641.77 1143.3 4479.94 1139.87 4473.08C1139.04 4471.5 1138.87 4469.65 1139.4 4467.94C1139.93 4466.24 1141.12 4464.81 1142.7 4463.98C1144.28 4463.15 1146.13 4462.98 1147.84 4463.51C1149.54 4464.04 1150.97 4465.23 1151.8 4466.81C1151.8 4468.45 1232.49 4623.43 1293.2 4664C1342.61 4606.3 1408.01 4564.52 1481.14 4543.93C1482.84 4543.42 1484.67 4543.6 1486.24 4544.44C1487.8 4545.28 1488.97 4546.7 1489.49 4548.4C1490.01 4550.12 1489.83 4551.98 1488.99 4553.57C1488.15 4555.16 1486.73 4556.36 1485.02 4556.9C1412.73 4576.91 1348.3 4618.55 1300.36 4676.23C1299.78 4677.2 1298.98 4678.03 1298.02 4678.62C1297.06 4679.22 1295.97 4679.58 1294.84 4679.66Z" fill="#0D0D2B"/>
<path d="M1282.73 5048.68C1282.73 5048.68 1228.88 4963.06 1168.18 4950.83C1107.47 4938.6 1081.22 4868.65 1058.84 4910.71C1036.47 4952.77 1098.22 5092.38 1282.73 5048.68Z" fill="#0D0D2B"/>
<path d="M1063.64 5384.73H1512.3L1542.28 5022.43H1033.66L1063.64 5384.73Z" fill="#BDC1C3"/>
<path d="M1023.06 5091.04H1552.71L1559.57 5014.22H1016.34L1023.06 5091.04Z" fill="#F9FAFD"/>
<path d="M4183.4 2288.38L4160.73 2292.7C4158.95 2292.83 4157.17 2292.43 4155.62 2291.55C4154.07 2290.67 4152.81 2289.35 4152 2287.76C4151.19 2286.17 4150.86 2284.38 4151.06 2282.61C4151.26 2280.83 4151.98 2279.16 4153.12 2277.79H4154.02C4147.61 2280.62 4141.19 2283.46 4134.48 2285.99C4133.93 2295.93 4133.93 2305.89 4134.48 2315.82L4280.8 3072.65L3735.78 3178.25C3735.94 3179.34 3735.94 3180.44 3735.78 3181.53C3735.56 3183.89 3734.41 3186.07 3732.6 3187.61C3730.79 3189.14 3728.45 3189.9 3726.09 3189.74C3717.29 3188.1 3708.34 3186.45 3699.39 3185.26L2977.77 3325.17C2977.64 3326.44 2977.23 3327.66 2976.57 3328.75C2973.85 3333.33 2970.81 3337.72 2967.47 3341.88C2967.9 3344.54 2967.59 3347.28 2966.58 3349.78C2961 3366.52 2953.75 3382.66 2944.95 3397.96C2942.1 3401.99 2937.84 3404.81 2933.02 3405.86C2929.88 3406.51 2926.62 3406.26 2923.62 3405.12C2920.2 3412.49 2917.7 3420.26 2916.16 3428.24L4072.43 3204.5L4073.47 3203.16C4080.21 3196.8 4088.2 3191.91 4096.93 3188.8C4105.66 3185.7 4114.95 3184.44 4124.19 3185.11C4130.77 3177.41 4138.58 3170.86 4147.31 3165.72C4151.24 3163.14 4155.76 3161.58 4160.45 3161.19C4165.14 3160.8 4169.85 3161.59 4174.16 3163.48C4179.88 3166.88 4184.26 3172.15 4186.54 3178.4C4197.92 3177.01 4209.37 3176.21 4220.84 3176.01L4384.91 3144.09L4224.57 2317.32C4208.69 2311.17 4194.56 2301.24 4183.4 2288.38Z" fill="#0D0D2B"/>
<path d="M2688.71 1206.84L2694.08 1207.88L2801.92 1187C2813.85 1181.78 2825.64 1176.26 2837.12 1171.34C2858.82 1161.08 2882.14 1154.67 2906.03 1152.4C2920.28 1151.74 2934.51 1153.87 2947.94 1158.66L3875.4 978.928L3961.47 1422.52C3962.47 1421.1 3963.86 1419.99 3965.47 1419.33C3967.08 1418.68 3968.84 1418.49 3970.55 1418.81C3972.26 1419.12 3973.85 1419.92 3975.12 1421.11C3976.39 1422.29 3977.3 1423.82 3977.73 1425.5C3982.73 1445.01 3985.43 1465.03 3985.78 1485.17C3985.31 1494.84 3983.09 1504.34 3979.22 1513.21L4125.54 2268.39C4134.34 2265.11 4142.99 2261.53 4151.64 2257.65C4152.5 2252.45 4154.42 2247.48 4157.26 2243.04C4160.11 2238.61 4163.83 2234.8 4168.2 2231.85C4174.45 2228.89 4181.57 2228.36 4188.19 2230.36C4191.63 2222.53 4194.14 2214.32 4195.64 2205.9C4197.74 2195.64 4198.69 2185.19 4198.48 2174.72L4192.66 2144.14C4192.66 2142.5 4191.32 2141.01 4190.57 2139.52C4189.96 2138.37 4189.64 2137.09 4189.64 2135.79C4189.64 2134.49 4189.96 2133.21 4190.57 2132.06L4036.64 1338.25C4035.75 1338.39 4034.85 1338.39 4033.96 1338.25C4028.57 1338.82 4023.12 1337.92 4018.21 1335.63C4013.3 1333.35 4009.1 1329.76 4006.07 1325.27C4001.82 1316.57 4000.51 1306.73 4002.34 1297.23C4003.83 1286.04 4006.66 1275.01 4008.9 1263.97C4011.3 1254.22 4012.01 1244.13 4010.99 1234.14C4010.63 1232.45 4010.81 1230.69 4011.5 1229.11C4012.2 1227.53 4013.38 1226.21 4014.87 1225.34L3946.55 873.176L2609.06 1133.6C2584.22 1148.05 2555.9 1155.43 2527.17 1154.93C2525.81 1154.85 2524.5 1154.42 2523.35 1153.69C2522.21 1152.96 2521.26 1151.95 2520.61 1150.76L1857.01 1279.48C1856.62 1281.21 1855.76 1282.79 1854.52 1284.05C1853.28 1285.32 1851.72 1286.21 1850 1286.64L1815.1 1293.35C1814.96 1298.65 1813.36 1303.82 1810.47 1308.27C1810.23 1310.35 1809.22 1312.27 1807.64 1313.64C1805.35 1315.51 1803.16 1317.5 1801.07 1319.6C1797.05 1323.33 1793.17 1327.36 1788.99 1330.94C1787.57 1332.3 1785.83 1333.28 1783.92 1333.77C1782.37 1334.04 1780.77 1333.91 1779.28 1333.39C1777.79 1332.87 1776.47 1331.97 1775.42 1330.79C1773.88 1328.96 1773.08 1326.62 1773.18 1324.23C1773.1 1323.38 1773.1 1322.53 1773.18 1321.69C1767.81 1321.69 1762.44 1321.69 1757.22 1320.35C1754.88 1320.09 1752.72 1318.93 1751.19 1317.13C1749.67 1315.33 1748.89 1313.01 1749.02 1310.65C1749.21 1308.3 1750.32 1306.13 1752.11 1304.59C1753.89 1303.05 1756.21 1302.29 1758.57 1302.45C1764.2 1303.27 1769.88 1303.72 1775.57 1303.79H1780.04C1780.69 1303.87 1781.34 1303.87 1781.98 1303.79C1777.6 1303.17 1773.58 1301 1770.65 1297.68C1770.6 1297.28 1770.6 1296.88 1770.65 1296.48L1386.42 1371.06C1388.19 1371.08 1389.94 1371.55 1391.49 1372.4C1393.41 1373.76 1394.73 1375.81 1395.17 1378.11C1395.62 1380.42 1395.15 1382.81 1393.88 1384.78C1390.8 1388.87 1387.36 1392.67 1383.58 1396.12L1382.54 1397.31C1382.54 1396.57 1383.43 1397.31 1382.54 1397.31C1381.9 1398.07 1381.3 1398.87 1380.75 1399.7C1380.75 1399.7 1380.75 1400.89 1380.75 1401.34C1380.68 1401.84 1380.68 1402.34 1380.75 1402.83C1380.68 1403.13 1380.68 1403.43 1380.75 1403.73C1380.56 1405.26 1379.98 1406.72 1379.07 1407.98C1378.17 1409.23 1376.96 1410.24 1375.57 1410.91C1374.17 1411.57 1372.63 1411.88 1371.09 1411.8C1369.55 1411.72 1368.05 1411.25 1366.73 1410.44C1365.94 1410.01 1365.08 1409.71 1364.19 1409.55C1363.27 1409.18 1362.32 1408.88 1361.36 1408.65C1361.39 1412.85 1360.25 1416.98 1358.08 1420.58C1357.23 1421.82 1356.06 1422.81 1354.69 1423.44C1353.33 1424.07 1351.82 1424.32 1350.32 1424.16C1348.82 1432.56 1346.01 1440.66 1341.97 1448.18C1337.47 1455.85 1331.36 1462.47 1324.07 1467.57C1325.51 1469.5 1326.71 1471.61 1327.65 1473.83L1898.92 1363.16V1362.26C1901.34 1358.21 1904.48 1354.62 1908.17 1351.67C1910.62 1349.86 1913.45 1348.63 1916.45 1348.08C1919.46 1347.54 1922.54 1347.7 1925.47 1348.54C1930.16 1349.99 1934.55 1352.26 1938.45 1355.25L2678.12 1211.91C2678.98 1209.93 2680.52 1208.33 2682.47 1207.4C2684.41 1206.46 2686.63 1206.27 2688.71 1206.84Z" fill="#0D0D2B"/>
<path d="M1693.99 3574.41L1559.75 2883.07C1558.57 2884.41 1557.01 2885.37 1555.29 2885.82C1553.56 2886.27 1551.74 2886.2 1550.05 2885.6C1547.82 2884.82 1545.99 2883.2 1544.96 2881.07C1543.92 2878.95 1543.77 2876.5 1544.53 2874.27C1546.76 2867.7 1550.15 2861.59 1554.53 2856.22L1378.67 1947.7L1377.03 1944.87C1373.45 1937.49 1370.89 1929.66 1369.42 1921.6C1366.34 1921.37 1363.25 1921.37 1360.17 1921.6C1358.82 1921.83 1357.44 1921.75 1356.12 1921.36C1354.8 1920.98 1353.59 1920.3 1352.57 1919.39C1351.55 1918.47 1350.76 1917.33 1350.24 1916.06C1349.72 1914.79 1349.5 1913.42 1349.58 1912.05C1349.41 1894.85 1353.84 1877.9 1362.41 1862.98L1291.11 1495.46C1289.92 1493.5 1288.88 1491.45 1287.98 1489.34L1284.4 1482.63C1282.94 1482.59 1281.51 1482.16 1280.27 1481.37C1279.04 1480.58 1278.04 1479.47 1277.39 1478.16C1276.36 1476.04 1276.2 1473.6 1276.95 1471.36C1277.71 1469.13 1279.31 1467.28 1281.42 1466.22C1285.15 1464.78 1288.54 1462.6 1291.41 1459.81C1293.44 1457.49 1295.1 1454.88 1296.33 1452.05C1298.68 1445.75 1299.94 1439.09 1300.06 1432.36C1297.82 1429.33 1296.2 1425.88 1295.29 1422.22C1294.61 1417.21 1295.07 1412.11 1296.63 1407.31C1296.95 1406.05 1297.62 1404.91 1298.57 1404.02C1298.57 1398.36 1297.68 1392.69 1297.38 1387.02L1183.27 1409.1L1508.88 3088.9C1510.51 3088.03 1512.4 3087.79 1514.19 3088.24C1515.98 3088.68 1517.54 3089.76 1518.58 3091.29C1527.01 3100.42 1531.65 3112.42 1531.56 3124.85C1531.11 3127.3 1530.41 3129.7 1529.47 3132.01C1530.97 3133.1 1532.08 3134.65 1532.62 3136.43C1533.16 3138.21 1533.1 3140.11 1532.45 3141.85C1528.09 3150.41 1526.67 3160.16 1528.42 3169.6C1530.3 3178.48 1532.84 3187.2 1536.03 3195.7C1541.66 3209.97 1542.39 3225.71 1538.12 3240.45L1623.14 3679.42L1647.3 3674.64C1660.89 3670.16 1674.73 3666.53 1688.77 3663.76C1688.56 3662.72 1688.57 3661.66 1688.8 3660.63C1689.03 3659.6 1689.48 3658.63 1690.11 3657.79C1693.65 3653.69 1697.44 3649.81 1701.45 3646.16C1701.07 3644.64 1701.07 3643.05 1701.45 3641.53C1703.95 3631.21 1709.76 3621.99 1718 3615.28C1725.48 3609.77 1734.7 3607.17 1743.96 3607.97C1752.87 3609.09 1761.43 3612.18 1769.01 3617C1776.59 3621.82 1783.01 3628.26 1787.81 3635.86C1812.27 3629.9 1838.67 3620.95 1862.39 3633.03L2789.55 3454.04C2789.83 3451.61 2790.33 3449.22 2791.04 3446.88C2794.83 3434.8 2801.9 3424 2811.47 3415.71C2812.9 3414.48 2814.69 3413.75 2816.57 3413.61C2818.45 3413.48 2820.32 3413.95 2821.91 3414.96C2822.63 3413.79 2823.64 3412.82 2824.84 3412.15C2826.05 3411.48 2827.4 3411.13 2828.78 3411.13C2830.15 3411.13 2831.5 3411.48 2832.71 3412.15C2833.91 3412.82 2834.92 3413.79 2835.64 3414.96L2839.37 3419.44L2841.01 3420.93L2843.84 3422.87L2846.97 3424.36C2844.14 3415.74 2844.14 3406.43 2846.97 3397.81C2848.72 3392.96 2851.45 3388.52 2854.99 3384.77C2858.53 3381.02 2862.81 3378.05 2867.56 3376.03C2866.67 3374.84 2866.11 3373.44 2865.91 3371.97C2865.71 3370.5 2865.89 3369 2866.42 3367.62C2866.96 3366.23 2867.83 3365.01 2868.97 3364.05C2870.11 3363.1 2871.47 3362.45 2872.93 3362.16C2874.87 3361.92 2876.84 3362.31 2878.54 3363.28C2880.24 3364.25 2881.58 3365.74 2882.37 3367.53C2883.16 3369.32 2883.35 3371.32 2882.91 3373.23C2882.47 3375.14 2881.43 3376.85 2879.94 3378.12L2880.98 3379.31C2882.02 3381.43 2882.17 3383.87 2881.42 3386.11C2880.67 3388.34 2879.06 3390.19 2876.95 3391.25L2873.52 3392.89L2871.58 3393.93L2870.54 3394.68L2868.15 3396.76L2867.26 3397.81L2865.77 3400.05V3400.94C2865.43 3401.72 2865.13 3402.52 2864.87 3403.33C2867.84 3399.42 2871.3 3395.91 2875.16 3392.89C2877.75 3391.09 2880.56 3389.64 2883.52 3388.56C2890.82 3372.45 2897.69 3356.04 2904.55 3339.94L1693.99 3574.41Z" fill="#0D0D2B"/>
<path d="M1914.43 2878.73C1916.02 2876.99 1917.88 2875.53 1919.95 2874.4L2189.32 2342.21L2065.52 2366.22L1956.94 2578.77C1957.62 2578.93 1958.27 2579.18 1958.88 2579.52C1960.8 2580.87 1962.12 2582.92 1962.56 2585.23C1963.01 2587.54 1962.54 2589.93 1961.26 2591.9C1958.73 2595.63 1956.79 2599.65 1954.55 2603.53C1956.49 2604.73 1958.28 2606.22 1960.22 2607.26C1961.69 2608.26 1962.83 2609.67 1963.49 2611.32C1964.16 2612.96 1964.31 2614.77 1963.95 2616.51C1963.58 2618.23 1962.73 2619.81 1961.48 2621.05C1960.24 2622.3 1958.66 2623.15 1956.94 2623.52L1953.95 2625.16H1953.21H1952.31L1946.5 2627.84H1945.15L1943.07 2629.49L1938.44 2633.51L1936.06 2636.05L1935.01 2637.24L1930.84 2642.61C1927.85 2646.64 1925.17 2650.82 1922.33 2654.99C1920.95 2656.94 1918.86 2658.28 1916.52 2658.72L1757.66 2969.86L1772.58 3050.11L1843.13 3036.39C1845.39 3029.7 1849.17 3023.62 1854.17 3018.64C1856.53 3016.42 1859.13 3014.47 1861.93 3012.82C1861.85 3012.27 1861.85 3011.72 1861.93 3011.18C1865.27 2975.06 1877.02 2940.22 1896.23 2909.45C1895.27 2907.96 1894.76 2906.23 1894.76 2904.46C1894.76 2902.69 1895.27 2900.95 1896.23 2899.46C1898.66 2895.22 1899.61 2890.28 1898.92 2885.44C1898.93 2883.65 1899.47 2881.9 1900.46 2880.41C1901.45 2878.92 1902.85 2877.75 1904.49 2877.04C1906.13 2876.33 1907.95 2876.11 1909.71 2876.41C1911.47 2876.71 1913.11 2877.52 1914.43 2878.73Z" fill="#0D0D2B"/>
<path d="M2378.44 2831.45C2378.29 2833.68 2377.68 2835.86 2376.65 2837.86C2372.23 2846.52 2365.04 2853.45 2356.22 2857.55C2354.43 2860.23 2352.49 2862.77 2350.85 2865.3C2349.88 2866.66 2348.53 2867.7 2346.97 2868.29C2346.97 2869.63 2345.93 2871.12 2345.63 2872.46C2345.28 2873.62 2344.7 2874.7 2343.92 2875.62C2343.14 2876.55 2342.18 2877.31 2341.1 2877.86C2340.02 2878.4 2338.84 2878.73 2337.64 2878.8C2336.43 2878.88 2335.22 2878.71 2334.08 2878.31C2332.94 2877.9 2331.89 2877.27 2331 2876.45C2330.11 2875.63 2329.39 2874.64 2328.9 2873.54C2328.4 2872.43 2328.14 2871.24 2328.12 2870.03C2328.09 2868.82 2328.32 2867.62 2328.77 2866.5C2330.24 2861.38 2332.14 2856.39 2334.44 2851.58L2325.94 2853.22C2323.63 2853.62 2321.26 2853.12 2319.31 2851.81C2317.37 2850.51 2316 2848.5 2315.5 2846.21C2315.27 2845.53 2315.27 2844.8 2315.5 2844.12L2310.28 2845.17L2276.57 2669.91L2168.88 2690.79L2202.59 2865.01L1936.04 2916.61C1934.25 2917.51 1932.61 2918.85 1930.82 2919.9V2921.09C1931.48 2923.02 1931.46 2925.11 1930.77 2927.02C1930.08 2928.94 1928.75 2930.56 1927.01 2931.62C1925.28 2932.68 1923.23 2933.12 1921.21 2932.85C1919.19 2932.59 1917.32 2931.65 1915.91 2930.19C1910.94 2934.46 1906.39 2939.21 1902.33 2944.36C1903.89 2943.91 1905.54 2943.92 1907.1 2944.37C1908.65 2944.81 1910.05 2945.69 1911.13 2946.89C1911.96 2947.71 1912.62 2948.69 1913.07 2949.76C1913.52 2950.84 1913.75 2951.99 1913.75 2953.16C1913.75 2954.32 1913.52 2955.48 1913.07 2956.55C1912.62 2957.63 1911.96 2958.6 1911.13 2959.42L1903.97 2965.39C1904.88 2966.9 1905.36 2968.62 1905.36 2970.39C1905.36 2972.15 1904.88 2973.87 1903.97 2975.38V2976.43C1903.9 2976.97 1903.9 2977.52 1903.97 2978.07C1903.97 2980.15 1903.97 2982.39 1903.97 2984.63C1903.66 2988.64 1901.91 2992.4 1899.05 2995.22C1895.8 2998.02 1891.82 2999.83 1887.57 3000.44H1886.52C1886.94 3004.9 1887.59 3009.33 1888.46 3013.72C1890.49 3017.76 1892.09 3022.01 1893.24 3026.39L2219.74 2963.15L2256.43 3162.13L2367.7 3140.65L2329.52 2943.46L2481.81 2913.63L2462.72 2815.19L2378.44 2831.45Z" fill="#0D0D2B"/>
<path d="M3024.92 2294.48L3017.76 2300.74C3014.33 2303.73 3011.05 2306.71 3007.92 2309.84L3003.89 2314.32L3001.65 2317C2999.09 2320.72 2995.27 2323.38 2990.9 2324.49C2986.52 2325.61 2981.89 2325.1 2977.87 2323.06C2973.84 2321.02 2970.69 2317.58 2969 2313.4C2967.32 2309.21 2967.2 2304.56 2968.69 2300.29L2972.86 2284.48C2972.86 2284.48 2971.67 2283.29 2971.22 2282.4C2970.01 2280.15 2969.4 2277.64 2969.43 2275.09C2969.14 2272.66 2969.45 2270.2 2970.33 2267.93C2970.33 2266.14 2971.67 2264.35 2972.42 2262.56C2969.15 2259.4 2966.43 2255.72 2964.36 2251.67V2250.48C2901.45 2217.39 2828.91 2207.46 2759.42 2222.43C2571.48 2258.83 2461.11 2434.98 2511.22 2696.16C2561.34 2957.33 2730.48 3079.34 2918.42 3042.95C2935.31 3039.73 2951.92 3035.19 2968.09 3029.37C2973.31 3021.92 2978.53 3014.46 2983.01 3007.15C2984.78 3004.59 2987.16 3002.52 2989.94 3001.13C2992.73 2999.74 2995.81 2999.08 2998.92 2999.2C3002.03 2999.31 3005.06 3000.22 3007.72 3001.81C3010.39 3003.41 3012.61 3005.66 3014.18 3008.34C3140.52 2937.94 3206.15 2781.77 3164.98 2569.37C3141.56 2446.17 3091.15 2353.69 3024.92 2294.48ZM2898.73 2941.07C2772.69 2965.54 2665.6 2879.32 2625.77 2674.08C2585.95 2468.84 2653.07 2348.92 2779.11 2324.61C2812.23 2317.45 2846.66 2319.43 2878.74 2330.33C2910.82 2341.23 2939.33 2360.65 2961.23 2386.51C2963.35 2385 2965.72 2383.89 2968.24 2383.23C2973.12 2382.35 2978.15 2383.42 2982.25 2386.21C2986.35 2389 2989.19 2393.28 2990.17 2398.14C2991.75 2407.61 2992 2417.25 2990.91 2426.78C3020.52 2477.43 3040.73 2533.02 3050.57 2590.85C3090.7 2796.84 3023.58 2916.91 2898.73 2941.07Z" fill="#0D0D2B"/>
<path d="M3841.53 2547.9L3807.82 2373.68L3699.98 2394.56L3733.84 2568.78L3425.53 2628.44L3720.41 2045.83L3596.61 2069.7L3485.79 2286.87C3484.75 2313.99 3479.25 2340.74 3469.53 2366.07C3468.85 2367.75 3467.68 2369.18 3466.18 2370.19C3464.68 2371.2 3462.91 2371.74 3461.1 2371.74C3459.29 2371.74 3457.53 2371.2 3456.03 2370.19C3454.52 2369.18 3453.36 2367.75 3452.68 2366.07C3449.7 2389.19 3438.85 2410.58 3421.95 2426.63C3420.85 2427.66 3419.48 2428.36 3418.01 2428.65C3416.53 2428.94 3415 2428.81 3413.6 2428.27L3288.16 2674.08L3303.07 2754.33L3488.62 2718.38C3504.45 2705.8 3523.16 2697.34 3543.07 2693.77C3560.55 2689.73 3578.38 2687.38 3596.32 2686.76C3609.76 2685.74 3623.29 2686.74 3636.44 2689.75L3748.9 2667.97L3787.09 2865.01L3898.21 2843.53L3860.02 2646.49L4012.46 2616.66L3993.37 2518.21L3841.53 2547.9Z" fill="#0D0D2B"/>
<path d="M1791.39 2070.46L1773.78 1979.77L1955.76 1944.57L1942.03 1874.02L1760.06 1909.22L1743.66 1824.05L1949.64 1784.22L1934.73 1711.44L1638.65 1768.86L1664.01 1899.52C1668.52 1901.83 1672.53 1905.03 1675.79 1908.92C1681.41 1916.02 1684.79 1924.64 1685.48 1933.68C1687.42 1952.32 1682.8 1971.57 1685.48 1989.61C1685.85 1991.12 1685.76 1992.71 1685.23 1994.16C1684.7 1995.62 1683.75 1996.89 1682.5 1997.82L1715.32 2160.7L2018.7 2101.93L2004.68 2028.54L1791.39 2070.46Z" fill="#0D0D2B"/>
<path d="M2325.65 1911.75C2347.66 1897.8 2364.92 1877.5 2375.18 1853.54C2385.43 1829.58 2388.18 1803.07 2383.07 1777.51C2381.57 1779.08 2379.56 1780.09 2377.4 1780.35C2375.66 1780.46 2373.92 1780.06 2372.4 1779.18C2370.89 1778.31 2369.67 1777 2368.9 1775.42C2366.87 1770.67 2365.51 1765.65 2364.88 1760.51C2364.88 1759.76 2364.88 1759.17 2364.88 1758.42C2362.12 1754.9 2360.14 1750.83 2359.06 1746.49C2358.7 1744.16 2359.24 1741.79 2360.57 1739.85C2361.9 1737.91 2363.92 1736.55 2366.22 1736.05C2367.13 1735.81 2368.07 1735.77 2369 1735.93C2369.92 1736.08 2370.8 1736.43 2371.59 1736.94C2343.1 1673.25 2274.49 1644.91 2184.69 1662.36L2015.1 1695.18L2038.07 1813.46C2039.88 1814.23 2041.33 1815.67 2042.1 1817.49C2056.53 1846.8 2065.53 1878.49 2068.65 1911.01C2069.01 1913.33 2068.47 1915.71 2067.14 1917.65C2065.81 1919.59 2063.79 1920.95 2061.49 1921.45C2060.65 1921.59 2059.79 1921.59 2058.95 1921.45L2091.02 2088.21L2181.71 2070.61L2160.53 1961.57L2243.91 1945.31L2340.56 2039.88L2437.96 2020.94L2325.65 1911.75ZM2220.34 1874.61L2145.76 1889.53L2119.21 1753.05L2193.79 1738.13C2249.13 1727.4 2282.09 1747.08 2290.45 1790.19C2298.8 1833.3 2275.83 1864.47 2220.34 1874.61Z" fill="#0D0D2B"/>
<path d="M2737.22 1831.95C2759.97 1817.5 2777.64 1796.32 2787.78 1771.34C2797.91 1746.37 2800 1718.86 2793.75 1692.64C2776.74 1604.79 2700.82 1563.17 2596.12 1583.46L2426.52 1616.42L2502.44 2008.11L2593.13 1990.66L2571.95 1881.47L2655.33 1865.21L2752.13 1959.78L2849.53 1940.84L2737.22 1831.95ZM2631.91 1794.96L2557.33 1809.88L2530.93 1673.25L2604.77 1658.33C2609.39 1657.44 2613.87 1656.84 2618.04 1656.39L2620.88 1654.01C2621.14 1651.77 2621.64 1649.57 2622.37 1647.44C2623.34 1644.86 2625.1 1642.64 2627.4 1641.12C2629.71 1639.59 2632.43 1638.83 2635.19 1638.94C2640.49 1639.47 2645.59 1641.2 2650.11 1644.01C2650.89 1643.08 2651.85 1642.31 2652.94 1641.78C2653.01 1638.91 2653.36 1636.07 2653.99 1633.27C2654.86 1631.14 2656.51 1629.43 2658.61 1628.48C2660.71 1627.54 2663.09 1627.44 2665.26 1628.21C2667.43 1628.98 2669.22 1630.56 2670.26 1632.61C2671.3 1634.66 2671.51 1637.04 2670.84 1639.24C2669.05 1646.1 2672.33 1652.22 2671.74 1659.23C2671.53 1660.9 2671.03 1662.51 2670.25 1664C2678.63 1668.87 2685.79 1675.6 2691.17 1683.66C2696.55 1691.73 2700 1700.92 2701.27 1710.54C2710.22 1753.05 2687.25 1784.22 2631.91 1794.96Z" fill="#0D0D2B"/>
<path d="M3166.3 1507.83L3161.67 1509.03C3160.57 1509.4 3159.52 1509.9 3158.54 1510.52C3158.08 1510.78 3157.67 1511.14 3157.35 1511.56C3156.02 1513.14 3154.26 1514.28 3152.28 1514.84C3151.11 1515.05 3149.92 1515.02 3148.77 1514.77C3147.62 1514.51 3146.53 1514.03 3145.56 1513.35C3144.56 1512.74 3143.71 1511.92 3143.06 1510.94C3142.42 1509.96 3142 1508.85 3141.83 1507.68C3141.38 1505.36 3141.86 1502.94 3143.18 1500.97C3143.18 1500.97 3144.07 1500.23 3144.37 1499.78C3106.18 1487.6 3065.52 1485.4 3026.24 1493.36C2902.44 1517.38 2828.6 1621.19 2851.13 1737.53C2873.65 1853.88 2981.04 1922.64 3104.69 1898.62C3228.35 1874.61 3302.48 1771.39 3279.81 1654.45C3274.23 1622.63 3260.98 1592.64 3241.2 1567.09C3221.43 1541.54 3195.71 1521.2 3166.3 1507.83ZM3089.93 1821.06C3056.68 1827.51 3022.23 1820.49 2994.16 1801.54C2966.09 1782.58 2946.7 1753.26 2940.25 1720.01C2933.8 1686.76 2940.83 1652.31 2959.78 1624.24C2978.73 1596.17 3008.05 1576.78 3041.3 1570.33C3058.05 1567.05 3075.27 1567.05 3092.02 1570.33C3092.02 1568.24 3093.36 1566.15 3094.1 1564.36C3094.85 1562.34 3096.3 1560.65 3098.19 1559.6C3100.08 1558.56 3102.29 1558.24 3104.4 1558.7C3106.05 1558.99 3107.58 1559.79 3108.76 1561C3109.93 1562.2 3110.7 1563.74 3110.96 1565.41L3116.18 1564.07C3117.37 1560.34 3118.57 1556.76 3119.61 1553.03C3120.65 1549.3 3120.8 1548.7 3121.25 1546.61C3121.57 1545.59 3121.82 1544.54 3122 1543.48V1542.44L3122.89 1537.07V1535.13C3122 1529.16 3128.26 1522 3134.68 1525.14L3152.43 1533.64C3154.61 1534.51 3156.39 1536.18 3157.39 1538.31C3158.39 1540.45 3158.53 1542.88 3157.79 1545.12C3156.75 1547.35 3155.85 1549.64 3155.11 1551.98C3155.11 1552.73 3155.11 1553.62 3154.36 1554.37C3154.36 1554.37 3154.36 1554.37 3154.36 1555.41C3154.07 1558.99 3154.07 1562.58 3154.36 1566.15C3154.69 1574.63 3154.19 1583.13 3152.87 1591.51C3153.29 1592.48 3153.5 1593.52 3153.5 1594.57C3153.5 1595.62 3153.29 1596.66 3152.87 1597.63C3152.56 1598.65 3152 1599.57 3151.23 1600.31C3170.73 1619.61 3183.81 1644.46 3188.67 1671.46C3192.75 1687.81 3193.38 1704.83 3190.54 1721.44C3187.7 1738.04 3181.44 1753.88 3172.15 1767.95C3162.87 1782.01 3150.77 1793.99 3136.62 1803.13C3122.46 1812.28 3106.56 1818.38 3089.93 1821.06Z" fill="#0D0D2B"/>
<path d="M3679.11 1532.59C3678.61 1532.53 3678.11 1532.53 3677.62 1532.59C3674.05 1531.34 3670.76 1529.41 3667.92 1526.93C3666.57 1529.24 3665.02 1531.44 3663.3 1533.49C3661.92 1535.38 3659.87 1536.68 3657.58 1537.12C3655.28 1537.56 3652.9 1537.12 3650.92 1535.88C3648.97 1534.54 3647.62 1532.5 3647.17 1530.18C3646.73 1527.86 3647.21 1525.46 3648.53 1523.5C3657.34 1511.49 3662.89 1497.41 3664.64 1482.63C3634.81 1422.07 3567.54 1395.67 3479.98 1412.67L3310.39 1445.49L3385.86 1836.87L3476.55 1819.27L3455.37 1710.09L3538.75 1693.98L3635.55 1788.4L3732.95 1769.61L3620.64 1660.72C3641.79 1647.37 3658.59 1628.13 3668.98 1605.37C3679.36 1582.62 3682.88 1557.32 3679.11 1532.59ZM3515.78 1623.58L3441.2 1638.5L3415.7 1501.27L3490.27 1486.36C3545.76 1475.62 3578.58 1495.45 3586.93 1538.56C3595.28 1581.67 3571.12 1612.84 3515.78 1623.58Z" fill="#0D0D2B"/>
<path d="M2890.21 3902.84H3527.71C3545.04 3902.84 3562.19 3906.26 3578.2 3912.89C3594.21 3919.53 3608.75 3929.26 3621 3941.52C3633.24 3953.78 3642.95 3968.33 3649.57 3984.34C3656.19 4000.36 3659.58 4017.52 3659.56 4034.85V4258.58C3659.58 4275.91 3656.19 4293.07 3649.57 4309.09C3642.95 4325.1 3633.24 4339.66 3621 4351.92C3608.75 4364.18 3594.21 4373.9 3578.2 4380.54C3562.19 4387.17 3545.04 4390.59 3527.71 4390.59H3104.1L2910.2 4597.92L3014.61 4390.59H2889.61C2854.6 4390.59 2821.03 4376.68 2796.27 4351.92C2771.52 4327.17 2757.61 4293.59 2757.61 4258.58V4034.85C2757.61 4017.46 2761.04 4000.25 2767.71 3984.19C2774.39 3968.14 2784.16 3953.56 2796.48 3941.3C2808.8 3929.03 2823.43 3919.32 2839.51 3912.72C2855.6 3906.12 2872.82 3902.77 2890.21 3902.84Z" fill="#0D0D2B"/>
<path d="M2921.37 4134.34C2920.8 4119.28 2924.75 4104.4 2932.7 4091.6C2940.65 4078.8 2952.25 4068.67 2966 4062.5C2979.75 4056.34 2995.03 4054.42 3009.87 4057C3024.72 4059.57 3038.46 4066.53 3049.32 4076.97C3060.19 4087.41 3067.69 4100.86 3070.86 4115.59C3074.04 4130.32 3072.73 4145.66 3067.13 4159.65C3061.52 4173.63 3051.86 4185.63 3039.39 4194.09C3026.92 4202.55 3012.21 4207.09 2997.14 4207.13C2987.31 4207.62 2977.49 4206.09 2968.27 4202.64C2959.05 4199.2 2950.64 4193.9 2943.54 4187.09C2936.45 4180.27 2930.82 4172.07 2927 4163C2923.19 4153.93 2921.27 4144.18 2921.37 4134.34ZM3052.18 4134.34C3052.29 4123.36 3049.14 4112.59 3043.12 4103.4C3037.1 4094.22 3028.48 4087.03 3018.36 4082.76C3008.25 4078.49 2997.09 4077.33 2986.3 4079.42C2975.52 4081.51 2965.61 4086.76 2957.82 4094.51C2950.03 4102.25 2944.73 4112.14 2942.58 4122.91C2940.43 4133.68 2941.53 4144.85 2945.75 4154.99C2949.96 4165.13 2957.1 4173.78 2966.25 4179.86C2975.4 4185.93 2986.16 4189.14 2997.14 4189.08C3004.4 4189.31 3011.63 4188.05 3018.39 4185.38C3025.15 4182.71 3031.3 4178.69 3036.45 4173.57C3041.6 4168.44 3045.66 4162.32 3048.36 4155.58C3051.06 4148.83 3052.36 4141.6 3052.18 4134.34Z" fill="white"/>
<path d="M3090.81 4151.64C3090.51 4140.5 3093.54 4129.53 3099.51 4120.12C3105.47 4110.71 3114.11 4103.29 3124.31 4098.8C3134.51 4094.32 3145.81 4092.98 3156.78 4094.95C3167.75 4096.92 3177.88 4102.11 3185.88 4109.86C3193.89 4117.61 3199.4 4127.57 3201.72 4138.46C3204.05 4149.36 3203.07 4160.7 3198.92 4171.04C3194.77 4181.38 3187.63 4190.25 3178.42 4196.52C3169.2 4202.79 3158.33 4206.17 3147.19 4206.23C3139.84 4206.6 3132.49 4205.45 3125.6 4202.86C3118.71 4200.28 3112.43 4196.3 3107.14 4191.18C3101.86 4186.06 3097.68 4179.91 3094.87 4173.11C3092.06 4166.3 3090.68 4159 3090.81 4151.64ZM3183.14 4151.64C3183.46 4146.67 3182.75 4141.7 3181.07 4137.01C3179.39 4132.33 3176.77 4128.04 3173.36 4124.41C3169.96 4120.78 3165.85 4117.89 3161.28 4115.91C3156.72 4113.94 3151.79 4112.92 3146.82 4112.92C3141.84 4112.92 3136.92 4113.94 3132.35 4115.91C3127.79 4117.89 3123.68 4120.78 3120.27 4124.41C3116.87 4128.04 3114.24 4132.33 3112.56 4137.01C3110.88 4141.7 3110.18 4146.67 3110.5 4151.64C3110.18 4156.6 3110.88 4161.58 3112.56 4166.27C3114.24 4170.95 3116.87 4175.24 3120.27 4178.87C3123.68 4182.49 3127.79 4185.39 3132.35 4187.36C3136.92 4189.34 3141.84 4190.36 3146.82 4190.36C3151.79 4190.36 3156.72 4189.34 3161.28 4187.36C3165.85 4185.39 3169.96 4182.49 3173.36 4178.87C3176.77 4175.24 3179.39 4170.95 3181.07 4166.27C3182.75 4161.58 3183.46 4156.6 3183.14 4151.64Z" fill="white"/>
<path d="M3341.12 4151.64C3341.53 4158.93 3340.4 4166.22 3337.81 4173.05C3335.23 4179.87 3331.25 4186.09 3326.12 4191.28C3320.99 4196.48 3314.84 4200.55 3308.04 4203.22C3301.25 4205.9 3293.98 4207.13 3286.68 4206.82C3279.48 4207.05 3272.32 4205.57 3265.79 4202.51C3259.26 4199.45 3253.54 4194.9 3249.09 4189.22V4245.01H3229.55V4097.79H3248.2V4114.94C3252.67 4109.03 3258.5 4104.29 3265.21 4101.12C3271.91 4097.95 3279.28 4096.45 3286.68 4096.75C3293.95 4096.45 3301.2 4097.67 3307.97 4100.33C3314.74 4102.98 3320.88 4107.02 3326 4112.19C3331.13 4117.35 3335.12 4123.53 3337.72 4130.32C3340.32 4137.11 3341.48 4144.37 3341.12 4151.64ZM3321.44 4151.64C3321.09 4144.56 3318.67 4137.74 3314.49 4132.03C3310.3 4126.31 3304.54 4121.94 3297.9 4119.47C3291.26 4116.99 3284.04 4116.52 3277.14 4118.1C3270.23 4119.68 3263.94 4123.25 3259.05 4128.37C3254.15 4133.49 3250.86 4139.93 3249.58 4146.9C3248.31 4153.87 3249.1 4161.05 3251.87 4167.58C3254.63 4174.1 3259.25 4179.67 3265.14 4183.59C3271.04 4187.52 3277.96 4189.63 3285.04 4189.67C3290.02 4189.83 3294.97 4188.94 3299.58 4187.07C3304.2 4185.19 3308.37 4182.37 3311.82 4178.79C3315.28 4175.21 3317.95 4170.94 3319.65 4166.26C3321.36 4161.59 3322.07 4156.6 3321.73 4151.64H3321.44Z" fill="white"/>
<path d="M3354.85 4194.15L3362.91 4179.23C3374.23 4186.44 3387.37 4190.27 3400.79 4190.27C3418.84 4190.27 3426.3 4184.9 3426.3 4175.36C3426.3 4151.19 3358.28 4172.22 3358.28 4129.27C3358.28 4110.02 3375.58 4096.9 3403.03 4096.9C3416.74 4096.69 3430.27 4100.08 3442.26 4106.74L3433.9 4121.66C3424.62 4115.86 3413.83 4112.9 3402.88 4113.16C3385.73 4113.16 3377.37 4119.42 3377.37 4128.07C3377.37 4153.43 3445.69 4132.7 3445.69 4174.61C3445.69 4194 3427.79 4206.53 3399.15 4206.53C3383.47 4207.01 3368.01 4202.69 3354.85 4194.15Z" fill="white"/>
<path d="M3465.84 4193.7C3465.83 4191.96 3466.18 4190.23 3466.86 4188.63C3467.54 4187.03 3468.54 4185.57 3469.79 4184.36C3471.05 4183.15 3472.53 4182.21 3474.16 4181.58C3475.78 4180.96 3477.52 4180.66 3479.26 4180.72C3480.98 4180.68 3482.68 4180.99 3484.27 4181.63C3485.87 4182.27 3487.31 4183.22 3488.53 4184.43C3489.74 4185.65 3490.69 4187.09 3491.33 4188.69C3491.97 4190.28 3492.28 4191.99 3492.24 4193.7C3492.26 4195.42 3491.94 4197.12 3491.29 4198.71C3490.65 4200.3 3489.7 4201.75 3488.49 4202.97C3487.28 4204.19 3485.84 4205.16 3484.26 4205.83C3482.68 4206.49 3480.98 4206.83 3479.26 4206.83C3477.51 4206.87 3475.77 4206.56 3474.15 4205.92C3472.52 4205.27 3471.04 4204.31 3469.79 4203.09C3468.53 4201.87 3467.54 4200.41 3466.86 4198.79C3466.18 4197.18 3465.84 4195.45 3465.84 4193.7ZM3467.63 4063.34H3490.3L3486.42 4160.59H3471.5L3467.63 4063.34Z" fill="white"/>
<path d="M6607.65 1577.78C6607.65 1626.41 6341.7 1668.17 5960.76 1686.52L5930.18 1688.01L5889.01 1689.65C5831.88 1691.89 5772.52 1693.53 5711.37 1694.87H5683.92H5669.01C5622.02 1695.62 5573.99 1695.92 5525.22 1695.92C5436.92 1695.92 5351.15 1694.72 5268.97 1692.64L5209.3 1690.7C5059.4 1685.77 4923.37 1677.27 4808.82 1666.24C4584.04 1644.46 4442.19 1612.69 4442.19 1576.74C4442.19 1523.19 4764.37 1478.15 5207.51 1463.23L5242.27 1462.04C5273.19 1461.14 5304.56 1460.4 5336.38 1459.8C5374.72 1459.06 5413.8 1458.61 5453.32 1458.31H5525.37C5636.94 1458.31 5744.63 1460.1 5845.91 1463.68L5893.93 1465.32L5956.43 1468.01L5972.69 1468.9L6014.3 1470.99C6365.27 1491.57 6607.65 1531.4 6607.65 1577.78Z" fill="#263238"/>
<path opacity="0.4" d="M6607.65 1577.78C6607.65 1626.41 6341.7 1668.17 5960.76 1686.52L5930.18 1688.01L5889.01 1689.65C5831.88 1691.89 5772.52 1693.53 5711.37 1694.87H5683.92H5669.01C5622.02 1695.62 5573.99 1695.92 5525.22 1695.92C5436.92 1695.92 5351.15 1694.72 5268.97 1692.63L5209.3 1690.7C5059.4 1685.77 4923.37 1677.27 4808.82 1666.23C4584.04 1644.46 4442.19 1612.69 4442.19 1576.74C4442.19 1560.93 4470.38 1545.72 4521.54 1531.99C4616.03 1554.13 4712.07 1569.09 4808.82 1576.74C4923.37 1587.78 5059.4 1596.28 5209.3 1601.2L5268.97 1603.14C5351.15 1605.23 5436.92 1606.42 5525.22 1606.42C5573.99 1606.42 5622.02 1606.42 5669.01 1605.38H5683.92H5711.37C5772.52 1604.04 5831.88 1602.39 5889.01 1600.16L5930.18 1598.52L5960.76 1597.03C6217.75 1584.65 6422.25 1561.67 6528.3 1533.04C6578.71 1546.91 6607.65 1561.82 6607.65 1577.78Z" fill="white"/>
<path d="M5451.71 1459.35C5450.62 1477.12 5443.94 1494.09 5432.62 1507.83C5420.24 1522.74 5409.65 1534.08 5397.56 1546.46C5390.41 1553.77 5382.65 1561.38 5375.94 1567.94C5371.16 1572.86 5366.24 1577.49 5361.02 1581.96C5335.76 1605.29 5309.06 1627.01 5281.07 1646.99L5276.15 1650.42L5263.17 1659.07C5245.3 1671.02 5226.67 1681.79 5207.39 1691.29C5200.23 1694.87 5192.47 1698.3 5185.31 1701.58C5167.45 1709.1 5149.05 1715.29 5130.28 1720.08C5113.57 1724.55 5097.61 1728.43 5081.8 1731.71C5059.57 1736.64 5037.05 1741.11 5015.72 1745.14C4975 1753.04 4934.43 1760.05 4893.56 1766.02C4858.81 1771.24 4824.06 1776.16 4789.15 1780.94C4761.11 1784.37 4733.07 1787.35 4704.73 1789.74C4701.61 1790.11 4698.45 1790.11 4695.33 1789.74C4685.89 1788.45 4677.16 1783.98 4670.6 1777.06C4664.04 1770.15 4660.03 1761.2 4659.24 1751.7C4659.09 1749.81 4659.09 1747.92 4659.24 1746.03C4659.62 1737.78 4662.44 1729.83 4667.36 1723.19C4672.27 1716.55 4679.05 1711.52 4686.83 1708.74L4690.41 1707.55C4729.04 1693.68 4767.82 1680.55 4806.75 1667.87L4865.67 1648.78C4925.33 1629.39 4985 1611.19 5043.02 1591.95C5057.93 1587.18 5071.81 1582.26 5085.08 1577.04C5096.52 1573.25 5107.52 1568.25 5117.9 1562.12C5124.61 1558.24 5131.32 1553.92 5138.18 1549.29C5153.22 1539.19 5167.71 1528.28 5181.59 1516.63C5201.27 1500.37 5220.96 1482.47 5240.2 1463.83C5271.13 1462.93 5302.5 1462.19 5334.32 1461.59C5373.1 1460.1 5412.18 1459.65 5451.71 1459.35Z" fill="#FFBF9D"/>
<path d="M5453.48 1519.61C5452.44 1522.75 5451.25 1525.73 5450.05 1528.71C5448.86 1531.7 5447.52 1534.68 5446.02 1537.66C5444.71 1540.59 5443.22 1543.43 5441.55 1546.16L5436.63 1554.67V1555.41C5433.25 1560.68 5429.67 1565.65 5425.89 1570.33C5421.86 1575.55 5417.68 1580.62 5413.21 1585.24L5409.03 1589.87C5402.54 1596.81 5395.67 1603.38 5388.45 1609.56C5386.06 1611.79 5383.53 1613.88 5380.99 1615.82C5380.12 1616.7 5379.17 1617.5 5378.16 1618.21C5355.8 1636.05 5331.83 1651.78 5306.56 1665.19L5297.46 1669.82L5288.51 1674.29L5285.08 1675.78L5274.2 1666.24L5264.95 1657.88L5244.07 1639.39L5139.66 1547.36L5131.75 1540.35C5131.75 1540.35 5163.67 1504.7 5206.33 1463.08L5241.08 1461.89C5272.01 1461 5303.38 1460.25 5335.2 1459.65C5373.53 1458.91 5412.61 1458.46 5452.14 1458.16H5460.79C5462.93 1478.93 5460.44 1499.92 5453.48 1519.61Z" fill="#407BFF"/>
<path d="M5453.63 1519.61C5452.59 1522.71 5451.4 1525.74 5450.05 1528.71C5448.86 1531.7 5447.52 1534.68 5446.02 1537.66C5444.71 1540.59 5443.22 1543.43 5441.55 1546.16L5436.63 1554.67V1555.41C5433.25 1560.68 5429.67 1565.65 5425.89 1570.33C5421.86 1575.55 5417.68 1580.62 5413.21 1585.24L5409.03 1589.87C5402.54 1596.81 5395.67 1603.38 5388.45 1609.56C5386.06 1611.79 5383.53 1613.88 5380.99 1615.82C5380.12 1616.7 5379.17 1617.5 5378.16 1618.21C5355.8 1636.05 5331.83 1651.78 5306.56 1665.19L5297.46 1669.82L5288.51 1674.29L5285.08 1675.78L5274.2 1666.24L5264.95 1657.88L5244.07 1639.39L5139.66 1547.36L5131.75 1540.35C5131.75 1540.35 5163.67 1504.7 5206.33 1463.08L5241.08 1461.89C5272.01 1461 5303.38 1460.25 5335.2 1459.65C5373.53 1458.91 5412.61 1458.46 5452.14 1458.16H5460.94C5463.09 1478.93 5460.59 1499.92 5453.63 1519.61Z" fill="#BB0163"/>
<path opacity="0.3" d="M5377.1 1619.25C5348.38 1642.2 5316.98 1661.59 5283.58 1676.97L5242.56 1640.73C5264.1 1576.74 5302.92 1519.95 5354.73 1476.66C5373.37 1511.26 5379.34 1583.6 5377.1 1619.25Z" fill="black"/>
<path d="M4702.62 1708.3L4564.2 1687.12L4565.25 1809.73C4565.25 1809.73 4660.11 1838.21 4710.38 1773.78L4702.62 1708.3Z" fill="#FFBF9D"/>
<path d="M4469.8 1720.23L4492.62 1811.37L4565.11 1809.73L4564.06 1687.12L4469.8 1720.23Z" fill="#FFBF9D"/>
<path d="M5954.78 1468.75C5953.59 1471.89 5952.25 1475.02 5951.05 1478.3C5947.47 1487.4 5944.04 1496.65 5940.76 1505.89C5938.67 1511.56 5936.73 1517.23 5934.79 1523.05C5932.86 1528.86 5930.77 1534.68 5928.98 1540.5C5923.46 1557.8 5918.09 1575.25 5912.87 1593C5912.69 1593.96 5912.44 1594.91 5912.12 1595.84C5906.45 1615.52 5901.38 1635.66 5896.46 1655.5V1657.88C5893.93 1668.33 5891.24 1678.77 5888.85 1689.36C5887.66 1694.13 5886.62 1698.75 5885.57 1703.53C5881.54 1721.87 5877.67 1740.37 5874.09 1758.71C5872.74 1765.58 5871.4 1772.44 5870.21 1779.15C5869.02 1785.86 5867.38 1794.07 5866.18 1800.48C5866.18 1801.97 5866.18 1803.46 5865.44 1804.95C5864.69 1808.83 5863.94 1812.71 5863.35 1816.59C5861.41 1827.48 5859.62 1838.22 5857.83 1848.81C5857.83 1850.45 5857.83 1851.94 5857.08 1853.58L5855.29 1864.77C5851.71 1886.54 5848.58 1907.87 5845.75 1928.6C5845.68 1929.8 5845.68 1930.99 5845.75 1932.18C5842.62 1955.01 5839.93 1976.93 5837.54 1998.26C5836.5 2007.06 5835.46 2015.71 5834.56 2024.21C5833.22 2036.15 5832.02 2047.63 5830.98 2058.82C5830.09 2067.02 5829.34 2075.08 5828.59 2082.83C5827.85 2090.59 5827.25 2097.75 5826.66 2104.16C5826.06 2110.58 5825.46 2117.89 5824.87 2124.3C5823.37 2142.5 5822.18 2158.9 5821.14 2173.07C5821.14 2179.34 5820.39 2185.01 5819.94 2190.38C5818.75 2210.21 5818.15 2224.09 5817.85 2230.35C5817.85 2232.89 5817.85 2234.23 5817.85 2234.23L5553.4 2209.92H5549.52L5504.77 2205.74L5437.5 2199.47L5354.72 2192.61L5335.18 2190.82L5236.29 2181.72C5236.29 2172.33 5235.4 2163.23 5235.25 2153.98C5235.25 2151.45 5235.25 2148.91 5235.25 2146.37C5232.41 2064.93 5233.9 1990.21 5238.23 1922.64C5240.62 1887.24 5243.7 1853.58 5247.48 1821.66C5252.85 1775.72 5259.56 1733.51 5267.17 1694.58C5268.81 1685.78 5270.6 1677.13 5272.39 1668.77C5273.58 1662.96 5274.77 1657.44 5276.12 1651.92C5286.12 1607.15 5298.47 1562.94 5313.11 1519.47C5320.27 1498.58 5328.02 1479.64 5334.44 1462.49C5372.77 1461.74 5411.85 1461.3 5451.38 1461H5523.42C5634.99 1461 5742.68 1462.79 5843.96 1466.37L5891.99 1468.01L5954.78 1468.75Z" fill="#407BFF"/>
<path d="M5954.78 1468.75C5953.59 1471.89 5952.25 1475.02 5951.05 1478.3C5947.47 1487.4 5944.04 1496.65 5940.76 1505.89C5938.67 1511.56 5936.73 1517.23 5934.79 1523.05C5932.86 1528.86 5930.77 1534.68 5928.98 1540.5V1541.54C5923.46 1558.55 5918.39 1575.55 5913.32 1593C5913.14 1593.96 5912.89 1594.91 5912.57 1595.84C5905.41 1621.19 5898.7 1647 5892.43 1672.95C5891.09 1678.47 5889.9 1684.14 5888.7 1689.65C5887.51 1695.17 5886.47 1699.05 5885.42 1703.82C5881.4 1722.17 5877.52 1740.67 5873.94 1759.01C5872.45 1765.87 5871.1 1772.74 5869.91 1779.6C5868.57 1786.61 5867.23 1793.77 5866.03 1800.78C5866.03 1802.27 5866.03 1803.91 5865.14 1805.4C5864.39 1809.28 5863.65 1813.16 5863.05 1817.04C5861.11 1827.92 5859.32 1838.66 5857.53 1849.25C5857.53 1850.89 5857.53 1852.39 5856.78 1854.03L5855 1865.21C5851.56 1886.99 5848.28 1908.32 5845.45 1929.05C5845.38 1930.24 5845.38 1931.44 5845.45 1932.63C5842.32 1955.45 5839.63 1977.38 5837.25 1998.71C5836.2 2007.51 5835.16 2016.16 5834.26 2024.66C5832.92 2036.59 5831.73 2048.08 5830.68 2059.27C5829.79 2067.47 5829.04 2075.52 5828.3 2083.28C5827.55 2091.04 5826.95 2098.2 5826.36 2104.61C5825.76 2111.02 5825.16 2118.33 5824.57 2124.75C5823.08 2142.94 5821.88 2159.35 5820.84 2173.52C5820.84 2179.79 5820.09 2185.45 5819.64 2190.82C5818.45 2210.66 5817.85 2224.53 5817.56 2230.8C5817.56 2233.33 5817.56 2234.68 5817.56 2234.68L5553.1 2210.36H5549.22L5504.48 2206.19L5437.21 2199.92L5354.72 2192.61L5335.18 2190.82L5236.29 2181.72C5236.29 2172.33 5235.4 2163.23 5235.25 2153.98C5235.25 2151.45 5235.25 2148.91 5235.25 2146.37C5232.41 2064.93 5233.9 1990.21 5238.23 1922.64C5240.62 1887.24 5243.7 1853.58 5247.48 1821.66C5252.85 1775.72 5259.56 1733.51 5267.17 1694.58C5268.81 1685.78 5270.6 1677.13 5272.39 1668.77C5273.58 1662.96 5274.77 1657.44 5276.12 1651.92C5286.12 1607.15 5298.47 1562.94 5313.11 1519.47C5320.27 1498.58 5328.02 1479.64 5334.44 1462.49C5372.77 1461.74 5411.85 1461.3 5451.38 1461H5523.42C5634.99 1461 5742.68 1462.79 5843.96 1466.37L5891.99 1468.01L5954.78 1468.75Z" fill="#BB0163"/>
<path d="M4526.9 3448.52C4526.9 3448.52 4713.35 3370.95 4719.76 3294.14C4719.83 3292.3 4720.28 3290.49 4721.09 3288.84C4721.89 3287.18 4723.03 3285.71 4724.43 3284.52C4725.83 3283.32 4727.47 3282.44 4729.23 3281.91C4731 3281.38 4732.85 3281.23 4734.68 3281.46L4876.97 3290.11C4880.33 3290.39 4883.55 3291.56 4886.3 3293.5C4889.06 3295.44 4891.24 3298.08 4892.64 3301.15L4949.61 3432.85L4910.09 3438.22L4893.53 3420.18L4878.61 3442.55C4664.43 3472.38 4571.65 3482.08 4527.5 3474.62C4519.44 3456.57 4526.9 3448.52 4526.9 3448.52Z" fill="black"/>
<path d="M5400.86 2673.94C5392.66 2672.15 5388.18 2670.81 5388.18 2670.81L4716.98 2586.98L4916.55 3297.72L4713.4 3317.11C4713.4 3317.11 4249.82 2422.91 4439.24 2293.89C4628.67 2164.87 5216.06 2307.31 5216.06 2307.31L5239.17 2130.26L5823.12 2173.82C5916.94 2757.47 5481.41 2690.8 5400.86 2673.94Z" fill="#0D0D2B"/>
<path d="M5207.38 4727.24C5207.38 4727.24 5408.44 4708 5436.93 4635.81C5437.53 4634.12 5438.46 4632.57 5439.67 4631.25C5440.88 4629.93 5442.34 4628.87 5443.97 4628.13C5445.6 4627.4 5447.36 4627 5449.15 4626.96C5450.94 4626.92 5452.72 4627.24 5454.38 4627.9L5588.62 4677.72C5591.73 4678.95 5594.45 4680.97 5596.52 4683.59C5598.59 4686.21 5599.93 4689.33 5600.41 4692.64L5616.52 4835.23L5577.14 4828.82L5566.4 4806.74L5546.11 4823.9C5332.82 4789.44 5240.94 4772.29 5200.96 4752.15C5197.24 4732.46 5207.38 4727.24 5207.38 4727.24Z" fill="black"/>
<path d="M5828.94 2385.32C5828.05 2388.9 5803.74 2500.77 5771.96 2661.12C5770.17 2670.21 5768.39 2679.76 5766.45 2689.16C5751.53 2765.38 5735.12 2851.14 5719.01 2940.49C5699.33 3049.22 5679.79 3164.22 5663.38 3272.66C5641.13 3408.5 5626.64 3545.5 5619.97 3682.99C5612.22 4028.59 5597.75 4710.54 5597.75 4710.54L5411.75 4680.7C5411.75 4680.7 5308.98 3953.41 5310.17 3601.25C5311.07 3377.52 5366.56 2916.47 5404.44 2629.79C5423.53 2482.72 5438.15 2381.3 5438.15 2381.3L5648.91 2383.24L5828.94 2385.32Z" fill="#0D0D2B"/>
<path d="M5814.29 2230.65L5826.67 2231.69L5826.07 2191.27L5815.18 2190.52L5814.29 2230.65Z" fill="#263238"/>
<path d="M5355.19 2195L5604.28 2214.39L5605.47 2174.26L5357.28 2155.17L5355.19 2195Z" fill="#263238"/>
<path d="M5338.02 2153.68L5232.71 2145.48L5228.98 2185.15L5335.63 2193.51L5338.02 2153.68Z" fill="#263238"/>
<path d="M5795.96 2189.03L5624.57 2175.76L5623.83 2215.88L5794.61 2229.15L5795.96 2189.03Z" fill="#263238"/>
<g opacity="0.2">
<path d="M5814.29 2230.65L5826.67 2231.69L5826.07 2191.27L5815.18 2190.52L5814.29 2230.65Z" fill="white"/>
<path d="M5355.19 2195L5604.28 2214.39L5605.47 2174.27L5357.28 2155.18L5355.19 2195Z" fill="white"/>
<path d="M5338.02 2153.68L5232.71 2145.48L5228.98 2185.15L5335.63 2193.51L5338.02 2153.68Z" fill="white"/>
<path d="M5795.96 2189.03L5624.57 2175.76L5623.83 2215.88L5794.61 2229.15L5795.96 2189.03Z" fill="white"/>
</g>
<path d="M5501.49 2211.7H5500.3L5438.25 2205.89C5435.01 2205.62 5431.99 2204.1 5429.85 2201.65C5427.71 2199.2 5426.6 2196.01 5426.77 2192.76L5427.66 2168.45C5427.72 2166.74 5428.13 2165.06 5428.87 2163.51C5429.62 2161.97 5430.68 2160.61 5431.99 2159.5C5433.24 2158.33 5434.72 2157.45 5436.34 2156.91C5437.97 2156.37 5439.68 2156.19 5441.38 2156.37L5503.14 2161.14C5506.38 2161.37 5509.41 2162.85 5511.58 2165.27C5513.75 2167.7 5514.89 2170.87 5514.77 2174.12V2199.47C5514.75 2201.2 5514.36 2202.9 5513.64 2204.46C5512.92 2206.03 5511.88 2207.43 5510.59 2208.57C5508.07 2210.74 5504.82 2211.86 5501.49 2211.7ZM5440.34 2166.96C5439.95 2166.82 5439.53 2166.82 5439.15 2166.96C5439.05 2167.17 5439 2167.4 5439 2167.63C5439 2167.86 5439.05 2168.09 5439.15 2168.3L5438.1 2192.61C5438.08 2192.86 5438.11 2193.11 5438.19 2193.34C5438.27 2193.58 5438.4 2193.79 5438.57 2193.98C5438.74 2194.16 5438.94 2194.3 5439.17 2194.4C5439.4 2194.5 5439.64 2194.55 5439.89 2194.55L5501.94 2200.37C5502.18 2200.47 5502.43 2200.52 5502.69 2200.52C5502.94 2200.52 5503.2 2200.47 5503.43 2200.37C5503.61 2199.94 5503.61 2199.46 5503.43 2199.03V2173.67C5503.43 2173.18 5503.25 2172.71 5502.92 2172.35C5502.59 2171.99 5502.13 2171.77 5501.64 2171.73L5439.89 2166.96H5440.34Z" fill="white"/>
<path d="M5500.64 2191.12L5481.69 2189.33C5480.25 2189.18 5478.93 2188.47 5478.01 2187.35C5477.09 2186.24 5476.65 2184.81 5476.77 2183.36C5476.92 2181.97 5477.62 2180.68 5478.7 2179.79C5479.79 2178.9 5481.19 2178.47 5482.59 2178.59L5501.53 2180.38C5502.95 2180.38 5504.32 2180.95 5505.33 2181.95C5506.33 2182.96 5506.9 2184.33 5506.9 2185.75C5506.9 2187.17 5506.33 2188.54 5505.33 2189.55C5504.32 2190.55 5502.95 2191.12 5501.53 2191.12H5500.64Z" fill="white"/>
<path opacity="0.3" d="M5912.15 1595.98C5904.99 1621.34 5898.28 1647.14 5892.02 1673.1C5889.63 1683.39 5887.25 1693.68 5885.01 1703.97C5873.82 1754.54 5864.28 1805.25 5856.37 1854.17L5854.58 1865.36C5752.11 1898.32 5645.76 1875.65 5649.19 1776.91C5654.11 1644.61 5766.88 1583.01 5766.88 1583.01C5817.14 1555.41 5869.79 1566.15 5912.15 1595.98Z" fill="black"/>
<path d="M4909.63 5384.73H5047.6L4598.94 1839.26H4460.97L4909.63 5384.73Z" fill="#263238"/>
<path opacity="0.4" d="M4909.63 5384.73H5047.6L4598.94 1839.26H4460.97L4909.63 5384.73Z" fill="white"/>
<path d="M4621.21 2364.74H5059.88C5065.34 2364.44 5070.61 2362.6 5075.07 2359.44C5079.54 2356.27 5083.01 2351.9 5085.09 2346.84L5112.98 2287.18H4568.11L4596 2346.84C4598.08 2351.9 4601.55 2356.27 4606.01 2359.44C4610.48 2362.6 4615.75 2364.44 4621.21 2364.74Z" fill="#263238"/>
<path opacity="0.4" d="M4621.21 2364.74H5059.88C5065.34 2364.44 5070.61 2362.6 5075.07 2359.44C5079.54 2356.27 5083.01 2351.9 5085.09 2346.84L5112.98 2287.18H4568.11L4596 2346.84C4598.08 2351.9 4601.55 2356.27 4606.01 2359.44C4610.48 2362.6 4615.75 2364.44 4621.21 2364.74Z" fill="white"/>
<path d="M4575.41 2315.81H5105.52C5121.25 2315.81 5134.01 2303.06 5134.01 2287.32V2280.91C5134.01 2265.18 5121.25 2252.42 5105.52 2252.42H4575.41C4559.68 2252.42 4546.93 2265.18 4546.93 2280.91V2287.32C4546.93 2303.06 4559.68 2315.81 4575.41 2315.81Z" fill="#263238"/>
<path opacity="0.1" d="M4575.41 2315.81H5105.52C5121.25 2315.81 5134.01 2303.06 5134.01 2287.32V2280.91C5134.01 2265.18 5121.25 2252.42 5105.52 2252.42H4575.41C4559.68 2252.42 4546.93 2265.18 4546.93 2280.91V2287.32C4546.93 2303.06 4559.68 2315.81 4575.41 2315.81Z" fill="white"/>
<path d="M4701.31 2871.57H5139.83C5145.32 2871.3 5150.62 2869.45 5155.09 2866.25C5159.56 2863.05 5163.01 2858.63 5165.04 2853.52L5192.93 2794.61H4648.21L4675.95 2853.52C4678.01 2858.65 4681.49 2863.07 4685.98 2866.27C4690.48 2869.47 4695.8 2871.31 4701.31 2871.57Z" fill="#263238"/>
<path opacity="0.4" d="M4701.31 2871.57H5139.83C5145.32 2871.3 5150.62 2869.45 5155.09 2866.25C5159.56 2863.05 5163.01 2858.63 5165.04 2853.52L5192.93 2794.61H4648.21L4675.95 2853.52C4678.01 2858.65 4681.49 2863.07 4685.98 2866.27C4690.48 2869.47 4695.8 2871.31 4701.31 2871.57Z" fill="white"/>
<path d="M4655.52 2822.65H5185.62C5201.35 2822.65 5214.11 2809.9 5214.11 2794.16V2787.75C5214.11 2772.01 5201.35 2759.26 5185.62 2759.26H4655.52C4639.78 2759.26 4627.03 2772.01 4627.03 2787.75V2794.16C4627.03 2809.9 4639.78 2822.65 4655.52 2822.65Z" fill="#263238"/>
<path opacity="0.1" d="M4655.52 2822.65H5185.62C5201.35 2822.65 5214.11 2809.9 5214.11 2794.16V2787.75C5214.11 2772.01 5201.35 2759.26 5185.62 2759.26H4655.52C4639.78 2759.26 4627.03 2772.01 4627.03 2787.75V2794.16C4627.03 2809.9 4639.78 2822.65 4655.52 2822.65Z" fill="white"/>
<path d="M4781.26 3542.33H5220.52C5226.02 3542.1 5231.34 3540.29 5235.84 3537.11C5240.33 3533.94 5243.82 3529.54 5245.88 3524.43L5273.62 3464.77H4728.3L4756.2 3524.43C4758.22 3529.5 4761.66 3533.89 4766.1 3537.06C4770.54 3540.23 4775.8 3542.06 4781.26 3542.33Z" fill="#263238"/>
<path opacity="0.4" d="M4781.26 3542.33H5220.52C5226.02 3542.1 5231.34 3540.29 5235.84 3537.11C5240.33 3533.94 5243.82 3529.54 5245.88 3524.43L5273.62 3464.77H4728.3L4756.2 3524.43C4758.22 3529.5 4761.66 3533.89 4766.1 3537.06C4770.54 3540.23 4775.8 3542.06 4781.26 3542.33Z" fill="white"/>
<path d="M4735.45 3493.56H5265.55C5281.28 3493.56 5294.04 3480.81 5294.04 3465.07V3458.66C5294.04 3442.93 5281.28 3430.17 5265.55 3430.17H4735.45C4719.71 3430.17 4706.96 3442.93 4706.96 3458.66V3465.07C4706.96 3480.81 4719.71 3493.56 4735.45 3493.56Z" fill="#263238"/>
<path opacity="0.1" d="M4735.45 3493.56H5265.55C5281.28 3493.56 5294.04 3480.81 5294.04 3465.07V3458.66C5294.04 3442.93 5281.28 3430.17 5265.55 3430.17H4735.45C4719.71 3430.17 4706.96 3442.93 4706.96 3458.66V3465.07C4706.96 3480.81 4719.71 3493.56 4735.45 3493.56Z" fill="white"/>
<path d="M4861.17 4213.24H5299.84C5305.32 4212.98 5310.6 4211.16 5315.07 4207.99C5319.54 4204.81 5323 4200.43 5325.05 4195.34L5352.94 4135.68H4808.07L4835.96 4195.34C4838.01 4200.43 4841.48 4204.81 4845.94 4207.99C4850.41 4211.16 4855.7 4212.98 4861.17 4213.24Z" fill="#263238"/>
<path opacity="0.4" d="M4861.17 4213.24H5299.84C5305.32 4212.98 5310.6 4211.16 5315.07 4207.99C5319.54 4204.81 5323 4200.43 5325.05 4195.34L5352.94 4135.68H4808.07L4835.96 4195.34C4838.01 4200.43 4841.48 4204.81 4845.94 4207.99C4850.41 4211.16 4855.7 4212.98 4861.17 4213.24Z" fill="white"/>
<path d="M4815.37 4164.47H5345.48C5361.21 4164.47 5373.97 4151.71 5373.97 4135.98V4129.56C5373.97 4113.83 5361.21 4101.08 5345.48 4101.08H4815.37C4799.64 4101.08 4786.89 4113.83 4786.89 4129.56V4135.98C4786.89 4151.71 4799.64 4164.47 4815.37 4164.47Z" fill="#263238"/>
<path opacity="0.1" d="M4815.37 4164.47H5345.48C5361.21 4164.47 5373.97 4151.71 5373.97 4135.98V4129.56C5373.97 4113.83 5361.21 4101.08 5345.48 4101.08H4815.37C4799.64 4101.08 4786.89 4113.83 4786.89 4129.56V4135.98C4786.89 4151.71 4799.64 4164.47 4815.37 4164.47Z" fill="white"/>
<path d="M4941.3 4884.15H5379.83C5385.3 4883.91 5390.6 4882.1 5395.07 4878.92C5399.54 4875.75 5403 4871.35 5405.03 4866.26L5432.93 4806.59H4888.05L4915.95 4866.26C4918.01 4871.36 4921.49 4875.76 4925.99 4878.94C4930.49 4882.11 4935.8 4883.92 4941.3 4884.15Z" fill="#263238"/>
<path opacity="0.4" d="M4941.3 4884.15H5379.83C5385.3 4883.91 5390.6 4882.1 5395.07 4878.92C5399.54 4875.75 5403 4871.35 5405.03 4866.26L5432.93 4806.59H4888.05L4915.95 4866.26C4918.01 4871.36 4921.49 4875.76 4925.99 4878.94C4930.49 4882.11 4935.8 4883.92 4941.3 4884.15Z" fill="white"/>
<path d="M4895.36 4835.38H5425.46C5441.2 4835.38 5453.95 4822.62 5453.95 4806.89V4800.48C5453.95 4784.74 5441.2 4771.99 5425.46 4771.99H4895.36C4879.63 4771.99 4866.87 4784.74 4866.87 4800.48V4806.89C4866.87 4822.62 4879.63 4835.38 4895.36 4835.38Z" fill="#263238"/>
<path opacity="0.1" d="M4895.36 4835.38H5425.46C5441.2 4835.38 5453.95 4822.62 5453.95 4806.89V4800.48C5453.95 4784.74 5441.2 4771.99 5425.46 4771.99H4895.36C4879.63 4771.99 4866.87 4784.74 4866.87 4800.48V4806.89C4866.87 4822.62 4879.63 4835.38 4895.36 4835.38Z" fill="white"/>
<path d="M5442.33 5384.73H5580.3L5131.63 1839.26H4993.66L5442.33 5384.73Z" fill="#263238"/>
<path opacity="0.7" d="M5442.33 5384.73H5580.3L5131.63 1839.26H4993.66L5442.33 5384.73Z" fill="white"/>
<path d="M3993.84 5384.73H3855.87L4304.38 1839.26H4442.35L3993.84 5384.73Z" fill="#263238"/>
<path opacity="0.4" d="M3993.84 5384.73H3855.87L4304.38 1839.26H4442.35L3993.84 5384.73Z" fill="white"/>
<path d="M4814.79 2364.74H4376.27C4370.78 2364.47 4365.48 2362.65 4360.99 2359.48C4356.5 2356.31 4353.01 2351.92 4350.92 2346.84L4323.17 2287.18H4867.89L4840 2346.84C4837.95 2351.92 4834.49 2356.31 4830.02 2359.48C4825.55 2362.65 4820.27 2364.48 4814.79 2364.74Z" fill="#263238"/>
<path opacity="0.5" d="M4814.79 2364.74H4376.27C4370.78 2364.47 4365.48 2362.65 4360.99 2359.48C4356.5 2356.31 4353.01 2351.92 4350.92 2346.84L4323.17 2287.18H4867.89L4840 2346.84C4837.95 2351.92 4834.49 2356.31 4830.02 2359.48C4825.55 2362.65 4820.27 2364.48 4814.79 2364.74Z" fill="white"/>
<path d="M4860.61 2252.57H4330.5C4314.77 2252.57 4302.02 2265.33 4302.02 2281.06V2287.47C4302.02 2303.21 4314.77 2315.96 4330.5 2315.96H4860.61C4876.34 2315.96 4889.1 2303.21 4889.1 2287.47V2281.06C4889.1 2265.33 4876.34 2252.57 4860.61 2252.57Z" fill="#263238"/>
<path opacity="0.2" d="M4860.61 2252.57H4330.5C4314.77 2252.57 4302.02 2265.33 4302.02 2281.06V2287.47C4302.02 2303.21 4314.77 2315.96 4330.5 2315.96H4860.61C4876.34 2315.96 4889.1 2303.21 4889.1 2287.47V2281.06C4889.1 2265.33 4876.34 2252.57 4860.61 2252.57Z" fill="white"/>
<path d="M4734.84 2871.57H4295.72C4290.23 2871.28 4284.94 2869.43 4280.48 2866.23C4276.01 2863.03 4272.55 2858.62 4270.51 2853.52L4242.62 2794.61H4787.94L4760.04 2853.52C4758 2858.62 4754.54 2863.03 4750.08 2866.23C4745.61 2869.43 4740.32 2871.28 4734.84 2871.57Z" fill="#263238"/>
<path opacity="0.5" d="M4734.84 2871.57H4295.72C4290.23 2871.28 4284.94 2869.43 4280.48 2866.23C4276.01 2863.03 4272.55 2858.62 4270.51 2853.52L4242.62 2794.61H4787.94L4760.04 2853.52C4758 2858.62 4754.54 2863.03 4750.08 2866.23C4745.61 2869.43 4740.32 2871.28 4734.84 2871.57Z" fill="white"/>
<path d="M4780.62 2759.26H4250.52C4234.79 2759.26 4222.03 2772.01 4222.03 2787.75V2794.16C4222.03 2809.9 4234.79 2822.65 4250.52 2822.65H4780.62C4796.36 2822.65 4809.11 2809.9 4809.11 2794.16V2787.75C4809.11 2772.01 4796.36 2759.26 4780.62 2759.26Z" fill="#263238"/>
<path opacity="0.2" d="M4780.62 2759.26H4250.52C4234.79 2759.26 4222.03 2772.01 4222.03 2787.75V2794.16C4222.03 2809.9 4234.79 2822.65 4250.52 2822.65H4780.62C4796.36 2822.65 4809.11 2809.9 4809.11 2794.16V2787.75C4809.11 2772.01 4796.36 2759.26 4780.62 2759.26Z" fill="white"/>
<path d="M4654.76 3542.33H4216.24C4210.76 3542.09 4205.47 3540.27 4201 3537.1C4196.53 3533.92 4193.07 3529.53 4191.03 3524.43L4163.14 3464.77H4707.86L4680.12 3524.43C4678.06 3529.54 4674.57 3533.94 4670.08 3537.11C4665.58 3540.29 4660.26 3542.1 4654.76 3542.33Z" fill="#263238"/>
<path opacity="0.5" d="M4654.76 3542.33H4216.24C4210.76 3542.09 4205.47 3540.27 4201 3537.1C4196.53 3533.92 4193.07 3529.53 4191.03 3524.43L4163.14 3464.77H4707.86L4680.12 3524.43C4678.06 3529.54 4674.57 3533.94 4670.08 3537.11C4665.58 3540.29 4660.26 3542.1 4654.76 3542.33Z" fill="white"/>
<path d="M4700.52 3430.17H4170.42C4154.68 3430.17 4141.93 3442.92 4141.93 3458.66V3465.07C4141.93 3480.8 4154.68 3493.56 4170.42 3493.56H4700.52C4716.26 3493.56 4729.01 3480.8 4729.01 3465.07V3458.66C4729.01 3442.92 4716.26 3430.17 4700.52 3430.17Z" fill="#263238"/>
<path opacity="0.2" d="M4700.52 3430.17H4170.42C4154.68 3430.17 4141.93 3442.92 4141.93 3458.66V3465.07C4141.93 3480.8 4154.68 3493.56 4170.42 3493.56H4700.52C4716.26 3493.56 4729.01 3480.8 4729.01 3465.07V3458.66C4729.01 3442.92 4716.26 3430.17 4700.52 3430.17Z" fill="white"/>
<path d="M4574.83 4213.24H4136.31C4130.82 4212.99 4125.51 4211.18 4121.01 4208C4116.52 4204.83 4113.03 4200.44 4110.95 4195.34L4083.21 4135.68H4627.93L4600.04 4195.34C4598.01 4200.44 4594.55 4204.84 4590.08 4208.01C4585.6 4211.19 4580.31 4213 4574.83 4213.24Z" fill="#263238"/>
<path opacity="0.5" d="M4574.83 4213.24H4136.31C4130.82 4212.99 4125.51 4211.18 4121.01 4208C4116.52 4204.83 4113.03 4200.44 4110.95 4195.34L4083.21 4135.68H4627.93L4600.04 4195.34C4598.01 4200.44 4594.55 4204.84 4590.08 4208.01C4585.6 4211.19 4580.31 4213 4574.83 4213.24Z" fill="white"/>
<path d="M4620.59 4101.08H4090.49C4074.76 4101.08 4062 4113.83 4062 4129.56V4135.98C4062 4151.71 4074.76 4164.47 4090.49 4164.47H4620.59C4636.33 4164.47 4649.08 4151.71 4649.08 4135.98V4129.56C4649.08 4113.83 4636.33 4101.08 4620.59 4101.08Z" fill="#263238"/>
<path opacity="0.2" d="M4620.59 4101.08H4090.49C4074.76 4101.08 4062 4113.83 4062 4129.56V4135.98C4062 4151.71 4074.76 4164.47 4090.49 4164.47H4620.59C4636.33 4164.47 4649.08 4151.71 4649.08 4135.98V4129.56C4649.08 4113.83 4636.33 4101.08 4620.59 4101.08Z" fill="white"/>
<path d="M4494.88 4884.15H4056.21C4050.74 4883.9 4045.45 4882.07 4040.98 4878.9C4036.51 4875.73 4033.05 4871.34 4031 4866.26L4003.11 4806.59H4547.98L4520.09 4866.26C4518.05 4871.35 4514.59 4875.75 4510.12 4878.92C4505.65 4882.1 4500.36 4883.91 4494.88 4884.15Z" fill="#263238"/>
<path opacity="0.5" d="M4494.88 4884.15H4056.21C4050.74 4883.9 4045.45 4882.07 4040.98 4878.9C4036.51 4875.73 4033.05 4871.34 4031 4866.26L4003.11 4806.59H4547.98L4520.09 4866.26C4518.05 4871.35 4514.59 4875.75 4510.12 4878.92C4505.65 4882.1 4500.36 4883.91 4494.88 4884.15Z" fill="white"/>
<path d="M4540.66 4771.99H4010.56C3994.83 4771.99 3982.07 4784.74 3982.07 4800.48V4806.89C3982.07 4822.62 3994.83 4835.38 4010.56 4835.38H4540.66C4556.4 4835.38 4569.15 4822.62 4569.15 4806.89V4800.48C4569.15 4784.74 4556.4 4771.99 4540.66 4771.99Z" fill="#263238"/>
<path opacity="0.2" d="M4540.66 4771.99H4010.56C3994.83 4771.99 3982.07 4784.74 3982.07 4800.48V4806.89C3982.07 4822.62 3994.83 4835.38 4010.56 4835.38H4540.66C4556.4 4835.38 4569.15 4822.62 4569.15 4806.89V4800.48C4569.15 4784.74 4556.4 4771.99 4540.66 4771.99Z" fill="white"/>
<path d="M4526.31 5384.73H4388.34L4837 1839.26H4974.97L4526.31 5384.73Z" fill="#263238"/>
<path opacity="0.7" d="M4526.31 5384.73H4388.34L4837 1839.26H4974.97L4526.31 5384.73Z" fill="white"/>
<path d="M5153.67 1857.31H4279.31C4273.85 1857.01 4268.58 1855.17 4264.12 1852C4259.65 1848.84 4256.18 1844.47 4254.1 1839.41L4226.21 1779.74H5206.77L5179.03 1839.41C5176.85 1844.43 5173.33 1848.76 5168.86 1851.91C5164.39 1855.07 5159.13 1856.94 5153.67 1857.31Z" fill="#263238"/>
<path opacity="0.5" d="M5153.67 1857.31H4279.31C4273.85 1857.01 4268.58 1855.17 4264.12 1852C4259.65 1848.84 4256.18 1844.47 4254.1 1839.41L4226.21 1779.74H5206.77L5179.03 1839.41C5176.85 1844.43 5173.33 1848.76 5168.86 1851.91C5164.39 1855.07 5159.13 1856.94 5153.67 1857.31Z" fill="white"/>
<path d="M5199.45 1745.14H4233.66C4217.93 1745.14 4205.17 1757.89 4205.17 1773.63V1780.04C4205.17 1795.78 4217.93 1808.53 4233.66 1808.53H5199.45C5215.19 1808.53 5227.94 1795.78 5227.94 1780.04V1773.63C5227.94 1757.89 5215.19 1745.14 5199.45 1745.14Z" fill="#263238"/>
<path opacity="0.2" d="M5199.45 1745.14H4233.66C4217.93 1745.14 4205.17 1757.89 4205.17 1773.63V1780.04C4205.17 1795.78 4217.93 1808.53 4233.66 1808.53H5199.45C5215.19 1808.53 5227.94 1795.78 5227.94 1780.04V1773.63C5227.94 1757.89 5215.19 1745.14 5199.45 1745.14Z" fill="white"/>
<path d="M5214.84 1842.54L5100.14 1761.7L5046.45 1871.93C5046.45 1871.93 5118.64 1939.64 5192.32 1904.44L5214.84 1842.54Z" fill="#FFBF9D"/>
<path d="M5001.11 1749.32L4980.83 1841.05L5046.46 1871.93L5100.15 1761.7L5001.11 1749.32Z" fill="#FFBF9D"/>
<path d="M5998.98 1587.48C5976.45 1622.23 5953.48 1655.49 5929.47 1688.01C5911.42 1712.02 5892.93 1735.74 5873.54 1759.01C5867.72 1766.17 5861.75 1773.18 5855.79 1780.19C5844 1793.76 5832.07 1807.34 5819.54 1820.76C5804.62 1837.47 5787.77 1853.87 5770.32 1869.98L5760.33 1878.93C5747.3 1890.98 5733.61 1902.28 5719.31 1912.79C5698.03 1928.73 5674.7 1941.73 5649.95 1951.42C5642.62 1954.27 5635.1 1956.57 5627.43 1958.28C5620.12 1960.07 5613.85 1960.97 5607.14 1962.16C5595.32 1963.77 5583.42 1964.77 5571.49 1965.14C5548.97 1965.89 5527.94 1965.14 5507.21 1964.1C5466.04 1961.86 5426.36 1956.34 5387.13 1950.53C5337.02 1942.62 5287.8 1932.78 5239.02 1920.7C5220.97 1916.52 5203.07 1911.9 5185.18 1907.12L5156.69 1899.22C5147.6 1896.56 5139.7 1890.88 5134.28 1883.13C5128.85 1875.37 5126.24 1866 5126.85 1856.56C5127.06 1853.53 5127.56 1850.54 5128.35 1847.61C5130.48 1839.86 5134.84 1832.9 5140.89 1827.6C5146.93 1822.3 5154.39 1818.89 5162.35 1817.78C5164.88 1817.48 5167.43 1817.48 5169.96 1817.78H5170.71H5181.15C5203.67 1818.52 5225.9 1819.42 5248.72 1820.01C5298.98 1821.8 5349.1 1823.15 5397.87 1823.89C5435.31 1823.89 5472.45 1823.89 5508.4 1822.7C5526.3 1821.95 5543.75 1820.46 5559.56 1818.22C5571.4 1817.39 5583.01 1814.51 5593.87 1809.72C5604.24 1803.77 5613.94 1796.72 5622.8 1788.69C5631.75 1780.94 5641.15 1772.28 5650.4 1762.89C5653.08 1760.35 5655.62 1757.67 5658.15 1754.98C5663.37 1749.61 5668.44 1743.94 5673.07 1738.28C5685.9 1724.26 5698.28 1709.64 5710.66 1694.57C5716.17 1687.71 5721.84 1680.85 5727.36 1673.84C5754.21 1639.98 5780.91 1604.33 5806.71 1568.39C5824.31 1544.07 5841.62 1519.46 5858.32 1495.3L5859.22 1493.81C5867.53 1481.65 5878.97 1471.97 5892.33 1465.77L5954.83 1468.45L5971.08 1469.35C5972.79 1470.28 5974.44 1471.33 5976.01 1472.48C5994.05 1484.89 6006.54 1503.84 6010.83 1525.32C6015.12 1546.79 6010.87 1569.09 5998.98 1587.48Z" fill="#FFBF9D"/>
<path d="M5960.03 1686.52C5931.85 1727.21 5900.26 1765.43 5865.61 1800.77C5856.37 1810.32 5846.52 1820.17 5835.78 1830.61L5819.08 1821.21L5672.75 1738.87L5659.18 1731.27C5659.18 1731.27 5668.73 1716.35 5682.9 1695.62C5700.65 1668.77 5725.85 1630.44 5749.27 1594.34C5767.47 1566 5784.47 1539 5795.66 1519.76C5808.09 1498.45 5824.5 1479.71 5843.99 1464.57L5892.01 1466.22L5954.51 1468.9L5970.77 1469.8L6012.38 1471.88C6031.63 1516.33 6027.45 1586.88 5960.03 1686.52Z" fill="#407BFF"/>
<path d="M5960.03 1686.52C5931.85 1727.21 5900.26 1765.43 5865.61 1800.77C5856.37 1810.32 5846.52 1820.17 5835.78 1830.61L5819.08 1821.21L5672.75 1738.87L5659.18 1731.27C5659.18 1731.27 5668.73 1716.35 5682.9 1695.62C5700.65 1668.77 5725.85 1630.44 5749.27 1594.34C5767.47 1566 5784.47 1539 5795.66 1519.76C5808.09 1498.45 5824.5 1479.71 5843.99 1464.57L5892.01 1466.22L5954.51 1468.9L5970.77 1469.8L6012.38 1471.88C6031.63 1516.33 6027.45 1586.88 5960.03 1686.52Z" fill="#BB0163"/>
<path d="M3778.74 5382.19C3778.81 5383.03 3778.81 5383.88 3778.74 5384.72C3778.81 5385.12 3778.81 5385.52 3778.74 5385.92C3778.56 5386.68 3778.31 5387.43 3777.99 5388.15C3777.56 5389.16 3777.01 5390.11 3776.35 5390.99C3775.71 5392.05 3774.96 5393.05 3774.12 5393.97C3767.07 5400.82 3758.76 5406.24 3749.65 5409.93L3742.35 5413.06C3735.19 5416.05 3727.43 5418.88 3718.03 5421.71C3712.37 5423.5 3706.4 5425.14 3699.99 5426.93C3595.58 5455.13 3394.96 5477.8 3142.73 5490.33L3112.9 5491.82L3063.98 5493.91L3013.71 5495.7L2978.96 5496.89C2951.37 5497.64 2923.47 5498.38 2895.13 5498.83H2884.84H2865.6H2846.96C2820.85 5498.83 2794.45 5498.83 2767.9 5499.72H2695.86C2608.75 5499.72 2523.88 5498.68 2442.29 5496.44L2406.2 5495.25C2395.76 5495.25 2385.31 5495.25 2375.02 5494.35L2326.99 5492.71L2264.5 5490.03L2248.24 5489.13L2206.62 5487.04C2138.16 5483.17 2073.87 5478.69 2014.81 5473.32C1873.41 5460.79 1761.24 5444.54 1691.88 5425.74L1685.92 5424.1L1679.35 5422.16C1668.17 5418.88 1658.47 5415.45 1649.52 5412.17C1646.39 5410.83 1643.41 5409.63 1640.72 5408.29C1636.26 5406.21 1631.93 5403.86 1627.75 5401.28C1626.32 5400.46 1624.97 5399.51 1623.72 5398.45L1620.44 5395.91L1617.3 5392.78C1616.47 5391.91 1615.72 5390.96 1615.07 5389.94C1613.97 5388.36 1613.16 5386.59 1612.68 5384.72V5383.08C1612.61 5382.39 1612.61 5381.69 1612.68 5380.99C1612.68 5332.37 1878.63 5290.61 2259.58 5272.26L2290.15 5270.77L2331.32 5269.13L2394.56 5266.89L2428.72 5265.85L2508.97 5263.91H2513.29H2536.41H2552.07C2575.64 5263.91 2599.36 5263.91 2623.37 5263.16H2630.53C2652.16 5263.16 2673.93 5263.16 2695.86 5263.16C2784.16 5263.16 2869.93 5264.35 2952.11 5266.44L3011.77 5268.38L3037.13 5269.28H3039.67L3067.41 5270.32L3085.61 5271.07L3132.74 5273.15L3177.49 5275.39C3262.81 5280.01 3341.56 5285.83 3412.56 5292.69C3636.89 5314.92 3778.74 5346.69 3778.74 5382.19Z" fill="#0D0D2B"/>
<path opacity="0.4" d="M1612.4 5382.19C1612.4 5333.56 1878.35 5291.8 2259.29 5273.45L2289.87 5271.96L2331.04 5270.32C2388.16 5268.08 2447.53 5266.44 2508.68 5265.1H2536.13H2551.79C2598.77 5264.35 2646.8 5264.05 2695.58 5264.05C2783.88 5264.05 2869.64 5265.25 2951.83 5267.34L3011.49 5269.27C3161.4 5274.2 3297.43 5282.7 3411.98 5293.74C3636.76 5315.51 3778.61 5347.28 3778.61 5383.23C3778.61 5399.04 3750.42 5414.26 3699.26 5427.98C3604.76 5405.84 3508.73 5390.88 3411.98 5383.23C3297.43 5372.19 3161.4 5363.69 3011.49 5358.77L2951.83 5356.83C2869.64 5354.74 2783.88 5353.55 2695.58 5353.55C2646.8 5353.55 2598.77 5353.55 2551.79 5354.59H2535.68H2508.24C2447.08 5355.93 2387.72 5357.58 2330.59 5359.81L2289.42 5361.45L2258.85 5362.95C2001.85 5375.33 1797.35 5398.3 1692.05 5426.93C1640.74 5413.06 1612.4 5398.15 1612.4 5382.19Z" fill="white"/>
<path d="M2604.43 5327.15C2596.22 5337 2588.62 5345.5 2581.01 5353.7C2577.13 5357.73 2573.4 5361.76 2569.38 5365.78C2562.22 5373.09 2555.21 5380.7 2547.9 5387.26C2543.12 5392.03 2538.2 5396.66 2532.98 5401.28C2507.71 5424.66 2480.95 5446.38 2452.88 5466.32L2448.11 5469.6C2443.93 5472.58 2439.61 5475.41 2435.13 5478.4C2425.74 5484.66 2416.04 5490.78 2405.3 5496.44C2394.86 5496.44 2384.42 5496.44 2374.13 5495.55L2326.1 5493.91L2263.6 5491.22L2247.34 5490.33L2205.73 5488.24C2137.27 5484.36 2072.98 5479.89 2013.91 5474.52L2037.18 5467.06C2096.85 5447.67 2156.51 5429.47 2214.68 5410.38C2229.6 5405.46 2243.47 5400.69 2256.74 5395.47C2268.18 5391.68 2279.18 5386.68 2289.56 5380.55C2296.12 5376.67 2302.98 5372.35 2309.84 5367.72C2313.42 5365.34 2317.15 5362.8 2320.88 5359.97C2331.62 5352.36 2342.36 5343.86 2352.95 5335.06C2374.43 5317.46 2395.46 5298.07 2416.34 5277.93L2427.53 5266.89C2434.24 5260.48 2440.8 5254.06 2447.22 5247.35L2477.05 5217.52L2478.84 5215.58C2487.83 5206.23 2498.87 5199.07 2511.08 5194.68C2523.29 5190.28 2536.34 5188.76 2549.24 5190.22C2568.05 5192.38 2585.57 5200.85 2598.93 5214.27C2612.29 5227.68 2620.7 5245.24 2622.77 5264.06C2624.09 5275.27 2623.14 5286.63 2619.99 5297.46C2616.84 5308.3 2611.55 5318.39 2604.43 5327.15Z" fill="#FFBF9D"/>
<path d="M2571.01 5155.92C2487.78 5153.98 2302.52 5360.86 2302.52 5360.86L2455.41 5496.29C2455.41 5496.29 2591.89 5436.63 2625.3 5338.93C2658.71 5241.24 2571.01 5155.92 2571.01 5155.92Z" fill="#407BFF"/>
<path d="M2625.17 5338.93C2609.31 5378.55 2582.83 5413.02 2548.65 5438.57C2519.93 5461.53 2488.52 5480.91 2455.13 5496.29L2414.11 5459.9L2302.24 5360.86C2302.24 5360.86 2487.35 5153.98 2570.73 5155.92C2571.02 5155.92 2659.03 5240.64 2625.17 5338.93Z" fill="#BB0163"/>
<path opacity="0.3" d="M2549.13 5438.57C2520.4 5461.53 2489 5480.91 2455.6 5496.29L2414.59 5459.9C2436.37 5396.13 2475.34 5339.61 2527.2 5296.57C2545.4 5330.58 2551.36 5402.92 2549.13 5438.57Z" fill="black"/>
<path d="M3145.87 5243.17C3144.97 5245.11 3144.08 5246.9 3143.33 5248.84C3140.94 5254.06 3138.71 5259.28 3136.47 5264.65C3135.12 5267.42 3133.93 5270.26 3132.89 5273.15C3132.58 5273.72 3132.33 5274.32 3132.14 5274.94C3131.05 5277.17 3130.1 5279.46 3129.31 5281.81C3126.77 5287.77 3124.39 5293.89 3122 5300.15C3119.61 5306.42 3116.18 5315.81 3113.35 5323.72C3113.35 5323.72 3113.35 5324.46 3113.35 5324.76C3111.26 5330.43 3109.32 5336.1 3107.38 5341.92C3105.44 5347.73 3103.36 5353.55 3101.57 5359.37C3101.5 5359.96 3101.5 5360.56 3101.57 5361.16C3099.78 5366.53 3097.99 5371.9 3096.35 5377.27C3092.91 5388.6 3089.48 5399.94 3086.2 5411.57L3085.31 5414.7C3078.15 5440.06 3071.44 5465.87 3065.17 5491.82C3065.1 5492.36 3065.1 5492.91 3065.17 5493.46L3014.91 5495.25L2980.15 5496.44C2952.56 5497.19 2924.67 5497.93 2896.33 5498.38H2886.03H2866.79H2848.15C2822.05 5498.38 2795.64 5498.38 2769.09 5499.28H2697.05C2609.94 5499.28 2525.07 5498.23 2443.48 5496L2445.72 5484.96C2445.72 5482.57 2446.77 5480.33 2447.36 5478.1C2447.96 5475.86 2448.26 5473.62 2448.85 5471.38C2449.16 5470.3 2449.41 5469.21 2449.6 5468.1C2456.26 5438.27 2463.22 5411.08 2470.48 5386.51C2473.17 5377.86 2475.55 5369.66 2478.09 5361.46C2478.98 5358.92 2479.73 5356.38 2480.62 5353.85C2482.56 5347.73 2484.5 5341.92 2486.44 5336.25L2489.57 5327.15C2491.21 5322.53 2492.86 5317.9 2494.5 5313.58C2496.14 5309.25 2498.22 5303.28 2500.01 5298.66L2504.94 5286.13L2513.89 5264.5C2520.75 5248.1 2527.46 5233.78 2533.72 5221.1C2534.92 5219.01 2535.96 5216.77 2537.01 5214.68L2543.27 5202.6L2550.58 5189.33C2551.03 5188.67 2551.43 5187.97 2551.77 5187.24C2554.31 5182.62 2556.84 5178.44 2559.08 5174.86L2564.9 5165.61L2571.91 5155.47C2616.17 5151.24 2660.66 5149.79 2705.11 5151.14C2714.5 5151.14 2724.05 5151.89 2733.74 5152.49C2743.44 5153.08 2752.24 5153.98 2762.38 5155.17C2783.71 5157.56 2807.13 5160.84 2832.04 5164.87L2878.87 5172.92C2894.54 5175.75 2910.05 5178.59 2924.96 5181.57L2932.87 5183.21C2944.65 5185.45 2956.14 5187.84 2966.73 5190.07C2974.04 5191.57 2981.64 5193.21 2988.5 5195C2992.23 5195.89 2995.81 5196.64 2999.39 5197.68L3010.28 5200.37C3023.85 5203.8 3037.28 5207.53 3049.96 5211.11L3062.34 5214.83L3085.46 5221.99L3105.74 5228.56C3128.86 5236.16 3144.22 5241.83 3146.46 5242.58L3145.87 5243.17Z" fill="#407BFF"/>
<path d="M3146.03 5243.17C3145.13 5245.11 3144.24 5246.9 3143.49 5248.84C3141.1 5254.06 3138.72 5259.28 3136.63 5264.65C3135.24 5267.43 3134.04 5270.27 3133.05 5273.15C3132.99 5273.75 3132.99 5274.35 3133.05 5274.94C3131.95 5277.16 3131.01 5279.45 3130.22 5281.8C3127.68 5287.77 3125.29 5293.88 3122.91 5300.15C3120.52 5306.41 3116.94 5315.81 3114.26 5323.72C3114.26 5323.72 3114.26 5324.46 3114.26 5324.76C3112.17 5330.43 3110.23 5336.1 3108.29 5341.91C3106.35 5347.73 3104.26 5353.55 3102.47 5359.36V5360.41C3100.68 5365.78 3098.89 5371.15 3097.25 5376.52C3093.82 5387.85 3090.39 5399.19 3087.11 5410.82L3086.21 5413.96C3079.05 5439.31 3072.34 5465.12 3066.08 5491.07C3066.01 5491.61 3066.01 5492.17 3066.08 5492.71L3015.81 5494.5L2981.06 5495.69C2953.46 5496.44 2925.57 5497.19 2897.23 5497.63H2886.94H2867.7H2849.05C2822.95 5497.63 2796.55 5497.63 2770 5498.53H2697.96C2610.85 5498.53 2525.98 5497.48 2444.39 5495.25L2446.63 5484.36C2447.67 5479.58 2448.57 5475.11 2449.61 5470.64C2449.91 5469.55 2450.16 5468.46 2450.36 5467.35C2457.02 5437.52 2463.98 5410.33 2471.24 5385.76C2473.92 5377.11 2476.31 5368.91 2478.85 5360.71C2479.74 5358.17 2480.49 5355.64 2481.38 5353.1C2483.32 5346.98 2485.26 5341.17 2487.2 5335.5L2490.33 5326.4C2491.97 5321.78 2493.61 5317.15 2495.25 5312.83C2496.89 5308.5 2498.98 5302.54 2500.77 5297.91L2505.69 5285.38L2514.64 5263.75C2521.5 5247.35 2528.22 5233.03 2534.33 5220.35C2535.53 5218.26 2536.57 5216.02 2537.61 5213.94L2543.88 5201.85L2551.19 5188.58C2551.64 5187.92 2552.04 5187.22 2552.38 5186.49L2559.69 5174.11L2565.51 5164.86L2572.52 5154.72C2616.78 5150.49 2661.27 5149.04 2705.71 5150.39C2715.11 5150.39 2724.66 5151.14 2734.35 5151.74C2744.05 5152.33 2752.85 5153.23 2762.99 5154.42C2784.32 5156.81 2807.74 5160.09 2832.65 5164.12L2879.48 5172.17C2895.14 5175.01 2910.66 5177.84 2925.57 5180.82L2933.48 5182.46C2945.26 5184.7 2956.75 5187.09 2967.34 5189.32C2974.64 5190.82 2982.25 5192.46 2989.11 5194.25C2992.84 5195.14 2996.42 5195.89 3000 5196.93L3010.89 5199.47C3024.46 5202.9 3037.89 5206.63 3050.57 5210.36L3062.95 5214.09L3086.06 5221.24L3106.35 5227.81C3129.47 5235.41 3144.83 5241.08 3147.07 5241.83L3146.03 5243.17Z" fill="#BB0163"/>
<path d="M2876.19 4973.65C2876.19 4973.65 2880.81 5132.35 2895.88 5155.92C2910.94 5179.48 2965.39 5190.37 2965.39 5190.37C2965.39 5190.37 2834.58 5255.4 2773.42 5243.17C2712.27 5230.94 2682.88 5151.14 2682.88 5151.14C2682.88 5151.14 2725.54 5152.79 2735.98 5146.97C2746.42 5141.15 2727.78 5036 2727.78 5036L2876.19 4973.65Z" fill="#FFBF9D"/>
<path opacity="0.2" d="M2740.33 5075.52L2734.96 5083.13C2731.67 5058.52 2727.8 5036 2727.8 5036L2876.06 4973.65C2876.06 4973.65 2879.94 5101.48 2890.97 5144.73C2831.01 5151 2760.91 5106.55 2740.33 5075.52Z" fill="black"/>
<path d="M2825.51 4707.1C2866.08 4728.28 2924.1 4796.6 2860.56 4819.42C2797.02 4842.24 2755.85 4670.86 2825.51 4707.1Z" fill="#263238"/>
<path d="M2645.14 4971.11C2676.26 5009.12 2710.17 5044.77 2746.56 5077.76C2772.73 5099.92 2804.84 5113.88 2838.89 5117.88C2958.22 5132.8 3035.48 5005.72 2987.3 4900.86C2981.73 4888.85 2975.5 4877.15 2968.66 4865.81C2916.3 4779.6 2815.62 4689.06 2715.99 4718.59C2690.87 4726.04 2668.06 4739.74 2649.68 4758.4C2631.29 4777.06 2617.94 4800.08 2610.86 4825.3C2603.79 4850.52 2603.22 4877.12 2609.21 4902.62C2615.21 4928.12 2627.57 4951.69 2645.14 4971.11Z" fill="#FFBF9D"/>
<path d="M2520.75 4915.33C2466.6 4869.83 2517.91 4804.06 2574.59 4781.09C2580.72 4778.66 2585.93 4774.39 2589.51 4768.86L2656.78 4872.22C2650.66 4875.06 2644.55 4877.89 2638.73 4880.13C2638.73 4880.13 2717.34 4949.63 2709.73 5018.84C2599.95 5049.87 2494.05 4993.34 2520.75 4915.33Z" fill="#0D0D2B"/>
<path d="M2668.86 5071.34C2680.38 5079.17 2693.35 5084.62 2707 5087.36C2720.65 5090.1 2734.72 5090.08 2748.36 5087.3C2751 5086.8 2753.59 5086.11 2756.12 5085.22C2778.79 5063.89 2711.37 4988.86 2708.24 4984.98C2701.03 4982.79 2693.42 4982.18 2685.96 4983.21C2678.49 4984.24 2671.33 4986.88 2664.98 4990.95C2658.57 4995.67 2653.42 5001.91 2650 5009.11C2646.58 5016.3 2644.99 5024.23 2645.38 5032.19C2645.76 5040.14 2648.11 5047.88 2652.2 5054.71C2656.3 5061.55 2662.02 5067.26 2668.86 5071.34Z" fill="#FFBF9D"/>
<path d="M2797.6 4889.37C2803.12 4896.53 2811.47 4899.36 2816.25 4895.63C2821.02 4891.91 2820.12 4882.96 2814.46 4875.8C2808.79 4868.64 2800.44 4865.8 2795.81 4869.53C2791.19 4873.26 2791.93 4882.21 2797.6 4889.37Z" fill="#0D0D2B"/>
<path d="M2878.76 4824.79C2884.28 4831.95 2892.63 4834.78 2897.4 4831.05C2902.17 4827.32 2901.28 4818.52 2895.61 4811.21C2889.94 4803.91 2881.59 4801.22 2876.97 4805.1C2872.34 4808.98 2872.64 4817.78 2878.76 4824.79Z" fill="#0D0D2B"/>
<path d="M2855.3 4848.95C2880.76 4863.13 2908.07 4873.72 2936.44 4880.42C2932.86 4901.6 2906.61 4913.39 2906.61 4913.39L2855.3 4848.95Z" fill="#D58745"/>
<path d="M2765.55 4833.89C2764.72 4834.33 2764.03 4835 2763.55 4835.82C2763.08 4836.64 2762.84 4837.57 2762.87 4838.51C2762.99 4845.28 2761.51 4851.98 2758.55 4858.07C2755.6 4864.16 2751.25 4869.47 2745.87 4873.57C2744.71 4874.38 2743.9 4875.6 2743.6 4876.98C2743.3 4878.36 2743.52 4879.8 2744.23 4881.02C2744.6 4881.62 2745.1 4882.14 2745.68 4882.55C2746.26 4882.96 2746.92 4883.25 2747.61 4883.4C2748.31 4883.55 2749.02 4883.57 2749.72 4883.44C2750.42 4883.31 2751.09 4883.05 2751.68 4882.66C2758.64 4877.5 2764.24 4870.74 2768.03 4862.95C2771.82 4855.16 2773.69 4846.58 2773.46 4837.92C2773.46 4836.52 2772.92 4835.17 2771.94 4834.17C2770.97 4833.17 2769.64 4832.59 2768.24 4832.55C2767.23 4832.72 2766.3 4833.19 2765.55 4833.89Z" fill="#0D0D2B"/>
<path d="M2891.4 4766.47C2892.25 4765.84 2892.88 4764.95 2893.19 4763.93C2893.67 4762.61 2893.62 4761.14 2893.03 4759.86C2892.44 4758.57 2891.37 4757.57 2890.06 4757.07C2882.13 4753.98 2873.58 4752.88 2865.14 4753.84C2856.69 4754.8 2848.6 4757.8 2841.58 4762.59C2840.65 4763.5 2840.08 4764.72 2839.98 4766.02C2839.89 4767.32 2840.27 4768.62 2841.05 4769.66C2841.84 4770.7 2842.97 4771.42 2844.25 4771.68C2845.53 4771.95 2846.86 4771.74 2847.99 4771.09C2853.61 4767.38 2860.05 4765.08 2866.76 4764.41C2873.46 4763.73 2880.23 4764.7 2886.48 4767.21C2887.29 4767.51 2888.17 4767.59 2889.03 4767.46C2889.89 4767.33 2890.7 4766.99 2891.4 4766.47Z" fill="#0D0D2B"/>
<path d="M2906.21 5011.68C2909.12 5010.57 2911.96 5009.28 2914.71 5007.8L2922.02 4949.03C2922.02 4949.03 2918.44 4949.03 2912.92 4949.03C2894.42 4949.03 2853.26 4953.21 2842.22 4974.39C2841.01 4976.82 2840.06 4979.37 2839.39 4982C2836.6 4991.47 2837.29 5001.62 2841.32 5010.64C2848.04 5023.16 2865.94 5029.73 2906.21 5011.68Z" fill="black"/>
<path d="M2839.34 4981.85L2911.09 4955.9L2912.88 4948.89C2894.38 4948.89 2853.22 4953.06 2842.18 4974.25C2840.97 4976.68 2840.02 4979.23 2839.34 4981.85Z" fill="white"/>
<path d="M2906.21 5011.68C2893.68 4990.8 2860.27 5001.54 2841.33 5010.79C2848.04 5023.17 2865.94 5029.73 2906.21 5011.68Z" fill="#DE5753"/>
<path d="M2520.75 4915.33C2498.67 4898.32 2466.45 4852.53 2509.71 4804.8C2552.97 4757.07 2604.13 4733.5 2579.96 4698.9C2555.8 4664.29 2598.61 4634.91 2628.74 4657.43C2628.74 4657.43 2699.59 4541.54 2750 4630.59C2750 4630.59 2799.37 4596.58 2829.65 4633.12C2859.93 4669.66 2866.2 4708.74 2826.37 4722.62C2786.55 4736.49 2782.82 4740.81 2789.68 4763.93C2796.54 4787.05 2761.93 4806.14 2761.93 4806.14C2761.93 4806.14 2783.41 4792.42 2771.18 4776.31C2769.02 4786.52 2763.94 4795.88 2756.55 4803.24C2749.16 4810.6 2739.78 4815.66 2729.57 4817.78C2690.94 4829.86 2708.84 4867.45 2708.84 4867.45C2708.84 4867.45 2688.1 4875.5 2683.63 4845.97C2683.63 4845.97 2667.52 4911.9 2623.96 4928.3C2580.41 4944.71 2553.56 4940.83 2520.75 4915.33Z" fill="#0D0D2B"/>
<path opacity="0.3" d="M3084.14 5415.15C3076.98 5440.51 3070.27 5466.31 3064.01 5492.27C3063.94 5492.81 3063.94 5493.36 3064.01 5493.91L3013.74 5495.7L2978.99 5496.89C2951.39 5497.64 2923.5 5498.38 2895.16 5498.83H2884.87H2865.63H2846.98C2865.08 5464.83 2890.56 5435.32 2921.56 5412.47C2927.08 5408.28 2932.86 5404.44 2938.87 5400.98C2951.27 5394.17 2964.73 5389.48 2978.69 5387.11C3016.15 5382.34 3054 5392.4 3084.14 5415.15Z" fill="black"/>
<path d="M3184.21 5365.78C3183.46 5380.38 3178.88 5394.52 3170.93 5406.8C3151.99 5436.63 3132.75 5464.37 3112.61 5491.82L3063.69 5493.9L3013.42 5495.69L2978.67 5496.89C2951.08 5497.63 2923.18 5498.38 2894.84 5498.83C2896.48 5497.04 2897.83 5495.25 2899.32 5493.46C2926.17 5459.6 2952.87 5423.95 2978.67 5388C2985.98 5378.01 2993.59 5367.87 3000.15 5358.17C3010.44 5343.26 3020.28 5329.53 3029.98 5315.36L3031.02 5313.87C3041.61 5298.57 3056.97 5287.21 3074.7 5281.57C3092.44 5275.93 3111.54 5276.32 3129.02 5282.7C3135.74 5285.14 3142.11 5288.45 3147.96 5292.54C3159.75 5300.64 3169.27 5311.63 3175.61 5324.44C3181.96 5337.26 3184.92 5351.49 3184.21 5365.78Z" fill="#FFB573"/>
<path d="M3192.73 5366.23C3184.77 5410.69 3167.54 5452.97 3142.17 5490.33L3112.33 5491.82L3063.41 5493.91L3013.14 5495.7L2978.39 5496.89C2950.8 5497.64 2922.9 5498.38 2894.56 5498.83H2884.27H2865.03C2881.59 5473.77 2902.02 5442.45 2921.26 5412.77C2934.39 5392.18 2946.92 5372.49 2957.06 5355.79L2967.65 5338.34C2984.29 5309.59 3008.15 5285.68 3036.86 5268.98C3069.83 5250.26 3107.43 5241.27 3145.3 5243.03C3158.02 5251.28 3168.72 5262.3 3176.62 5275.24C3192.66 5302.68 3198.38 5334.95 3192.73 5366.23Z" fill="#407BFF"/>
<path d="M3192.73 5366.23C3184.77 5410.69 3167.54 5452.97 3142.17 5490.33L3112.33 5491.82L3063.41 5493.91L3013.14 5495.7L2978.39 5496.89C2950.8 5497.64 2922.9 5498.38 2894.56 5498.83H2884.27H2865.03C2881.59 5473.77 2902.02 5442.45 2921.26 5412.77C2934.39 5392.18 2946.92 5372.49 2957.06 5355.79L2967.65 5338.34C2984.29 5309.59 3008.15 5285.68 3036.86 5268.98C3069.83 5250.26 3107.43 5241.27 3145.3 5243.03C3158.02 5251.28 3168.72 5262.3 3176.62 5275.24C3192.66 5302.68 3198.38 5334.95 3192.73 5366.23Z" fill="#BB0163"/>
</svg>
