<?xml version="1.0" standalone="yes"?>
<svg xmlns="http://www.w3.org/2000/svg" xmlns:xlink="http://www.w3.org/1999/xlink" xmlns:svg="http://www.w3.org/2000/svg" xmlns:dc="http://purl.org/dc/elements/1.1/" xmlns:cc="http://web.resource.org/cc/" xmlns:rdf="http://www.w3.org/1999/02/22-rdf-syntax-ns#" width="190" height="156">
<path style="fill:#ffffff; stroke:none;" d="M0 0L0 156L190 156L190 0L0 0z"/>
<path style="fill:#a4a3a0; stroke:none;" d="M54.6667 7.33333L55.3333 7.66667L54.6667 7.33333z"/>
<path style="fill:#773d07; stroke:none;" d="M44 59L41 49L49 52C48.6602 46.9585 49.4839 36.3 54.1481 33.3025C60.8926 28.9681 74.1109 29.6725 76.4421 19.9961C78.9747 9.48416 63.3072 5.98225 56 7.51775C46.3641 9.54259 36.2891 14.0094 31.2785 23C24.608 34.9691 30.8308 54.7921 44 59z"/>
<path style="fill:#806f57; stroke:none;" d="M64 7L64 8L67 8L64 7M51.6667 8.33333L52.3333 8.66667L51.6667 8.33333M48.6667 9.33333L49.3333 9.66667L48.6667 9.33333z"/>
<path style="fill:#7d7f7d; stroke:none;" d="M163 12L163 13L167 13L163 12z"/>
<path style="fill:#989791; stroke:none;" d="M40 13L41 14L40 13z"/>
<path style="fill:#bdbdb9; stroke:none;" d="M158.667 13.3333L159.333 13.6667L158.667 13.3333z"/>
<path style="fill:#3f4f4e; stroke:none;" d="M151 30C155.575 27.8651 163.281 24.5593 168 27C176.696 10.6142 150.174 9.56728 147.452 19.1296C146.383 22.8876 149.271 26.8919 151 30z"/>
<path style="fill:#7d7f7d; stroke:none;" d="M155.667 14.3333L156.333 14.6667L155.667 14.3333z"/>
<path style="fill:#a4a3a0; stroke:none;" d="M150.667 15.3333L151.333 15.6667L150.667 15.3333M36 16L37 17L36 16z"/>
<path style="fill:#e9ebe3; stroke:none;" d="M121 20C112.453 14.6298 99.7022 16 90 16C86.7851 16 81.3076 14.9907 78.564 17.0278C73.6824 20.6523 78.5979 34.5654 84.108 35.0988C97.6611 36.4107 108.287 21.7133 121 20z"/>
<path style="fill:#989791; stroke:none;" d="M35 17L36 18L35 17M147 17L148 18L147 17z"/>
<path style="fill:#a4a3a0; stroke:none;" d="M34 18L35 19L34 18z"/>
<path style="fill:#989791; stroke:none;" d="M144.667 18.3333L145.333 18.6667L144.667 18.3333z"/>
<path style="fill:#617774; stroke:none;" d="M146 18C138.517 20.3671 123.216 26.6002 116 23L103 28L104 31L118 28L119 34L148 28L146 18z"/>
<path style="fill:#363f3b; stroke:none;" d="M108 26L124 23L123 19C118.102 20.0239 109.811 20.8461 108 26z"/>
<path style="fill:#5d6968; stroke:none;" d="M123.333 19.6667L123.667 20.3333L123.333 19.6667z"/>
<path style="fill:#7d7f7d; stroke:none;" d="M113.667 21.3333L114.333 21.6667L113.667 21.3333z"/>
<path style="fill:#989791; stroke:none;" d="M31 22L32 23L31 22z"/>
<path style="fill:#806f57; stroke:none;" d="M75.3333 22.6667L75.6667 23.3333L75.3333 22.6667z"/>
<path style="fill:#989791; stroke:none;" d="M127.667 22.3333L128.333 22.6667L127.667 22.3333z"/>
<path style="fill:#a9b3b5; stroke:none;" d="M108 26L108 27L116 23L108 26z"/>
<path style="fill:#bdbdb9; stroke:none;" d="M117 24L117 25L125 24L117 24z"/>
<path style="fill:#2c3838; stroke:none;" d="M169 23L169 27L168 27C164.703 23.5888 154.606 27.7908 151 30L149 24L148 24C148.74 37.3973 171.691 29.9576 169 23z"/>
<path style="fill:#c3cdcf; stroke:none;" d="M170 23L170 27L171 27L170 23z"/>
<path style="fill:#feb164; stroke:none;" d="M52 35C58.7683 34.1402 67.966 33.1584 72 27L74 28L76 24L52 35z"/>
<path style="fill:#a8856a; stroke:none;" d="M76 24L77 28L78 28L76 24z"/>
<path style="fill:#ffcb9a; stroke:none;" d="M75 25L74 28L72 27C66.6075 32.45 59.2421 33.6355 52 35L48 48C52.5037 47.3935 58.6939 46.7111 62.7014 44.4869C67.8387 41.6357 67.1078 38.0716 74 40C70.6798 50.0858 58.8772 47.0845 49 49L49 53L41 49L44 60L50 58C53.8139 67.8097 62.9655 67 72 67L71 64C77.6684 63.4868 80.0793 58.1034 81 52L75 53L75 52L81 49L76 44L82 48C81.258 43.478 78.2985 41.2399 74 40L74 39C79.3492 35.3101 79.3371 29.489 75 25z"/>
<path style="fill:#806f57; stroke:none;" d="M29.3333 26.6667L29.6667 27.3333L29.3333 26.6667z"/>
<path style="fill:#a4a3a0; stroke:none;" d="M106.667 27.3333L107.333 27.6667L106.667 27.3333z"/>
<path style="fill:#9d8e7f; stroke:none;" d="M78 28L74 39L74 40L80 43C78.2689 39.3726 77.9508 37.7726 81 35L78 28z"/>
<path style="fill:#3f4f4e; stroke:none;" d="M105 30L105 31L107 32C101.654 36.7692 110.901 40.0521 115 39.6505C125.584 38.6132 138.784 34.2453 149 31L149 29C140.753 26.5859 126.831 30.6738 119 34L118 28L105 30z"/>
<path style="fill:#989791; stroke:none;" d="M168.667 28.3333L169.333 28.6667L168.667 28.3333z"/>
<path style="fill:#9d8e7f; stroke:none;" d="M28 29L28 37L29 37L28 29z"/>
<path style="fill:#799293; stroke:none;" d="M98.6667 29.3333L99.3333 29.6667L98.6667 29.3333z"/>
<path style="fill:#3f4f4e; stroke:none;" d="M102 29C93.2483 32.5181 104.47 42.5213 102 29z"/>
<path style="fill:#2c3838; stroke:none;" d="M102 29C102.406 32.5257 103.355 36.3512 99 37C100.849 42.5543 107.216 40.0396 112 40L112 39C107.944 38.3666 104.262 36.1881 107 32L107 31L102 29z"/>
<path style="fill:#a9b3b5; stroke:none;" d="M164.667 29.3333L165.333 29.6667L164.667 29.3333z"/>
<path style="fill:#a8856a; stroke:none;" d="M97 30L90 33L91 39L92 39L92 34L93 34L93 38L96 38L97 38L97 30z"/>
<path style="fill:#617774; stroke:none;" d="M158.667 30.3333L159.333 30.6667L158.667 30.3333z"/>
<path style="fill:#989791; stroke:none;" d="M147 31L147 32L151 32L147 31M154.667 31.3333L155.333 31.6667L154.667 31.3333z"/>
<path style="fill:#a9b3b5; stroke:none;" d="M144.667 32.3333L145.333 32.6667L144.667 32.3333z"/>
<path style="fill:#e9ebe3; stroke:none;" d="M118 39L113.403 52.9506L118.478 62.0185L135 120C170.152 117.47 190.551 70.1317 167.561 44.0394C163.915 39.9012 158.421 34.1156 153 32.5147C143.524 29.7162 126.88 35.5805 118 39z"/>
<path style="fill:#835432; stroke:none;" d="M51 34L51 42L52 42L51 34z"/>
<path style="fill:#617774; stroke:none;" d="M79 42C84.4367 41.2211 88.4648 39.5639 90 34C84.4229 35.1511 79.5046 35.5186 79 42z"/>
<path style="fill:#ffcb9a; stroke:none;" d="M92 34L92 39L91 39L91 35L90 35L93 48C98.4444 44.3278 99.1046 40.2275 98 34L97 34L97 38L96 38L95 36L93 38L92 34z"/>
<path style="fill:#9ba5aa; stroke:none;" d="M134.667 34.3333L135.333 34.6667L134.667 34.3333z"/>
<path style="fill:#accdfc; stroke:none;" d="M78 41L79 41L83 36C79.0258 34.7363 77.458 37.2916 78 41z"/>
<path style="fill:#a4a3a0; stroke:none;" d="M129.667 35.3333L130.333 35.6667L129.667 35.3333z"/>
<path style="fill:#e9ebe3; stroke:none;" d="M32 111C32 94.4371 34.655 80.2604 41 65L49 71L55 72L46 62L45 62L43 64L45 60C34.7809 53.7156 32.1286 46.7673 28 36C-2.26755 49.6027 2.51258 99.5793 32 111z"/>
<path style="fill:#cdaa87; stroke:none;" d="M89 36L89 40L90 40L89 36z"/>
<path style="fill:#7d7f7d; stroke:none;" d="M74 40C72.8264 39.5162 71.312 38.6258 69.9745 38.6127C58.9932 38.505 69.0308 54.2616 72.7724 44.8765C73.3716 43.3734 73.6074 41.5656 74 40z"/>
<path style="fill:#989791; stroke:none;" d="M118.667 38.3333L119.333 38.6667L118.667 38.3333z"/>
<path style="fill:#d0e3ea; stroke:none;" d="M69 47L71 40C66.1799 39.9223 65.0079 44.3998 69 47z"/>
<path style="fill:#3f4f4e; stroke:none;" d="M80 41L81 44L90 42L89 39L80 41z"/>
<path style="fill:#7d7f7d; stroke:none;" d="M117 39L104 40L104 41L111 44L112 44C114.619 42.2897 116.464 43.5665 118 46L119 46L117 39z"/>
<path style="fill:#feb164; stroke:none;" d="M99 40C96.9404 44.416 92.9287 47.8417 97 52C98.6755 47.6883 102.185 44.2477 99 40z"/>
<path style="fill:#accdfc; stroke:none;" d="M70 41L69 47L72 41L70 41z"/>
<path style="fill:#c99561; stroke:none;" d="M90 41L90 45L94 46L90 41z"/>
<path style="fill:#a8856a; stroke:none;" d="M101 41L101 45L102 45L101 41z"/>
<path style="fill:#e9ebe3; stroke:none;" d="M102 41L101 53L102 53L111 41L102 41z"/>
<path style="fill:#ffffff; stroke:none;" d="M83 43L79 65L69 71L83 65C77.3264 74.7265 66.2547 76.9898 56.0008 73.3002C51.4231 71.653 45.3614 62.7687 40.9691 68.1883C31.3943 80.0026 33.8364 101.925 34.0039 116C34.0527 120.108 33.6011 128.962 36.0278 132.351C39.3109 136.936 54.5754 138.22 57.3966 132.57C60.144 127.068 58 116.109 58 110L47 113L47 112C56.1592 111.308 60.8433 98.1006 55.9722 90.3897C53.6753 86.7536 48.7587 84.5522 46 81C69.3068 90.5594 93.9807 80.8153 98 54L93 49L91 52L90 52L91 47L90 47L86 56L85 56L91 43L83 43z"/>
<path style="fill:#51676d; stroke:none;" d="M112 42C112.124 47.1063 111.469 49.5763 106 50L106 51L113 54L118 47L118 43L114 45L112 42z"/>
<path style="fill:#c3cdcf; stroke:none;" d="M114 43L114 45L116 45L116 43L114 43z"/>
<path style="fill:#a8856a; stroke:none;" d="M76 44L81 49L75 52L75 53C82.8869 52.3983 81.5339 47.5804 76 44z"/>
<path style="fill:#9d8e7f; stroke:none;" d="M82 44L77 66L78 66C80.2841 59.2549 84.9936 51.1501 82 44z"/>
<path style="fill:#799293; stroke:none;" d="M101 51L100 51L98 55L99 63L95 67L99 67L98 64L118 66L119 66L117 63C117.15 53.7053 105.542 63.8719 103.346 56.7716C101.479 50.7362 112.922 51.0412 112 44L101 51z"/>
<path style="fill:#a8856a; stroke:none;" d="M49 48L49 49L65 46L49 48z"/>
<path style="fill:#9d8e7f; stroke:none;" d="M89 48L93 48C91.4198 45.8541 90.5377 45.8296 89 48z"/>
<path style="fill:#a8856a; stroke:none;" d="M99 46L97 52L94 50L98 54L99 49L100 51L101 51L99 46z"/>
<path style="fill:#bdbdb9; stroke:none;" d="M88 48L87 53L88 53L90 48L88 48z"/>
<path style="fill:#a9b3b5; stroke:none;" d="M91 48L90 52L91 52L93 48L91 48z"/>
<path style="fill:#a8856a; stroke:none;" d="M93.3333 48.6667L93.6667 49.3333L93.3333 48.6667z"/>
<path style="fill:#e9ebe3; stroke:none;" d="M99 49L98 54L99 49z"/>
<path style="fill:#c3cdcf; stroke:none;" d="M114 54C112.773 53.3258 111.329 52.3036 109.955 51.909C96.8404 48.1408 107.616 69.5765 114 54z"/>
<path style="fill:#b18456; stroke:none;" d="M43 52L46 54L43 52z"/>
<path style="fill:#c99561; stroke:none;" d="M47.6667 52.3333L48.3333 52.6667L47.6667 52.3333z"/>
<path style="fill:#989791; stroke:none;" d="M86 52L85 56L86 56L86 52M89.3333 52.6667L89.6667 53.3333L89.3333 52.6667z"/>
<path style="fill:#5d6968; stroke:none;" d="M105 58L110 58C109.168 53.0084 105.832 53.0084 105 58z"/>
<path style="fill:#cdaa87; stroke:none;" d="M70 54L71 57L79 56L70 54z"/>
<path style="fill:#c3cdcf; stroke:none;" d="M88 54L85 62L86 62L90 54L88 54z"/>
<path style="fill:#bdbdb9; stroke:none;" d="M72 55L72 56L77 57L77 55L72 55z"/>
<path style="fill:#e9ebe3; stroke:none;" d="M98 55C94.6523 64.8316 89.4737 79.0843 80 84L80 83L85 79L58 85L58 86L80 84L80 85C70.1944 88.0101 73.0254 113.81 73 123L72 123L72 120L71 120L71 130L72 130L73 127L84 130L85 130C86.274 114.402 92.0781 98.1815 95.8735 83C97.1808 77.7705 101.195 69.7613 96 66L94 71L93 71C95.0305 66.2878 101.019 59.9315 98 55z"/>
<path style="fill:#799293; stroke:none;" d="M106 55L106 57L109 57L109 55L106 55z"/>
<path style="fill:#835432; stroke:none;" d="M72 56L74 59L72 56z"/>
<path style="fill:#e91b2d; stroke:none;" d="M77 56L74 59C76.348 58.7058 77.951 58.5066 77 56z"/>
<path style="fill:#bdbdb9; stroke:none;" d="M84 56L83 59L84 56z"/>
<path style="fill:#617774; stroke:none;" d="M112 59L118 60C116.26 57.1781 114.166 56.0571 112 59z"/>
<path style="fill:#b18456; stroke:none;" d="M49 58L43 64C48.1177 61.5699 50.251 63.8582 55 66L49 58z"/>
<path style="fill:#a8856a; stroke:none;" d="M74 59L74 60L77 60L74 59z"/>
<path style="fill:#a9b3b5; stroke:none;" d="M82 59L81 62L82 59z"/>
<path style="fill:#5d6968; stroke:none;" d="M118 60L117 63L118 60z"/>
<path style="fill:#d0e3ea; stroke:none;" d="M46 61L46 62L52 65L46 61z"/>
<path style="fill:#3f4f4e; stroke:none;" d="M98.3333 61.6667L98.6667 62.3333L98.3333 61.6667z"/>
<path style="fill:#a9b3b5; stroke:none;" d="M46 62L50 65L46 62z"/>
<path style="fill:#bdbdb9; stroke:none;" d="M84 62L83 65L84 62z"/>
<path style="fill:#b18456; stroke:none;" d="M76 63L71 64L72 67L60 68L60 69L62 75L64 69C67.7241 68.9874 73.4118 69.4451 74 65L77 66L76 63z"/>
<path style="fill:#bdbdb9; stroke:none;" d="M98 64C101.809 70.6877 114.127 70.6355 118 64C110.715 66.3092 105.295 65.93 98 64z"/>
<path style="fill:#51676d; stroke:none;" d="M100 64L100 65L116 65L116 64L100 64z"/>
<path style="fill:#a4a3a0; stroke:none;" d="M41 65C35.7133 74.0922 33.087 84.4945 33 95L34 95L41 65z"/>
<path style="fill:#9ba5aa; stroke:none;" d="M50 65L55 72L50 70L50 71C53.2223 72.8413 60.8422 77.3753 62 72L61 72L60 74L59 74L55 66L50 65z"/>
<path style="fill:#3f4f4e; stroke:none;" d="M74.6667 65.3333L75.3333 65.6667L74.6667 65.3333z"/>
<path style="fill:#9ba5aa; stroke:none;" d="M82 65L80 69L82 65z"/>
<path style="fill:#806f57; stroke:none;" d="M55 66L55 67L59 72L60 72L61 72L55 66z"/>
<path style="fill:#feb164; stroke:none;" d="M57 66L57 67L69 68L69 67L57 66z"/>
<path style="fill:#3f4f4e; stroke:none;" d="M117 66C109.098 71.4482 115.827 81.4813 118.333 89C125.157 109.472 134.134 129.966 139 151L144 151L116 68L117 66z"/>
<path style="fill:#e9ebe3; stroke:none;" d="M54 67L60 71L54 67z"/>
<path style="fill:#9ba5aa; stroke:none;" d="M94 67L93 71L94 71L96 67L94 67z"/>
<path style="fill:#617774; stroke:none;" d="M99 67L80 152C85.6887 148.355 85.625 137.137 87.294 131C92.8587 110.536 96.9239 89.6045 102 69L101 67L99 67z"/>
<path style="fill:#d0e3ea; stroke:none;" d="M69 69L68 69L68 73L64 73L64 74C69.5481 73.7581 76.9416 72.9529 81 69L69 69z"/>
<path style="fill:#3f4f4e; stroke:none;" d="M100 68L100 69C103.353 74.0381 97.7995 86.4947 96.294 92C90.8732 111.822 87.1627 132.096 82 152L86 152L105 70L106 70L106 99L107 99L107 94L108 94L107 148L111 148L111 69L100 68z"/>
<path style="fill:#7d7f7d; stroke:none;" d="M110 68L111 70L112 70L113 68L110 68M116 68L131 115L132 115C133.536 104.027 126.122 90.366 122.667 80C121.124 75.3709 120.268 70.7448 116 68z"/>
<path style="fill:#feb164; stroke:none;" d="M60 69L62 74L63 74L60 69z"/>
<path style="fill:#9ba5aa; stroke:none;" d="M64 69L64 70L67 70L67 71L64 73L68 73L68 69L64 69z"/>
<path style="fill:#ffffff; stroke:none;" d="M64 70L64 71L67 71L64 70z"/>
<path style="fill:#bdbdb9; stroke:none;" d="M105 70L105 83L106 83L105 70z"/>
<path style="fill:#e9ebe3; stroke:none;" d="M111 70L112 127L128 124C129.293 111.694 121.54 97.6212 117.667 86C115.868 80.603 114.611 74.4743 111 70z"/>
<path style="fill:#9ba5aa; stroke:none;" d="M64 74L64 75L78 72L64 74z"/>
<path style="fill:#d0e3ea; stroke:none;" d="M59 72L59 74L61 74L61 72L59 72z"/>
<path style="fill:#9ba5aa; stroke:none;" d="M91 72L90 75L91 72z"/>
<path style="fill:#e9ebe3; stroke:none;" d="M104 74L92 127L106 128C106 112.15 110.207 88.7579 104 74z"/>
<path style="fill:#a9b3b5; stroke:none;" d="M89 75L80 83L80 84C84.0717 82.6157 89.1001 79.7296 89 75M103.333 76.6667L103.667 77.3333L103.333 76.6667z"/>
<path style="fill:#989791; stroke:none;" d="M102.333 80.6667L102.667 81.3333L102.333 80.6667z"/>
<path style="fill:#a9b3b5; stroke:none;" d="M46 81C48.9989 85.3816 55.9437 86.5585 61 87L61 111L62 111L62 87L73 87L73 91L74 91L80 85L80 84C66.4737 85.8214 59.0219 84.7226 46 81z"/>
<path style="fill:#d0e3ea; stroke:none;" d="M49 84C50.7529 87.092 54.2147 88.2163 55.9722 91.213C58.8865 96.1819 56.5621 103.994 55 109L58 108L58 134C62.1448 131.011 61 125.687 61 121L61 87L49 84z"/>
<path style="fill:#51676d; stroke:none;" d="M62 87L62 102L63 102L63 88L64 88L64 102L65 102L65 87L62 87z"/>
<path style="fill:#e9ebe3; stroke:none;" d="M72 107L73 87C66.5406 89.5966 67.6765 102.766 72 107z"/>
<path style="fill:#6b9fbd; stroke:none;" d="M63 88L63 102L64 102L63 88z"/>
<path style="fill:#c3cdcf; stroke:none;" d="M65 88L65 120L67 132L65 88z"/>
<path style="fill:#d0e3ea; stroke:none;" d="M66 88L66 131L68 131C68 123.005 66.4347 113.917 71 107L71 106L69 88L66 88z"/>
<path style="fill:#a9b3b5; stroke:none;" d="M100.333 89.6667L100.667 90.3333L100.333 89.6667z"/>
<path style="fill:#989791; stroke:none;" d="M73 91L73 100L74 100L73 91z"/>
<path style="fill:#a4a3a0; stroke:none;" d="M99.3333 93.6667L99.6667 94.3333L99.3333 93.6667z"/>
<path style="fill:#2c3838; stroke:none;" d="M107 94L107 147L108 147L108 111L107 94z"/>
<path style="fill:#bdbdb9; stroke:none;" d="M33 95L33 128L35 128L33 95z"/>
<path style="fill:#c3cdcf; stroke:none;" d="M72 96L70 107L70 108L73 115L74 115L72 96z"/>
<path style="fill:#7d7f7d; stroke:none;" d="M106 99L106 107L107 107L106 99z"/>
<path style="fill:#9ba5aa; stroke:none;" d="M91.3333 100.667L91.6667 101.333L91.3333 100.667z"/>
<path style="fill:#363f3b; stroke:none;" d="M62 102L62 133L63 133L63 104L64 104L64 133L65 133L65 102L62 102z"/>
<path style="fill:#a9b3b5; stroke:none;" d="M97.3333 102.667L97.6667 103.333L97.3333 102.667z"/>
<path style="fill:#38525a; stroke:none;" d="M63 104L63 133L56 134L57 138L67 135L63 145C58.7395 143.486 55.523 142.697 53 147L51 147L50 143L41 150L41 139L53 139L53 136L39 135L40 152C46.4477 152.004 61.4506 157.923 63 149C66.786 149.163 72.1382 151.046 75.6821 149.257C79.4048 147.378 77.5004 141.629 73.956 140.751C71.1516 140.056 68.3411 142.838 66 144L68 132L64 133L63 104z"/>
<path style="fill:#9ba5aa; stroke:none;" d="M90.3333 104.667L90.6667 105.333L90.3333 104.667z"/>
<path style="fill:#989791; stroke:none;" d="M111 104L111 122L112 122L111 104z"/>
<path style="fill:#a4a3a0; stroke:none;" d="M96.3333 106.667L96.6667 107.333L96.3333 106.667M106 107L106 128L107 128L106 107M47 112L47 113C51.905 112.881 54.8993 111.912 58 108L47 112z"/>
<path style="fill:#ffffff; stroke:none;" d="M69 108L68 131L71 130L69 139L81 145L84 128L73 127L72 130L71 130L72 108L69 108z"/>
<path style="fill:#799293; stroke:none;" d="M61 111L61 133L62 133L61 111z"/>
<path style="fill:#5d6968; stroke:none;" d="M132 112C132.194 121.369 137.07 144.461 145 150C143.385 139.063 138.627 120.859 132 112z"/>
<path style="fill:#989791; stroke:none;" d="M72 114L72 123L73 123L72 114z"/>
<path style="fill:#7d7f7d; stroke:none;" d="M93.3333 118.667L93.6667 119.333L93.3333 118.667z"/>
<path style="fill:#ffffff; stroke:none;" d="M128 120L128 124L112 127L112 144L137 145C135.887 137.462 133.07 125.752 128 120z"/>
<path style="fill:#7d7f7d; stroke:none;" d="M111 122L111 148L112 148L111 122z"/>
<path style="fill:#a9b3b5; stroke:none;" d="M92.3333 123.667L92.6667 124.333L92.3333 123.667z"/>
<path style="fill:#a4a3a0; stroke:none;" d="M85 125L85 128L86 128L85 125z"/>
<path style="fill:#ffffff; stroke:none;" d="M92 127L88 147L89 147L89 144L106 144L106 128L92 127z"/>
<path style="fill:#989791; stroke:none;" d="M34 128L34 132L35 132L34 128z"/>
<path style="fill:#c3cdcf; stroke:none;" d="M106 128L106 148L107 148L106 128z"/>
<path style="fill:#989791; stroke:none;" d="M67 131L67 132L71 131L67 131z"/>
<path style="fill:#bdbdb9; stroke:none;" d="M34 132L39 136L34 132z"/>
<path style="fill:#c3cdcf; stroke:none;" d="M68 132L68 139L69 139L68 132z"/>
<path style="fill:#799293; stroke:none;" d="M52 135L53 142L54 142L56 136L52 135z"/>
<path style="fill:#46768b; stroke:none;" d="M57 136L56 136L56 143L63 145L67 135L57 136z"/>
<path style="fill:#e9ebe3; stroke:none;" d="M39 136L39 146L21 148C23.5344 155.661 43.0613 153.999 50 154L50 153C36.7039 152.88 42.6691 144.744 39 136z"/>
<path style="fill:#ffffff; stroke:none;" d="M54 136L54 142L56 142L56 136L54 136z"/>
<path style="fill:#c3cdcf; stroke:none;" d="M89.3333 136.667L89.6667 137.333L89.3333 136.667z"/>
<path style="fill:#9ba5aa; stroke:none;" d="M82.3333 138.667L82.6667 139.333L82.3333 138.667z"/>
<path style="fill:#46768b; stroke:none;" d="M41 139L41 150C45.7887 148.628 51.3901 143.776 53 139L41 139z"/>
<path style="fill:#d0e3ea; stroke:none;" d="M66 144L73 140C69.3801 138.862 67.5844 140.855 66 144z"/>
<path style="fill:#bdbdb9; stroke:none;" d="M88.3333 140.667L88.6667 141.333L88.3333 140.667z"/>
<path style="fill:#2c3838; stroke:none;" d="M50 145L54 142L50 145z"/>
<path style="fill:#d0e3ea; stroke:none;" d="M51 147L56 142L51 147z"/>
<path style="fill:#a4a3a0; stroke:none;" d="M81.3333 142.667L81.6667 143.333L81.3333 142.667z"/>
<path style="fill:#e9ebe3; stroke:none;" d="M78 144L79 149L64 149C61.9383 152.929 59.3163 153.764 55 154L55 155C89.6524 155 123.644 155.437 158 151C156.5 145.872 148.6 146.546 144 146C143.836 149.642 142.526 150.436 139 151L138 145L112 144L112 148L106 148L106 144L87 146C85.0769 158.28 80.9744 146.048 78 144z"/>
<path style="fill:#989791; stroke:none;" d="M87.3333 144.667L87.6667 145.333L87.3333 144.667z"/>
<path style="fill:#bdbdb9; stroke:none;" d="M78 145L78 149L79 149L78 145z"/>
<path style="fill:#7d7f7d; stroke:none;" d="M86 148L86 151L87 151L86 148z"/>
<path style="fill:#799293; stroke:none;" d="M63 149L63 152L64 152L63 149M66 149L66 150L69 150L66 149z"/>
<path style="fill:#5d6968; stroke:none;" d="M42 152L42 153L50 153L42 152z"/>
<path style="fill:#7d7f7d; stroke:none;" d="M82 152L82 153L85 153L82 152z"/>
<path style="fill:#bdbdb9; stroke:none;" d="M50 153L50 154L53 154L50 153z"/>
</svg>
