<svg width="41" height="41" viewBox="0 0 41 41" fill="none" xmlns="http://www.w3.org/2000/svg">
<path fill-rule="evenodd" clip-rule="evenodd" d="M17.1977 5.46094C10.6553 5.46094 5.35156 10.7646 5.35156 17.3071C5.35156 23.8495 10.6553 29.1532 17.1977 29.1532C19.8586 29.1532 22.3146 28.2759 24.2922 26.7948L31.232 33.7346C31.8929 34.3955 32.9644 34.3955 33.6253 33.7346C34.2861 33.0737 34.2861 32.0022 33.6253 31.3413L26.6854 24.4015C28.1666 22.4239 29.0439 19.968 29.0439 17.3071C29.0439 10.7646 23.7402 5.46094 17.1977 5.46094ZM8.73618 17.3071C8.73618 12.6339 12.5245 8.84555 17.1977 8.84555C21.8709 8.84555 25.6593 12.6339 25.6593 17.3071C25.6593 21.9803 21.8709 25.7686 17.1977 25.7686C12.5245 25.7686 8.73618 21.9803 8.73618 17.3071Z" fill="white"/>
</svg>
