<svg width="2899" height="2414" viewBox="0 0 2899 2414" fill="none" xmlns="http://www.w3.org/2000/svg">
<rect x="1377" y="1067" width="1336" height="1116" rx="7" fill="#0D0D2B"/>
<rect x="185" y="1316" width="1335" height="868" rx="7" fill="#0D0D2B"/>
<ellipse cx="1449.2" cy="1206.72" rx="1276.13" ry="960.374" transform="rotate(-12.1099 1449.2 1206.72)" fill="#0D0D2B"/>
<path d="M2062.17 844.442C2069.9 871.726 2059.56 903.717 2032.06 938.784C2004.64 973.745 1960.81 1010.87 1903.67 1047.89C1789.46 1121.89 1623.06 1194.86 1431.58 1249.1C1240.09 1303.33 1060.15 1328.45 924.086 1325.33C856.024 1323.77 799.239 1315.14 757.556 1299.75C715.747 1284.32 690.171 1262.5 682.443 1235.21C674.715 1207.93 685.051 1175.94 712.557 1140.87C739.979 1105.91 783.809 1068.79 840.943 1031.77C955.159 957.763 1121.55 884.792 1313.04 830.559C1504.52 776.325 1684.47 751.205 1820.53 754.327C1888.59 755.889 1945.38 764.513 1987.06 779.902C2028.87 795.337 2054.44 817.157 2062.17 844.442Z" stroke="#FF78BF" stroke-width="10"/>
</svg>
